<?xml version="1.0" encoding="UTF-8"?>
<svg xmlns="http://www.w3.org/2000/svg" xmlns:xlink="http://www.w3.org/1999/xlink" width="375pt" height="374.999991pt" viewBox="0 0 375 374.999991" version="1.2">
<defs>
<clipPath id="clip1">
  <path d="M 6.105469 6.105469 L 369.105469 6.105469 L 369.105469 369.105469 L 6.105469 369.105469 Z M 6.105469 6.105469 "/>
</clipPath>
</defs>
<g id="surface1">
<g clip-path="url(#clip1)" clip-rule="nonzero">
<path style=" stroke:none;fill-rule:nonzero;fill:rgb(0%,0%,0%);fill-opacity:1;" d="M 301.222656 34.046875 C 323.367188 34.046875 341.386719 52.066406 341.386719 74.210938 L 341.386719 301.222656 C 341.386719 323.367188 323.367188 341.386719 301.222656 341.386719 L 74.210938 341.386719 C 52.066406 341.386719 34.046875 323.367188 34.046875 301.222656 L 34.046875 74.210938 C 34.046875 52.066406 52.066406 34.046875 74.210938 34.046875 L 301.222656 34.046875 M 301.222656 6.105469 L 74.210938 6.105469 C 36.589844 6.105469 6.105469 36.589844 6.105469 74.210938 L 6.105469 301.222656 C 6.105469 338.847656 36.589844 369.328125 74.210938 369.328125 L 301.222656 369.328125 C 338.847656 369.328125 369.328125 338.847656 369.328125 301.222656 L 369.328125 74.210938 C 369.328125 36.589844 338.847656 6.105469 301.222656 6.105469 Z M 301.222656 6.105469 "/>
</g>
<path style=" stroke:none;fill-rule:nonzero;fill:rgb(0%,0%,0%);fill-opacity:1;" d="M 187.71875 117.867188 L 187.71875 187.71875 L 257.566406 187.71875 L 187.71875 187.71875 L 187.71875 257.566406 L 187.71875 117.867188 M 215.65625 89.925781 L 159.777344 89.925781 L 159.777344 159.777344 L 89.925781 159.777344 L 89.925781 215.65625 L 159.777344 215.65625 L 159.777344 285.507812 L 215.65625 285.507812 L 215.65625 215.65625 L 285.507812 215.65625 L 285.507812 159.777344 L 215.65625 159.777344 Z M 215.65625 89.925781 "/>
</g>
</svg>
