<?xml version="1.0" encoding="UTF-8"?>
<svg xmlns="http://www.w3.org/2000/svg" xmlns:xlink="http://www.w3.org/1999/xlink" width="375pt" height="374.999991pt" viewBox="0 0 375 374.999991" version="1.2">
<defs>
<clipPath id="clip1">
  <path d="M 54 20 L 320.894531 20 L 320.894531 364.371094 L 54 364.371094 Z M 54 20 "/>
</clipPath>
</defs>
<g id="surface1">
<g clip-path="url(#clip1)" clip-rule="nonzero">
<path style=" stroke:none;fill-rule:nonzero;fill:rgb(13.729858%,12.159729%,12.548828%);fill-opacity:1;" d="M 234.5625 364.550781 L 140.097656 364.550781 C 134.988281 364.550781 130.84375 360.394531 130.84375 355.261719 L 130.84375 162.765625 L 63.890625 162.765625 C 60.144531 162.765625 56.769531 160.503906 55.34375 157.03125 C 53.90625 153.558594 54.699219 149.566406 57.347656 146.910156 L 180.785156 23.03125 C 184.402344 19.402344 190.257812 19.40625 193.875 23.03125 L 317.316406 146.914062 C 319.960938 149.570312 320.753906 153.5625 319.320312 157.039062 C 317.890625 160.507812 314.515625 162.769531 310.773438 162.769531 L 243.816406 162.769531 L 243.816406 355.269531 C 243.816406 360.394531 239.671875 364.550781 234.5625 364.550781 Z M 234.5625 364.550781 "/>
</g>
</g>
</svg>
