<?xml version="1.0" encoding="UTF-8"?>
<svg xmlns="http://www.w3.org/2000/svg" xmlns:xlink="http://www.w3.org/1999/xlink" width="768pt" height="767.999994pt" viewBox="0 0 768 767.999994" version="1.2">
<defs>
<clipPath id="clip1">
  <path d="M 18 129 L 754 129 L 754 707.777344 L 18 707.777344 Z M 18 129 "/>
</clipPath>
</defs>
<g id="surface1">
<path style=" stroke:none;fill-rule:nonzero;fill:rgb(93.728638%,28.239441%,13.729858%);fill-opacity:1;" d="M 454.683594 162.082031 C 450.925781 150.832031 442.429688 140.4375 430.917969 137.785156 C 426.855469 136.855469 422.632812 136.917969 418.507812 137.417969 C 415.070312 137.835938 411.652344 138.574219 408.570312 140.148438 C 402.308594 143.328125 398.148438 149.707031 396.109375 156.457031 C 394.070312 163.191406 393.910156 170.355469 393.863281 177.394531 C 393.8125 185.589844 393.894531 193.769531 394.117188 201.964844 L 458.148438 201.964844 C 458.359375 190.089844 458.4375 173.328125 454.683594 162.082031 Z M 454.683594 162.082031 "/>
<path style=" stroke:none;fill-rule:nonzero;fill:rgb(83.918762%,89.7995%,89.7995%);fill-opacity:1;" d="M 739.226562 440.953125 C 735.917969 420.949219 735.132812 385.164062 716.507812 377.191406 C 697.882812 369.207031 676.496094 369.140625 658.222656 360.386719 C 634.332031 348.945312 619.609375 324.777344 606.234375 301.878906 C 593.679688 280.378906 581.121094 258.878906 568.550781 237.363281 C 563.492188 228.71875 558.097656 219.703125 549.507812 214.578125 C 541.65625 209.886719 532.183594 209.050781 523.066406 208.375 C 454.25 203.3125 327.019531 202.253906 258.027344 203.167969 C 226.71875 201.496094 153.136719 203.441406 121.96875 206.929688 C 113.75 207.84375 105.335938 209.019531 98.046875 212.9375 C 83.980469 220.523438 77.109375 236.480469 67.492188 249.238281 C 60.105469 259.039062 50.648438 267.394531 44.980469 278.289062 C 36.214844 295.144531 37.789062 315.246094 38.960938 334.207031 C 42.75 395.6875 39.875 473.652344 30.402344 534.503906 C 25.28125 567.429688 20.320312 574.628906 45.207031 596.753906 C 70.480469 619.234375 113.25 618.0625 147.066406 618.335938 C 314.222656 619.714844 556.300781 621.820312 718.417969 624.472656 C 722.847656 624.554688 727.730469 624.457031 731.054688 621.5 C 734.539062 618.398438 735.050781 613.226562 735.324219 608.582031 C 738.710938 552.519531 742.117188 528.589844 745.503906 472.527344 C 746.195312 461.230469 741.074219 452.121094 739.226562 440.953125 Z M 739.226562 440.953125 "/>
<path style=" stroke:none;fill-rule:nonzero;fill:rgb(45.489502%,79.998779%,81.17981%);fill-opacity:1;" d="M 573.128906 249.914062 C 554.214844 248.644531 531.332031 251.601562 512.417969 250.347656 C 495.144531 249.191406 474.671875 249.445312 464.574219 263.523438 C 458.777344 271.605469 458.167969 282.195312 457.765625 292.140625 C 457.15625 307.566406 456.527344 322.976562 455.917969 338.402344 C 455.789062 341.503906 455.675781 344.6875 456.738281 347.609375 C 458.199219 351.675781 461.714844 354.664062 465.535156 356.65625 C 472.136719 360.09375 479.714844 361.011719 487.117188 361.800781 C 543.710938 367.746094 595.847656 368.515625 652.605469 364.417969 Z M 573.128906 249.914062 "/>
<path style=" stroke:none;fill-rule:nonzero;fill:rgb(93.728638%,28.239441%,13.729858%);fill-opacity:1;" d="M 704.128906 505.339844 L 75.746094 505.339844 L 83.917969 458.164062 L 704.128906 458.164062 Z M 704.128906 505.339844 "/>
<path style=" stroke:none;fill-rule:nonzero;fill:rgb(45.489502%,79.998779%,81.17981%);fill-opacity:1;" d="M 737.8125 445.257812 C 724.230469 440.890625 709.714844 452.601562 705.703125 466.308594 C 701.6875 480.015625 705.171875 494.671875 708.65625 508.523438 C 709.523438 511.960938 710.484375 515.558594 712.976562 518.066406 C 719.492188 524.621094 730.667969 519.527344 739.738281 521.296875 Z M 737.8125 445.257812 "/>
<path style=" stroke:none;fill-rule:nonzero;fill:rgb(93.728638%,28.239441%,13.729858%);fill-opacity:1;" d="M 215.625 315.167969 C 213.023438 299.871094 216.652344 276.972656 217.890625 261.5 C 234.859375 263.8125 252.25 266.867188 269.234375 269.195312 C 265.929688 281.503906 264.179688 302.667969 264.050781 315.410156 C 283.269531 315.828125 294.507812 314.976562 313.726562 314.316406 C 315.765625 326.847656 315.8125 339.703125 313.886719 352.253906 C 298.007812 353.21875 282.03125 352.65625 266.25 350.582031 C 266.683594 364.546875 265.929688 378.527344 264.035156 392.363281 C 263.871094 393.582031 263.648438 394.898438 262.75 395.734375 C 261.078125 397.3125 258.382812 396.28125 256.328125 395.285156 C 241.363281 387.976562 232.5625 392.394531 216.15625 395.253906 C 219.125 385.660156 217.664062 371.648438 217.40625 361.605469 C 202.507812 361.574219 187.65625 363.648438 172.753906 363.613281 C 171.390625 363.613281 169.882812 363.566406 168.871094 362.652344 C 167.792969 361.703125 167.585938 360.128906 167.488281 358.699219 C 166.941406 351.355469 166.203125 327.140625 167.199219 319.828125 C 167.488281 317.769531 167.921875 315.539062 169.496094 314.171875 C 171.101562 312.773438 173.414062 312.675781 175.53125 312.628906 C 189.164062 312.417969 201.960938 315.394531 215.625 315.167969 Z M 215.625 315.167969 "/>
<path style=" stroke:none;fill-rule:nonzero;fill:rgb(0.389099%,0.389099%,0.389099%);fill-opacity:1;" d="M 260.660156 404.574219 C 258.460938 404.574219 255.859375 403.996094 252.808594 402.515625 C 243.226562 397.824219 237.347656 399.078125 226.671875 401.359375 C 223.84375 401.953125 220.828125 402.597656 217.519531 403.160156 C 214.675781 403.691406 211.933594 402.660156 210.101562 400.554688 C 208.269531 398.453125 207.644531 395.527344 208.464844 392.859375 C 210.308594 386.898438 210.039062 377.625 209.683594 369.785156 C 204.980469 369.976562 200.292969 370.28125 195.601562 370.621094 C 187.976562 371.132812 180.71875 371.101562 172.707031 371.632812 C 170.972656 371.632812 166.847656 371.632812 163.492188 368.628906 C 159.910156 365.527344 159.574219 360.996094 159.445312 359.292969 C 158.929688 352.464844 158.03125 327.25 159.203125 318.734375 C 159.492188 316.597656 160.183594 311.601562 164.179688 308.113281 C 168.066406 304.707031 172.820312 304.625 175.355469 304.59375 C 182.566406 304.53125 189.628906 305.203125 196.390625 305.894531 C 199.921875 306.25 203.359375 306.617188 206.761719 306.84375 C 206.328125 295.917969 207.613281 283.609375 208.769531 272.410156 C 209.1875 268.28125 209.605469 264.359375 209.875 260.839844 C 210.054688 258.621094 211.113281 256.597656 212.847656 255.199219 C 214.550781 253.816406 216.796875 253.222656 218.964844 253.511719 C 227.507812 254.667969 236.144531 256.019531 244.796875 257.386719 C 253.324219 258.71875 261.867188 260.050781 270.3125 261.210938 C 272.609375 261.53125 274.648438 262.800781 275.929688 264.726562 C 277.199219 266.640625 277.601562 269.035156 276.976562 271.253906 C 274.550781 280.296875 272.914062 295.164062 272.320312 307.453125 C 282.625 307.421875 290.65625 307.132812 300.464844 306.746094 L 313.4375 306.25 C 317.5625 306.347656 321 308.996094 321.640625 313 C 323.824219 326.382812 323.890625 340.007812 321.820312 353.460938 C 321.242188 357.1875 318.140625 360.03125 314.367188 360.257812 C 301.121094 361.074219 287.699219 360.820312 274.375 359.566406 C 274.324219 370.84375 273.523438 382.207031 271.980469 393.4375 C 271.742188 395.15625 271.242188 398.722656 268.273438 401.550781 C 266.601562 403.128906 264.128906 404.574219 260.660156 404.574219 Z M 240.304688 383.25 C 245.328125 383.25 250.625 384.132812 256.632812 386.625 C 258.078125 374.460938 258.574219 362.570312 258.207031 350.824219 C 258.140625 348.476562 259.105469 346.195312 260.839844 344.621094 C 262.574219 343.03125 264.882812 342.292969 267.277344 342.597656 C 280.332031 344.316406 293.625 344.925781 306.742188 344.542969 C 307.449219 337.230469 307.433594 329.902344 306.710938 322.625 L 301.105469 322.832031 C 288.550781 323.363281 278.613281 323.78125 263.871094 323.441406 C 259.472656 323.347656 255.972656 319.730469 256.023438 315.3125 C 256.132812 305.847656 257.160156 289.328125 259.570312 275.929688 C 253.855469 275.078125 248.089844 274.191406 242.324219 273.277344 C 236.59375 272.375 230.828125 271.492188 225.113281 270.640625 C 224.984375 271.765625 224.871094 272.921875 224.761719 274.097656 C 223.347656 287.722656 221.742188 303.148438 223.574219 313.816406 C 223.957031 316.132812 223.316406 318.492188 221.839844 320.292969 C 220.328125 322.09375 218.144531 323.167969 215.785156 323.203125 C 208.449219 323.152344 201.496094 322.589844 194.769531 321.902344 C 188.199219 321.226562 181.957031 320.488281 175.644531 320.695312 C 175.550781 320.695312 175.371094 320.695312 175.195312 320.695312 C 175.164062 320.855469 175.148438 320.96875 175.148438 320.96875 C 174.394531 326.480469 174.792969 345.921875 175.324219 355.5625 C 182.050781 355.46875 188.296875 355.050781 194.542969 354.601562 C 202.167969 354.070312 210.214844 353.652344 217.4375 353.585938 C 221.789062 353.605469 225.339844 357.074219 225.449219 361.414062 L 225.691406 367.566406 C 225.964844 373.207031 226.222656 379.28125 225.902344 385.113281 C 230.734375 384.101562 235.40625 383.25 240.304688 383.25 Z M 240.304688 383.25 "/>
<path style=" stroke:none;fill-rule:nonzero;fill:rgb(73.728943%,73.728943%,73.728943%);fill-opacity:1;" d="M 23.546875 556.503906 C 23.546875 556.503906 60.265625 546.878906 83.242188 561.113281 C 106.21875 575.351562 121.890625 585.328125 150.324219 584.945312 C 178.761719 584.558594 414.910156 584.945312 414.910156 584.945312 L 634.667969 591.742188 C 634.667969 591.742188 662.625 583.820312 680.21875 569.117188 C 697.816406 554.429688 724.472656 546.394531 739.738281 557.175781 C 737.316406 579.015625 742.566406 624.699219 721.820312 624.441406 C 701.078125 624.183594 118.550781 617.917969 118.550781 617.917969 C 118.550781 617.917969 39.425781 625.355469 23.546875 556.503906 Z M 23.546875 556.503906 "/>
<path style=" stroke:none;fill-rule:nonzero;fill:rgb(92.939758%,13.328552%,14.118958%);fill-opacity:1;" d="M 78.265625 450.914062 C 76.820312 446.929688 72.855469 444.296875 68.730469 443.332031 C 64.601562 442.351562 60.300781 442.769531 56.09375 443.171875 C 51.804688 443.589844 47.519531 444.007812 43.246094 444.441406 L 31.253906 522.628906 C 39.957031 519.351562 54.855469 519.175781 64.152344 519.480469 C 66.5625 519.5625 69.257812 519.65625 71.023438 518.019531 C 72.519531 516.636719 72.855469 514.449219 73.097656 512.441406 C 75.3125 494.71875 77.191406 476.945312 78.765625 459.144531 C 78.988281 456.394531 79.214844 453.535156 78.265625 450.914062 Z M 78.265625 450.914062 "/>
<path style=" stroke:none;fill-rule:nonzero;fill:rgb(7.058716%,44.709778%,44.709778%);fill-opacity:1;" d="M 224.519531 556.566406 C 204.144531 557.289062 182.710938 568.394531 173.910156 589.699219 C 168.628906 602.476562 168.453125 617.484375 171.277344 631.253906 C 176.433594 656.226562 191.460938 678.09375 211.097656 690.03125 C 230.734375 701.972656 254.578125 703.933594 275.625 695.914062 C 282.707031 693.214844 289.5625 689.40625 295.328125 683.910156 C 307.671875 672.148438 314.097656 653.363281 314.511719 634.871094 C 315.011719 613.082031 309.359375 588.816406 294.347656 575.671875 C 280.058594 563.121094 246.308594 555.796875 224.519531 556.566406 Z M 224.519531 556.566406 "/>
<path style=" stroke:none;fill-rule:nonzero;fill:rgb(7.058716%,44.709778%,44.709778%);fill-opacity:1;" d="M 589.3125 567.269531 C 575.9375 554.078125 555.898438 554.703125 537.5625 555.105469 C 519.226562 555.507812 500.714844 563.847656 489.445312 579.046875 C 481.125 590.261719 477.128906 604.433594 475.636719 618.558594 C 474.191406 632.28125 475.105469 646.824219 481.738281 658.746094 C 484.242188 663.246094 487.484375 667.246094 490.953125 670.960938 C 505.773438 686.835938 525.585938 698.132812 546.683594 699.851562 C 567.796875 701.570312 589.96875 692.925781 603.085938 675.476562 C 614.601562 660.144531 618.292969 639.964844 619.738281 620.503906 C 620.15625 614.832031 620.394531 608.984375 618.613281 603.632812 C 617.105469 599.085938 614.230469 595.179688 611.386719 591.386719 C 604.097656 581.554688 597.933594 575.785156 589.3125 567.269531 Z M 589.3125 567.269531 "/>
<path style=" stroke:none;fill-rule:nonzero;fill:rgb(73.728943%,73.728943%,73.728943%);fill-opacity:1;" d="M 258.847656 610.671875 C 254.222656 604.613281 249.855469 604.886719 242.695312 602.28125 C 235.535156 599.679688 226.511719 600.691406 221.726562 606.621094 C 218.015625 611.214844 217.582031 617.675781 218.5 623.507812 C 220.023438 633.132812 225.210938 642.550781 233.71875 647.273438 C 242.230469 652 254.144531 650.875 260.339844 643.371094 C 268.929688 632.941406 267.019531 621.402344 258.847656 610.671875 Z M 258.847656 610.671875 "/>
<path style=" stroke:none;fill-rule:nonzero;fill:rgb(0.389099%,0.389099%,0.389099%);fill-opacity:1;" d="M 244.75 658.105469 C 239.660156 658.105469 234.457031 656.867188 229.816406 654.296875 C 219.816406 648.738281 212.621094 637.699219 210.566406 624.761719 C 209.089844 615.394531 210.792969 607.359375 215.496094 601.558594 C 222 593.507812 234.3125 590.679688 245.441406 594.746094 C 247.015625 595.308594 248.460938 595.742188 249.777344 596.113281 C 254.65625 597.527344 260.164062 599.132812 265.238281 605.816406 C 276.363281 620.441406 276.847656 635.996094 266.539062 648.480469 C 261.351562 654.746094 253.164062 658.105469 244.75 658.105469 Z M 234.972656 608.949219 C 232.035156 608.949219 229.386719 609.914062 227.957031 611.667969 C 226.253906 613.789062 225.675781 617.628906 226.414062 622.238281 C 227.683594 630.320312 231.875 637.054688 237.589844 640.21875 C 243.160156 643.320312 250.691406 642.390625 254.109375 638.226562 C 257.59375 634 261.207031 627.078125 252.441406 615.523438 C 250.578125 613.082031 249.34375 612.710938 245.265625 611.523438 C 243.640625 611.054688 241.890625 610.527344 239.949219 609.835938 C 238.3125 609.238281 236.609375 608.949219 234.972656 608.949219 Z M 234.972656 608.949219 "/>
<path style=" stroke:none;fill-rule:nonzero;fill:rgb(73.728943%,73.728943%,73.728943%);fill-opacity:1;" d="M 531.382812 604.355469 C 523.449219 607.90625 522.613281 619.28125 523.480469 628.328125 C 524.042969 634.097656 524.863281 640.089844 527.992188 644.863281 C 535.894531 656.914062 555.335938 654.054688 563.527344 642.195312 C 571.714844 630.355469 574.265625 611.972656 566.222656 600.015625 C 559.65625 590.261719 542.941406 593.574219 531.382812 604.355469 Z M 531.382812 604.355469 "/>
<path style=" stroke:none;fill-rule:nonzero;fill:rgb(0.389099%,0.389099%,0.389099%);fill-opacity:1;" d="M 543.3125 660.644531 C 543.183594 660.644531 543.070312 660.644531 542.957031 660.644531 C 533.871094 660.53125 525.953125 656.386719 521.28125 649.265625 C 517.140625 642.917969 516.128906 635.542969 515.484375 629.117188 C 514.007812 613.5 518.007812 602.410156 526.804688 597.65625 C 535.957031 589.539062 547.582031 585.328125 557.265625 586.359375 C 563.863281 587.128906 569.417969 590.375 572.886719 595.515625 C 583.484375 611.25 579.515625 633.199219 570.140625 646.746094 C 564.28125 655.210938 553.796875 660.644531 543.3125 660.644531 Z M 554.132812 602.25 C 549.589844 602.25 542.863281 604.613281 536.839844 610.234375 C 536.199219 610.832031 535.445312 611.3125 534.640625 611.683594 C 531.945312 612.886719 530.660156 619.28125 531.460938 627.558594 C 531.910156 632.28125 532.539062 637.167969 534.6875 640.460938 C 536.890625 643.789062 540.484375 644.542969 543.117188 644.574219 C 543.183594 644.574219 543.246094 644.574219 543.296875 644.574219 C 548.578125 644.574219 554.035156 641.796875 556.925781 637.617188 C 563.140625 628.617188 565.820312 613.804688 559.558594 604.484375 C 559.046875 603.695312 558.019531 602.621094 555.433594 602.316406 C 555.03125 602.28125 554.597656 602.25 554.132812 602.25 Z M 554.132812 602.25 "/>
<path style=" stroke:none;fill-rule:nonzero;fill:rgb(0.389099%,0.389099%,0.389099%);fill-opacity:1;" d="M 359.710938 129.429688 C 350.878906 123.242188 342.820312 116.269531 335.289062 108.558594 C 328.066406 101.148438 316.714844 112.511719 323.9375 119.917969 C 332.414062 128.609375 341.664062 136.339844 351.601562 143.3125 C 360.097656 149.257812 368.125 135.328125 359.710938 129.429688 Z M 359.710938 129.429688 "/>
<path style=" stroke:none;fill-rule:nonzero;fill:rgb(0.389099%,0.389099%,0.389099%);fill-opacity:1;" d="M 432.269531 102.789062 C 431.0625 93.453125 431.367188 84.46875 433.585938 75.3125 C 436.007812 65.269531 420.53125 60.976562 418.105469 71.035156 C 415.570312 81.5625 414.832031 92.039062 416.226562 102.789062 C 417.527344 112.910156 433.601562 113.039062 432.269531 102.789062 Z M 432.269531 102.789062 "/>
<path style=" stroke:none;fill-rule:nonzero;fill:rgb(0.389099%,0.389099%,0.389099%);fill-opacity:1;" d="M 493.023438 144.792969 C 508.917969 139.007812 525.570312 135.664062 541.480469 129.863281 C 551.113281 126.359375 546.957031 110.824219 537.210938 114.375 C 521.316406 120.160156 504.664062 123.5 488.753906 129.300781 C 479.121094 132.804688 483.277344 148.34375 493.023438 144.792969 Z M 493.023438 144.792969 "/>
<g clip-path="url(#clip1)" clip-rule="nonzero">
<path style=" stroke:none;fill-rule:nonzero;fill:rgb(0.389099%,0.389099%,0.389099%);fill-opacity:1;" d="M 749.984375 450.675781 C 748.859375 447.140625 747.734375 443.445312 747.09375 439.585938 C 746.613281 436.210938 746.128906 432.355469 745.648438 428.179688 C 742.757812 406.003906 739.226562 378.203125 719.636719 369.847656 C 710.003906 365.671875 700.050781 363.582031 690.253906 361.492188 C 680.140625 359.40625 670.347656 357.316406 661.675781 353.136719 C 639.199219 342.371094 624.746094 317.625 613.1875 297.863281 L 575.457031 233.265625 C 570.476562 224.75 564.214844 213.984375 553.617188 207.714844 C 543.824219 201.933594 532.746094 200.96875 523.59375 200.324219 C 507.203125 199.121094 487.515625 198.140625 466.195312 197.367188 C 466.128906 169.714844 461.363281 131.390625 426.808594 129.125 C 386.765625 126.503906 385.335938 165.246094 385.929688 195.40625 C 338.371094 194.71875 291.425781 194.71875 258.511719 195.183594 C 226.398438 193.414062 151.898438 195.503906 121.070312 198.878906 C 112.078125 200.003906 102.765625 201.289062 94.257812 205.789062 C 82.214844 212.375 75.152344 223.304688 68.246094 233.746094 C 66 237.445312 63.589844 240.980469 61.023438 244.351562 C 58.613281 247.726562 55.882812 250.78125 52.992188 253.996094 C 47.535156 260.261719 41.914062 266.6875 37.902344 274.5625 C 28.269531 292.878906 29.710938 314.089844 30.835938 332.890625 L 30.996094 334.660156 C 34.851562 397.488281 31.480469 475.421875 22.488281 533.265625 L 20.722656 543.550781 C 16.546875 568.777344 14.460938 580.1875 39.828125 602.683594 C 65.839844 625.824219 107.421875 626.144531 140.820312 626.304688 L 146.921875 626.304688 C 152.125 626.304688 157.324219 626.371094 162.527344 626.417969 C 162.816406 628.570312 162.976562 630.707031 163.425781 632.878906 C 168.980469 659.777344 185.246094 683.71875 206.9375 696.894531 C 219.816406 704.703125 234.636719 708.703125 249.488281 708.703125 C 259.3125 708.703125 269.171875 706.96875 278.5 703.417969 C 287.347656 700.042969 294.878906 695.433594 300.867188 689.710938 C 314.128906 677.082031 322.042969 657.15625 322.558594 635.046875 C 322.621094 632.585938 322.507812 630.210938 322.429688 627.816406 C 371.144531 628.25 419.839844 628.714844 467.09375 629.277344 C 467.09375 642.230469 469.597656 653.445312 474.734375 662.652344 C 477.242188 667.167969 480.53125 671.539062 485.109375 676.421875 C 502.335938 694.886719 523.996094 706.054688 546.058594 707.835938 C 548.0625 708.015625 550.085938 708.09375 552.109375 708.09375 C 574.796875 708.09375 596.390625 697.746094 609.492188 680.296875 C 620.683594 665.417969 624.859375 647.242188 626.753906 631.222656 C 659.21875 631.671875 690.015625 632.121094 718.355469 632.570312 L 720.121094 632.570312 C 724.777344 632.570312 731.359375 632.089844 736.335938 627.589844 C 742.597656 621.964844 743.078125 613.609375 743.402344 609.113281 C 745.007812 581.152344 746.773438 561.226562 748.378906 541.300781 C 750.144531 521.214844 751.75 501.128906 753.515625 473.011719 C 753.996094 464.492188 751.910156 457.421875 749.984375 450.675781 Z M 615.175781 583.160156 C 609.367188 575.832031 604.035156 570.480469 597.546875 564.085938 L 594.964844 561.546875 C 594.964844 561.546875 594.964844 561.53125 594.945312 561.53125 C 579.355469 546.171875 557.503906 546.589844 537.386719 547.070312 C 515.597656 547.535156 495.273438 557.707031 483.003906 574.257812 C 482.394531 575.09375 481.914062 576.058594 481.335938 576.925781 L 306.230469 576.507812 L 306.210938 576.507812 C 306.164062 576.507812 306.117188 576.539062 306.050781 576.539062 C 304.0625 574.015625 301.957031 571.640625 299.660156 569.613281 C 283.542969 555.523438 248.058594 547.859375 224.246094 548.515625 C 202.746094 549.289062 183.578125 559.8125 172.402344 576.058594 C 172.320312 576.058594 172.257812 576.027344 172.175781 576.027344 C 144.753906 576.71875 120.574219 576.171875 101.882812 563.75 C 100.472656 562.800781 99.089844 561.804688 97.695312 560.792969 C 95.027344 558.847656 92.332031 556.921875 89.441406 555.28125 C 83.113281 551.714844 76.386719 549.851562 70.011719 548.355469 C 60.714844 546.203125 48.820312 544.289062 36.648438 545.960938 L 38.382812 535.675781 C 38.769531 533.21875 39.074219 530.566406 39.441406 528.046875 C 51.179688 526.519531 68.152344 531.917969 76.691406 523.707031 C 79.519531 520.992188 80.226562 517.359375 80.882812 513.742188 C 81.8125 514.128906 82.824219 514.355469 83.902344 514.371094 C 109.382812 514.46875 135.761719 514.5 162.785156 514.5 C 237.976562 514.5 317.933594 514.210938 395.933594 513.9375 C 499.703125 513.550781 606.875 513.164062 701.671875 513.488281 C 702.632812 516.75 704.191406 520.605469 707.289062 523.738281 C 712.058594 528.542969 717.839844 529.570312 723.296875 529.570312 C 725.53125 529.570312 727.683594 529.394531 729.703125 529.234375 C 730.972656 529.136719 732.175781 529.074219 733.367188 529.023438 C 733.078125 532.65625 732.773438 536.273438 732.484375 539.855469 C 732.304688 541.832031 732.128906 543.871094 731.953125 545.847656 C 715.574219 543.117188 698.15625 546.476562 684.363281 555.714844 C 680.1875 558.527344 676.367188 561.820312 672.5625 565.117188 C 669.769531 567.542969 666.972656 569.96875 664.019531 572.136719 C 652.378906 580.605469 631.570312 585.3125 615.175781 583.160156 Z M 46.796875 452.121094 C 49.894531 451.785156 52.992188 451.429688 56.09375 451.203125 C 62.304688 450.769531 64.957031 449.566406 68.664062 455.109375 C 73.691406 462.660156 68.777344 479.917969 67.8125 488.789062 C 67.285156 493.691406 67.042969 498.734375 66.128906 503.589844 C 64.8125 510.660156 65.246094 510.128906 59.304688 511.222656 C 53.460938 512.28125 47.582031 511.734375 41.660156 511.878906 C 43.953125 492.917969 45.625 472.722656 46.796875 452.121094 Z M 84.800781 479.917969 C 85.21875 475.773438 86.085938 471.015625 86.632812 466.195312 C 87.480469 466.519531 88.382812 466.773438 89.34375 466.773438 C 128.539062 467.175781 170.492188 467.335938 213.730469 467.335938 C 273.347656 467.335938 335.449219 467.03125 396.367188 466.773438 C 499.300781 466.292969 605.578125 465.84375 697.5625 466.726562 C 695.121094 477.15625 695.988281 487.695312 697.914062 497.417969 C 603.96875 497.144531 498.304688 497.515625 395.886719 497.882812 C 289.867188 498.253906 180.222656 498.6875 83.949219 498.316406 C 83.933594 498.316406 83.933594 498.316406 83.917969 498.316406 C 83.582031 498.316406 83.292969 498.460938 82.96875 498.511719 C 83.628906 492.277344 84.175781 486.042969 84.800781 479.917969 Z M 733.832031 452.652344 C 734.089844 453.488281 734.3125 454.339844 734.570312 455.171875 C 736.335938 461.121094 737.78125 466.421875 737.460938 472.046875 C 736.5625 487.761719 735.613281 500.824219 734.667969 512.890625 C 732.5 512.910156 730.410156 513.070312 728.4375 513.214844 C 723.410156 513.597656 720.023438 513.777344 718.675781 512.394531 C 717.664062 511.367188 716.957031 508.585938 716.441406 506.5625 C 713.375 494.363281 709.90625 480.546875 713.40625 468.574219 C 715.125 462.679688 719.6875 457.054688 724.984375 454.242188 C 727.167969 453.085938 730.363281 452.074219 733.832031 452.652344 Z M 638.410156 357.058594 C 585.875 359.566406 532.296875 358.472656 487.949219 353.796875 C 480.757812 353.042969 474.382812 352.207031 469.246094 349.523438 C 466.675781 348.171875 464.878906 346.484375 464.285156 344.863281 C 463.753906 343.382812 463.851562 341.023438 463.945312 338.707031 L 465.792969 292.445312 C 466.164062 282.691406 466.835938 274.113281 471.089844 268.199219 C 478.6875 257.640625 495.996094 257.289062 511.875 258.347656 C 521.765625 259.023438 532.648438 258.558594 543.152344 258.140625 C 552.703125 257.753906 562.53125 257.386719 571.234375 257.898438 L 599.21875 305.878906 C 609.078125 322.898438 620.957031 342.917969 638.410156 357.058594 Z M 428.785156 145.53125 C 450.1875 150.335938 450.507812 178.3125 450.203125 196.839844 C 434.546875 196.355469 418.300781 195.96875 401.890625 195.679688 C 400.910156 174.503906 399.0625 138.863281 428.785156 145.53125 Z M 52.03125 281.953125 C 55.242188 275.847656 60.058594 270.382812 65.195312 264.601562 C 68.085938 261.226562 71.136719 257.691406 73.867188 253.996094 C 76.597656 250.460938 79.164062 246.441406 81.734375 242.585938 C 87.835938 233.265625 93.453125 224.589844 101.804688 219.929688 C 107.746094 216.714844 115.128906 215.75 122.835938 214.949219 C 145.636719 212.375 192.679688 210.609375 228.324219 210.609375 C 239.886719 210.609375 250.320312 210.769531 258.1875 211.25 C 326.265625 210.289062 453.429688 211.25 522.46875 216.394531 C 531.78125 217.035156 539.328125 217.839844 545.429688 221.375 C 552.496094 225.714844 557.3125 234.070312 561.648438 241.460938 L 561.777344 241.667969 C 555.402344 241.6875 548.914062 241.847656 542.507812 242.101562 C 532.425781 242.503906 522.003906 242.9375 512.949219 242.328125 C 492.703125 241.042969 470.222656 241.910156 458.054688 258.832031 C 450.636719 269.164062 450.121094 282.257812 449.738281 291.835938 L 447.890625 338.082031 C 447.746094 341.570312 447.570312 345.875 449.175781 350.324219 C 451.148438 355.851562 455.53125 360.496094 461.828125 363.792969 C 469.484375 367.777344 477.753906 368.902344 486.28125 369.785156 C 515.808594 372.886719 549.347656 374.460938 583.949219 374.460938 C 610.761719 374.460938 638.1875 373.496094 664.917969 371.601562 C 672.242188 374.042969 679.707031 375.714844 687.027344 377.242188 C 696.339844 379.167969 705.171875 381.097656 713.359375 384.632812 C 724.4375 389.292969 727.488281 413.074219 729.578125 430.265625 C 729.914062 432.5 730.1875 434.398438 730.476562 436.453125 C 726.078125 436.664062 721.644531 437.804688 717.4375 440.054688 C 712.558594 442.640625 708.285156 446.417969 704.851562 450.851562 C 704.625 450.835938 704.417969 450.707031 704.191406 450.707031 C 610.699219 449.726562 501.695312 450.222656 396.269531 450.707031 C 291.25 451.171875 182.644531 451.703125 89.488281 450.707031 C 89.472656 450.707031 89.441406 450.707031 89.410156 450.707031 C 88.316406 450.707031 87.273438 450.929688 86.324219 451.332031 C 85.492188 447.492188 83.917969 443.957031 80.914062 441.113281 C 72.050781 432.710938 59.03125 434.558594 47.648438 435.921875 C 49.09375 401.183594 48.882812 365.878906 46.894531 333.695312 L 46.894531 331.925781 C 45.769531 314.414062 44.644531 296.253906 52.03125 281.953125 Z M 147.082031 610.234375 L 140.980469 610.234375 C 110.3125 610.074219 72.101562 609.914062 50.585938 590.792969 C 37.148438 578.839844 33.808594 573.214844 34.417969 562.367188 C 34.675781 562.335938 34.914062 562.398438 35.171875 562.335938 C 45.882812 559.894531 57.472656 561.949219 66.382812 564.023438 C 71.570312 565.226562 77.011719 566.707031 81.574219 569.277344 C 83.917969 570.59375 86.070312 572.203125 88.253906 573.777344 C 89.828125 574.917969 91.382812 576.058594 93.003906 577.136719 C 112.800781 590.277344 137.496094 592.273438 158.53125 592.273438 C 160.699219 592.273438 162.65625 592.207031 164.742188 592.175781 C 163.007812 597.847656 161.917969 603.890625 161.644531 610.300781 C 156.78125 610.285156 151.867188 610.234375 147.082031 610.234375 Z M 289.804688 678.078125 C 285.355469 682.335938 279.640625 685.792969 272.800781 688.394531 C 253.964844 695.5625 232.453125 693.585938 215.289062 683.15625 C 197.335938 672.246094 183.816406 652.238281 179.144531 629.632812 C 176.351562 616.035156 177.136719 602.957031 181.34375 592.769531 C 189.597656 572.828125 209.910156 565.117188 224.808594 564.601562 C 245.503906 563.925781 276.910156 571.042969 289.097656 581.699219 C 300.527344 591.710938 307.03125 611.503906 306.5 634.675781 C 306.085938 652.289062 299.839844 668.515625 289.804688 678.078125 Z M 315.234375 592.59375 L 473.164062 592.976562 C 470.929688 599.132812 469.40625 605.945312 468.363281 613.226562 C 420.160156 612.648438 370.566406 612.195312 320.742188 611.746094 C 319.507812 604.871094 317.660156 598.457031 315.234375 592.59375 Z M 611.726562 619.894531 C 609.992188 643.449219 605.351562 659.085938 596.664062 670.636719 C 585.652344 685.277344 566.945312 693.375 547.324219 691.832031 C 529.519531 690.386719 511.085938 680.777344 496.8125 665.464844 C 493.167969 661.542969 490.597656 658.167969 488.738281 654.828125 C 483.777344 645.925781 482.058594 634 483.613281 619.394531 C 485.171875 604.691406 489.300781 592.738281 495.898438 583.820312 C 505.226562 571.222656 520.882812 563.476562 538.574219 563.105469 C 541.671875 563.027344 544.789062 562.960938 547.871094 562.960938 C 561.613281 562.960938 574.894531 564.296875 583.660156 572.957031 L 586.277344 575.542969 C 593.535156 582.679688 598.785156 587.851562 604.949219 596.144531 C 607.359375 599.375 609.863281 602.730469 610.988281 606.140625 C 612.320312 610.140625 612.09375 615.121094 611.726562 619.894531 Z M 725.738281 615.539062 C 724.617188 616.503906 720.601562 616.503906 718.515625 616.503906 C 690.417969 616.054688 660.039062 615.601562 628.023438 615.152344 C 628.101562 610.589844 627.796875 605.769531 626.222656 601.078125 C 626.046875 600.53125 625.726562 600.128906 625.519531 599.597656 C 642.921875 599.117188 661.5 593.8125 673.429688 585.152344 C 676.785156 582.710938 679.929688 579.996094 683.0625 577.28125 C 686.386719 574.402344 689.675781 571.527344 693.320312 569.070312 C 704.097656 561.820312 717.886719 559.265625 730.605469 561.789062 C 729.480469 575.382812 728.371094 590.039062 727.34375 608.164062 C 727.183594 609.914062 727.023438 614.414062 725.738281 615.539062 Z M 725.738281 615.539062 "/>
</g>
</g>
</svg>
