<?xml version="1.0" encoding="UTF-8"?>
<svg xmlns="http://www.w3.org/2000/svg" xmlns:xlink="http://www.w3.org/1999/xlink" width="375pt" height="374.999991pt" viewBox="0 0 375 374.999991" version="1.2">
<defs>
<clipPath id="clip1">
  <path d="M 205 182 L 373 182 L 373 270 L 205 270 Z M 205 182 "/>
</clipPath>
<clipPath id="clip2">
  <path d="M -40.410156 173.9375 L 156.339844 -22.816406 L 380.140625 200.984375 L 183.386719 397.734375 Z M -40.410156 173.9375 "/>
</clipPath>
<clipPath id="clip3">
  <path d="M -40.410156 173.9375 L 156.339844 -22.816406 L 380.140625 200.984375 L 183.386719 397.734375 Z M -40.410156 173.9375 "/>
</clipPath>
<clipPath id="clip4">
  <path d="M -40.410156 173.9375 L 156.574219 -23.046875 L 380.53125 200.910156 L 183.546875 397.894531 Z M -40.410156 173.9375 "/>
</clipPath>
<clipPath id="clip5">
  <path d="M 20 170 L 92 170 L 92 263 L 20 263 Z M 20 170 "/>
</clipPath>
<clipPath id="clip6">
  <path d="M -40.410156 173.9375 L 156.339844 -22.816406 L 380.140625 200.984375 L 183.386719 397.734375 Z M -40.410156 173.9375 "/>
</clipPath>
<clipPath id="clip7">
  <path d="M -40.410156 173.9375 L 156.339844 -22.816406 L 380.140625 200.984375 L 183.386719 397.734375 Z M -40.410156 173.9375 "/>
</clipPath>
<clipPath id="clip8">
  <path d="M -40.410156 173.9375 L 156.574219 -23.046875 L 380.53125 200.910156 L 183.546875 397.894531 Z M -40.410156 173.9375 "/>
</clipPath>
<clipPath id="clip9">
  <path d="M 63 45 L 239 45 L 239 240 L 63 240 Z M 63 45 "/>
</clipPath>
<clipPath id="clip10">
  <path d="M -40.410156 173.9375 L 156.339844 -22.816406 L 380.140625 200.984375 L 183.386719 397.734375 Z M -40.410156 173.9375 "/>
</clipPath>
<clipPath id="clip11">
  <path d="M -40.410156 173.9375 L 156.339844 -22.816406 L 380.140625 200.984375 L 183.386719 397.734375 Z M -40.410156 173.9375 "/>
</clipPath>
<clipPath id="clip12">
  <path d="M -40.410156 173.9375 L 156.574219 -23.046875 L 380.53125 200.910156 L 183.546875 397.894531 Z M -40.410156 173.9375 "/>
</clipPath>
</defs>
<g id="surface1">
<g clip-path="url(#clip1)" clip-rule="nonzero">
<g clip-path="url(#clip2)" clip-rule="nonzero">
<g clip-path="url(#clip3)" clip-rule="nonzero">
<g clip-path="url(#clip4)" clip-rule="nonzero">
<path style=" stroke:none;fill-rule:nonzero;fill:rgb(6.269836%,5.879211%,5.099487%);fill-opacity:1;" d="M 341.640625 186.386719 C 336.738281 190.160156 333.640625 191.644531 331.902344 192.222656 C 328.335938 193.417969 326.40625 197.273438 327.59375 200.835938 C 328.78125 204.40625 332.636719 206.328125 336.203125 205.136719 C 340.175781 203.8125 344.796875 201.128906 349.945312 197.167969 C 351.191406 196.207031 352.796875 195.875 354.351562 196.253906 C 355.238281 196.472656 356.863281 197.125 357.734375 199.019531 L 357.921875 199.4375 C 358.804688 201.441406 358.382812 203.734375 356.84375 205.269531 L 335.613281 226.5 C 333.070312 221.832031 329.105469 216.484375 323.011719 212.234375 C 319.402344 209.714844 314.984375 208.613281 310.585938 209.140625 C 307.988281 209.449219 305.570312 209.597656 303.59375 209.566406 C 299.832031 209.511719 296.734375 212.515625 296.679688 216.277344 C 296.617188 220.035156 299.617188 223.128906 303.378906 223.183594 C 305.984375 223.222656 308.953125 223.046875 312.183594 222.660156 C 313.265625 222.53125 314.34375 222.792969 315.214844 223.402344 C 321.035156 227.464844 324.011719 233.191406 325.386719 236.730469 L 311.53125 250.585938 C 307.390625 254.722656 298.089844 253.410156 291.148438 251.3125 C 291.429688 249.34375 291.445312 247.300781 291.152344 245.238281 L 287.976562 222.785156 C 286.796875 214.4375 280.128906 207.800781 271.765625 206.648438 C 267.324219 206.039062 260.859375 204.566406 255.289062 201.019531 C 252.117188 199.003906 247.902344 199.9375 245.890625 203.117188 C 243.867188 206.289062 244.804688 210.496094 247.972656 212.511719 C 255.613281 217.375 264.113281 219.339844 269.894531 220.136719 C 272.269531 220.464844 274.164062 222.34375 274.496094 224.703125 L 277.671875 247.160156 C 277.902344 248.777344 277.613281 250.355469 276.910156 251.710938 C 276.785156 251.90625 276.671875 252.109375 276.5625 252.320312 C 275.617188 253.796875 274.160156 254.945312 272.359375 255.496094 C 269.875 256.25 267.210938 255.699219 265.234375 254.019531 C 260.941406 250.375 255.480469 246.101562 251.65625 243.160156 C 246.476562 239.175781 240.277344 236.792969 233.734375 236.277344 C 223.648438 235.480469 213.035156 235.203125 212.589844 235.191406 C 208.832031 235.09375 205.703125 238.0625 205.605469 241.824219 C 205.503906 245.578125 208.46875 248.707031 212.226562 248.804688 C 212.332031 248.804688 222.9375 249.082031 232.652344 249.851562 C 236.5625 250.160156 240.257812 251.578125 243.347656 253.953125 C 247.054688 256.804688 252.328125 260.933594 256.417969 264.402344 C 261.941406 269.09375 269.382812 270.632812 276.320312 268.519531 C 279.601562 267.515625 282.46875 265.796875 284.800781 263.582031 C 293.441406 266.601562 310.667969 270.691406 321.152344 260.207031 L 366.464844 214.894531 C 372.007812 209.351562 373.546875 201.128906 370.390625 193.953125 C 370.296875 193.742188 370.199219 193.527344 370.101562 193.3125 C 367.722656 188.144531 363.171875 184.398438 357.613281 183.035156 C 352.011719 181.660156 346.195312 182.878906 341.640625 186.386719 "/>
</g>
</g>
</g>
</g>
<g clip-path="url(#clip5)" clip-rule="nonzero">
<g clip-path="url(#clip6)" clip-rule="nonzero">
<g clip-path="url(#clip7)" clip-rule="nonzero">
<g clip-path="url(#clip8)" clip-rule="nonzero">
<path style=" stroke:none;fill-rule:nonzero;fill:rgb(6.269836%,5.879211%,5.099487%);fill-opacity:1;" d="M 79.867188 240.832031 C 67.824219 251.347656 57.542969 251.804688 47.515625 242.265625 C 41.835938 236.863281 37.96875 229.296875 36.625 220.96875 C 35.300781 212.730469 34.515625 202.714844 34.363281 192 C 34.328125 189.695312 35.226562 187.570312 36.90625 185.945312 C 38.589844 184.335938 40.796875 183.523438 43.121094 183.664062 C 49.15625 184.019531 54.355469 184.367188 54.363281 184.363281 C 58.113281 184.613281 61.359375 181.773438 61.613281 178.023438 C 61.863281 174.273438 59.027344 171.027344 55.277344 170.78125 C 55.277344 170.78125 50.035156 170.433594 43.941406 170.074219 C 37.882812 169.710938 31.890625 171.914062 27.5 176.109375 C 23.128906 180.304688 20.664062 186.164062 20.75 192.210938 C 20.914062 203.734375 21.734375 214.144531 23.183594 223.148438 C 24.996094 234.398438 30.304688 244.691406 38.128906 252.136719 C 53.179688 266.453125 71.65625 266.070312 88.816406 251.085938 C 88.9375 250.976562 89.046875 250.875 89.15625 250.765625 C 91.667969 248.253906 91.839844 244.191406 89.472656 241.480469 C 87 238.648438 82.699219 238.359375 79.867188 240.832031 "/>
</g>
</g>
</g>
</g>
<g clip-path="url(#clip9)" clip-rule="nonzero">
<g clip-path="url(#clip10)" clip-rule="nonzero">
<g clip-path="url(#clip11)" clip-rule="nonzero">
<g clip-path="url(#clip12)" clip-rule="nonzero">
<path style=" stroke:none;fill-rule:nonzero;fill:rgb(6.269836%,5.879211%,5.099487%);fill-opacity:1;" d="M 200.125 232.0625 C 201.847656 230.171875 203.546875 228.402344 205.1875 226.8125 C 208.671875 223.429688 212.726562 220.308594 217.25 217.535156 L 231.800781 208.613281 C 232.730469 208.046875 233.574219 207.375 234.328125 206.621094 C 237.636719 203.3125 239.167969 198.40625 237.941406 193.515625 C 237.195312 190.542969 235.382812 187.945312 233.003906 186.015625 C 231.914062 185.136719 230.878906 184.316406 229.855469 183.503906 C 228.519531 182.445312 227.199219 181.398438 225.777344 180.226562 C 222.882812 177.832031 218.597656 178.246094 216.195312 181.144531 C 213.800781 184.046875 214.203125 188.332031 217.101562 190.726562 C 218.597656 191.960938 219.988281 193.0625 221.394531 194.179688 C 222.46875 195.03125 223.550781 195.890625 224.742188 196.859375 C 224.753906 196.886719 224.738281 196.960938 224.691406 197.007812 L 210.140625 205.933594 C 204.765625 209.226562 199.910156 212.964844 195.710938 217.046875 C 193.929688 218.773438 192.09375 220.671875 190.257812 222.6875 C 188.707031 224.390625 186.59375 225.542969 184.304688 225.675781 C 181.355469 225.851562 178.5625 224.550781 176.785156 222.222656 C 170.46875 213.953125 163.132812 206.765625 157.507812 201.738281 C 163.171875 199.207031 170.546875 196.976562 178.496094 197.371094 C 186.144531 197.757812 193.554688 194.890625 198.953125 189.492188 C 199.144531 189.304688 199.332031 189.109375 199.515625 188.914062 C 203.03125 185.183594 205.851562 182.109375 207.890625 179.777344 C 209.253906 178.222656 210.261719 177.003906 210.976562 176.054688 C 215.121094 170.5625 212.511719 166.917969 211.199219 165.601562 C 211.050781 165.453125 210.621094 165.058594 209.933594 164.433594 C 199.898438 155.339844 190.046875 145.453125 180.644531 135.0625 C 178.125 132.273438 173.820312 132.0625 171.03125 134.582031 C 168.25 137.105469 168.023438 141.414062 170.542969 144.199219 C 179.136719 153.703125 188.101562 162.792969 197.242188 171.277344 C 195.636719 173.097656 193.222656 175.75 189.609375 179.582031 C 186.921875 182.449219 183.117188 183.972656 179.1875 183.777344 C 165.980469 183.113281 154.34375 187.773438 146.90625 191.796875 C 145.839844 192.375 144.703125 192.738281 143.554688 192.90625 C 143.496094 192.914062 143.4375 192.925781 143.375 192.9375 C 140.722656 193.273438 138.015625 192.527344 135.886719 190.757812 C 118.898438 176.671875 97.171875 171.296875 85.734375 169.347656 C 82.007812 168.710938 79.34375 165.238281 79.660156 161.441406 C 80.328125 153.480469 85.1875 146.773438 88.621094 142.953125 C 93.4375 145.398438 98.894531 146.417969 104.464844 145.804688 C 111.277344 145.054688 117.582031 145.476562 123.207031 147.058594 C 135 150.375 147.488281 147.023438 155.652344 138.855469 C 157.242188 137.269531 158.667969 135.492188 159.894531 133.550781 C 166.085938 123.734375 164.851562 113.3125 156.5 104.960938 L 136.371094 84.832031 C 132.988281 81.445312 130.632812 77.171875 129.585938 72.503906 L 124.730469 50.878906 C 123.914062 47.242188 120.398438 44.703125 116.738281 45.417969 C 112.953125 46.152344 110.546875 49.863281 111.382812 53.597656 L 116.300781 75.5 C 117.914062 82.683594 121.53125 89.257812 126.738281 94.460938 L 146.871094 114.59375 C 150.792969 118.515625 151.21875 121.800781 148.382812 126.296875 C 144.0625 133.152344 135.230469 136.292969 126.90625 133.949219 C 119.589844 131.894531 111.546875 131.332031 102.992188 132.269531 C 99.003906 132.710938 95.132812 131.527344 92.085938 129.015625 C 92.054688 128.992188 92.023438 128.972656 91.992188 128.949219 C 91.515625 128.546875 91.058594 128.121094 90.625 127.660156 C 87.445312 124.246094 86.09375 119.679688 86.925781 115.128906 C 87.347656 112.792969 88.007812 110.390625 88.882812 107.988281 C 90.882812 102.507812 91.542969 96.601562 90.792969 90.910156 L 88.742188 75.410156 C 87.910156 69.113281 92.382812 63.230469 98.585938 61.855469 C 102.1875 61.054688 104.511719 57.523438 103.792969 53.882812 C 103.066406 50.195312 99.484375 47.800781 95.796875 48.53125 C 82.492188 51.171875 73.46875 63.765625 75.242188 77.207031 L 77.292969 92.707031 C 77.757812 96.230469 77.347656 99.902344 76.09375 103.332031 C 74.953125 106.457031 74.089844 109.617188 73.527344 112.710938 C 72.148438 120.300781 73.890625 127.898438 78.3125 134.070312 C 73.542969 139.433594 67.070312 148.710938 66.09375 160.3125 C 65.1875 171.09375 72.804688 180.957031 83.433594 182.769531 C 93.527344 184.488281 112.640625 189.175781 127.1875 201.242188 C 128.644531 202.453125 130.21875 203.460938 131.867188 204.265625 C 136.445312 206.503906 138.007812 212.359375 134.933594 216.425781 C 134.691406 216.746094 134.4375 217.0625 134.171875 217.371094 C 130.820312 221.253906 125.894531 223.398438 120.773438 223.667969 C 117.914062 223.8125 114.808594 223.691406 111.535156 223.292969 C 108.136719 222.878906 104.570312 221.867188 100.648438 220.191406 C 84.015625 213.085938 68.820312 218.613281 68.179688 218.851562 C 64.65625 220.171875 62.867188 224.09375 64.183594 227.613281 C 65.496094 231.136719 69.417969 232.921875 72.9375 231.605469 C 73.046875 231.566406 83.796875 227.804688 95.289062 232.710938 C 100.414062 234.902344 105.191406 236.242188 109.890625 236.8125 C 114.441406 237.359375 118.789062 237.484375 122.816406 237.175781 C 132.066406 236.46875 140.53125 231.777344 146.03125 224.308594 C 148.304688 221.222656 149.957031 217.796875 150.957031 214.210938 C 155.65625 218.589844 161.1875 224.246094 165.964844 230.496094 C 170.023438 235.804688 176.167969 239.007812 182.824219 239.289062 C 189.402344 239.5625 195.699219 236.925781 200.125 232.0625 "/>
</g>
</g>
</g>
</g>
</g>
</svg>
