<?xml version="1.0" encoding="UTF-8"?>
<svg xmlns="http://www.w3.org/2000/svg" xmlns:xlink="http://www.w3.org/1999/xlink" width="375pt" height="374.999991pt" viewBox="0 0 375 374.999991" version="1.2">
<g id="surface1">
<path style=" stroke:none;fill-rule:nonzero;fill:rgb(0%,0%,0%);fill-opacity:1;" d="M 352.671875 73.980469 C 326.273438 32.40625 271.222656 29.0625 236.824219 40.839844 C 210.132812 49.996094 190.933594 75.433594 187.589844 79.796875 C 184.242188 75.433594 165.769531 50.503906 139.082031 41.421875 C 104.683594 29.644531 48.902344 32.40625 22.503906 73.980469 C 12.03125 90.480469 -20.910156 143.828125 50.503906 226.246094 C 50.503906 226.246094 118.0625 304.234375 180.460938 341.953125 C 183.296875 343.625 186.933594 345.878906 187.226562 345.734375 C 187.515625 345.878906 191.515625 343.699219 194.351562 341.953125 C 256.75 304.234375 324.671875 226.246094 324.671875 226.246094 C 396.089844 143.828125 363.144531 90.480469 352.671875 73.980469 Z M 352.671875 73.980469 "/>
<path style=" stroke:none;fill-rule:nonzero;fill:rgb(100%,100%,100%);fill-opacity:1;" d="M 176.171875 268.109375 C 173.699219 268.109375 171.445312 266.585938 170.570312 264.1875 L 127.882812 150.296875 L 111.738281 202.117188 C 110.9375 204.589844 108.609375 206.476562 105.992188 206.476562 L 60.175781 206.476562 C 56.832031 206.476562 54.140625 203.644531 54.140625 200.300781 C 54.140625 196.957031 56.832031 194.121094 60.175781 194.121094 L 101.554688 194.121094 L 121.628906 129.945312 C 122.429688 127.472656 124.609375 125.800781 127.226562 125.730469 C 129.84375 125.65625 132.101562 127.257812 133.046875 129.65625 L 175.226562 242.164062 L 197.40625 157.128906 C 198.0625 154.65625 200.167969 152.914062 202.640625 152.695312 C 205.113281 152.476562 207.515625 153.785156 208.605469 156.109375 L 226.277344 193.25 L 245.695312 115.410156 C 246.351562 112.863281 248.605469 110.976562 251.222656 110.902344 C 253.839844 110.757812 256.3125 112.429688 257.1875 114.898438 L 271.441406 155.382812 L 326.636719 155.527344 C 329.980469 155.527344 332.601562 157.78125 332.601562 161.050781 C 332.601562 164.394531 329.910156 166.574219 326.5625 166.574219 L 267.074219 166.867188 C 264.53125 166.867188 262.277344 165.484375 261.402344 163.085938 L 252.386719 137.578125 L 233.695312 212.292969 C 233.113281 214.761719 231.003906 216.582031 228.460938 216.871094 C 225.914062 217.089844 223.515625 215.78125 222.421875 213.457031 L 204.605469 176.097656 L 181.769531 263.605469 C 181.117188 266.148438 178.863281 267.964844 176.242188 268.109375 C 176.390625 268.109375 176.316406 268.109375 176.171875 268.109375 Z M 176.171875 268.109375 "/>
<path style=" stroke:none;fill-rule:nonzero;fill:rgb(100%,100%,100%);fill-opacity:1;" d="M 72.539062 198.992188 C 72.539062 199.847656 72.457031 200.691406 72.289062 201.53125 C 72.121094 202.367188 71.875 203.179688 71.546875 203.96875 C 71.222656 204.757812 70.820312 205.507812 70.34375 206.21875 C 69.871094 206.929688 69.332031 207.585938 68.726562 208.191406 C 68.121094 208.796875 67.464844 209.335938 66.753906 209.808594 C 66.042969 210.285156 65.292969 210.683594 64.503906 211.011719 C 63.714844 211.339844 62.898438 211.585938 62.0625 211.75 C 61.222656 211.917969 60.375 212 59.519531 212 C 58.667969 212 57.820312 211.917969 56.980469 211.75 C 56.144531 211.585938 55.328125 211.339844 54.539062 211.011719 C 53.75 210.683594 53 210.285156 52.289062 209.808594 C 51.578125 209.335938 50.921875 208.796875 50.316406 208.191406 C 49.710938 207.585938 49.171875 206.929688 48.699219 206.21875 C 48.222656 205.507812 47.820312 204.757812 47.496094 203.96875 C 47.167969 203.179688 46.921875 202.367188 46.753906 201.53125 C 46.585938 200.691406 46.503906 199.847656 46.503906 198.992188 C 46.503906 198.136719 46.585938 197.292969 46.753906 196.453125 C 46.921875 195.617188 47.167969 194.800781 47.496094 194.011719 C 47.820312 193.222656 48.222656 192.472656 48.699219 191.765625 C 49.171875 191.054688 49.710938 190.394531 50.316406 189.792969 C 50.921875 189.1875 51.578125 188.648438 52.289062 188.175781 C 53 187.699219 53.75 187.300781 54.539062 186.972656 C 55.328125 186.644531 56.144531 186.398438 56.980469 186.230469 C 57.820312 186.066406 58.667969 185.980469 59.519531 185.980469 C 60.375 185.980469 61.222656 186.066406 62.0625 186.230469 C 62.898438 186.398438 63.714844 186.644531 64.503906 186.972656 C 65.292969 187.300781 66.042969 187.699219 66.753906 188.175781 C 67.464844 188.648438 68.121094 189.1875 68.726562 189.792969 C 69.332031 190.394531 69.871094 191.054688 70.34375 191.765625 C 70.820312 192.472656 71.222656 193.222656 71.546875 194.011719 C 71.875 194.800781 72.121094 195.617188 72.289062 196.453125 C 72.457031 197.292969 72.539062 198.136719 72.539062 198.992188 Z M 72.539062 198.992188 "/>
<path style=" stroke:none;fill-rule:nonzero;fill:rgb(100%,100%,100%);fill-opacity:1;" d="M 345.328125 161.269531 C 345.328125 162.125 345.242188 162.96875 345.078125 163.808594 C 344.910156 164.644531 344.664062 165.460938 344.335938 166.25 C 344.007812 167.039062 343.609375 167.789062 343.132812 168.5 C 342.660156 169.207031 342.117188 169.867188 341.515625 170.46875 C 340.910156 171.074219 340.253906 171.613281 339.542969 172.085938 C 338.832031 172.5625 338.082031 172.964844 337.292969 173.289062 C 336.5 173.617188 335.6875 173.863281 334.847656 174.03125 C 334.011719 174.195312 333.164062 174.28125 332.308594 174.28125 C 331.453125 174.28125 330.609375 174.195312 329.769531 174.03125 C 328.929688 173.863281 328.117188 173.617188 327.328125 173.289062 C 326.539062 172.964844 325.789062 172.5625 325.078125 172.085938 C 324.367188 171.613281 323.710938 171.074219 323.105469 170.46875 C 322.5 169.867188 321.960938 169.207031 321.484375 168.5 C 321.011719 167.789062 320.609375 167.039062 320.28125 166.25 C 319.957031 165.460938 319.707031 164.644531 319.542969 163.808594 C 319.375 162.96875 319.292969 162.125 319.292969 161.269531 C 319.292969 160.417969 319.375 159.570312 319.542969 158.730469 C 319.707031 157.894531 319.957031 157.082031 320.28125 156.292969 C 320.609375 155.503906 321.011719 154.753906 321.484375 154.042969 C 321.960938 153.332031 322.5 152.675781 323.105469 152.070312 C 323.710938 151.46875 324.367188 150.925781 325.078125 150.453125 C 325.789062 149.980469 326.539062 149.578125 327.328125 149.25 C 328.117188 148.925781 328.929688 148.675781 329.769531 148.511719 C 330.609375 148.34375 331.453125 148.261719 332.308594 148.261719 C 333.164062 148.261719 334.011719 148.34375 334.847656 148.511719 C 335.6875 148.675781 336.5 148.925781 337.292969 149.25 C 338.082031 149.578125 338.832031 149.980469 339.542969 150.453125 C 340.253906 150.925781 340.910156 151.46875 341.515625 152.070312 C 342.117188 152.675781 342.660156 153.332031 343.132812 154.042969 C 343.609375 154.753906 344.007812 155.503906 344.335938 156.292969 C 344.664062 157.082031 344.910156 157.894531 345.078125 158.730469 C 345.242188 159.570312 345.328125 160.417969 345.328125 161.269531 Z M 345.328125 161.269531 "/>
</g>
</svg>
