<?xml version="1.0" encoding="UTF-8"?>
<svg xmlns="http://www.w3.org/2000/svg" xmlns:xlink="http://www.w3.org/1999/xlink" width="768pt" height="767.999994pt" viewBox="0 0 768 767.999994" version="1.2">
<defs>
<clipPath id="clip1">
  <path d="M 49 102 L 719 102 L 719 676.679688 L 49 676.679688 Z M 49 102 "/>
</clipPath>
</defs>
<g id="surface1">
<g clip-path="url(#clip1)" clip-rule="nonzero">
<path style=" stroke:none;fill-rule:nonzero;fill:rgb(84.309387%,41.958618%,45.098877%);fill-opacity:1;" d="M 688.039062 174.957031 C 639.417969 98.25 538.027344 92.082031 474.675781 113.804688 C 425.519531 130.703125 390.160156 177.640625 384 185.6875 C 377.839844 177.640625 343.820312 131.640625 294.664062 114.878906 C 231.3125 93.152344 128.582031 98.25 79.960938 174.957031 C 60.675781 205.398438 0 303.832031 131.527344 455.90625 C 131.527344 455.90625 255.957031 599.800781 370.875 669.402344 C 376.097656 672.484375 382.792969 676.640625 383.332031 676.375 C 383.867188 676.640625 391.234375 672.621094 396.457031 669.402344 C 511.375 599.800781 636.472656 455.90625 636.472656 455.90625 C 768 303.832031 707.324219 205.398438 688.039062 174.957031 Z M 688.039062 174.957031 "/>
</g>
<path style=" stroke:none;fill-rule:nonzero;fill:rgb(100%,100%,100%);fill-opacity:1;" d="M 362.972656 533.152344 C 358.417969 533.152344 354.265625 530.335938 352.660156 525.910156 L 274.035156 315.765625 L 244.304688 411.382812 C 242.828125 415.941406 238.542969 419.429688 233.722656 419.429688 L 149.339844 419.429688 C 143.179688 419.429688 138.222656 414.199219 138.222656 408.03125 C 138.222656 401.863281 143.179688 396.632812 149.339844 396.632812 L 225.550781 396.632812 L 262.519531 278.21875 C 263.992188 273.660156 268.011719 270.574219 272.832031 270.441406 C 277.652344 270.304688 281.804688 273.257812 283.546875 277.683594 L 361.230469 485.273438 L 402.082031 328.375 C 403.285156 323.8125 407.171875 320.59375 411.726562 320.191406 C 416.277344 319.789062 420.699219 322.203125 422.707031 326.496094 L 455.253906 395.023438 L 491.015625 251.398438 C 492.222656 246.703125 496.375 243.21875 501.195312 243.082031 C 506.015625 242.816406 510.570312 245.898438 512.179688 250.457031 L 538.429688 325.15625 L 640.089844 325.421875 C 646.25 325.421875 651.070312 329.582031 651.070312 335.613281 C 651.070312 341.785156 646.117188 345.808594 639.957031 345.808594 L 530.394531 346.34375 C 525.707031 346.34375 521.554688 343.796875 519.945312 339.371094 L 503.339844 292.300781 L 468.917969 430.160156 C 467.84375 434.71875 463.960938 438.070312 459.273438 438.605469 C 454.585938 439.007812 450.164062 436.59375 448.15625 432.304688 L 415.339844 363.375 L 373.285156 524.835938 C 372.078125 529.53125 367.925781 532.882812 363.105469 533.152344 C 363.375 533.152344 363.238281 533.152344 362.972656 533.152344 Z M 362.972656 533.152344 "/>
<path style=" stroke:none;fill-rule:nonzero;fill:rgb(100%,100%,100%);fill-opacity:1;" d="M 172.109375 405.617188 C 172.109375 406.402344 172.070312 407.1875 171.996094 407.96875 C 171.917969 408.753906 171.800781 409.53125 171.648438 410.300781 C 171.496094 411.070312 171.304688 411.832031 171.078125 412.585938 C 170.851562 413.335938 170.585938 414.078125 170.285156 414.804688 C 169.984375 415.53125 169.648438 416.238281 169.277344 416.933594 C 168.910156 417.625 168.507812 418.300781 168.070312 418.953125 C 167.632812 419.605469 167.167969 420.238281 166.667969 420.847656 C 166.171875 421.453125 165.644531 422.035156 165.089844 422.589844 C 164.53125 423.148438 163.953125 423.675781 163.34375 424.171875 C 162.738281 424.671875 162.109375 425.140625 161.453125 425.578125 C 160.800781 426.011719 160.128906 426.417969 159.4375 426.789062 C 158.746094 427.15625 158.035156 427.492188 157.308594 427.792969 C 156.585938 428.09375 155.847656 428.359375 155.09375 428.589844 C 154.34375 428.816406 153.582031 429.007812 152.8125 429.160156 C 152.042969 429.3125 151.265625 429.429688 150.484375 429.507812 C 149.703125 429.582031 148.921875 429.621094 148.136719 429.621094 C 147.351562 429.621094 146.566406 429.582031 145.785156 429.507812 C 145.003906 429.429688 144.226562 429.3125 143.457031 429.160156 C 142.6875 429.007812 141.925781 428.816406 141.175781 428.589844 C 140.425781 428.359375 139.6875 428.09375 138.960938 427.792969 C 138.234375 427.492188 137.527344 427.15625 136.832031 426.789062 C 136.140625 426.417969 135.46875 426.011719 134.816406 425.578125 C 134.164062 425.140625 133.53125 424.671875 132.925781 424.171875 C 132.320312 423.675781 131.738281 423.148438 131.183594 422.589844 C 130.628906 422.035156 130.101562 421.453125 129.601562 420.847656 C 129.105469 420.238281 128.636719 419.605469 128.199219 418.953125 C 127.765625 418.300781 127.363281 417.625 126.992188 416.933594 C 126.621094 416.238281 126.285156 415.53125 125.984375 414.804688 C 125.683594 414.078125 125.421875 413.335938 125.191406 412.585938 C 124.964844 411.832031 124.773438 411.070312 124.621094 410.300781 C 124.46875 409.53125 124.351562 408.753906 124.277344 407.96875 C 124.199219 407.1875 124.160156 406.402344 124.160156 405.617188 C 124.160156 404.832031 124.199219 404.046875 124.277344 403.265625 C 124.351562 402.480469 124.46875 401.707031 124.621094 400.933594 C 124.773438 400.164062 124.964844 399.402344 125.191406 398.648438 C 125.421875 397.898438 125.683594 397.15625 125.984375 396.429688 C 126.285156 395.703125 126.621094 394.996094 126.992188 394.300781 C 127.363281 393.609375 127.765625 392.933594 128.199219 392.28125 C 128.636719 391.628906 129.105469 390.996094 129.601562 390.390625 C 130.101562 389.78125 130.628906 389.199219 131.183594 388.644531 C 131.738281 388.085938 132.320312 387.558594 132.925781 387.0625 C 133.53125 386.5625 134.164062 386.09375 134.816406 385.65625 C 135.46875 385.222656 136.140625 384.816406 136.832031 384.445312 C 137.527344 384.078125 138.234375 383.742188 138.960938 383.441406 C 139.6875 383.140625 140.425781 382.875 141.175781 382.644531 C 141.925781 382.417969 142.6875 382.226562 143.457031 382.074219 C 144.226562 381.921875 145.003906 381.804688 145.785156 381.726562 C 146.566406 381.652344 147.351562 381.613281 148.136719 381.613281 C 148.921875 381.613281 149.703125 381.652344 150.484375 381.726562 C 151.265625 381.804688 152.042969 381.921875 152.8125 382.074219 C 153.582031 382.226562 154.34375 382.417969 155.09375 382.644531 C 155.847656 382.875 156.585938 383.140625 157.308594 383.441406 C 158.035156 383.742188 158.746094 384.078125 159.4375 384.445312 C 160.128906 384.816406 160.800781 385.222656 161.453125 385.65625 C 162.109375 386.09375 162.738281 386.5625 163.34375 387.0625 C 163.953125 387.558594 164.53125 388.085938 165.089844 388.644531 C 165.644531 389.199219 166.171875 389.78125 166.667969 390.390625 C 167.167969 390.996094 167.632812 391.628906 168.070312 392.28125 C 168.507812 392.933594 168.910156 393.609375 169.277344 394.300781 C 169.648438 394.996094 169.984375 395.703125 170.285156 396.429688 C 170.585938 397.15625 170.851562 397.898438 171.078125 398.648438 C 171.304688 399.402344 171.496094 400.164062 171.648438 400.933594 C 171.800781 401.707031 171.917969 402.480469 171.996094 403.265625 C 172.070312 404.046875 172.109375 404.832031 172.109375 405.617188 Z M 172.109375 405.617188 "/>
<path style=" stroke:none;fill-rule:nonzero;fill:rgb(100%,100%,100%);fill-opacity:1;" d="M 674.511719 336.015625 C 674.511719 336.804688 674.472656 337.585938 674.394531 338.371094 C 674.320312 339.152344 674.203125 339.929688 674.050781 340.699219 C 673.898438 341.472656 673.707031 342.234375 673.480469 342.984375 C 673.25 343.738281 672.988281 344.476562 672.6875 345.203125 C 672.386719 345.929688 672.050781 346.640625 671.679688 347.332031 C 671.308594 348.027344 670.90625 348.699219 670.472656 349.351562 C 670.035156 350.007812 669.566406 350.636719 669.070312 351.246094 C 668.570312 351.851562 668.042969 352.433594 667.488281 352.992188 C 666.933594 353.546875 666.351562 354.074219 665.746094 354.574219 C 665.140625 355.070312 664.507812 355.539062 663.855469 355.976562 C 663.203125 356.414062 662.53125 356.816406 661.839844 357.1875 C 661.144531 357.558594 660.4375 357.894531 659.710938 358.195312 C 658.984375 358.496094 658.246094 358.761719 657.496094 358.988281 C 656.746094 359.214844 655.984375 359.40625 655.214844 359.5625 C 654.445312 359.714844 653.667969 359.828125 652.886719 359.90625 C 652.105469 359.984375 651.320312 360.023438 650.535156 360.023438 C 649.75 360.023438 648.96875 359.984375 648.1875 359.90625 C 647.40625 359.828125 646.628906 359.714844 645.859375 359.5625 C 645.089844 359.40625 644.328125 359.214844 643.578125 358.988281 C 642.824219 358.761719 642.085938 358.496094 641.363281 358.195312 C 640.636719 357.894531 639.925781 357.558594 639.234375 357.1875 C 638.542969 356.816406 637.871094 356.414062 637.214844 355.976562 C 636.5625 355.539062 635.933594 355.070312 635.328125 354.574219 C 634.71875 354.074219 634.140625 353.546875 633.582031 352.992188 C 633.027344 352.433594 632.5 351.851562 632.003906 351.246094 C 631.503906 350.636719 631.039062 350.007812 630.601562 349.351562 C 630.164062 348.699219 629.761719 348.027344 629.390625 347.332031 C 629.023438 346.640625 628.6875 345.929688 628.386719 345.203125 C 628.085938 344.476562 627.820312 343.738281 627.59375 342.984375 C 627.367188 342.234375 627.175781 341.472656 627.023438 340.699219 C 626.867188 339.929688 626.753906 339.152344 626.675781 338.371094 C 626.601562 337.585938 626.5625 336.804688 626.5625 336.015625 C 626.5625 335.230469 626.601562 334.445312 626.675781 333.664062 C 626.753906 332.882812 626.867188 332.105469 627.023438 331.335938 C 627.175781 330.5625 627.367188 329.800781 627.59375 329.050781 C 627.820312 328.296875 628.085938 327.558594 628.386719 326.832031 C 628.6875 326.105469 629.023438 325.394531 629.390625 324.703125 C 629.761719 324.007812 630.164062 323.335938 630.601562 322.679688 C 631.039062 322.027344 631.503906 321.394531 632.003906 320.789062 C 632.5 320.179688 633.027344 319.597656 633.582031 319.042969 C 634.140625 318.488281 634.71875 317.960938 635.328125 317.460938 C 635.933594 316.960938 636.5625 316.496094 637.214844 316.058594 C 637.871094 315.621094 638.542969 315.21875 639.234375 314.847656 C 639.925781 314.476562 640.636719 314.140625 641.363281 313.839844 C 642.085938 313.539062 642.824219 313.273438 643.578125 313.046875 C 644.328125 312.816406 645.089844 312.628906 645.859375 312.472656 C 646.628906 312.320312 647.40625 312.207031 648.1875 312.128906 C 648.96875 312.050781 649.75 312.011719 650.535156 312.011719 C 651.320312 312.011719 652.105469 312.050781 652.886719 312.128906 C 653.667969 312.207031 654.445312 312.320312 655.214844 312.472656 C 655.984375 312.628906 656.746094 312.816406 657.496094 313.046875 C 658.246094 313.273438 658.984375 313.539062 659.710938 313.839844 C 660.4375 314.140625 661.144531 314.476562 661.839844 314.847656 C 662.53125 315.21875 663.203125 315.621094 663.855469 316.058594 C 664.507812 316.496094 665.140625 316.960938 665.746094 317.460938 C 666.351562 317.960938 666.933594 318.488281 667.488281 319.042969 C 668.042969 319.597656 668.570312 320.179688 669.070312 320.789062 C 669.566406 321.394531 670.035156 322.027344 670.46875 322.679688 C 670.90625 323.335938 671.308594 324.007812 671.679688 324.703125 C 672.050781 325.394531 672.386719 326.105469 672.6875 326.832031 C 672.988281 327.558594 673.25 328.296875 673.480469 329.050781 C 673.707031 329.800781 673.898438 330.5625 674.050781 331.335938 C 674.203125 332.105469 674.320312 332.882812 674.394531 333.664062 C 674.472656 334.445312 674.511719 335.230469 674.511719 336.015625 Z M 674.511719 336.015625 "/>
</g>
</svg>
