<?xml version="1.0" encoding="UTF-8"?>
<svg xmlns="http://www.w3.org/2000/svg" xmlns:xlink="http://www.w3.org/1999/xlink" width="375pt" height="374.999991pt" viewBox="0 0 375 374.999991" version="1.2">
<defs>
<clipPath id="clip1">
  <path d="M 28.03125 313 L 43 313 L 43 328 L 28.03125 328 Z M 28.03125 313 "/>
</clipPath>
<clipPath id="clip2">
  <path d="M 28.03125 28.03125 L 372.28125 28.03125 L 372.28125 372.28125 L 28.03125 372.28125 Z M 28.03125 28.03125 "/>
</clipPath>
</defs>
<g id="surface1">
<g clip-path="url(#clip1)" clip-rule="nonzero">
<path style=" stroke:none;fill-rule:nonzero;fill:rgb(0%,0%,0%);fill-opacity:1;" d="M 42.660156 320.03125 C 42.226562 316.164062 38.863281 313.285156 34.695312 313.648438 C 32.828125 313.863281 31.113281 314.867188 29.898438 316.382812 C 28.679688 317.796875 28.164062 319.746094 28.398438 321.597656 C 28.8125 325.261719 31.828125 327.996094 35.496094 327.996094 C 35.777344 327.996094 35.980469 327.996094 36.277344 327.910156 C 40.226562 327.480469 43.078125 323.980469 42.660156 320.03125 "/>
</g>
<g clip-path="url(#clip2)" clip-rule="nonzero">
<path style=" stroke:none;fill-rule:nonzero;fill:rgb(0%,0%,0%);fill-opacity:1;" d="M 357.796875 343.910156 C 357.796875 347.859375 354.582031 351.074219 350.632812 351.074219 L 329.117188 351.074219 L 329.117188 316.449219 C 335.234375 318.03125 340.515625 319.378906 343.847656 320.230469 C 344.179688 320.332031 344.53125 320.382812 344.882812 320.429688 C 352.25 321.164062 357.796875 327.296875 357.796875 334.695312 Z M 314.789062 351.074219 C 314.789062 355.023438 311.574219 358.242188 307.625 358.242188 L 274.363281 358.242188 L 268.28125 340.875 L 239.605469 258.941406 L 311.191406 295.933594 C 313.402344 297.203125 314.789062 299.585938 314.789062 302.152344 Z M 192.980469 358.242188 L 185.566406 337.042969 L 154.902344 249.429688 L 197.847656 235.113281 C 201.109375 238.148438 204.625 240.714844 208.359375 242.796875 C 208.425781 242.832031 208.476562 242.863281 208.542969 242.898438 L 221.058594 249.363281 L 259.167969 358.242188 Z M 114.445312 358.242188 L 85.871094 272.4375 L 141.292969 253.960938 L 177.78125 358.242188 Z M 74.605469 261.074219 C 74.570312 261.09375 74.519531 261.09375 74.488281 261.109375 L 42.378906 271.789062 L 42.378906 265.542969 L 49.308594 214.636719 L 141.460938 189.824219 L 180.621094 179.273438 L 180.019531 191.875 C 179.484375 203.039062 182.300781 213.871094 188.097656 223.25 Z M 80.6875 78.664062 L 110.515625 115.121094 L 56.257812 127.652344 L 45.359375 130.171875 L 42.742188 78.664062 Z M 183.765625 112.941406 L 181.316406 164.230469 L 48.90625 199.890625 L 46.09375 144.71875 L 124.992188 126.503906 L 183.699219 112.957031 Z M 185.398438 78.664062 L 184.464844 98.058594 L 126.109375 111.523438 L 99.21875 78.664062 Z M 346.882812 306.214844 C 341 304.71875 334.949219 303.152344 329.085938 301.601562 C 328.882812 294.019531 324.722656 287.054688 318.070312 283.355469 C 318.007812 283.320312 317.9375 283.289062 317.871094 283.253906 L 230.175781 237.929688 L 215.242188 230.214844 C 211.574219 228.164062 208.164062 225.417969 205.09375 222.070312 C 197.628906 213.902344 193.796875 203.441406 194.328125 192.558594 L 195.394531 170.144531 L 198.53125 104.15625 L 200.078125 71.832031 C 200.164062 69.863281 199.464844 67.949219 198.09375 66.53125 C 196.746094 65.117188 194.878906 64.316406 192.914062 64.316406 L 191.28125 64.316406 L 192.894531 36.054688 C 193.128906 32.105469 190.113281 28.707031 186.148438 28.492188 C 182.230469 28.257812 178.816406 31.273438 178.601562 35.238281 L 176.933594 64.316406 L 57.804688 64.316406 L 56.707031 35.371094 C 56.542969 31.40625 52.976562 28.171875 49.257812 28.472656 C 45.308594 28.625 42.226562 31.957031 42.378906 35.921875 L 43.460938 64.316406 L 35.195312 64.316406 C 33.230469 64.316406 31.363281 65.117188 30.011719 66.550781 C 28.648438 67.964844 27.945312 69.882812 28.046875 71.847656 L 31.480469 139.4375 L 35.046875 209.488281 L 35.179688 212.167969 L 28.097656 264.074219 C 28.046875 264.394531 28.03125 264.726562 28.03125 265.042969 L 28.03125 292.152344 C 28.03125 296.085938 31.261719 299.316406 35.195312 299.316406 C 39.144531 299.316406 42.378906 296.085938 42.378906 292.152344 L 42.378906 286.9375 L 72.238281 276.972656 L 82.402344 307.449219 L 99.28125 358.242188 L 85.382812 358.242188 C 72.402344 358.242188 60.222656 352.421875 52.042969 342.394531 C 49.609375 339.394531 44.875 338.878906 41.945312 341.328125 C 40.425781 342.542969 39.496094 344.257812 39.277344 346.125 C 39.144531 348.058594 39.644531 349.921875 40.859375 351.425781 C 51.824219 364.835938 68.039062 372.585938 85.382812 372.585938 L 307.621094 372.585938 C 314.136719 372.585938 319.972656 369.652344 323.917969 365.070312 L 323.917969 365.402344 L 350.628906 365.402344 C 362.492188 365.402344 372.144531 355.757812 372.144531 343.910156 L 372.144531 334.695312 C 372.144531 320.078125 361.3125 307.953125 346.882812 306.214844 "/>
</g>
</g>
</svg>
