<?xml version="1.0" encoding="UTF-8"?>
<svg xmlns="http://www.w3.org/2000/svg" xmlns:xlink="http://www.w3.org/1999/xlink" width="768pt" height="767.999994pt" viewBox="0 0 768 767.999994" version="1.2">
<defs>
<clipPath id="clip1">
  <path d="M 14.15625 14.15625 L 753.65625 14.15625 L 753.65625 753.65625 L 14.15625 753.65625 Z M 14.15625 14.15625 "/>
</clipPath>
</defs>
<g id="surface1">
<g clip-path="url(#clip1)" clip-rule="nonzero">
<path style=" stroke:none;fill-rule:nonzero;fill:rgb(100%,8.628845%,8.628845%);fill-opacity:1;" d="M 753.65625 383.90625 C 753.65625 179.734375 588.082031 14.15625 383.90625 14.15625 C 179.734375 14.15625 14.15625 179.734375 14.15625 383.90625 C 14.15625 588.082031 179.734375 753.65625 383.90625 753.65625 C 588.082031 753.65625 753.65625 588.082031 753.65625 383.90625 Z M 753.65625 383.90625 "/>
</g>
<path style=" stroke:none;fill-rule:nonzero;fill:rgb(100%,100%,100%);fill-opacity:1;" d="M 587.488281 260.0625 C 578.84375 237.558594 561.109375 241.132812 541.882812 245.007812 C 530.40625 247.394531 479.289062 262.296875 398.660156 347.542969 C 365.128906 382.863281 343.074219 411.03125 328.46875 432.492188 C 319.527344 421.613281 309.390625 409.839844 298.660156 399.257812 C 265.726562 366.320312 228.914062 343.667969 227.421875 342.773438 C 212.074219 333.386719 191.953125 338.15625 182.414062 353.652344 C 173.027344 369.003906 177.796875 389.125 193.144531 398.660156 C 193.445312 398.8125 225.039062 418.335938 252.164062 445.605469 C 279.882812 473.328125 305.070312 510.882812 305.367188 511.332031 C 311.476562 520.570312 321.761719 525.9375 332.640625 525.9375 C 334.429688 525.9375 336.367188 525.785156 338.304688 525.488281 C 351.121094 523.253906 361.253906 513.714844 364.382812 501.195312 C 364.535156 500.898438 377.5 464.980469 445.90625 392.851562 C 501.046875 334.578125 537.859375 316.097656 550.675781 311.03125 C 550.824219 311.03125 550.824219 311.03125 551.121094 311.03125 C 551.121094 311.03125 551.570312 310.882812 552.316406 310.433594 C 554.550781 309.539062 555.742188 309.242188 555.742188 309.242188 C 555.144531 309.390625 554.847656 309.390625 554.847656 309.390625 L 554.847656 309.242188 C 560.808594 306.710938 571.839844 301.941406 571.988281 301.789062 C 588.53125 294.636719 594.042969 276.753906 587.488281 260.0625 Z M 587.488281 260.0625 "/>
</g>
</svg>
