<?xml version="1.0" encoding="UTF-8"?>
<svg xmlns="http://www.w3.org/2000/svg" xmlns:xlink="http://www.w3.org/1999/xlink" width="375pt" height="374.999991pt" viewBox="0 0 375 374.999991" version="1.2">
<defs>
<filter id="alpha" filterUnits="objectBoundingBox" x="0%" y="0%" width="100%" height="100%">
  <feColorMatrix type="matrix" in="SourceGraphic" values="0 0 0 0 1 0 0 0 0 1 0 0 0 0 1 0 0 0 1 0"/>
</filter>
<mask id="mask0">
  <g filter="url(#alpha)">
<rect x="0" y="0" width="375" height="374.999991" style="fill:rgb(0%,0%,0%);fill-opacity:0.4863;stroke:none;"/>
  </g>
</mask>
<clipPath id="clip2">
  <path d="M 1 0.199219 L 369.558594 0.199219 L 369.558594 174 L 1 174 Z M 1 0.199219 "/>
</clipPath>
<clipPath id="clip3">
  <path d="M 1 87 L 369.558594 87 L 369.558594 177 L 1 177 Z M 1 87 "/>
</clipPath>
<clipPath id="clip1">
  <rect x="0" y="0" width="370" height="178"/>
</clipPath>
<g id="surface5" clip-path="url(#clip1)">
<g clip-path="url(#clip2)" clip-rule="nonzero">
<path style=" stroke:none;fill-rule:nonzero;fill:rgb(86.268616%,92.549133%,98.039246%);fill-opacity:1;" d="M 178.800781 51.824219 C 178.800781 51.824219 164.3125 20.949219 190.449219 6.457031 C 216.585938 -8.035156 267.285156 4.25 284.601562 33.550781 C 284.601562 33.550781 298.773438 12.757812 322.390625 21.582031 C 346.007812 30.402344 354.511719 49.933594 345.378906 67.890625 C 345.378906 67.890625 363.328125 65.371094 368.367188 87.109375 C 373.402344 108.847656 356.714844 119.875 341.914062 114.519531 C 341.914062 114.519531 347.898438 138.78125 316.09375 156.105469 C 284.289062 173.4375 250.910156 148.859375 250.910156 148.859375 C 250.910156 148.859375 243.351562 174.382812 199.894531 173.75 C 156.441406 173.121094 150.773438 141.929688 150.773438 141.929688 C 150.773438 141.929688 143.214844 149.804688 128.730469 148.546875 C 114.246094 147.285156 109.835938 139.410156 109.835938 139.410156 C 109.835938 139.410156 100.703125 157.367188 73.9375 158.3125 C 47.171875 159.257812 35.207031 140.984375 38.355469 129.957031 C 38.355469 129.957031 -0.375 130.273438 1.511719 103.179688 C 3.402344 76.085938 46.230469 72.933594 72.050781 87.109375 C 72.050781 87.109375 72.050781 74.195312 89.683594 77.34375 C 107.320312 80.496094 113.300781 90.261719 113.300781 90.261719 C 113.300781 90.261719 110.152344 78.917969 116.765625 64.742188 C 123.378906 50.566406 147.625 45.210938 153.292969 63.484375 C 153.292969 63.484375 160.222656 47.097656 178.800781 51.824219 Z M 178.800781 51.824219 "/>
</g>
<g clip-path="url(#clip3)" clip-rule="nonzero">
<path style=" stroke:none;fill-rule:nonzero;fill:rgb(75.689697%,81.568909%,82.749939%);fill-opacity:1;" d="M 368.367188 87.109375 C 373.402344 109.558594 356.714844 120.945312 341.914062 115.417969 C 341.914062 115.417969 347.898438 140.46875 316.09375 158.363281 C 284.289062 176.261719 250.910156 150.882812 250.910156 150.882812 C 250.910156 150.882812 243.351562 177.234375 199.894531 176.585938 C 156.441406 175.933594 150.773438 143.722656 150.773438 143.722656 C 150.773438 143.722656 143.214844 151.859375 128.730469 150.554688 C 114.246094 149.253906 109.835938 141.121094 109.835938 141.121094 C 109.835938 141.121094 100.703125 159.667969 73.9375 160.640625 C 47.171875 161.617188 35.207031 142.75 38.355469 131.359375 C 38.355469 131.359375 -0.375 131.6875 1.511719 103.703125 C 1.511719 103.703125 12.691406 127.941406 51.898438 119.160156 C 51.898438 119.160156 48.117188 136.726562 64.175781 145.511719 C 80.238281 154.296875 98.660156 146.488281 108.578125 132.824219 C 108.578125 132.824219 131.25 154.296875 160.0625 129.894531 C 160.0625 129.894531 168.566406 150.878906 200.683594 157.226562 C 232.804688 163.570312 248.390625 145.511719 242.25 131.359375 C 242.25 131.359375 273.898438 154.785156 304.601562 142.585938 C 335.304688 130.382812 323.023438 98.175781 323.023438 98.175781 C 323.023438 98.175781 338.609375 112.816406 354.667969 105.980469 C 370.730469 99.148438 368.367188 87.109375 368.367188 87.109375 Z M 368.367188 87.109375 "/>
</g>
</g>
</defs>
<g id="surface1">
<use xlink:href="#surface5" transform="matrix(1,0,0,1,1,103)" mask="url(#mask0)"/>
</g>
</svg>
