<?xml version="1.0" encoding="UTF-8"?>
<svg xmlns="http://www.w3.org/2000/svg" xmlns:xlink="http://www.w3.org/1999/xlink" width="375pt" height="374.999991pt" viewBox="0 0 375 374.999991" version="1.2">
<defs>
<clipPath id="clip1">
  <path d="M 100 175 L 283 175 L 283 367.417969 L 100 367.417969 Z M 100 175 "/>
</clipPath>
</defs>
<g id="surface1">
<rect x="0" y="0" width="375" height="374.999991" style="fill:rgb(100%,100%,100%);fill-opacity:1;stroke:none;"/>
<rect x="0" y="0" width="375" height="374.999991" style="fill:rgb(100%,100%,100%);fill-opacity:1;stroke:none;"/>
<rect x="0" y="0" width="375" height="374.999991" style="fill:rgb(0%,0%,0%);fill-opacity:1;stroke:none;"/>
<g clip-path="url(#clip1)" clip-rule="nonzero">
<path style=" stroke:none;fill-rule:nonzero;fill:rgb(97.648621%,66.668701%,47.059631%);fill-opacity:1;" d="M 105.023438 204.621094 C 105.023438 204.621094 288.855469 142.859375 282.234375 200.296875 C 275.125 262.007812 273.519531 292.851562 253.300781 311.8125 C 245.375 339.9375 245.085938 367.304688 245.085938 367.304688 L 109.246094 367.304688 C 109.246094 367.304688 116.027344 332.945312 109.246094 317.667969 C 92.539062 279.984375 105.023438 204.621094 105.023438 204.621094 "/>
</g>
<path style=" stroke:none;fill-rule:nonzero;fill:rgb(90.589905%,81.568909%,79.998779%);fill-opacity:1;" d="M 280.898438 212.074219 C 281.324219 208.273438 281.773438 204.351562 282.234375 200.296875 C 282.34375 199.378906 282.402344 198.488281 282.410156 197.632812 C 282.402344 198.492188 282.34375 199.378906 282.234375 200.296875 C 281.769531 204.355469 281.328125 208.277344 280.898438 212.074219 "/>
<path style=" stroke:none;fill-rule:nonzero;fill:rgb(88.62915%,55.288696%,38.42926%);fill-opacity:1;" d="M 280.261719 217.738281 C 278.589844 211.832031 276.738281 205.027344 272.359375 201.207031 C 270.15625 199.292969 267.554688 197.890625 264.734375 196.8125 L 264.734375 188.941406 C 268.160156 191.488281 272.035156 192.988281 275.019531 192.992188 C 276.570312 192.992188 277.882812 192.585938 278.761719 191.703125 C 279.464844 191.007812 280.167969 190.402344 280.917969 189.835938 C 281.925781 192.105469 282.445312 194.699219 282.410156 197.632812 C 282.402344 198.488281 282.34375 199.378906 282.234375 200.296875 C 281.773438 204.351562 281.324219 208.273438 280.898438 212.074219 C 280.683594 213.992188 280.472656 215.882812 280.261719 217.738281 "/>
<path style=" stroke:none;fill-rule:nonzero;fill:rgb(97.648621%,66.668701%,47.059631%);fill-opacity:1;" d="M 260.546875 164.335938 C 246.652344 181.652344 272.738281 197.714844 278.761719 191.703125 C 283.011719 187.46875 287.292969 186.867188 301.8125 174.933594 C 316.34375 163.003906 287.761719 132.425781 276.707031 143.96875 C 265.652344 155.511719 267.496094 155.675781 260.546875 164.335938 "/>
<path style=" stroke:none;fill-rule:nonzero;fill:rgb(88.62915%,55.288696%,38.42926%);fill-opacity:1;" d="M 264.734375 171.8125 L 264.734375 159.3125 C 267.46875 160.765625 270.234375 161.582031 272.515625 161.582031 C 274.191406 161.582031 275.601562 161.144531 276.546875 160.195312 C 278 158.753906 279.449219 157.699219 281.253906 156.527344 C 279.449219 158.269531 277.640625 160.050781 275.828125 161.582031 C 271.328125 165.390625 267.382812 168.472656 264.734375 171.8125 M 299.667969 151.617188 C 297.660156 149.617188 295.683594 148.800781 293.71875 148.800781 C 293.390625 148.800781 293.066406 148.824219 292.742188 148.867188 C 293.519531 148.292969 294.34375 147.6875 295.203125 147.027344 C 296.800781 148.394531 298.3125 149.949219 299.667969 151.617188 "/>
<path style=" stroke:none;fill-rule:nonzero;fill:rgb(98.81897%,81.17981%,67.059326%);fill-opacity:1;" d="M 276.257812 189.972656 C 269.523438 189.972656 260.664062 183.238281 269.785156 171.871094 C 272.492188 168.5 276.46875 164.90625 277.816406 162.941406 C 283.421875 165.417969 287.503906 173.925781 289.410156 178.859375 C 288.042969 175.320312 285.554688 169.941406 282.1875 166.261719 C 282.140625 166.214844 282.101562 166.191406 282.070312 166.191406 C 281.601562 166.191406 282.128906 170.671875 283.078125 175.152344 C 284.027344 179.632812 285.40625 184.113281 286.636719 184.113281 C 286.738281 184.113281 286.839844 184.082031 286.933594 184.023438 C 287.941406 183.386719 289.089844 182.648438 290.421875 181.742188 C 285.660156 184.980469 283.308594 186.003906 280.96875 188.335938 C 279.863281 189.441406 278.144531 189.972656 276.257812 189.972656 "/>
<path style=" stroke:none;fill-rule:nonzero;fill:rgb(98.81897%,81.17981%,67.059326%);fill-opacity:1;" d="M 290.421875 181.742188 C 290.230469 181.105469 289.890625 180.097656 289.414062 178.863281 C 289.890625 180.097656 290.230469 181.109375 290.421875 181.742188 M 289.414062 178.863281 C 289.414062 178.863281 289.414062 178.859375 289.410156 178.859375 C 289.414062 178.859375 289.414062 178.863281 289.414062 178.863281 "/>
<path style=" stroke:none;fill-rule:nonzero;fill:rgb(99.21875%,89.7995%,81.568909%);fill-opacity:1;" d="M 286.636719 184.113281 C 285.40625 184.113281 284.027344 179.632812 283.078125 175.152344 C 282.128906 170.671875 281.601562 166.191406 282.070312 166.191406 C 282.101562 166.191406 282.140625 166.214844 282.1875 166.261719 C 285.554688 169.941406 288.042969 175.320312 289.410156 178.859375 C 289.414062 178.859375 289.414062 178.863281 289.414062 178.863281 C 289.890625 180.097656 290.230469 181.105469 290.421875 181.742188 C 289.089844 182.648438 287.941406 183.386719 286.933594 184.023438 C 286.839844 184.082031 286.738281 184.113281 286.636719 184.113281 "/>
<path style=" stroke:none;fill-rule:nonzero;fill:rgb(97.648621%,66.668701%,47.059631%);fill-opacity:1;" d="M 102.140625 158.828125 C 89.230469 114.570312 61.113281 173.015625 64.847656 190.34375 C 67.476562 202.558594 71.808594 230.867188 80.789062 272.589844 C 84.550781 290.054688 109.246094 317.667969 109.246094 317.667969 L 134.140625 238.25 C 134.140625 238.25 108.59375 180.964844 102.140625 158.828125 "/>
<path style=" stroke:none;fill-rule:nonzero;fill:rgb(8.628845%,7.058716%,8.239746%);fill-opacity:1;" d="M 260.882812 45.207031 L 260.5 45.207031 L 260.5 89.722656 L 260.882812 89.722656 C 267.21875 89.722656 272.359375 85.785156 272.359375 80.921875 L 272.359375 54.011719 C 272.359375 49.148438 267.21875 45.207031 260.882812 45.207031 "/>
<path style=" stroke:none;fill-rule:nonzero;fill:rgb(8.628845%,7.058716%,8.239746%);fill-opacity:1;" d="M 260.882812 94.898438 L 260.5 94.898438 L 260.5 139.417969 L 260.882812 139.417969 C 267.21875 139.417969 272.359375 135.476562 272.359375 130.609375 L 272.359375 103.703125 C 272.359375 98.839844 267.21875 94.898438 260.882812 94.898438 "/>
<path style=" stroke:none;fill-rule:nonzero;fill:rgb(16.079712%,14.118958%,17.248535%);fill-opacity:1;" d="M 264.734375 283.625 C 264.734375 290.046875 259.367188 295.257812 252.75 295.257812 L 121.578125 295.257812 C 114.957031 295.257812 109.59375 290.046875 109.59375 283.625 L 109.59375 18.714844 C 109.59375 12.292969 114.957031 7.085938 121.578125 7.085938 L 252.75 7.085938 C 259.367188 7.085938 264.734375 12.292969 264.734375 18.714844 L 264.734375 283.625 "/>
<path style=" stroke:none;fill-rule:nonzero;fill:rgb(31.369019%,29.019165%,36.079407%);fill-opacity:1;" d="M 195.566406 28.015625 C 195.566406 30.078125 193.890625 31.753906 191.824219 31.753906 L 171.226562 31.753906 C 169.152344 31.753906 167.480469 30.078125 167.480469 28.015625 C 167.480469 25.953125 169.152344 24.28125 171.226562 24.28125 L 191.824219 24.28125 C 193.890625 24.28125 195.566406 25.953125 195.566406 28.015625 "/>
<path style=" stroke:none;fill-rule:nonzero;fill:rgb(31.369019%,29.019165%,36.079407%);fill-opacity:1;" d="M 206.847656 28.015625 C 206.847656 30.078125 205.167969 31.753906 203.101562 31.753906 C 201.03125 31.753906 199.351562 30.078125 199.351562 28.015625 C 199.351562 25.953125 201.03125 24.28125 203.101562 24.28125 C 205.167969 24.28125 206.847656 25.953125 206.847656 28.015625 "/>
<path style=" stroke:none;fill-rule:nonzero;fill:rgb(31.369019%,29.019165%,36.079407%);fill-opacity:1;" d="M 200.976562 271.574219 C 200.976562 273.636719 199.296875 275.3125 197.230469 275.3125 L 176.628906 275.3125 C 174.558594 275.3125 172.882812 273.636719 172.882812 271.574219 C 172.882812 269.515625 174.558594 267.839844 176.628906 267.839844 L 197.230469 267.839844 C 199.296875 267.839844 200.976562 269.515625 200.976562 271.574219 "/>
<path style=" stroke:none;fill-rule:nonzero;fill:rgb(65.879822%,88.62915%,88.238525%);fill-opacity:1;" d="M 117.800781 251.011719 L 256.527344 251.011719 L 256.527344 55.304688 L 117.800781 55.304688 Z M 117.800781 251.011719 "/>
<path style=" stroke:none;fill-rule:nonzero;fill:rgb(97.648621%,66.668701%,47.059631%);fill-opacity:1;" d="M 120.824219 141.757812 C 137.292969 98.6875 95.597656 90.667969 89.746094 102.417969 C 84.175781 113.613281 67.40625 131.839844 63.511719 150.433594 C 58.179688 175.84375 72.246094 230.132812 72.246094 230.132812 L 108.789062 210.175781 C 108.789062 210.175781 112.589844 163.292969 120.824219 141.757812 "/>
<path style=" stroke:none;fill-rule:nonzero;fill:rgb(14.898682%,12.548828%,14.898682%);fill-opacity:1;" d="M 110.503906 193.519531 C 110.503906 193.515625 110.503906 193.515625 110.503906 193.511719 C 111.964844 181.230469 114.371094 164.464844 117.800781 151.414062 C 114.371094 164.46875 111.96875 181.238281 110.503906 193.519531 "/>
<path style=" stroke:none;fill-rule:nonzero;fill:rgb(60.389709%,72.938538%,71.759033%);fill-opacity:1;" d="M 117.800781 151.414062 C 118.730469 147.863281 119.738281 144.589844 120.824219 141.757812 C 127.304688 124.804688 124.777344 113.285156 118.972656 106.257812 C 124.777344 113.28125 127.304688 124.800781 120.824219 141.757812 C 119.738281 144.589844 118.730469 147.863281 117.800781 151.414062 M 118.96875 106.257812 C 118.96875 106.253906 118.964844 106.25 118.964844 106.25 C 118.964844 106.253906 118.96875 106.253906 118.96875 106.257812 "/>
<path style=" stroke:none;fill-rule:nonzero;fill:rgb(88.62915%,55.288696%,38.42926%);fill-opacity:1;" d="M 110.503906 193.511719 C 109.761719 188.035156 109.277344 182.460938 108.875 176.992188 C 108.621094 173.558594 108.609375 170.125 108.789062 166.6875 C 108.796875 166.585938 108.988281 164.785156 108.964844 164.785156 C 108.964844 164.785156 108.964844 164.785156 108.960938 164.789062 C 109.085938 163.960938 109.230469 163.144531 109.378906 162.324219 C 110.195312 157.746094 111.332031 153.222656 112.351562 148.691406 C 116.257812 131.457031 118.703125 111.304688 106.40625 98.320312 C 110.949219 99.519531 115.527344 102.101562 118.964844 106.25 C 118.964844 106.25 118.96875 106.253906 118.96875 106.257812 C 118.96875 106.257812 118.972656 106.257812 118.972656 106.257812 C 124.777344 113.285156 127.304688 124.804688 120.824219 141.757812 C 119.738281 144.589844 118.730469 147.863281 117.800781 151.414062 C 114.371094 164.464844 111.964844 181.230469 110.503906 193.511719 "/>
<path style=" stroke:none;fill-rule:nonzero;fill:rgb(97.648621%,66.668701%,47.059631%);fill-opacity:1;" d="M 256.921875 130.710938 C 241.953125 149.367188 270.058594 166.675781 276.546875 160.195312 C 281.125 155.632812 285.738281 154.980469 301.386719 142.128906 C 317.035156 129.273438 286.246094 96.332031 274.335938 108.769531 C 262.425781 121.203125 264.410156 121.378906 256.921875 130.710938 "/>
<path style=" stroke:none;fill-rule:nonzero;fill:rgb(88.62915%,55.288696%,38.42926%);fill-opacity:1;" d="M 258.539062 154.726562 C 252.679688 148.886719 249.515625 139.992188 256.878906 130.765625 C 256.886719 130.757812 256.894531 130.746094 256.898438 130.738281 L 256.902344 130.738281 C 256.90625 130.730469 256.914062 130.71875 256.921875 130.710938 C 259.742188 127.199219 261.21875 124.984375 262.597656 122.921875 C 264.863281 123.722656 267.101562 124.15625 269.078125 124.1875 C 259.910156 132.796875 255.21875 143.003906 258.539062 154.726562 M 299.070312 117.003906 C 296.078125 114.03125 292.910156 112.835938 289.699219 112.835938 C 287.121094 112.835938 284.507812 113.605469 281.941406 114.847656 C 283.753906 113.183594 285.949219 111.117188 288.71875 108.234375 C 292.433594 110.210938 296.097656 113.347656 299.070312 117.003906 "/>
<path style=" stroke:none;fill-rule:nonzero;fill:rgb(98.81897%,81.17981%,67.059326%);fill-opacity:1;" d="M 273.84375 158.335938 C 266.597656 158.335938 257.050781 151.074219 266.875 138.832031 C 269.792969 135.199219 274.082031 131.332031 275.53125 129.210938 C 277.226562 129.957031 278.792969 131.222656 280.214844 132.769531 C 280.175781 132.730469 280.144531 132.714844 280.113281 132.714844 C 279.605469 132.714844 280.171875 137.539062 281.199219 142.367188 C 282.222656 147.191406 283.707031 152.019531 285.03125 152.019531 C 285.136719 152.019531 285.246094 151.988281 285.347656 151.917969 C 285.460938 151.851562 285.570312 151.785156 285.679688 151.714844 C 282.699219 153.605469 280.808594 154.695312 278.925781 156.570312 C 277.730469 157.761719 275.878906 158.335938 273.84375 158.335938 M 289.109375 149.464844 C 288.800781 148.441406 288.136719 146.523438 287.152344 144.238281 C 288.136719 146.523438 288.800781 148.445312 289.109375 149.464844 M 287.148438 144.222656 C 287.148438 144.222656 287.148438 144.222656 287.144531 144.21875 C 287.148438 144.222656 287.148438 144.222656 287.148438 144.222656 "/>
<path style=" stroke:none;fill-rule:nonzero;fill:rgb(98.81897%,81.17981%,67.059326%);fill-opacity:1;" d="M 285.679688 151.714844 C 286.683594 151.074219 287.8125 150.347656 289.109375 149.464844 C 287.8125 150.347656 286.683594 151.074219 285.679688 151.714844 M 287.152344 144.238281 C 287.152344 144.234375 287.148438 144.226562 287.148438 144.222656 C 287.148438 144.226562 287.152344 144.234375 287.152344 144.238281 M 287.144531 144.21875 C 285.585938 140.585938 283.226562 136.042969 280.214844 132.769531 C 280.222656 132.773438 280.230469 132.78125 280.238281 132.792969 C 283.238281 136.0625 285.589844 140.59375 287.144531 144.21875 "/>
<path style=" stroke:none;fill-rule:nonzero;fill:rgb(99.21875%,89.7995%,81.568909%);fill-opacity:1;" d="M 285.03125 152.019531 C 283.707031 152.019531 282.222656 147.191406 281.199219 142.367188 C 280.171875 137.539062 279.605469 132.714844 280.113281 132.714844 C 280.144531 132.714844 280.175781 132.730469 280.214844 132.769531 C 283.226562 136.042969 285.585938 140.585938 287.144531 144.21875 C 287.148438 144.222656 287.148438 144.222656 287.148438 144.222656 C 287.148438 144.226562 287.152344 144.234375 287.152344 144.238281 C 288.136719 146.523438 288.800781 148.441406 289.109375 149.464844 C 287.8125 150.347656 286.683594 151.074219 285.679688 151.714844 C 285.570312 151.785156 285.460938 151.851562 285.347656 151.917969 C 285.246094 151.988281 285.136719 152.019531 285.03125 152.019531 "/>
<path style=" stroke:none;fill-rule:nonzero;fill:rgb(97.648621%,66.668701%,47.059631%);fill-opacity:1;" d="M 250.523438 96.367188 C 239.085938 117.359375 269.804688 129.460938 275.050781 121.949219 C 278.75 116.648438 283.175781 115.203125 296.308594 99.800781 C 309.441406 84.398438 273.316406 57.375 263.789062 71.710938 C 254.265625 86.042969 256.242188 85.867188 250.523438 96.367188 "/>
<path style=" stroke:none;fill-rule:nonzero;fill:rgb(60.389709%,69.40918%,67.449951%);fill-opacity:1;" d="M 251.753906 115.523438 C 251.753906 115.519531 251.75 115.515625 251.75 115.511719 C 251.75 115.515625 251.753906 115.519531 251.753906 115.523438 M 251.746094 115.507812 C 247.84375 110.722656 246.28125 104.164062 250.507812 96.390625 C 246.28125 104.167969 247.84375 110.722656 251.746094 115.507812 "/>
<path style=" stroke:none;fill-rule:nonzero;fill:rgb(88.238525%,52.549744%,36.859131%);fill-opacity:1;" d="M 256.351562 119.726562 C 254.644531 118.539062 253.066406 117.128906 251.753906 115.523438 C 251.753906 115.519531 251.75 115.515625 251.75 115.511719 C 251.746094 115.511719 251.746094 115.511719 251.746094 115.507812 C 247.84375 110.722656 246.28125 104.167969 250.507812 96.390625 C 250.515625 96.382812 250.519531 96.375 250.523438 96.367188 C 255.847656 86.597656 254.5 86.070312 261.960938 74.5 C 262.117188 74.539062 262.265625 74.558594 262.40625 74.5625 C 262.511719 74.5625 262.613281 74.5625 262.71875 74.5625 C 268.484375 74.5625 273.621094 72.128906 278.722656 68.953125 C 282.457031 70.304688 286.277344 72.617188 289.589844 75.480469 C 286.902344 73.613281 284.300781 72.820312 281.792969 72.820312 C 274.769531 72.820312 268.5 79.042969 263.265625 85.351562 C 254.347656 96.113281 250.574219 107.871094 256.351562 119.726562 "/>
<path style=" stroke:none;fill-rule:nonzero;fill:rgb(98.81897%,81.17981%,67.059326%);fill-opacity:1;" d="M 269.984375 120.765625 C 263.085938 120.765625 254.945312 115.101562 261.753906 102.617188 C 263.988281 98.527344 267.519531 93.964844 268.574219 91.621094 C 270.378906 92.0625 272.140625 93.03125 273.816406 94.304688 C 273.78125 94.277344 273.75 94.265625 273.722656 94.265625 C 273.191406 94.265625 274.550781 98.804688 276.382812 103.34375 C 278.210938 107.878906 280.511719 112.414062 281.859375 112.414062 C 281.996094 112.414062 282.125 112.363281 282.242188 112.261719 C 279.8125 114.484375 278.214844 115.863281 276.75 117.957031 C 275.464844 119.804688 272.832031 120.765625 269.984375 120.765625 M 285.523438 109.179688 C 284.765625 107.707031 282.804688 104.269531 280.121094 100.796875 C 282.804688 104.269531 284.769531 107.707031 285.523438 109.179688 "/>
<path style=" stroke:none;fill-rule:nonzero;fill:rgb(98.81897%,81.17981%,67.059326%);fill-opacity:1;" d="M 282.242188 112.261719 C 283.195312 111.398438 284.273438 110.398438 285.523438 109.179688 C 284.28125 110.394531 283.203125 111.390625 282.253906 112.25 C 282.25 112.253906 282.246094 112.257812 282.242188 112.261719 M 280.121094 100.796875 C 278.300781 98.445312 276.152344 96.078125 273.816406 94.304688 C 273.828125 94.308594 273.835938 94.316406 273.84375 94.320312 C 276.167969 96.097656 278.308594 98.453125 280.121094 100.796875 "/>
<path style=" stroke:none;fill-rule:nonzero;fill:rgb(99.21875%,89.7995%,81.568909%);fill-opacity:1;" d="M 281.859375 112.414062 C 280.511719 112.414062 278.210938 107.878906 276.382812 103.34375 C 274.550781 98.804688 273.191406 94.265625 273.722656 94.265625 C 273.75 94.265625 273.78125 94.277344 273.816406 94.304688 C 276.152344 96.078125 278.300781 98.445312 280.121094 100.796875 C 282.804688 104.269531 284.765625 107.707031 285.523438 109.179688 C 284.273438 110.398438 283.195312 111.398438 282.242188 112.261719 C 282.125 112.363281 281.996094 112.414062 281.859375 112.414062 "/>
<path style=" stroke:none;fill-rule:nonzero;fill:rgb(97.648621%,66.668701%,47.059631%);fill-opacity:1;" d="M 249.914062 41.976562 C 245.613281 54.097656 257.542969 74.488281 262.40625 74.5625 C 272.359375 74.710938 280.410156 67.585938 289.589844 61.78125 C 295.894531 57.800781 283.226562 24.28125 272.359375 28.417969 C 263.015625 31.972656 253.542969 31.753906 249.914062 41.976562 "/>
<path style=" stroke:none;fill-rule:nonzero;fill:rgb(90.589905%,81.568909%,79.998779%);fill-opacity:1;" d="M 278.722656 68.953125 C 282.296875 66.730469 285.847656 64.148438 289.589844 61.78125 C 289.628906 61.753906 289.667969 61.730469 289.707031 61.703125 C 289.667969 61.730469 289.628906 61.753906 289.589844 61.78125 C 285.847656 64.148438 282.296875 66.730469 278.722656 68.953125 "/>
<path style=" stroke:none;fill-rule:nonzero;fill:rgb(14.898682%,12.548828%,14.898682%);fill-opacity:1;" d="M 249.914062 41.976562 C 250.636719 39.933594 251.597656 38.304688 252.746094 36.980469 C 251.601562 38.304688 250.640625 39.933594 249.914062 41.976562 "/>
<path style=" stroke:none;fill-rule:nonzero;fill:rgb(88.62915%,55.288696%,38.42926%);fill-opacity:1;" d="M 262.71875 74.5625 C 262.613281 74.5625 262.511719 74.5625 262.40625 74.5625 C 260.898438 74.539062 258.703125 72.550781 256.527344 69.464844 C 253.957031 65.816406 251.40625 60.621094 250.03125 55.304688 C 249.382812 52.789062 248.996094 50.246094 248.996094 47.828125 C 248.996094 45.757812 249.277344 43.777344 249.914062 41.976562 C 250.640625 39.933594 251.601562 38.304688 252.746094 36.980469 C 253.738281 35.832031 254.875 34.910156 256.117188 34.148438 C 254.667969 39.949219 254.867188 46.226562 256.445312 52.300781 C 258.855469 61.621094 265.996094 66.890625 274.375 66.890625 C 277.179688 66.890625 280.121094 66.296875 283.074219 65.074219 C 286.085938 63.824219 288.605469 62.222656 290.707031 60.34375 C 290.460938 60.917969 290.136719 61.394531 289.707031 61.703125 C 289.667969 61.730469 289.628906 61.753906 289.589844 61.78125 C 285.847656 64.148438 282.296875 66.730469 278.722656 68.953125 C 273.621094 72.128906 268.488281 74.5625 262.71875 74.5625 "/>
<path style=" stroke:none;fill-rule:nonzero;fill:rgb(98.81897%,81.17981%,67.059326%);fill-opacity:1;" d="M 277.816406 63.324219 C 277.808594 63.324219 277.804688 63.324219 277.796875 63.324219 C 279.566406 59.648438 278.777344 54.34375 277.039062 48.007812 C 276.1875 44.894531 275.113281 42.664062 273.601562 40.894531 C 271.394531 38.074219 269.226562 37.316406 269.261719 37.289062 C 269.253906 37.292969 269.242188 37.292969 269.234375 37.296875 C 270.285156 36.542969 278.761719 36.070312 278.761719 36.070312 C 278.761719 36.070312 282.847656 39.039062 285.429688 45.835938 C 287.429688 51.09375 286.882812 56.429688 286.882812 56.429688 C 286.882812 56.429688 278.820312 63.324219 277.816406 63.324219 "/>
<path style=" stroke:none;fill-rule:nonzero;fill:rgb(90.589905%,56.469727%,40.388489%);fill-opacity:1;" d="M 276.53125 63.832031 C 276.351562 63.832031 276.222656 63.796875 276.128906 63.789062 C 277.894531 60.113281 277.101562 54.808594 275.371094 48.476562 C 273.84375 42.917969 271.625 40.171875 267.472656 37.859375 C 267.582031 37.652344 268.273438 37.460938 269.234375 37.296875 C 269.191406 37.328125 269.160156 37.359375 269.144531 37.390625 C 270.96875 38.410156 272.417969 39.507812 273.601562 40.894531 C 274.867188 42.511719 276.144531 44.804688 277.027344 48.023438 C 278.65625 53.972656 279.171875 59.683594 277.796875 63.324219 C 277.214844 63.742188 276.816406 63.832031 276.53125 63.832031 "/>
<path style=" stroke:none;fill-rule:nonzero;fill:rgb(91.369629%,67.83905%,57.649231%);fill-opacity:1;" d="M 273.601562 40.894531 C 272.417969 39.507812 270.96875 38.410156 269.144531 37.390625 C 269.160156 37.359375 269.191406 37.328125 269.234375 37.296875 C 269.242188 37.292969 269.253906 37.292969 269.261719 37.289062 C 269.226562 37.316406 271.394531 38.074219 273.601562 40.894531 "/>
<path style=" stroke:none;fill-rule:nonzero;fill:rgb(100%,100%,100%);fill-opacity:1;" d="M 84.832031 110.5625 C 86.488281 108.03125 87.570312 106.332031 88.414062 104.878906 C 87.40625 106.628906 86.199219 108.511719 84.867188 110.511719 C 84.855469 110.527344 84.84375 110.542969 84.832031 110.5625 M 89.3125 103.269531 C 89.320312 103.257812 89.324219 103.242188 89.332031 103.230469 C 89.328125 103.242188 89.320312 103.257812 89.3125 103.269531 "/>
<path style=" stroke:none;fill-rule:nonzero;fill:rgb(98.81897%,81.17981%,67.059326%);fill-opacity:1;" d="M 102.605469 127.378906 C 95.246094 127.273438 86.773438 119.160156 83.371094 115.449219 C 85.894531 118.199219 91.203125 123.351562 96.863281 125.921875 C 96.90625 125.941406 96.941406 125.949219 96.972656 125.949219 C 97.570312 125.953125 95.394531 122 92.71875 118.042969 C 90.042969 114.089844 86.863281 110.136719 85.445312 110.136719 C 85.234375 110.136719 85.066406 110.222656 84.941406 110.402344 C 84.917969 110.4375 84.890625 110.472656 84.867188 110.511719 C 86.199219 108.511719 87.40625 106.628906 88.414062 104.878906 C 88.742188 104.320312 89.035156 103.792969 89.3125 103.269531 C 89.320312 103.257812 89.328125 103.242188 89.332031 103.230469 C 90.921875 100.714844 94.695312 99.035156 98.417969 99.035156 C 104.332031 99.035156 110.109375 103.277344 106.78125 115.144531 C 105.523438 119.632812 103.105469 124.859375 102.605469 127.378906 "/>
<path style=" stroke:none;fill-rule:nonzero;fill:rgb(98.81897%,81.17981%,67.059326%);fill-opacity:1;" d="M 83.371094 115.449219 C 82.957031 114.996094 82.613281 114.601562 82.359375 114.300781 C 82.613281 114.601562 82.957031 114.996094 83.371094 115.449219 "/>
<path style=" stroke:none;fill-rule:nonzero;fill:rgb(100%,100%,100%);fill-opacity:1;" d="M 83.617188 112.367188 C 84.050781 111.707031 84.460938 111.09375 84.832031 110.5625 C 84.808594 110.597656 84.785156 110.632812 84.761719 110.667969 C 84.386719 111.222656 84.003906 111.792969 83.617188 112.367188 "/>
<path style=" stroke:none;fill-rule:nonzero;fill:rgb(98.81897%,81.17981%,67.059326%);fill-opacity:1;" d="M 82.359375 114.300781 C 82.785156 113.632812 83.210938 112.980469 83.617188 112.367188 C 84.003906 111.792969 84.386719 111.222656 84.761719 110.667969 C 84.066406 111.722656 83.277344 112.917969 82.359375 114.300781 "/>
<path style=" stroke:none;fill-rule:nonzero;fill:rgb(100%,100%,100%);fill-opacity:1;" d="M 84.761719 110.667969 C 84.785156 110.632812 84.808594 110.597656 84.832031 110.5625 C 84.84375 110.542969 84.855469 110.527344 84.867188 110.511719 C 84.832031 110.5625 84.796875 110.617188 84.761719 110.667969 "/>
<path style=" stroke:none;fill-rule:nonzero;fill:rgb(99.21875%,89.7995%,81.568909%);fill-opacity:1;" d="M 96.972656 125.949219 C 96.941406 125.949219 96.90625 125.941406 96.863281 125.921875 C 91.203125 123.351562 85.894531 118.199219 83.371094 115.449219 C 82.957031 114.996094 82.613281 114.601562 82.359375 114.300781 C 83.277344 112.917969 84.066406 111.722656 84.761719 110.667969 C 84.796875 110.617188 84.832031 110.5625 84.867188 110.511719 C 84.890625 110.472656 84.917969 110.4375 84.941406 110.402344 C 85.066406 110.222656 85.234375 110.136719 85.445312 110.136719 C 86.863281 110.136719 90.042969 114.089844 92.71875 118.042969 C 95.394531 122 97.570312 125.953125 96.972656 125.949219 "/>
</g>
</svg>
