<?xml version="1.0" encoding="UTF-8"?>
<svg xmlns="http://www.w3.org/2000/svg" xmlns:xlink="http://www.w3.org/1999/xlink" width="375pt" height="374.999991pt" viewBox="0 0 375 374.999991" version="1.2">
<g id="surface1">
<path style=" stroke:none;fill-rule:nonzero;fill:rgb(0%,0%,0%);fill-opacity:1;" d="M 341.097656 126.617188 C 331.75 41.316406 256.972656 -0.214844 176.832031 7.773438 C 138.277344 11.625 104.050781 26.273438 81.058594 58.335938 C 64.679688 81.21875 58.238281 111.820312 59.257812 139.589844 C 59.65625 150.941406 67.976562 165.726562 65.960938 176.035156 C 62.246094 194.933594 42.019531 210.511719 35.433594 228.941406 C 30.519531 242.664062 43.433594 248.191406 53.757812 251.625 C 56.632812 252.574219 59.484375 253.550781 62.292969 254.613281 C 61.761719 254.988281 61.648438 256.40625 60.921875 259.488281 C 59.6875 264.6875 62.246094 268.777344 65.859375 271.925781 C 63.605469 280.660156 68.53125 287.015625 77.890625 291.527344 C 77.496094 311.679688 82 330.644531 105 335.269531 C 129.292969 340.164062 160.089844 330.929688 169.597656 361.992188 C 173.492188 374.714844 193.472656 369.300781 189.566406 356.488281 C 184.746094 340.773438 172.472656 325.976562 157 320.019531 C 143.316406 314.726562 129.5625 316.191406 115.222656 315.65625 C 96.113281 314.988281 97.847656 300.304688 98.863281 284.660156 C 99.195312 279.992188 95.457031 276.003906 91.28125 274.679688 C 90.09375 274.328125 88.914062 273.929688 87.738281 273.5 C 87.714844 273.476562 87.691406 273.476562 87.648438 273.457031 C 90.941406 267.675781 89.128906 261.402344 82.871094 258.386719 C 85.417969 250.730469 87.230469 245.460938 77.765625 238.742188 C 72.683594 235.117188 65.121094 233.566406 59.28125 231.660156 C 58.058594 231.265625 57.1875 231.277344 56.484375 231.457031 C 56.710938 231.0625 56.925781 230.734375 57.199219 230.175781 C 59.234375 225.90625 62.042969 221.917969 64.601562 217.964844 C 72.277344 206.148438 87.21875 190.59375 86.933594 175.546875 C 86.707031 163.992188 81.046875 153.535156 80.097656 142.023438 C 78.082031 117.789062 84.230469 92.898438 96.726562 72.167969 C 117.621094 37.488281 159.402344 28.128906 197.09375 27.222656 C 231.867188 26.386719 266.558594 37.023438 291.382812 62.027344 C 322.792969 93.648438 324.152344 142.171875 320.191406 183.683594 C 317.429688 212.46875 305.160156 237.054688 296.398438 264.050781 C 286.03125 296.046875 293.21875 330.453125 301.617188 361.992188 C 305.070312 374.875 325.023438 369.402344 321.582031 356.488281 C 311.125 317.324219 309.132812 285.882812 324.300781 248.441406 C 339.933594 209.863281 345.636719 168.105469 341.097656 126.617188 Z M 341.097656 126.617188 "/>
<path style=" stroke:none;fill-rule:nonzero;fill:rgb(0%,0%,0%);fill-opacity:1;" d="M 208.480469 102.984375 C 206.464844 102.121094 203.929688 102.984375 202.84375 104.886719 L 195.90625 116.929688 C 194.796875 118.808594 195.328125 121.4375 197.082031 122.777344 L 204.066406 128.042969 C 205.808594 129.347656 206.941406 132.203125 206.589844 134.375 C 206.589844 134.375 206.21875 136.507812 206.21875 139.691406 C 206.21875 142.851562 206.589844 145.003906 206.589844 145.003906 C 206.941406 147.167969 205.820312 150 204.066406 151.3125 L 197.082031 156.605469 C 195.363281 157.90625 194.808594 160.546875 195.90625 162.449219 L 202.84375 174.492188 C 203.929688 176.398438 206.464844 177.234375 208.480469 176.398438 L 216.597656 172.941406 C 218.613281 172.101562 221.679688 172.453125 223.433594 173.757812 L 232.589844 179.027344 C 234.582031 179.933594 236.417969 182.4375 236.675781 184.621094 L 237.765625 193.300781 C 238.023438 195.441406 240.015625 197.242188 242.210938 197.242188 L 256.125 197.242188 C 258.285156 197.242188 260.300781 195.453125 260.574219 193.300781 L 261.660156 184.621094 C 261.917969 182.4375 263.789062 179.933594 265.769531 179.027344 L 274.902344 173.757812 C 276.644531 172.453125 279.726562 172.082031 281.738281 172.941406 L 289.855469 176.375 C 291.871094 177.234375 294.40625 176.375 295.492188 174.472656 L 302.429688 162.429688 C 303.539062 160.546875 303.007812 157.917969 301.253906 156.605469 L 294.269531 151.3125 C 292.527344 150.011719 291.394531 147.179688 291.746094 145.003906 C 291.746094 145.003906 292.121094 142.863281 292.121094 139.691406 C 292.121094 136.507812 291.746094 134.355469 291.746094 134.355469 C 291.394531 132.214844 292.515625 129.359375 294.269531 128.042969 L 301.253906 122.777344 C 302.996094 121.449219 303.53125 118.808594 302.429688 116.90625 L 295.492188 104.863281 C 294.40625 102.960938 291.871094 102.121094 289.855469 102.960938 L 281.738281 106.417969 C 279.726562 107.253906 276.65625 106.902344 274.902344 105.601562 L 265.769531 100.332031 C 263.753906 99.425781 261.917969 96.921875 261.660156 94.757812 L 260.574219 86.082031 C 260.3125 83.917969 258.296875 82.136719 256.125 82.136719 L 242.210938 82.136719 C 240.027344 82.136719 238.035156 83.90625 237.742188 86.082031 L 236.675781 94.757812 C 236.417969 96.921875 234.550781 99.425781 232.570312 100.332031 L 223.433594 105.601562 C 221.691406 106.925781 218.613281 107.277344 216.597656 106.417969 Z M 226.046875 139.679688 C 226.046875 126.933594 236.417969 116.554688 249.152344 116.554688 C 261.863281 116.554688 272.230469 126.933594 272.230469 139.679688 C 272.230469 152.425781 261.863281 162.78125 249.152344 162.78125 C 236.417969 162.78125 226.046875 152.425781 226.046875 139.679688 Z M 226.046875 139.679688 "/>
<path style=" stroke:none;fill-rule:nonzero;fill:rgb(0%,0%,0%);fill-opacity:1;" d="M 121.664062 90.089844 C 120.066406 89.421875 118.085938 90.089844 117.238281 91.574219 L 111.78125 101.035156 C 110.910156 102.496094 111.339844 104.601562 112.707031 105.625 L 118.1875 109.757812 C 119.558594 110.777344 120.441406 113.011719 120.15625 114.71875 C 120.15625 114.71875 119.875 116.398438 119.875 118.902344 C 119.875 121.382812 120.15625 123.058594 120.15625 123.058594 C 120.441406 124.757812 119.558594 127 118.1875 128.03125 L 112.707031 132.167969 C 111.339844 133.1875 110.921875 135.238281 111.78125 136.746094 L 117.238281 146.191406 C 118.074219 147.699219 120.089844 148.335938 121.664062 147.699219 L 128.035156 145.003906 C 129.609375 144.3125 132.042969 144.605469 133.410156 145.625 L 140.578125 149.785156 C 142.148438 150.5 143.609375 152.4375 143.824219 154.167969 L 144.640625 160.964844 C 144.867188 162.667969 146.429688 164.082031 148.160156 164.082031 L 159.0625 164.082031 C 160.757812 164.082031 162.355469 162.667969 162.558594 160.964844 L 163.417969 154.167969 C 163.621094 152.445312 165.070312 150.5 166.621094 149.785156 L 173.808594 145.625 C 175.179688 144.605469 177.613281 144.300781 179.1875 145.003906 L 185.558594 147.699219 C 187.132812 148.347656 189.113281 147.699219 189.984375 146.191406 L 195.441406 136.746094 C 196.277344 135.238281 195.859375 133.1875 194.511719 132.167969 L 189.035156 128.03125 C 187.664062 126.988281 186.78125 124.757812 187.042969 123.058594 C 187.042969 123.058594 187.324219 121.382812 187.324219 118.902344 C 187.324219 116.398438 187.042969 114.699219 187.042969 114.699219 C 186.78125 113.019531 187.664062 110.777344 189.035156 109.757812 L 194.492188 105.625 C 195.859375 104.582031 196.277344 102.507812 195.441406 101.023438 L 189.984375 91.574219 C 189.125 90.066406 187.132812 89.433594 185.558594 90.066406 L 179.1875 92.785156 C 177.613281 93.457031 175.179688 93.160156 173.808594 92.164062 L 166.621094 87.984375 C 165.070312 87.269531 163.613281 85.332031 163.417969 83.621094 L 162.535156 76.8125 C 162.332031 75.113281 160.746094 73.71875 159.039062 73.71875 L 148.117188 73.71875 C 146.417969 73.71875 144.820312 75.113281 144.617188 76.8125 L 143.78125 83.632812 C 143.578125 85.332031 142.128906 87.28125 140.554688 87.996094 L 133.390625 92.175781 C 132.019531 93.171875 129.585938 93.457031 128.011719 92.796875 Z M 135.449219 118.902344 C 135.449219 108.898438 143.585938 100.730469 153.582031 100.730469 C 163.601562 100.730469 171.738281 108.898438 171.738281 118.902344 C 171.738281 128.90625 163.601562 137.050781 153.582031 137.050781 C 143.585938 137.039062 135.449219 128.894531 135.449219 118.902344 Z M 135.449219 118.902344 "/>
</g>
</svg>
