<?xml version="1.0" encoding="UTF-8"?>
<svg xmlns="http://www.w3.org/2000/svg" xmlns:xlink="http://www.w3.org/1999/xlink" width="375pt" height="374.999991pt" viewBox="0 0 375 374.999991" version="1.2">
<defs>
<filter id="alpha" filterUnits="objectBoundingBox" x="0%" y="0%" width="100%" height="100%">
  <feColorMatrix type="matrix" in="SourceGraphic" values="0 0 0 0 1 0 0 0 0 1 0 0 0 0 1 0 0 0 1 0"/>
</filter>
<mask id="mask0">
  <g filter="url(#alpha)">
<rect x="0" y="0" width="375" height="374.999991" style="fill:rgb(0%,0%,0%);fill-opacity:0.1569;stroke:none;"/>
  </g>
</mask>
<clipPath id="clip1">
  <rect x="0" y="0" width="375" height="375"/>
</clipPath>
<g id="surface5" clip-path="url(#clip1)">
<path style=" stroke:none;fill-rule:nonzero;fill:rgb(59.21936%,10.978699%,18.03894%);fill-opacity:1;" d="M 331.371094 187.503906 C 331.371094 266.96875 266.953125 331.382812 187.488281 331.382812 C 108.027344 331.382812 43.609375 266.96875 43.609375 187.503906 C 43.609375 108.039062 108.027344 43.621094 187.488281 43.621094 C 266.953125 43.621094 331.371094 108.039062 331.371094 187.503906 "/>
<path style=" stroke:none;fill-rule:nonzero;fill:rgb(48.629761%,9.01947%,14.118958%);fill-opacity:1;" d="M 188.566406 216.324219 C 201.507812 216.324219 212.035156 205.792969 212.035156 192.851562 C 212.035156 179.910156 201.507812 169.378906 188.566406 169.378906 C 175.625 169.378906 165.09375 179.910156 165.09375 192.851562 C 165.09375 205.792969 175.625 216.324219 188.566406 216.324219 "/>
<path style=" stroke:none;fill-rule:nonzero;fill:rgb(48.629761%,9.01947%,14.118958%);fill-opacity:1;" d="M 230.257812 171.582031 C 238.855469 171.582031 245.851562 165.878906 245.851562 158.875 C 245.851562 151.863281 238.855469 146.160156 230.257812 146.160156 C 221.660156 146.160156 214.664062 151.863281 214.664062 158.875 C 214.664062 165.878906 221.660156 171.582031 230.257812 171.582031 "/>
<path style=" stroke:none;fill-rule:nonzero;fill:rgb(48.629761%,9.01947%,14.118958%);fill-opacity:1;" d="M 240.558594 194.421875 C 230.394531 194.421875 222.125 200.121094 222.125 207.128906 C 222.125 214.136719 230.394531 219.839844 240.558594 219.839844 C 250.726562 219.839844 258.996094 214.136719 258.996094 207.128906 C 258.996094 200.121094 250.726562 194.421875 240.558594 194.421875 "/>
<path style=" stroke:none;fill-rule:nonzero;fill:rgb(48.629761%,9.01947%,14.118958%);fill-opacity:1;" d="M 180.136719 155.039062 C 189.175781 155.039062 196.527344 149.335938 196.527344 142.328125 C 196.527344 135.320312 189.175781 129.621094 180.136719 129.621094 C 171.101562 129.621094 163.75 135.320312 163.75 142.328125 C 163.75 149.335938 171.101562 155.039062 180.136719 155.039062 "/>
<path style=" stroke:none;fill-rule:nonzero;fill:rgb(48.629761%,9.01947%,14.118958%);fill-opacity:1;" d="M 142.28125 110.714844 C 151.316406 110.714844 158.667969 105.011719 158.667969 98.007812 C 158.667969 91 151.316406 85.296875 142.28125 85.296875 C 133.242188 85.296875 125.890625 91 125.890625 98.007812 C 125.890625 105.011719 133.242188 110.714844 142.28125 110.714844 "/>
<path style=" stroke:none;fill-rule:nonzero;fill:rgb(48.629761%,9.01947%,14.118958%);fill-opacity:1;" d="M 195.648438 100.96875 C 204.683594 100.96875 212.035156 95.265625 212.035156 88.257812 C 212.035156 81.253906 204.683594 75.550781 195.648438 75.550781 C 186.613281 75.550781 179.257812 81.253906 179.257812 88.257812 C 179.257812 95.265625 186.613281 100.96875 195.648438 100.96875 "/>
<path style=" stroke:none;fill-rule:nonzero;fill:rgb(48.629761%,9.01947%,14.118958%);fill-opacity:1;" d="M 242.21875 117.125 C 251.257812 117.125 258.609375 111.425781 258.609375 104.417969 C 258.609375 97.410156 251.257812 91.707031 242.21875 91.707031 C 233.183594 91.707031 225.832031 97.410156 225.832031 104.417969 C 225.832031 111.425781 233.183594 117.125 242.21875 117.125 "/>
<path style=" stroke:none;fill-rule:nonzero;fill:rgb(48.629761%,9.01947%,14.118958%);fill-opacity:1;" d="M 280.191406 157.84375 C 289.226562 157.84375 296.578125 152.140625 296.578125 145.132812 C 296.578125 138.125 289.226562 132.421875 280.191406 132.421875 C 271.15625 132.421875 263.800781 138.125 263.800781 145.132812 C 263.800781 152.140625 271.15625 157.84375 280.191406 157.84375 "/>
<path style=" stroke:none;fill-rule:nonzero;fill:rgb(48.629761%,9.01947%,14.118958%);fill-opacity:1;" d="M 283.933594 116.582031 C 292.972656 116.582031 300.324219 110.878906 300.324219 103.871094 C 300.324219 96.867188 292.972656 91.164062 283.933594 91.164062 C 274.898438 91.164062 267.542969 96.867188 267.542969 103.871094 C 267.542969 110.878906 274.898438 116.582031 283.933594 116.582031 "/>
<path style=" stroke:none;fill-rule:nonzero;fill:rgb(48.629761%,9.01947%,14.118958%);fill-opacity:1;" d="M 268.519531 75.992188 C 271.375 75.992188 274.058594 75.417969 276.398438 74.417969 C 269.109375 68.683594 261.257812 63.636719 252.929688 59.378906 C 252.414062 60.609375 252.132812 61.917969 252.132812 63.28125 C 252.132812 70.289062 259.484375 75.992188 268.519531 75.992188 "/>
<path style=" stroke:none;fill-rule:nonzero;fill:rgb(48.629761%,9.01947%,14.118958%);fill-opacity:1;" d="M 210.914062 62.457031 C 210.914062 71.449219 218.265625 78.765625 227.300781 78.765625 C 236.335938 78.765625 243.695312 71.449219 243.695312 62.457031 C 243.695312 59.390625 242.820312 56.53125 241.335938 54.074219 C 234.699219 51.398438 227.820312 49.199219 220.734375 47.523438 C 214.960938 50.050781 210.914062 55.789062 210.914062 62.457031 "/>
<path style=" stroke:none;fill-rule:nonzero;fill:rgb(48.629761%,9.01947%,14.118958%);fill-opacity:1;" d="M 193.597656 53.40625 C 199.71875 53.40625 205.058594 50.042969 207.871094 45.085938 C 201.210938 44.136719 194.414062 43.621094 187.488281 43.621094 C 184.546875 43.621094 181.628906 43.738281 178.726562 43.914062 C 181.328125 49.507812 187.003906 53.40625 193.597656 53.40625 "/>
<path style=" stroke:none;fill-rule:nonzero;fill:rgb(48.629761%,9.01947%,14.118958%);fill-opacity:1;" d="M 137.898438 63.28125 C 137.898438 72.273438 145.25 79.589844 154.289062 79.589844 C 163.324219 79.589844 170.679688 72.273438 170.679688 63.28125 C 170.679688 54.914062 164.3125 48.007812 156.144531 47.085938 C 152.269531 47.949219 148.433594 48.929688 144.683594 50.097656 C 140.582031 53.0625 137.898438 57.863281 137.898438 63.28125 "/>
<path style=" stroke:none;fill-rule:nonzero;fill:rgb(48.629761%,9.01947%,14.118958%);fill-opacity:1;" d="M 127.570312 59.925781 C 127.570312 58.871094 127.457031 57.835938 127.265625 56.835938 C 117.886719 61.164062 109.046875 66.449219 100.890625 72.605469 C 103.707031 74.871094 107.285156 76.238281 111.179688 76.238281 C 120.214844 76.238281 127.570312 68.917969 127.570312 59.925781 "/>
<path style=" stroke:none;fill-rule:nonzero;fill:rgb(48.629761%,9.01947%,14.118958%);fill-opacity:1;" d="M 90.195312 117.082031 C 99.234375 117.082031 106.585938 109.765625 106.585938 100.773438 C 106.585938 91.78125 99.234375 84.464844 90.195312 84.464844 C 89 84.464844 87.839844 84.601562 86.714844 84.84375 C 82.121094 89.351562 77.84375 94.175781 73.882812 99.265625 C 73.835938 99.761719 73.808594 100.265625 73.808594 100.773438 C 73.808594 109.765625 81.160156 117.082031 90.195312 117.082031 "/>
<path style=" stroke:none;fill-rule:nonzero;fill:rgb(48.629761%,9.01947%,14.118958%);fill-opacity:1;" d="M 70.730469 118.910156 C 70.730469 115.054688 69.375 111.511719 67.117188 108.71875 C 61.695312 116.984375 57.113281 125.84375 53.464844 135.175781 C 53.757812 135.191406 54.046875 135.21875 54.34375 135.21875 C 63.378906 135.21875 70.730469 127.902344 70.730469 118.910156 "/>
<path style=" stroke:none;fill-rule:nonzero;fill:rgb(48.629761%,9.01947%,14.118958%);fill-opacity:1;" d="M 60.949219 176.367188 C 69.984375 176.367188 77.335938 169.050781 77.335938 160.058594 C 77.335938 151.066406 69.984375 143.75 60.949219 143.75 C 56.140625 143.75 51.828125 145.832031 48.824219 149.121094 C 47.386719 154.328125 46.207031 159.644531 45.359375 165.070312 C 47.492188 171.617188 53.667969 176.367188 60.949219 176.367188 "/>
<path style=" stroke:none;fill-rule:nonzero;fill:rgb(48.629761%,9.01947%,14.118958%);fill-opacity:1;" d="M 54.34375 189.941406 C 54.34375 183.152344 50.144531 177.320312 44.191406 174.871094 C 43.828125 179.039062 43.609375 183.242188 43.609375 187.503906 C 43.609375 193.359375 44 199.125 44.679688 204.796875 C 50.367188 202.238281 54.34375 196.550781 54.34375 189.941406 "/>
<path style=" stroke:none;fill-rule:nonzero;fill:rgb(48.629761%,9.01947%,14.118958%);fill-opacity:1;" d="M 60.949219 235.039062 C 68.390625 235.039062 74.441406 227.722656 74.441406 218.730469 C 74.441406 209.738281 68.390625 202.421875 60.949219 202.421875 C 53.507812 202.421875 47.453125 209.738281 47.453125 218.730469 C 47.453125 219.597656 47.527344 220.449219 47.636719 221.285156 C 47.996094 222.785156 48.382812 224.28125 48.792969 225.765625 C 50.96875 231.238281 55.59375 235.039062 60.949219 235.039062 "/>
<path style=" stroke:none;fill-rule:nonzero;fill:rgb(48.629761%,9.01947%,14.118958%);fill-opacity:1;" d="M 60.121094 243.476562 C 58.449219 243.476562 56.855469 243.859375 55.378906 244.535156 C 59.386719 253.800781 64.351562 262.550781 70.128906 270.683594 C 72.289062 267.796875 73.617188 263.976562 73.617188 259.785156 C 73.617188 250.792969 67.5625 243.476562 60.121094 243.476562 "/>
<path style=" stroke:none;fill-rule:nonzero;fill:rgb(48.629761%,9.01947%,14.118958%);fill-opacity:1;" d="M 99.460938 261.179688 C 92.019531 261.179688 85.96875 268.492188 85.96875 277.488281 C 85.96875 286.480469 92.019531 293.796875 99.460938 293.796875 C 106.902344 293.796875 112.957031 286.480469 112.957031 277.488281 C 112.957031 268.492188 106.902344 261.179688 99.460938 261.179688 "/>
<path style=" stroke:none;fill-rule:nonzero;fill:rgb(48.629761%,9.01947%,14.118958%);fill-opacity:1;" d="M 116.3125 302.046875 C 112.648438 302.046875 109.324219 303.824219 106.890625 306.703125 C 114.078125 311.570312 121.738281 315.777344 129.769531 319.300781 C 129.785156 318.988281 129.808594 318.675781 129.808594 318.355469 C 129.808594 309.363281 123.753906 302.046875 116.3125 302.046875 "/>
<path style=" stroke:none;fill-rule:nonzero;fill:rgb(48.629761%,9.01947%,14.118958%);fill-opacity:1;" d="M 172.90625 314.074219 C 172.90625 305.082031 166.851562 297.765625 159.410156 297.765625 C 151.96875 297.765625 145.914062 305.082031 145.914062 314.074219 C 145.914062 319.132812 147.832031 323.664062 150.832031 326.65625 C 155.117188 327.78125 159.484375 328.699219 163.914062 329.429688 C 169.144531 327.183594 172.90625 321.15625 172.90625 314.074219 "/>
<path style=" stroke:none;fill-rule:nonzero;fill:rgb(48.629761%,9.01947%,14.118958%);fill-opacity:1;" d="M 191.890625 320.351562 C 186.058594 320.351562 181.089844 324.855469 179.210938 331.132812 C 181.953125 331.289062 184.710938 331.382812 187.492188 331.382812 C 193.195312 331.382812 198.808594 331.015625 204.339844 330.371094 C 202.296875 324.492188 197.488281 320.351562 191.890625 320.351562 "/>
<path style=" stroke:none;fill-rule:nonzero;fill:rgb(48.629761%,9.01947%,14.118958%);fill-opacity:1;" d="M 225.914062 295.414062 C 218.476562 295.414062 212.421875 302.730469 212.421875 311.722656 C 212.421875 318.96875 216.355469 325.121094 221.777344 327.238281 C 226.460938 326.09375 231.050781 324.726562 235.542969 323.136719 C 237.929688 320.191406 239.414062 316.164062 239.414062 311.722656 C 239.414062 302.730469 233.359375 295.414062 225.914062 295.414062 "/>
<path style=" stroke:none;fill-rule:nonzero;fill:rgb(48.629761%,9.01947%,14.118958%);fill-opacity:1;" d="M 245.199219 319.304688 C 252.925781 315.917969 260.300781 311.886719 267.246094 307.253906 C 264.914062 304.929688 261.925781 303.53125 258.675781 303.53125 C 251.382812 303.53125 245.433594 310.5625 245.199219 319.304688 "/>
<path style=" stroke:none;fill-rule:nonzero;fill:rgb(48.629761%,9.01947%,14.118958%);fill-opacity:1;" d="M 275.597656 263.089844 C 268.15625 263.089844 262.101562 270.40625 262.101562 279.398438 C 262.101562 288.390625 268.15625 295.707031 275.597656 295.707031 C 283.035156 295.707031 289.089844 288.390625 289.089844 279.398438 C 289.089844 270.40625 283.035156 263.089844 275.597656 263.089844 "/>
<path style=" stroke:none;fill-rule:nonzero;fill:rgb(48.629761%,9.01947%,14.118958%);fill-opacity:1;" d="M 301.101562 266.71875 C 301.101562 269.3125 301.617188 271.757812 302.515625 273.9375 C 307.980469 266.679688 312.765625 258.882812 316.792969 250.648438 C 316.078125 250.503906 315.34375 250.410156 314.59375 250.410156 C 307.15625 250.410156 301.101562 257.726562 301.101562 266.71875 "/>
<path style=" stroke:none;fill-rule:nonzero;fill:rgb(48.629761%,9.01947%,14.118958%);fill-opacity:1;" d="M 310.328125 239.746094 C 317.769531 239.746094 323.824219 232.429688 323.824219 223.4375 C 323.824219 214.445312 317.769531 207.128906 310.328125 207.128906 C 302.886719 207.128906 296.832031 214.445312 296.832031 223.4375 C 296.832031 232.429688 302.886719 239.746094 310.328125 239.746094 "/>
<path style=" stroke:none;fill-rule:nonzero;fill:rgb(48.629761%,9.01947%,14.118958%);fill-opacity:1;" d="M 321.125 192.851562 C 321.125 199.828125 324.773438 205.777344 329.878906 208.101562 C 330.84375 201.371094 331.371094 194.5 331.371094 187.503906 C 331.371094 184.027344 331.207031 180.585938 330.960938 177.171875 C 325.292969 179.105469 321.125 185.394531 321.125 192.851562 "/>
<path style=" stroke:none;fill-rule:nonzero;fill:rgb(48.629761%,9.01947%,14.118958%);fill-opacity:1;" d="M 312.886719 176.257812 C 320.324219 176.257812 326.378906 170.054688 326.378906 162.433594 C 326.378906 154.8125 320.324219 148.613281 312.886719 148.613281 C 305.441406 148.613281 299.390625 154.8125 299.390625 162.433594 C 299.390625 170.054688 305.441406 176.257812 312.886719 176.257812 "/>
<path style=" stroke:none;fill-rule:nonzero;fill:rgb(48.629761%,9.01947%,14.118958%);fill-opacity:1;" d="M 321.125 134.914062 C 321.21875 134.914062 321.304688 134.890625 321.402344 134.882812 C 318.363281 127.160156 314.714844 119.746094 310.445312 112.742188 C 308.707031 115.070312 307.632812 117.941406 307.632812 121.09375 C 307.632812 128.710938 313.683594 134.914062 321.125 134.914062 "/>
<path style=" stroke:none;fill-rule:nonzero;fill:rgb(48.629761%,9.01947%,14.118958%);fill-opacity:1;" d="M 290.503906 184.367188 C 281.46875 184.367188 274.113281 190.070312 274.113281 197.078125 C 274.113281 204.085938 281.46875 209.785156 290.503906 209.785156 C 299.542969 209.785156 306.894531 204.085938 306.894531 197.078125 C 306.894531 190.070312 299.542969 184.367188 290.503906 184.367188 "/>
<path style=" stroke:none;fill-rule:nonzero;fill:rgb(48.629761%,9.01947%,14.118958%);fill-opacity:1;" d="M 274.742188 227.742188 C 265.703125 227.742188 258.351562 233.445312 258.351562 240.453125 C 258.351562 247.457031 265.703125 253.160156 274.742188 253.160156 C 283.777344 253.160156 291.132812 247.457031 291.132812 240.453125 C 291.132812 233.445312 283.777344 227.742188 274.742188 227.742188 "/>
<path style=" stroke:none;fill-rule:nonzero;fill:rgb(48.629761%,9.01947%,14.118958%);fill-opacity:1;" d="M 238.511719 264.289062 C 229.476562 264.289062 222.125 269.992188 222.125 276.996094 C 222.125 284.007812 229.476562 289.707031 238.511719 289.707031 C 247.546875 289.707031 254.898438 284.007812 254.898438 276.996094 C 254.898438 269.992188 247.546875 264.289062 238.511719 264.289062 "/>
<path style=" stroke:none;fill-rule:nonzero;fill:rgb(48.629761%,9.01947%,14.118958%);fill-opacity:1;" d="M 186.625 272.347656 C 177.585938 272.347656 170.234375 278.050781 170.234375 285.058594 C 170.234375 292.066406 177.585938 297.765625 186.625 297.765625 C 195.664062 297.765625 203.015625 292.066406 203.015625 285.058594 C 203.015625 278.050781 195.664062 272.347656 186.625 272.347656 "/>
<path style=" stroke:none;fill-rule:nonzero;fill:rgb(48.629761%,9.01947%,14.118958%);fill-opacity:1;" d="M 137.691406 260.496094 C 128.65625 260.496094 121.304688 266.199219 121.304688 273.203125 C 121.304688 280.210938 128.65625 285.914062 137.691406 285.914062 C 146.730469 285.914062 154.082031 280.210938 154.082031 273.203125 C 154.082031 266.199219 146.730469 260.496094 137.691406 260.496094 "/>
<path style=" stroke:none;fill-rule:nonzero;fill:rgb(48.629761%,9.01947%,14.118958%);fill-opacity:1;" d="M 102.871094 232.296875 C 93.835938 232.296875 86.484375 238 86.484375 245.003906 C 86.484375 252.015625 93.835938 257.714844 102.871094 257.714844 C 111.910156 257.714844 119.261719 252.015625 119.261719 245.003906 C 119.261719 238 111.910156 232.296875 102.871094 232.296875 "/>
<path style=" stroke:none;fill-rule:nonzero;fill:rgb(48.629761%,9.01947%,14.118958%);fill-opacity:1;" d="M 100.730469 196.949219 C 100.730469 189.941406 93.378906 184.242188 84.339844 184.242188 C 75.304688 184.242188 67.953125 189.941406 67.953125 196.949219 C 67.953125 203.957031 75.304688 209.660156 84.339844 209.660156 C 93.378906 209.660156 100.730469 203.957031 100.730469 196.949219 "/>
<path style=" stroke:none;fill-rule:nonzero;fill:rgb(48.629761%,9.01947%,14.118958%);fill-opacity:1;" d="M 94.761719 157.773438 C 103.800781 157.773438 111.152344 152.070312 111.152344 145.0625 C 111.152344 138.054688 103.800781 132.351562 94.761719 132.351562 C 85.722656 132.351562 78.371094 138.054688 78.371094 145.0625 C 78.371094 152.070312 85.722656 157.773438 94.761719 157.773438 "/>
<path style=" stroke:none;fill-rule:nonzero;fill:rgb(48.629761%,9.01947%,14.118958%);fill-opacity:1;" d="M 131.054688 180.421875 C 131.054688 188.667969 136.089844 195.378906 142.28125 195.378906 C 148.46875 195.378906 153.503906 188.667969 153.503906 180.421875 C 153.503906 172.171875 148.46875 165.460938 142.28125 165.460938 C 136.089844 165.460938 131.054688 172.171875 131.054688 180.421875 "/>
<path style=" stroke:none;fill-rule:nonzero;fill:rgb(48.629761%,9.01947%,14.118958%);fill-opacity:1;" d="M 155.113281 213.730469 C 148.035156 213.730469 142.28125 221.394531 142.28125 230.820312 C 142.28125 240.242188 148.035156 247.910156 155.113281 247.910156 C 162.1875 247.910156 167.945312 240.242188 167.945312 230.820312 C 167.945312 221.394531 162.1875 213.730469 155.113281 213.730469 "/>
<path style=" stroke:none;fill-rule:nonzero;fill:rgb(48.629761%,9.01947%,14.118958%);fill-opacity:1;" d="M 207.007812 221.5 C 198.671875 221.5 191.890625 230.828125 191.890625 242.292969 C 191.890625 253.757812 198.671875 263.089844 207.007812 263.089844 C 215.34375 263.089844 222.125 253.757812 222.125 242.292969 C 222.125 230.828125 215.34375 221.5 207.007812 221.5 "/>
<path style=" stroke:none;fill-rule:nonzero;fill:rgb(65.489197%,12.548828%,20.388794%);fill-opacity:1;" d="M 197.679688 52.160156 L 194.042969 13.21875 C 193.5 13.363281 192.9375 13.460938 192.347656 13.460938 L 182.632812 13.460938 C 182 13.460938 181.402344 13.347656 180.820312 13.183594 L 177.210938 52.167969 C 177.210938 52.167969 177.300781 55.269531 187.492188 55.269531 C 197.679688 55.269531 197.679688 52.160156 197.679688 52.160156 "/>
<path style=" stroke:none;fill-rule:nonzero;fill:rgb(65.489197%,12.548828%,20.388794%);fill-opacity:1;" d="M 177.210938 322.839844 L 180.820312 361.820312 C 181.402344 361.65625 182 361.539062 182.632812 361.539062 L 192.347656 361.539062 C 192.9375 361.539062 193.5 361.640625 194.042969 361.785156 L 197.679688 322.84375 C 198.113281 317.457031 181.15625 316.292969 177.210938 322.839844 "/>
<path style=" stroke:none;fill-rule:nonzero;fill:rgb(65.489197%,12.548828%,20.388794%);fill-opacity:1;" d="M 280.859375 40.195312 C 280.316406 40.042969 279.785156 39.847656 279.273438 39.550781 L 270.875 34.664062 C 270.332031 34.34375 269.875 33.941406 269.453125 33.507812 L 246.746094 65.328125 C 246.746094 65.328125 252.667969 78.46875 264.414062 75.648438 L 280.859375 40.195312 "/>
<path style=" stroke:none;fill-rule:nonzero;fill:rgb(65.489197%,12.548828%,20.388794%);fill-opacity:1;" d="M 361.277344 184.03125 C 361.265625 183.398438 361.375 182.800781 361.53125 182.21875 L 323.015625 179.714844 C 323.015625 179.714844 315.019531 187.503906 322.644531 200.175781 L 361.667969 195.4375 C 361.515625 194.894531 361.410156 194.335938 361.398438 193.746094 L 361.277344 184.03125 "/>
<path style=" stroke:none;fill-rule:nonzero;fill:rgb(65.489197%,12.548828%,20.388794%);fill-opacity:1;" d="M 343.488281 109.632812 C 343.101562 109.222656 342.746094 108.777344 342.464844 108.265625 L 337.8125 99.730469 C 337.511719 99.175781 337.328125 98.59375 337.191406 98.007812 L 301.238281 113.421875 C 301.238281 113.421875 299.140625 127.230469 311.09375 131.359375 L 343.488281 109.632812 "/>
<path style=" stroke:none;fill-rule:nonzero;fill:rgb(65.489197%,12.548828%,20.388794%);fill-opacity:1;" d="M 269.453125 341.496094 C 269.875 341.0625 270.332031 340.660156 270.875 340.34375 L 279.273438 335.453125 C 279.78125 335.15625 280.316406 334.960938 280.859375 334.808594 L 264.414062 299.355469 C 262.007812 295.636719 249.390625 301.238281 246.746094 309.675781 L 269.453125 341.496094 "/>
<path style=" stroke:none;fill-rule:nonzero;fill:rgb(65.489197%,12.548828%,20.388794%);fill-opacity:1;" d="M 337.191406 276.996094 C 337.328125 276.410156 337.511719 275.832031 337.8125 275.277344 L 342.464844 266.742188 C 342.746094 266.226562 343.101562 265.78125 343.488281 265.371094 L 311.09375 243.644531 C 311.09375 243.644531 299.726562 249.882812 301.238281 261.582031 L 337.191406 276.996094 "/>
<path style=" stroke:none;fill-rule:nonzero;fill:rgb(65.489197%,12.548828%,20.388794%);fill-opacity:1;" d="M 105.527344 33.507812 C 105.109375 33.941406 104.648438 34.34375 104.105469 34.664062 L 95.707031 39.550781 C 95.199219 39.847656 94.664062 40.042969 94.121094 40.195312 L 110.5625 75.648438 C 118.210938 76.675781 124.300781 73.671875 128.238281 65.328125 L 105.527344 33.507812 "/>
<path style=" stroke:none;fill-rule:nonzero;fill:rgb(65.489197%,12.548828%,20.388794%);fill-opacity:1;" d="M 51.964844 179.714844 L 13.449219 182.21875 C 13.605469 182.800781 13.710938 183.398438 13.707031 184.027344 L 13.578125 193.746094 C 13.574219 194.335938 13.464844 194.894531 13.316406 195.4375 L 52.335938 200.175781 C 55.621094 198.808594 56.285156 180.4375 51.964844 179.714844 "/>
<path style=" stroke:none;fill-rule:nonzero;fill:rgb(65.489197%,12.548828%,20.388794%);fill-opacity:1;" d="M 37.785156 98.007812 C 37.652344 98.59375 37.46875 99.175781 37.167969 99.726562 L 32.519531 108.261719 C 32.234375 108.777344 31.878906 109.222656 31.492188 109.632812 L 63.886719 131.359375 C 66.574219 132.691406 74.605469 121.394531 73.742188 113.421875 L 37.785156 98.007812 "/>
<path style=" stroke:none;fill-rule:nonzero;fill:rgb(65.489197%,12.548828%,20.388794%);fill-opacity:1;" d="M 94.121094 334.8125 C 94.664062 334.960938 95.199219 335.15625 95.707031 335.453125 L 104.105469 340.34375 C 104.648438 340.660156 105.109375 341.0625 105.527344 341.496094 L 128.238281 309.675781 C 130.101562 306.4375 119.191406 297.96875 110.5625 299.355469 L 94.121094 334.8125 "/>
<path style=" stroke:none;fill-rule:nonzero;fill:rgb(65.489197%,12.548828%,20.388794%);fill-opacity:1;" d="M 31.492188 265.371094 C 31.878906 265.78125 32.234375 266.226562 32.519531 266.742188 L 37.167969 275.277344 C 37.46875 275.832031 37.652344 276.410156 37.785156 276.996094 L 73.742188 261.578125 C 76.125 258.632812 70.769531 244.890625 63.886719 243.644531 L 31.492188 265.371094 "/>
<path style=" stroke:none;fill-rule:nonzero;fill:rgb(86.669922%,16.859436%,28.62854%);fill-opacity:1;" d="M 192.347656 13.464844 C 192.9375 13.464844 193.496094 13.363281 194.042969 13.222656 C 196.925781 12.460938 199.078125 9.847656 199.078125 6.734375 C 199.078125 3.035156 196.046875 0.0078125 192.347656 0.0078125 L 182.632812 0.0078125 C 178.929688 0.0078125 175.902344 3.035156 175.902344 6.734375 C 175.902344 9.804688 177.996094 12.386719 180.820312 13.183594 C 181.402344 13.347656 182 13.464844 182.632812 13.464844 L 192.347656 13.464844 "/>
<path style=" stroke:none;fill-rule:nonzero;fill:rgb(86.669922%,16.859436%,28.62854%);fill-opacity:1;" d="M 182.632812 361.539062 C 182 361.539062 181.402344 361.65625 180.820312 361.820312 C 178 362.621094 175.902344 365.199219 175.902344 368.269531 C 175.902344 371.972656 178.929688 375 182.632812 375 L 192.347656 375 C 196.050781 375 199.078125 371.972656 199.078125 368.269531 C 199.078125 365.15625 196.925781 362.542969 194.042969 361.785156 C 193.5 361.640625 192.9375 361.539062 192.347656 361.539062 L 182.632812 361.539062 "/>
<path style=" stroke:none;fill-rule:nonzero;fill:rgb(86.669922%,16.859436%,28.62854%);fill-opacity:1;" d="M 270.875 34.660156 L 279.273438 39.554688 C 279.785156 39.847656 280.316406 40.042969 280.859375 40.195312 C 283.734375 40.988281 286.910156 39.816406 288.476562 37.125 C 290.335938 33.925781 289.246094 29.785156 286.046875 27.921875 L 277.648438 23.035156 C 274.449219 21.171875 270.308594 22.261719 268.449219 25.460938 C 266.902344 28.113281 267.417969 31.398438 269.453125 33.507812 C 269.875 33.941406 270.332031 34.34375 270.875 34.660156 "/>
<path style=" stroke:none;fill-rule:nonzero;fill:rgb(86.669922%,16.859436%,28.62854%);fill-opacity:1;" d="M 374.734375 183.855469 C 374.6875 180.15625 371.617188 177.167969 367.921875 177.210938 C 364.847656 177.25 362.296875 179.382812 361.535156 182.214844 C 361.378906 182.796875 361.269531 183.398438 361.28125 184.027344 L 361.402344 193.746094 C 361.410156 194.335938 361.515625 194.894531 361.667969 195.4375 C 362.464844 198.3125 365.105469 200.429688 368.21875 200.386719 C 371.914062 200.339844 374.90625 197.273438 374.859375 193.574219 L 374.734375 183.855469 "/>
<path style=" stroke:none;fill-rule:nonzero;fill:rgb(86.669922%,16.859436%,28.62854%);fill-opacity:1;" d="M 342.464844 108.261719 C 342.746094 108.777344 343.101562 109.226562 343.488281 109.632812 C 345.535156 111.804688 348.855469 112.441406 351.589844 110.953125 C 354.839844 109.183594 356.050781 105.078125 354.277344 101.824219 L 349.628906 93.292969 C 347.859375 90.042969 343.753906 88.832031 340.503906 90.601562 C 337.808594 92.070312 336.546875 95.144531 337.191406 98.007812 C 337.328125 98.59375 337.511719 99.175781 337.8125 99.730469 L 342.464844 108.261719 "/>
<path style=" stroke:none;fill-rule:nonzero;fill:rgb(86.669922%,16.859436%,28.62854%);fill-opacity:1;" d="M 270.875 340.34375 C 270.332031 340.660156 269.875 341.0625 269.453125 341.496094 C 267.417969 343.605469 266.902344 346.890625 268.449219 349.542969 C 270.308594 352.742188 274.449219 353.832031 277.648438 351.972656 L 286.046875 347.082031 C 289.246094 345.21875 290.335938 341.078125 288.476562 337.882812 C 286.90625 335.191406 283.734375 334.015625 280.859375 334.808594 C 280.316406 334.960938 279.78125 335.15625 279.273438 335.453125 L 270.875 340.34375 "/>
<path style=" stroke:none;fill-rule:nonzero;fill:rgb(86.669922%,16.859436%,28.62854%);fill-opacity:1;" d="M 342.464844 266.742188 L 337.8125 275.277344 C 337.511719 275.832031 337.328125 276.410156 337.191406 277 C 336.546875 279.863281 337.808594 282.933594 340.503906 284.402344 C 343.753906 286.175781 347.859375 284.964844 349.628906 281.714844 L 354.277344 273.179688 C 356.050781 269.929688 354.839844 265.820312 351.589844 264.054688 C 348.855469 262.566406 345.535156 263.203125 343.488281 265.371094 C 343.101562 265.78125 342.746094 266.226562 342.464844 266.742188 "/>
<path style=" stroke:none;fill-rule:nonzero;fill:rgb(86.669922%,16.859436%,28.62854%);fill-opacity:1;" d="M 104.105469 34.660156 C 104.648438 34.34375 105.109375 33.941406 105.527344 33.507812 C 107.566406 31.398438 108.078125 28.113281 106.535156 25.460938 C 104.671875 22.261719 100.53125 21.171875 97.335938 23.035156 L 88.933594 27.921875 C 85.734375 29.785156 84.644531 33.925781 86.503906 37.125 C 88.074219 39.816406 91.246094 40.988281 94.121094 40.195312 C 94.664062 40.042969 95.199219 39.847656 95.707031 39.554688 L 104.105469 34.660156 "/>
<path style=" stroke:none;fill-rule:nonzero;fill:rgb(86.669922%,16.859436%,28.62854%);fill-opacity:1;" d="M 13.707031 184.027344 C 13.710938 183.398438 13.605469 182.800781 13.449219 182.21875 C 12.683594 179.382812 10.132812 177.253906 7.0625 177.214844 C 3.363281 177.167969 0.296875 180.15625 0.25 183.855469 L 0.125 193.574219 C 0.078125 197.273438 3.0625 200.339844 6.765625 200.386719 C 9.878906 200.429688 12.519531 198.3125 13.316406 195.4375 C 13.464844 194.894531 13.574219 194.335938 13.578125 193.746094 L 13.707031 184.027344 "/>
<path style=" stroke:none;fill-rule:nonzero;fill:rgb(86.669922%,16.859436%,28.62854%);fill-opacity:1;" d="M 32.519531 108.261719 L 37.167969 99.726562 C 37.46875 99.175781 37.652344 98.59375 37.785156 98.007812 C 38.433594 95.144531 37.171875 92.070312 34.476562 90.601562 C 31.226562 88.832031 27.121094 90.042969 25.347656 93.289062 L 20.699219 101.824219 C 18.929688 105.074219 20.140625 109.183594 23.390625 110.953125 C 26.125 112.441406 29.449219 111.800781 31.492188 109.632812 C 31.878906 109.222656 32.234375 108.777344 32.519531 108.261719 "/>
<path style=" stroke:none;fill-rule:nonzero;fill:rgb(86.669922%,16.859436%,28.62854%);fill-opacity:1;" d="M 104.105469 340.34375 L 95.707031 335.453125 C 95.199219 335.15625 94.664062 334.960938 94.121094 334.8125 C 91.246094 334.015625 88.074219 335.191406 86.503906 337.882812 C 84.644531 341.078125 85.734375 345.21875 88.933594 347.082031 L 97.335938 351.972656 C 100.53125 353.832031 104.671875 352.742188 106.535156 349.542969 C 108.078125 346.890625 107.566406 343.605469 105.527344 341.496094 C 105.109375 341.0625 104.648438 340.660156 104.105469 340.34375 "/>
<path style=" stroke:none;fill-rule:nonzero;fill:rgb(86.669922%,16.859436%,28.62854%);fill-opacity:1;" d="M 32.519531 266.742188 C 32.234375 266.226562 31.878906 265.78125 31.492188 265.371094 C 29.449219 263.203125 26.125 262.566406 23.390625 264.054688 C 20.140625 265.820312 18.929688 269.929688 20.699219 273.179688 L 25.347656 281.714844 C 27.121094 284.964844 31.226562 286.175781 34.476562 284.402344 C 37.171875 282.933594 38.4375 279.859375 37.785156 276.996094 C 37.652344 276.410156 37.46875 275.832031 37.167969 275.277344 L 32.519531 266.742188 "/>
<path style=" stroke:none;fill-rule:nonzero;fill:rgb(72.938538%,14.118958%,23.139954%);fill-opacity:1;" d="M 232.273438 38.542969 L 223.96875 36.292969 C 223.628906 36.203125 223.277344 36.046875 222.871094 35.804688 L 221.425781 34.953125 L 206.585938 73.539062 L 207.035156 74.160156 C 209.320312 77.347656 214.425781 81.816406 220.6875 81.816406 C 223 81.816406 225.472656 81.203125 228.023438 79.6875 L 228.59375 79.351562 L 235.257812 38.632812 L 233.554688 38.667969 C 233.039062 38.683594 232.632812 38.640625 232.273438 38.542969 "/>
<path style=" stroke:none;fill-rule:nonzero;fill:rgb(72.938538%,14.118958%,23.139954%);fill-opacity:1;" d="M 276.53125 114.746094 L 277.320312 114.859375 L 303.6875 82.894531 L 302.1875 82.066406 C 301.75 81.828125 301.421875 81.585938 301.152344 81.316406 L 295.105469 75.195312 C 294.859375 74.945312 294.632812 74.632812 294.402344 74.214844 L 293.582031 72.753906 L 261.398438 98.589844 L 261.398438 99.269531 C 261.398438 99.402344 261.570312 112.597656 276.53125 114.746094 "/>
<path style=" stroke:none;fill-rule:nonzero;fill:rgb(72.938538%,14.118958%,23.139954%);fill-opacity:1;" d="M 296.660156 149.457031 L 296.316406 150.09375 C 296.25 150.214844 289.808594 162.433594 301.359375 171.128906 L 301.96875 171.582031 L 340.910156 158.011719 L 340.054688 156.523438 C 339.804688 156.089844 339.648438 155.714844 339.558594 155.347656 L 337.558594 146.976562 C 337.476562 146.636719 337.445312 146.253906 337.460938 145.773438 L 337.515625 144.105469 L 296.660156 149.457031 "/>
<path style=" stroke:none;fill-rule:nonzero;fill:rgb(72.938538%,14.118958%,23.139954%);fill-opacity:1;" d="M 225.515625 293.9375 C 221.027344 293.148438 211.320312 295.675781 207.09375 300.761719 L 206.5625 301.402344 L 221.425781 340.054688 L 222.867188 339.199219 C 223.277344 338.957031 223.625 338.804688 223.96875 338.710938 L 232.273438 336.460938 C 232.632812 336.363281 233.054688 336.316406 233.546875 336.335938 L 235.257812 336.378906 L 228.632812 296.050781 C 228.355469 295.285156 227.585938 294.296875 225.515625 293.9375 "/>
<path style=" stroke:none;fill-rule:nonzero;fill:rgb(72.938538%,14.118958%,23.139954%);fill-opacity:1;" d="M 277.617188 260.550781 C 275.992188 259.261719 273.070312 259.609375 269.800781 261.480469 C 265.007812 264.21875 260.554688 269.753906 261.414062 275.929688 L 261.492188 276.492188 L 293.582031 302.246094 L 294.402344 300.789062 C 294.632812 300.371094 294.859375 300.058594 295.105469 299.8125 L 301.152344 293.6875 C 301.417969 293.421875 301.75 293.183594 302.1875 292.9375 L 303.6875 292.113281 L 277.828125 260.761719 L 277.617188 260.550781 "/>
<path style=" stroke:none;fill-rule:nonzero;fill:rgb(72.938538%,14.118958%,23.139954%);fill-opacity:1;" d="M 301.160156 204.066406 C 300.820312 204.445312 292.882812 213.476562 296.203125 224.640625 L 296.464844 225.519531 L 337.515625 230.898438 L 337.460938 229.234375 C 337.445312 228.75 337.476562 228.371094 337.558594 228.027344 L 339.558594 219.664062 C 339.648438 219.289062 339.804688 218.914062 340.054688 218.476562 L 340.910156 216.996094 L 301.789062 203.363281 L 301.160156 204.066406 "/>
<path style=" stroke:none;fill-rule:nonzero;fill:rgb(72.938538%,14.118958%,23.139954%);fill-opacity:1;" d="M 152.117188 35.804688 C 151.707031 36.046875 151.355469 36.203125 151.015625 36.292969 L 142.707031 38.542969 C 142.34375 38.640625 141.929688 38.683594 141.429688 38.667969 L 139.722656 38.632812 L 146.289062 78.746094 C 146.417969 79.386719 146.921875 80.535156 148.894531 81.050781 C 149.605469 81.238281 150.460938 81.324219 151.421875 81.324219 C 156.335938 81.324219 163.898438 78.917969 167.875 74.253906 L 168.421875 73.613281 L 153.558594 34.953125 L 152.117188 35.804688 "/>
<path style=" stroke:none;fill-rule:nonzero;fill:rgb(72.938538%,14.118958%,23.139954%);fill-opacity:1;" d="M 99.941406 115.402344 C 100.539062 115.402344 101.238281 115.285156 102.039062 115 C 106.9375 113.234375 112.914062 106.191406 113.574219 99.40625 L 113.648438 98.644531 L 81.390625 72.75 L 80.574219 74.21875 C 80.347656 74.628906 80.125 74.941406 79.875 75.195312 L 73.832031 81.316406 C 73.566406 81.585938 73.234375 81.824219 72.789062 82.066406 L 71.292969 82.894531 L 97.246094 114.347656 C 97.699219 114.800781 98.5625 115.402344 99.941406 115.402344 "/>
<path style=" stroke:none;fill-rule:nonzero;fill:rgb(72.938538%,14.118958%,23.139954%);fill-opacity:1;" d="M 72.605469 171.441406 L 72.9375 171.398438 C 73.964844 171.273438 74.902344 170.507812 75.800781 169.058594 C 78.257812 165.085938 80.582031 155.457031 78.753906 150.296875 L 78.464844 149.476562 L 37.457031 144.101562 L 37.515625 145.78125 C 37.535156 146.246094 37.503906 146.628906 37.421875 146.976562 L 35.421875 155.34375 C 35.332031 155.714844 35.175781 156.089844 34.921875 156.527344 L 34.070312 158.011719 L 72.296875 171.332031 L 72.605469 171.441406 "/>
<path style=" stroke:none;fill-rule:nonzero;fill:rgb(72.938538%,14.118958%,23.139954%);fill-opacity:1;" d="M 163.378906 295.980469 C 158.480469 293.378906 151.242188 292.328125 146.871094 295.371094 L 146.378906 295.710938 L 139.722656 336.378906 L 141.433594 336.335938 C 141.914062 336.316406 142.34375 336.363281 142.707031 336.460938 L 151.011719 338.710938 C 151.355469 338.804688 151.707031 338.960938 152.113281 339.199219 L 153.554688 340.054688 L 168.117188 302.175781 L 168.210938 301.6875 C 168.238281 299.679688 166.523438 297.652344 163.378906 295.980469 "/>
<path style=" stroke:none;fill-rule:nonzero;fill:rgb(72.938538%,14.118958%,23.139954%);fill-opacity:1;" d="M 98.15625 260.246094 L 97.542969 260.285156 L 71.292969 292.113281 L 72.789062 292.9375 C 73.234375 293.183594 73.566406 293.421875 73.832031 293.6875 L 79.875 299.808594 C 80.125 300.0625 80.351562 300.375 80.574219 300.785156 L 81.390625 302.253906 L 113.046875 276.84375 L 113.3125 276.566406 C 114.734375 274.597656 113.394531 271.488281 112.46875 269.8125 C 109.789062 264.941406 104.191406 259.890625 98.15625 260.246094 "/>
<path style=" stroke:none;fill-rule:nonzero;fill:rgb(72.938538%,14.118958%,23.139954%);fill-opacity:1;" d="M 77.601562 225.640625 L 78.019531 225.519531 C 80.21875 224.492188 80.472656 220.234375 80.480469 218.453125 C 80.5 213.238281 78.652344 206.25 73.375 203.730469 L 72.847656 203.480469 L 34.070312 216.992188 L 34.921875 218.476562 C 35.175781 218.914062 35.332031 219.289062 35.421875 219.660156 L 37.421875 228.019531 C 37.503906 228.375 37.535156 228.757812 37.515625 229.226562 L 37.457031 230.902344 L 77.601562 225.640625 "/>
<path style=" stroke:none;fill-rule:nonzero;fill:rgb(86.669922%,16.859436%,28.62854%);fill-opacity:1;" d="M 235.011719 28.414062 L 226.710938 26.164062 C 223.546875 25.308594 220.257812 27.195312 219.402344 30.359375 C 218.6875 32.996094 219.898438 35.699219 222.144531 37.027344 C 222.59375 37.289062 223.070312 37.519531 223.597656 37.664062 L 231.902344 39.914062 C 232.460938 40.066406 233.027344 40.101562 233.578125 40.085938 C 236.152344 40.027344 238.5 38.316406 239.207031 35.71875 C 240.058594 32.558594 238.175781 29.269531 235.011719 28.414062 "/>
<path style=" stroke:none;fill-rule:nonzero;fill:rgb(86.669922%,16.859436%,28.62854%);fill-opacity:1;" d="M 302.570312 67.820312 C 300.269531 65.488281 296.480469 65.464844 294.148438 67.765625 C 292.203125 69.683594 291.890625 72.628906 293.164062 74.910156 C 293.417969 75.363281 293.710938 75.800781 294.097656 76.191406 L 300.140625 82.3125 C 300.550781 82.726562 301.019531 83.039062 301.503906 83.308594 C 303.753906 84.550781 306.652344 84.257812 308.566406 82.363281 C 310.894531 80.0625 310.917969 76.273438 308.617188 73.941406 L 302.570312 67.820312 "/>
<path style=" stroke:none;fill-rule:nonzero;fill:rgb(86.669922%,16.859436%,28.62854%);fill-opacity:1;" d="M 338.179688 155.675781 C 338.316406 156.242188 338.550781 156.753906 338.828125 157.234375 C 340.109375 159.460938 342.738281 160.710938 345.355469 160.082031 C 348.542969 159.324219 350.527344 156.09375 349.765625 152.90625 L 347.769531 144.539062 C 347.007812 141.351562 343.78125 139.367188 340.589844 140.128906 C 337.9375 140.765625 336.140625 143.117188 336.046875 145.726562 C 336.027344 146.246094 336.054688 146.777344 336.179688 147.308594 L 338.179688 155.675781 "/>
<path style=" stroke:none;fill-rule:nonzero;fill:rgb(86.669922%,16.859436%,28.62854%);fill-opacity:1;" d="M 233.578125 334.917969 C 233.027344 334.902344 232.460938 334.941406 231.898438 335.09375 L 223.597656 337.339844 C 223.070312 337.484375 222.59375 337.714844 222.144531 337.980469 C 219.898438 339.308594 218.6875 342.011719 219.402344 344.644531 C 220.257812 347.808594 223.546875 349.695312 226.710938 348.839844 L 235.011719 346.589844 C 238.175781 345.738281 240.058594 342.449219 239.207031 339.285156 C 238.503906 336.6875 236.152344 334.976562 233.578125 334.917969 "/>
<path style=" stroke:none;fill-rule:nonzero;fill:rgb(86.669922%,16.859436%,28.62854%);fill-opacity:1;" d="M 301.503906 291.695312 C 301.019531 291.964844 300.550781 292.277344 300.140625 292.695312 L 294.097656 298.816406 C 293.710938 299.203125 293.417969 299.640625 293.164062 300.097656 C 291.890625 302.378906 292.203125 305.320312 294.148438 307.238281 C 296.480469 309.539062 300.269531 309.519531 302.570312 307.183594 L 308.617188 301.0625 C 310.917969 298.734375 310.894531 294.941406 308.566406 292.636719 C 306.652344 290.75 303.753906 290.453125 301.503906 291.695312 "/>
<path style=" stroke:none;fill-rule:nonzero;fill:rgb(86.669922%,16.859436%,28.62854%);fill-opacity:1;" d="M 345.355469 214.921875 C 342.738281 214.292969 340.109375 215.542969 338.828125 217.769531 C 338.550781 218.25 338.316406 218.761719 338.179688 219.332031 L 336.179688 227.699219 C 336.054688 228.230469 336.027344 228.757812 336.046875 229.277344 C 336.140625 231.886719 337.9375 234.242188 340.589844 234.875 C 343.78125 235.636719 347.007812 233.652344 347.769531 230.464844 L 349.765625 222.097656 C 350.527344 218.910156 348.542969 215.683594 345.355469 214.921875 "/>
<path style=" stroke:none;fill-rule:nonzero;fill:rgb(86.669922%,16.859436%,28.62854%);fill-opacity:1;" d="M 148.273438 26.164062 L 139.964844 28.414062 C 136.804688 29.269531 134.917969 32.558594 135.773438 35.71875 C 136.476562 38.316406 138.828125 40.027344 141.398438 40.085938 C 141.953125 40.101562 142.515625 40.066406 143.082031 39.914062 L 151.382812 37.664062 C 151.910156 37.519531 152.386719 37.289062 152.835938 37.027344 C 155.082031 35.699219 156.292969 32.996094 155.578125 30.359375 C 154.722656 27.195312 151.433594 25.308594 148.273438 26.164062 "/>
<path style=" stroke:none;fill-rule:nonzero;fill:rgb(86.669922%,16.859436%,28.62854%);fill-opacity:1;" d="M 72.410156 67.820312 L 66.363281 73.941406 C 64.058594 76.273438 64.082031 80.0625 66.414062 82.363281 C 68.332031 84.257812 71.222656 84.550781 73.476562 83.308594 C 73.960938 83.039062 74.429688 82.726562 74.839844 82.3125 L 80.882812 76.191406 C 81.269531 75.800781 81.5625 75.363281 81.816406 74.910156 C 83.089844 72.628906 82.773438 69.683594 80.832031 67.765625 C 78.5 65.464844 74.710938 65.488281 72.410156 67.820312 "/>
<path style=" stroke:none;fill-rule:nonzero;fill:rgb(86.669922%,16.859436%,28.62854%);fill-opacity:1;" d="M 34.390625 140.128906 C 31.203125 139.367188 27.972656 141.351562 27.210938 144.539062 L 25.214844 152.90625 C 24.453125 156.09375 26.4375 159.324219 29.625 160.085938 C 32.246094 160.710938 34.871094 159.460938 36.152344 157.234375 C 36.429688 156.753906 36.664062 156.242188 36.800781 155.675781 L 38.800781 147.308594 C 38.925781 146.777344 38.953125 146.246094 38.933594 145.726562 C 38.839844 143.117188 37.046875 140.765625 34.390625 140.128906 "/>
<path style=" stroke:none;fill-rule:nonzero;fill:rgb(86.669922%,16.859436%,28.62854%);fill-opacity:1;" d="M 152.835938 337.980469 C 152.386719 337.714844 151.914062 337.484375 151.386719 337.339844 L 143.082031 335.09375 C 142.515625 334.941406 141.957031 334.902344 141.398438 334.917969 C 138.832031 334.976562 136.476562 336.6875 135.773438 339.285156 C 134.917969 342.449219 136.804688 345.738281 139.96875 346.589844 L 148.273438 348.839844 C 151.433594 349.695312 154.722656 347.808594 155.578125 344.644531 C 156.292969 342.011719 155.082031 339.308594 152.835938 337.980469 "/>
<path style=" stroke:none;fill-rule:nonzero;fill:rgb(86.669922%,16.859436%,28.62854%);fill-opacity:1;" d="M 80.882812 298.816406 L 74.839844 292.695312 C 74.429688 292.277344 73.960938 291.964844 73.476562 291.695312 C 71.222656 290.453125 68.332031 290.75 66.414062 292.636719 C 64.082031 294.941406 64.058594 298.734375 66.363281 301.0625 L 72.410156 307.183594 C 74.710938 309.519531 78.5 309.539062 80.832031 307.238281 C 82.773438 305.320312 83.089844 302.378906 81.816406 300.097656 C 81.5625 299.640625 81.269531 299.203125 80.882812 298.816406 "/>
<path style=" stroke:none;fill-rule:nonzero;fill:rgb(86.669922%,16.859436%,28.62854%);fill-opacity:1;" d="M 36.800781 219.332031 C 36.664062 218.761719 36.429688 218.25 36.152344 217.769531 C 34.871094 215.542969 32.246094 214.292969 29.625 214.921875 C 26.4375 215.683594 24.453125 218.910156 25.214844 222.097656 L 27.210938 230.464844 C 27.972656 233.652344 31.203125 235.636719 34.390625 234.875 C 37.046875 234.238281 38.839844 231.886719 38.933594 229.277344 C 38.953125 228.757812 38.925781 228.230469 38.800781 227.699219 L 36.800781 219.332031 "/>
<path style=" stroke:none;fill-rule:nonzero;fill:rgb(79.998779%,15.689087%,25.878906%);fill-opacity:1;" d="M 187.492188 103.871094 C 195.652344 103.871094 196.53125 100.769531 196.527344 99.347656 L 195.5625 73.800781 L 193.621094 73.480469 C 189.046875 72.714844 185.558594 72.046875 182.292969 71.308594 L 179.460938 70.667969 L 178.390625 99.515625 C 178.4375 101.140625 179.6875 103.871094 187.492188 103.871094 "/>
<path style=" stroke:none;fill-rule:nonzero;fill:rgb(79.998779%,15.689087%,25.878906%);fill-opacity:1;" d="M 192.410156 270.855469 C 188.445312 269.582031 181.292969 270.074219 178.734375 274.316406 L 178.363281 274.933594 L 179.289062 299.714844 L 181.519531 299.800781 C 182.761719 299.851562 184.007812 299.875 185.261719 299.875 C 188.003906 299.875 190.765625 299.757812 193.503906 299.53125 L 195.628906 299.351562 L 196.523438 275.761719 C 196.589844 274.945312 196.492188 272.171875 192.410156 270.855469 "/>
<path style=" stroke:none;fill-rule:nonzero;fill:rgb(79.998779%,15.689087%,25.878906%);fill-opacity:1;" d="M 240.019531 85.585938 L 238.050781 84.546875 L 223.308594 107.8125 L 223.847656 109 C 225.265625 112.148438 229.339844 117.394531 235.445312 117.394531 C 236.292969 117.394531 237.179688 117.292969 238.105469 117.070312 L 239.160156 116.816406 L 250.734375 95.089844 L 251.539062 93.1875 L 249.949219 91.9375 C 247.066406 89.664062 243.816406 87.585938 240.019531 85.585938 "/>
<path style=" stroke:none;fill-rule:nonzero;fill:rgb(79.998779%,15.689087%,25.878906%);fill-opacity:1;" d="M 301.890625 182.898438 L 301.78125 180.65625 L 274.71875 180 L 273.992188 180.707031 C 271.71875 182.921875 268.664062 189.175781 273.363281 196.992188 L 274.105469 198.230469 L 299.597656 196.933594 L 301.796875 196.574219 L 301.894531 194.390625 C 301.953125 193.117188 302.011719 191.84375 302.035156 190.582031 C 302.074219 188.253906 302.03125 185.8125 301.890625 182.898438 "/>
<path style=" stroke:none;fill-rule:nonzero;fill:rgb(79.998779%,15.689087%,25.878906%);fill-opacity:1;" d="M 267.125 153.25 L 268.1875 153.617188 L 290.503906 140.335938 L 289.363281 138.289062 C 287.46875 134.894531 285.351562 131.5 283.054688 128.191406 L 281.867188 126.476562 L 259.304688 137.699219 L 259.117188 138.9375 C 258.539062 142.734375 259.472656 150.605469 267.125 153.25 "/>
<path style=" stroke:none;fill-rule:nonzero;fill:rgb(79.998779%,15.689087%,25.878906%);fill-opacity:1;" d="M 239.570312 258.96875 C 239.019531 258.128906 237.660156 256.773438 234.722656 257.179688 C 230.621094 257.734375 225.234375 261.523438 223.742188 266.277344 L 223.40625 267.34375 L 235.945312 287.136719 L 237.902344 286.140625 C 241.433594 284.339844 244.953125 282.378906 248.367188 280.304688 L 250.3125 279.121094 L 239.675781 259.144531 L 239.570312 258.96875 "/>
<path style=" stroke:none;fill-rule:nonzero;fill:rgb(79.998779%,15.689087%,25.878906%);fill-opacity:1;" d="M 266.753906 221.917969 C 266.394531 222.117188 257.929688 226.875 259.113281 236.011719 L 259.277344 237.289062 L 283.703125 249.4375 L 284.898438 247.765625 C 287.253906 244.464844 289.347656 241.078125 291.125 237.699219 L 292.191406 235.671875 L 267.964844 221.253906 L 266.753906 221.917969 "/>
<path style=" stroke:none;fill-rule:nonzero;fill:rgb(79.998779%,15.689087%,25.878906%);fill-opacity:1;" d="M 135.984375 87.488281 C 132.238281 89.777344 129.179688 91.777344 126.347656 93.785156 L 127.742188 95.75 L 126.054688 94.003906 L 124.320312 95.230469 L 135.890625 116.949219 L 137.113281 117.113281 C 137.84375 117.210938 138.550781 117.261719 139.242188 117.261719 C 144.484375 117.261719 148.566406 114.449219 151.117188 109.035156 L 151.683594 107.835938 L 138.011719 86.25 L 135.984375 87.488281 "/>
<path style=" stroke:none;fill-rule:nonzero;fill:rgb(79.998779%,15.689087%,25.878906%);fill-opacity:1;" d="M 100.476562 197.972656 C 104.597656 196.261719 103.566406 186.207031 103.554688 186.105469 C 103.136719 182.449219 101.839844 180.410156 99.707031 180.054688 L 99.480469 180.019531 L 72.636719 180.671875 L 72.523438 182.910156 C 72.332031 186.726562 72.386719 190.691406 72.691406 194.6875 L 72.847656 196.804688 L 99.972656 198.1875 L 100.476562 197.972656 "/>
<path style=" stroke:none;fill-rule:nonzero;fill:rgb(79.998779%,15.689087%,25.878906%);fill-opacity:1;" d="M 107.382812 153.453125 C 108.042969 153.453125 108.859375 153.25 109.777344 152.609375 C 112.582031 150.652344 116.4375 144.246094 115.875 139.042969 L 115.734375 137.730469 L 92.84375 126.347656 L 91.65625 128.058594 C 89.613281 130.996094 87.585938 134.316406 85.457031 138.21875 L 84.339844 140.257812 L 105.992188 153.132812 C 106.308594 153.289062 106.78125 153.453125 107.382812 153.453125 "/>
<path style=" stroke:none;fill-rule:nonzero;fill:rgb(79.998779%,15.689087%,25.878906%);fill-opacity:1;" d="M 137.054688 257.898438 L 135.871094 258.089844 L 123.898438 280.566406 L 125.785156 281.761719 C 129.121094 283.882812 132.601562 285.863281 136.125 287.652344 L 138.082031 288.644531 L 151.027344 268.199219 C 151.46875 267.433594 151.988281 265.824219 150.507812 263.679688 C 148.496094 260.757812 142.5625 257.019531 137.054688 257.898438 "/>
<path style=" stroke:none;fill-rule:nonzero;fill:rgb(79.998779%,15.689087%,25.878906%);fill-opacity:1;" d="M 88.183594 245.003906 L 90.203125 243.683594 Z M 107.496094 221.660156 L 106.609375 221.5 L 84.371094 234.730469 L 82.664062 236.039062 L 83.65625 238.445312 C 84.421875 240.25 85.242188 242.039062 86.101562 243.8125 L 86.894531 245.253906 L 88.296875 245.175781 C 88.695312 245.78125 89.113281 246.378906 89.535156 246.972656 L 91.253906 249.449219 L 115.023438 237.628906 L 115.355469 237.21875 C 116.972656 235.21875 116.0625 231.828125 115.375 229.984375 C 114.046875 226.410156 111.277344 222.347656 107.496094 221.660156 "/>
<path style=" stroke:none;fill-rule:nonzero;fill:rgb(86.669922%,16.859436%,28.62854%);fill-opacity:1;" d="M 190.503906 63.28125 L 184.480469 63.28125 C 177.75 63.28125 172.269531 68.757812 172.269531 75.492188 C 172.269531 80.917969 175.929688 85.742188 181.144531 87.214844 C 182.28125 87.542969 183.375 87.703125 184.480469 87.703125 L 190.503906 87.703125 C 191.515625 87.703125 192.527344 87.566406 193.597656 87.285156 C 198.964844 85.871094 202.710938 81.019531 202.710938 75.492188 C 202.710938 68.757812 197.234375 63.28125 190.503906 63.28125 "/>
<path style=" stroke:none;fill-rule:nonzero;fill:rgb(86.669922%,16.859436%,28.62854%);fill-opacity:1;" d="M 193.621094 287.726562 C 192.554688 287.441406 191.535156 287.304688 190.503906 287.304688 L 184.480469 287.304688 C 183.371094 287.304688 182.277344 287.464844 181.175781 287.78125 C 175.929688 289.257812 172.269531 294.085938 172.269531 299.515625 C 172.269531 306.246094 177.75 311.722656 184.480469 311.722656 L 190.503906 311.722656 C 197.234375 311.722656 202.710938 306.246094 202.710938 299.515625 C 202.710938 293.980469 198.960938 289.132812 193.621094 287.726562 "/>
<path style=" stroke:none;fill-rule:nonzero;fill:rgb(86.669922%,16.859436%,28.62854%);fill-opacity:1;" d="M 252.609375 81.671875 L 247.402344 78.644531 C 241.597656 75.253906 234.097656 77.230469 230.703125 83.050781 C 227.980469 87.738281 228.714844 93.742188 232.503906 97.675781 C 233.324219 98.523438 234.179688 99.203125 235.113281 99.746094 L 240.335938 102.785156 C 241.21875 103.296875 242.160156 103.6875 243.203125 103.972656 C 244.285156 104.273438 245.386719 104.417969 246.46875 104.417969 C 250.734375 104.417969 254.792969 102.179688 257.007812 98.375 C 258.652344 95.558594 259.097656 92.269531 258.261719 89.109375 C 257.429688 85.953125 255.421875 83.3125 252.609375 81.671875 "/>
<path style=" stroke:none;fill-rule:nonzero;fill:rgb(86.669922%,16.859436%,28.62854%);fill-opacity:1;" d="M 311.550781 185.136719 C 311.460938 178.457031 306.003906 173.085938 299.339844 173.085938 C 299.289062 173.085938 299.238281 173.085938 299.183594 173.085938 C 293.761719 173.15625 288.988281 176.878906 287.570312 182.136719 C 287.261719 183.277344 287.121094 184.367188 287.136719 185.453125 L 287.214844 191.496094 C 287.226562 192.496094 287.375 193.488281 287.667969 194.5625 C 289.132812 199.863281 293.953125 203.527344 299.421875 203.527344 C 299.476562 203.527344 299.53125 203.527344 299.582031 203.527344 C 306.304688 203.4375 311.714844 197.894531 311.628906 191.160156 L 311.550781 185.136719 "/>
<path style=" stroke:none;fill-rule:nonzero;fill:rgb(86.669922%,16.859436%,28.62854%);fill-opacity:1;" d="M 273.578125 136.960938 L 276.457031 142.25 L 276.457031 142.253906 C 276.957031 143.160156 277.566406 143.996094 278.308594 144.773438 C 280.683594 147.289062 283.929688 148.609375 287.210938 148.609375 C 289.195312 148.609375 291.191406 148.128906 293.015625 147.128906 C 295.878906 145.570312 297.964844 142.988281 298.886719 139.859375 C 299.808594 136.726562 299.460938 133.425781 297.902344 130.566406 L 295.019531 125.277344 C 291.796875 119.367188 284.371094 117.175781 278.457031 120.394531 C 273.691406 122.992188 271.210938 128.511719 272.414062 133.835938 C 272.675781 134.992188 273.0625 136.023438 273.578125 136.960938 "/>
<path style=" stroke:none;fill-rule:nonzero;fill:rgb(86.669922%,16.859436%,28.62854%);fill-opacity:1;" d="M 243.214844 271.027344 C 242.148438 271.320312 241.199219 271.714844 240.320312 272.230469 L 235.113281 275.257812 C 234.179688 275.804688 233.320312 276.480469 232.484375 277.34375 C 228.714844 281.261719 227.980469 287.269531 230.707031 291.960938 C 232.972656 295.847656 237.070312 298.019531 241.277344 298.019531 C 243.363281 298.019531 245.472656 297.484375 247.402344 296.363281 L 252.609375 293.332031 C 255.421875 291.695312 257.429688 289.054688 258.261719 285.894531 C 259.097656 282.738281 258.652344 279.449219 257.015625 276.636719 C 254.230469 271.855469 248.558594 269.542969 243.214844 271.027344 "/>
<path style=" stroke:none;fill-rule:nonzero;fill:rgb(86.669922%,16.859436%,28.62854%);fill-opacity:1;" d="M 293.019531 227.875 C 288.164062 225.226562 282.113281 226.199219 278.308594 230.226562 C 277.558594 231.027344 276.949219 231.851562 276.457031 232.75 L 273.59375 238.015625 C 273.0625 238.976562 272.679688 240.007812 272.410156 241.179688 C 271.210938 246.492188 273.691406 252.015625 278.460938 254.609375 C 280.304688 255.617188 282.304688 256.09375 284.277344 256.09375 C 288.609375 256.09375 292.804688 253.789062 295.019531 249.726562 L 297.902344 244.4375 C 299.457031 241.578125 299.808594 238.277344 298.886719 235.148438 C 297.964844 232.015625 295.878906 229.433594 293.019531 227.875 "/>
<path style=" stroke:none;fill-rule:nonzero;fill:rgb(86.669922%,16.859436%,28.62854%);fill-opacity:1;" d="M 128.515625 104.417969 C 129.601562 104.417969 130.695312 104.269531 131.78125 103.972656 C 132.847656 103.675781 133.789062 103.28125 134.660156 102.777344 L 139.867188 99.746094 C 140.820312 99.191406 141.6875 98.503906 142.488281 97.664062 C 146.269531 93.742188 147.003906 87.734375 144.277344 83.050781 C 140.890625 77.230469 133.402344 75.257812 127.582031 78.640625 L 122.371094 81.671875 C 116.558594 85.058594 114.582031 92.546875 117.96875 98.371094 C 120.191406 102.183594 124.25 104.417969 128.515625 104.417969 "/>
<path style=" stroke:none;fill-rule:nonzero;fill:rgb(86.669922%,16.859436%,28.62854%);fill-opacity:1;" d="M 87.304688 194.59375 C 87.601562 193.535156 87.753906 192.519531 87.769531 191.476562 L 87.847656 185.40625 C 87.855469 184.328125 87.710938 183.257812 87.414062 182.144531 C 86 176.882812 81.226562 173.15625 75.792969 173.085938 C 72.464844 173.109375 69.453125 174.28125 67.117188 176.558594 C 64.78125 178.839844 63.46875 181.886719 63.429688 185.140625 L 63.351562 191.15625 C 63.308594 194.414062 64.539062 197.496094 66.820312 199.835938 C 69.09375 202.171875 72.140625 203.484375 75.398438 203.527344 C 75.453125 203.527344 75.503906 203.527344 75.5625 203.527344 C 81.027344 203.527344 85.847656 199.863281 87.304688 194.59375 "/>
<path style=" stroke:none;fill-rule:nonzero;fill:rgb(86.669922%,16.859436%,28.62854%);fill-opacity:1;" d="M 81.953125 147.128906 C 83.785156 148.125 85.78125 148.609375 87.769531 148.609375 C 91.054688 148.609375 94.304688 147.28125 96.6875 144.757812 C 97.4375 143.960938 98.039062 143.140625 98.523438 142.253906 L 101.417969 136.9375 C 101.933594 135.988281 102.304688 134.972656 102.570312 133.824219 C 103.773438 128.511719 101.285156 122.992188 96.523438 120.394531 C 90.617188 117.175781 83.179688 119.367188 79.960938 125.277344 L 77.078125 130.566406 C 75.519531 133.425781 75.171875 136.726562 76.09375 139.859375 C 77.019531 142.988281 79.101562 145.570312 81.953125 147.128906 "/>
<path style=" stroke:none;fill-rule:nonzero;fill:rgb(86.669922%,16.859436%,28.62854%);fill-opacity:1;" d="M 139.867188 275.257812 L 134.695312 272.25 C 133.808594 271.726562 132.855469 271.328125 131.78125 271.03125 C 126.429688 269.550781 120.753906 271.855469 117.964844 276.640625 C 114.582031 282.457031 116.5625 289.945312 122.371094 293.332031 L 127.582031 296.363281 C 129.46875 297.460938 131.566406 298.023438 133.699219 298.023438 C 134.742188 298.023438 135.796875 297.886719 136.839844 297.613281 C 139.996094 296.777344 142.640625 294.765625 144.273438 291.960938 C 147.003906 287.269531 146.269531 281.261719 142.507812 277.355469 C 141.6875 276.503906 140.824219 275.816406 139.867188 275.257812 "/>
<path style=" stroke:none;fill-rule:nonzero;fill:rgb(86.669922%,16.859436%,28.62854%);fill-opacity:1;" d="M 101.40625 238.042969 L 98.523438 232.757812 L 98.523438 232.75 C 98.042969 231.871094 97.449219 231.058594 96.675781 230.234375 C 92.867188 226.199219 86.820312 225.226562 81.960938 227.875 C 79.101562 229.433594 77.019531 232.015625 76.09375 235.148438 C 75.171875 238.277344 75.519531 241.578125 77.078125 244.4375 L 79.960938 249.726562 C 82.171875 253.789062 86.371094 256.09375 90.703125 256.09375 C 92.675781 256.09375 94.675781 255.617188 96.523438 254.609375 C 101.292969 252.007812 103.78125 246.484375 102.566406 241.171875 C 102.304688 240.027344 101.925781 239.007812 101.40625 238.042969 "/>
<path style=" stroke:none;fill-rule:nonzero;fill:rgb(86.669922%,16.859436%,28.62854%);fill-opacity:1;" d="M 228.175781 165.035156 L 244.839844 146.96875 C 246.671875 144.984375 247.496094 142.261719 247.058594 139.59375 C 246.683594 137.28125 245.402344 135.226562 243.527344 133.871094 L 241.789062 132.105469 C 240.4375 130.234375 238.398438 128.957031 236.097656 128.570312 C 233.460938 128.132812 230.757812 128.917969 228.765625 130.707031 L 210.492188 147.125 C 208.632812 148.792969 207.574219 151.175781 207.574219 153.671875 C 207.574219 159.761719 212 166.566406 220.460938 167.777344 C 220.875 167.839844 221.296875 167.867188 221.707031 167.867188 C 224.144531 167.867188 226.496094 166.855469 228.175781 165.035156 "/>
<path style=" stroke:none;fill-rule:nonzero;fill:rgb(86.669922%,16.859436%,28.62854%);fill-opacity:1;" d="M 211.347656 227.410156 C 211.261719 227.035156 211.15625 226.667969 211.03125 226.308594 C 209.863281 223.089844 207.042969 220.800781 203.488281 220.179688 C 199.101562 219.414062 192.320312 221.246094 188.65625 225.652344 C 186.730469 227.972656 186.125 231.113281 187.046875 233.976562 L 194.578125 257.355469 C 195.398438 259.902344 197.328125 261.933594 199.832031 262.882812 C 200.839844 263.265625 201.898438 263.457031 202.953125 263.457031 C 204.179688 263.457031 205.402344 263.203125 206.535156 262.695312 L 208.921875 262.046875 C 211.222656 261.820312 213.355469 260.695312 214.84375 258.898438 C 216.570312 256.804688 217.238281 254.039062 216.648438 251.390625 L 211.347656 227.410156 "/>
<path style=" stroke:none;fill-rule:nonzero;fill:rgb(86.669922%,16.859436%,28.62854%);fill-opacity:1;" d="M 263.195312 197.730469 C 262.1875 195.214844 260.074219 193.304688 257.46875 192.554688 L 233.917969 185.761719 C 230.671875 184.824219 227.175781 185.828125 224.921875 188.347656 C 222.03125 191.570312 219.339844 197.632812 221.257812 204.09375 C 222.195312 207.25 224.820312 209.625 228.058594 210.234375 L 252.148438 214.792969 C 252.695312 214.898438 253.242188 214.949219 253.789062 214.949219 C 255.871094 214.949219 257.914062 214.203125 259.519531 212.820312 C 261.296875 211.296875 262.382812 209.140625 262.5625 206.832031 L 263.136719 204.441406 C 264.035156 202.316406 264.066406 199.898438 263.195312 197.730469 "/>
<path style=" stroke:none;fill-rule:nonzero;fill:rgb(86.669922%,16.859436%,28.62854%);fill-opacity:1;" d="M 187.933594 141.027344 L 180.398438 117.648438 C 179.578125 115.097656 177.636719 113.058594 175.125 112.113281 C 172.945312 111.289062 170.535156 111.371094 168.433594 112.3125 L 166.050781 112.960938 C 163.746094 113.1875 161.609375 114.316406 160.121094 116.125 C 158.40625 118.214844 157.746094 120.976562 158.328125 123.617188 L 163.59375 147.40625 C 164.292969 150.941406 166.980469 153.726562 170.605469 154.675781 C 171.535156 154.914062 172.570312 155.039062 173.667969 155.039062 C 177.894531 155.039062 183.023438 153.226562 186.253906 149.4375 C 188.230469 147.117188 188.871094 143.933594 187.933594 141.027344 "/>
<path style=" stroke:none;fill-rule:nonzero;fill:rgb(86.669922%,16.859436%,28.62854%);fill-opacity:1;" d="M 143.5 189.585938 C 143.855469 189.585938 144.21875 189.566406 144.574219 189.523438 C 146.261719 189.316406 149.429688 188.421875 151.6875 184.773438 C 153.523438 181.804688 155.324219 175.40625 153.582031 170.480469 C 152.535156 167.527344 150 165.355469 146.921875 164.769531 L 122.828125 160.210938 C 120.203125 159.714844 117.488281 160.441406 115.457031 162.179688 C 113.683594 163.707031 112.597656 165.867188 112.417969 168.171875 L 111.847656 170.5625 C 110.945312 172.6875 110.914062 175.101562 111.785156 177.273438 C 112.792969 179.789062 114.90625 181.699219 117.511719 182.449219 L 141.058594 189.242188 C 141.855469 189.472656 142.675781 189.585938 143.5 189.585938 "/>
<path style=" stroke:none;fill-rule:nonzero;fill:rgb(86.669922%,16.859436%,28.62854%);fill-opacity:1;" d="M 152.730469 207.15625 C 150.464844 207.292969 148.339844 208.300781 146.800781 209.972656 L 130.140625 228.03125 C 128.3125 230.015625 127.492188 232.726562 127.917969 235.390625 C 128.289062 237.710938 129.570312 239.773438 131.449219 241.132812 L 133.1875 242.890625 C 134.535156 244.765625 136.582031 246.046875 138.886719 246.429688 C 139.367188 246.511719 139.847656 246.550781 140.332031 246.550781 C 142.488281 246.550781 144.585938 245.757812 146.210938 244.296875 L 164.488281 227.882812 C 164.953125 227.464844 165.371094 226.996094 165.738281 226.492188 C 168.050781 223.296875 168.132812 219.03125 165.960938 215.085938 C 163.8125 211.183594 158.984375 206.761719 152.730469 207.15625 "/>
<path style=" stroke:none;fill-rule:nonzero;fill:rgb(93.728638%,18.429565%,31.369019%);fill-opacity:1;" d="M 250.613281 142.128906 C 250.640625 138.242188 249.152344 134.578125 246.421875 131.820312 L 243.917969 129.28125 C 241.191406 126.515625 237.550781 124.980469 233.660156 124.957031 C 233.628906 124.953125 233.597656 124.953125 233.5625 124.953125 C 229.714844 124.953125 226.09375 126.441406 223.359375 129.140625 C 218.722656 133.710938 217.707031 140.882812 220.890625 146.582031 C 221.53125 147.730469 222.308594 148.773438 223.222656 149.703125 L 225.789062 152.304688 C 226.75 153.265625 227.863281 154.09375 229.0625 154.75 C 231.25 155.957031 233.667969 156.546875 236.070312 156.546875 C 239.816406 156.546875 243.53125 155.117188 246.292969 152.378906 C 249.054688 149.65625 250.59375 146.015625 250.613281 142.128906 "/>
<path style=" stroke:none;fill-rule:nonzero;fill:rgb(93.728638%,18.429565%,31.369019%);fill-opacity:1;" d="M 206.941406 236.722656 C 205.519531 236.691406 204.148438 236.851562 202.832031 237.203125 L 199.332031 238.152344 C 198.105469 238.488281 196.90625 238.996094 195.765625 239.667969 C 190.148438 242.984375 187.414062 249.691406 189.113281 255.992188 C 190.875 262.453125 196.753906 266.71875 203.148438 266.71875 C 204.40625 266.71875 205.675781 266.554688 206.941406 266.210938 L 210.390625 265.28125 C 218.128906 263.191406 222.71875 255.195312 220.628906 247.441406 C 218.957031 241.277344 213.324219 236.875 206.941406 236.722656 "/>
<path style=" stroke:none;fill-rule:nonzero;fill:rgb(93.728638%,18.429565%,31.369019%);fill-opacity:1;" d="M 255.917969 187.167969 L 255.90625 187.164062 C 249.703125 185.683594 243.128906 188.53125 239.964844 194.039062 C 239.265625 195.246094 238.746094 196.527344 238.398438 197.929688 L 237.570312 201.410156 C 237.277344 202.625 237.152344 203.855469 237.191406 205.296875 C 237.425781 211.804688 242 217.40625 248.335938 218.925781 C 249.460938 219.195312 250.597656 219.328125 251.726562 219.328125 C 254.386719 219.328125 256.996094 218.59375 259.316406 217.171875 C 262.632812 215.136719 264.949219 211.9375 265.847656 208.164062 L 266.679688 204.679688 C 268.539062 196.886719 263.707031 189.03125 255.917969 187.167969 "/>
<path style=" stroke:none;fill-rule:nonzero;fill:rgb(93.728638%,18.429565%,31.369019%);fill-opacity:1;" d="M 179.070312 110.21875 C 175.699219 108.28125 171.773438 107.777344 168.035156 108.792969 L 164.585938 109.726562 C 156.851562 111.816406 152.261719 119.8125 154.351562 127.570312 C 156.023438 133.726562 161.65625 138.132812 168.042969 138.28125 C 168.164062 138.285156 168.285156 138.285156 168.40625 138.285156 C 169.703125 138.285156 170.96875 138.121094 172.179688 137.792969 L 175.578125 136.871094 C 176.839844 136.535156 178.027344 136.035156 179.226562 135.328125 C 184.835938 132.007812 187.5625 125.308594 185.867188 119.035156 C 184.855469 115.285156 182.445312 112.15625 179.070312 110.21875 "/>
<path style=" stroke:none;fill-rule:nonzero;fill:rgb(93.728638%,18.429565%,31.369019%);fill-opacity:1;" d="M 135.0625 180.886719 C 135.765625 179.65625 136.277344 178.355469 136.582031 177.074219 L 137.410156 173.597656 L 137.414062 173.578125 C 137.714844 172.324219 137.839844 171.007812 137.789062 169.703125 C 137.554688 163.191406 132.972656 157.582031 126.65625 156.082031 C 122.882812 155.171875 118.976562 155.796875 115.664062 157.832031 C 112.351562 159.867188 110.03125 163.070312 109.132812 166.839844 L 108.300781 170.324219 C 106.441406 178.113281 111.265625 185.96875 119.058594 187.835938 C 120.164062 188.097656 121.277344 188.226562 122.378906 188.226562 C 127.492188 188.226562 132.40625 185.492188 135.0625 180.886719 "/>
<path style=" stroke:none;fill-rule:nonzero;fill:rgb(93.728638%,18.429565%,31.369019%);fill-opacity:1;" d="M 151.753906 225.300781 L 149.257812 222.769531 C 148.300781 221.796875 147.1875 220.957031 145.921875 220.257812 C 140.324219 217.160156 133.234375 218.140625 128.6875 222.625 C 122.984375 228.25 122.921875 237.46875 128.554688 243.183594 L 131.074219 245.734375 C 133.800781 248.492188 137.441406 250.027344 141.324219 250.046875 C 141.355469 250.046875 141.382812 250.046875 141.417969 250.046875 C 145.269531 250.046875 148.898438 248.558594 151.621094 245.863281 C 156.257812 241.292969 157.269531 234.125 154.105469 228.460938 C 153.441406 227.257812 152.632812 226.179688 151.753906 225.300781 "/>
<path style=" stroke:none;fill-rule:nonzero;fill:rgb(93.728638%,18.429565%,31.369019%);fill-opacity:1;" d="M 187.441406 164.03125 C 174.503906 164.03125 163.972656 174.5625 163.972656 187.503906 C 163.972656 200.445312 174.503906 210.972656 187.441406 210.972656 C 200.386719 210.972656 210.914062 200.445312 210.914062 187.503906 C 210.914062 174.5625 200.386719 164.03125 187.441406 164.03125 "/>
</g>
</defs>
<g id="surface1">
<rect x="0" y="0" width="375" height="374.999991" style="fill:rgb(100%,100%,100%);fill-opacity:1;stroke:none;"/>
<rect x="0" y="0" width="375" height="374.999991" style="fill:rgb(100%,100%,100%);fill-opacity:1;stroke:none;"/>
<rect x="0" y="0" width="375" height="374.999991" style="fill:rgb(100%,100%,100%);fill-opacity:1;stroke:none;"/>
<use xlink:href="#surface5" transform="matrix(1,0,0,1,0,0)" mask="url(#mask0)"/>
</g>
</svg>
