<?xml version="1.0" encoding="UTF-8"?>
<svg xmlns="http://www.w3.org/2000/svg" xmlns:xlink="http://www.w3.org/1999/xlink" width="375pt" height="374.999991pt" viewBox="0 0 375 374.999991" version="1.2">
<g id="surface1">
<path style=" stroke:none;fill-rule:nonzero;fill:rgb(0%,0%,0%);fill-opacity:1;" d="M 62.238281 285.183594 C 78.402344 293.261719 303.878906 285.75 318.09375 277.714844 C 322.585938 275.171875 356.773438 170.328125 348.664062 164 C 346.839844 162.582031 296.558594 212.457031 292.425781 211.820312 C 288.292969 211.191406 283.121094 157.351562 277.378906 155.523438 C 269.144531 152.882812 243.328125 208.148438 239.695312 206.609375 C 236.0625 205.070312 214.324219 129.214844 205.851562 128.867188 C 194.992188 128.421875 178.527344 207.785156 171.246094 207.941406 C 168.328125 208.007812 139.796875 144.265625 130.972656 145.875 C 120.679688 147.753906 111.394531 208.183594 106.304688 208.433594 C 101.210938 208.679688 48.726562 164.574219 40.40625 164.6875 C 32.082031 164.808594 54.617188 281.375 62.238281 285.183594 "/>
<path style=" stroke:none;fill-rule:nonzero;fill:rgb(0%,0%,0%);fill-opacity:1;" d="M 219.007812 103.25 C 216.542969 95.757812 214.195312 85.503906 202.523438 88.25 C 190.855469 91.003906 184.039062 99.59375 186.910156 108.484375 C 191.167969 121.683594 202.765625 124.632812 209.527344 122.226562 C 216.496094 119.746094 221.757812 111.605469 219.007812 103.25 "/>
<path style=" stroke:none;fill-rule:nonzero;fill:rgb(0%,0%,0%);fill-opacity:1;" d="M 275.738281 117.128906 C 288.269531 115.796875 300.59375 122.695312 297.25 133.25 C 293.640625 144.625 287.347656 148.882812 281.191406 149.285156 C 273.238281 149.804688 265.511719 143.886719 264.089844 138.527344 C 261.546875 129.015625 268.066406 117.941406 275.738281 117.128906 "/>
<path style=" stroke:none;fill-rule:nonzero;fill:rgb(0%,0%,0%);fill-opacity:1;" d="M 343.269531 137.921875 C 351.992188 128.121094 367.894531 127.617188 369.078125 143.824219 C 370.257812 160.035156 361.308594 159.90625 356.625 161.554688 C 344.511719 165.832031 332.644531 149.859375 343.269531 137.921875 "/>
<path style=" stroke:none;fill-rule:nonzero;fill:rgb(0%,0%,0%);fill-opacity:1;" d="M 143.175781 137.8125 C 158.1875 120.835938 154.640625 107.648438 135.238281 106.265625 C 99.769531 103.71875 112.191406 135.835938 118.066406 139.082031 C 124.515625 142.640625 136.875 144.941406 143.175781 137.8125 "/>
<path style=" stroke:none;fill-rule:nonzero;fill:rgb(0%,0%,0%);fill-opacity:1;" d="M 45.804688 157.058594 C 45.804688 157.058594 52.734375 134.71875 39.890625 132.34375 C 27.050781 129.964844 14.265625 136.507812 12.929688 146.605469 C 11.582031 156.714844 12.199219 164.941406 22.285156 167.175781 C 40.140625 171.144531 45.804688 157.058594 45.804688 157.058594 "/>
</g>
</svg>
