<?xml version="1.0" encoding="UTF-8"?>
<svg xmlns="http://www.w3.org/2000/svg" xmlns:xlink="http://www.w3.org/1999/xlink" width="768pt" height="767.999994pt" viewBox="0 0 768 767.999994" version="1.2">
<defs>
<clipPath id="clip1">
  <path d="M 15.324219 157.261719 L 759 157.261719 L 759 547 L 15.324219 547 Z M 15.324219 157.261719 "/>
</clipPath>
<clipPath id="clip2">
  <path d="M 123 561 L 652 561 L 652 614.761719 L 123 614.761719 Z M 123 561 "/>
</clipPath>
</defs>
<g id="surface1">
<path style=" stroke:none;fill-rule:nonzero;fill:rgb(0%,0%,0%);fill-opacity:1;" d="M 722.96875 345.859375 C 705.199219 345.859375 690.804688 360.253906 690.804688 378.011719 C 690.804688 388.1875 695.550781 397.242188 702.921875 403.140625 C 679.460938 430.015625 639.671875 467.640625 607.183594 458.398438 C 571.625 448.277344 584.527344 356.046875 594.566406 305.042969 C 596.609375 305.449219 598.714844 305.667969 600.871094 305.667969 C 618.628906 305.667969 633.015625 291.273438 633.015625 273.515625 C 633.015625 255.757812 618.628906 241.363281 600.871094 241.363281 C 583.109375 241.363281 568.707031 255.757812 568.707031 273.515625 C 568.707031 285.867188 575.683594 296.574219 585.898438 301.960938 C 547.96875 367.710938 451.929688 497.796875 395.957031 248.546875 C 416.25 244.53125 431.542969 226.648438 431.542969 205.1875 C 431.542969 181.003906 412.117188 161.382812 388.015625 161.015625 L 388.015625 160.976562 L 387.667969 160.996094 L 387.328125 160.976562 C 362.914062 160.976562 343.109375 180.777344 343.109375 205.1875 C 343.109375 226.648438 358.402344 244.53125 378.6875 248.546875 C 322.535156 498.617188 226.039062 366.847656 188.386719 301.320312 C 197.96875 295.753906 204.433594 285.394531 204.433594 273.515625 C 204.433594 255.757812 190.03125 241.363281 172.277344 241.363281 C 154.519531 241.363281 140.113281 255.757812 140.113281 273.515625 C 140.113281 291.273438 154.519531 305.667969 172.277344 305.667969 C 174.945312 305.667969 177.523438 305.308594 180.011719 304.691406 C 190.066406 355.621094 203.109375 448.257812 167.46875 458.398438 C 134.980469 467.640625 95.191406 430.015625 71.722656 403.140625 C 79.101562 397.242188 83.847656 388.1875 83.847656 378.011719 C 83.847656 360.253906 69.445312 345.859375 51.691406 345.859375 C 33.921875 345.859375 19.519531 360.253906 19.519531 378.011719 C 19.519531 395.769531 33.921875 410.160156 51.691406 410.160156 C 57.695312 410.160156 63.308594 408.488281 68.121094 405.617188 C 115.445312 488.667969 127.136719 542.800781 127.136719 542.800781 L 647.515625 542.800781 C 647.515625 542.800781 659.199219 488.667969 706.53125 405.617188 C 711.34375 408.488281 716.949219 410.160156 722.96875 410.160156 C 740.71875 410.160156 755.125 395.769531 755.125 378.011719 C 755.125 360.253906 740.71875 345.859375 722.96875 345.859375 "/>
<g clip-path="url(#clip1)" clip-rule="nonzero">
<path style=" stroke:none;fill-rule:nonzero;fill:rgb(0%,0%,0%);fill-opacity:1;" d="M 722.96875 345.859375 L 722.96875 342.230469 C 703.195312 342.230469 687.183594 358.25 687.175781 378.011719 C 687.175781 389.332031 692.457031 399.425781 700.664062 405.976562 L 702.921875 403.140625 L 700.191406 400.75 C 689.804688 412.648438 676.183594 426.664062 661.578125 437.585938 C 654.28125 443.058594 646.75 447.738281 639.320312 451.027344 C 631.882812 454.316406 624.566406 456.195312 617.675781 456.195312 C 614.425781 456.195312 611.257812 455.78125 608.175781 454.902344 C 604.480469 453.84375 601.464844 451.792969 598.820312 448.683594 C 594.859375 444.03125 591.910156 436.878906 590.058594 428.015625 C 588.195312 419.148438 587.402344 408.621094 587.402344 397.328125 C 587.390625 367.011719 593.109375 331.191406 598.128906 305.742188 L 594.566406 305.042969 L 593.859375 308.605469 C 596.125 309.050781 598.460938 309.296875 600.871094 309.296875 C 620.632812 309.296875 636.644531 293.277344 636.644531 273.515625 C 636.644531 253.753906 620.632812 237.734375 600.871094 237.734375 C 581.097656 237.734375 565.078125 253.753906 565.078125 273.515625 C 565.078125 287.257812 572.835938 299.183594 584.207031 305.175781 L 585.898438 301.960938 L 582.75 300.148438 C 572.289062 318.292969 557.335938 341.378906 540.210938 359.742188 C 531.65625 368.917969 522.554688 376.914062 513.308594 382.539062 C 504.054688 388.171875 494.707031 391.410156 485.53125 391.410156 C 478.207031 391.402344 470.910156 389.390625 463.46875 384.644531 C 452.335938 377.527344 440.910156 364.042969 430.019531 341.890625 C 419.121094 319.746094 408.761719 289.03125 399.5 247.753906 L 395.957031 248.546875 L 396.664062 252.109375 C 418.628906 247.761719 435.160156 228.417969 435.171875 205.1875 C 435.171875 179.019531 414.152344 157.792969 388.074219 157.386719 L 388.015625 161.015625 L 391.644531 161.015625 L 391.644531 160.976562 C 391.644531 159.984375 391.238281 159.03125 390.519531 158.351562 C 389.792969 157.660156 388.828125 157.300781 387.828125 157.347656 L 387.667969 157.359375 L 387.507812 157.347656 L 387.328125 157.347656 C 360.898438 157.347656 339.480469 178.761719 339.480469 205.1875 C 339.492188 228.417969 356.023438 247.753906 377.976562 252.109375 L 378.6875 248.546875 L 375.144531 247.753906 C 362.800781 302.785156 348.46875 339.054688 333.582031 361.234375 C 326.144531 372.332031 318.601562 379.890625 311.171875 384.644531 C 303.734375 389.390625 296.4375 391.402344 289.113281 391.410156 C 279.878906 391.410156 270.484375 388.132812 261.171875 382.441406 C 247.210938 373.917969 233.628906 359.996094 221.683594 344.792969 C 209.71875 329.585938 199.339844 313.113281 191.523438 299.515625 L 188.386719 301.320312 L 190.199219 304.457031 C 200.851562 298.277344 208.054688 286.738281 208.054688 273.515625 C 208.054688 253.753906 192.042969 237.734375 172.277344 237.734375 C 152.503906 237.734375 136.496094 253.753906 136.484375 273.515625 C 136.496094 293.277344 152.503906 309.296875 172.277344 309.296875 C 175.273438 309.296875 178.15625 308.890625 180.878906 308.21875 L 180.011719 304.691406 L 176.445312 305.390625 C 181.484375 330.871094 187.25 366.867188 187.242188 397.335938 C 187.25 412.390625 185.8125 426.085938 182.375 436.28125 C 180.664062 441.375 178.460938 445.574219 175.832031 448.683594 C 173.1875 451.792969 170.171875 453.84375 166.476562 454.902344 C 163.386719 455.78125 160.21875 456.195312 156.96875 456.195312 C 150.078125 456.195312 142.761719 454.316406 135.324219 451.027344 C 124.179688 446.101562 112.808594 438.011719 102.335938 428.902344 C 91.855469 419.792969 82.25 409.671875 74.460938 400.75 L 71.722656 403.140625 L 73.988281 405.976562 C 82.195312 399.433594 87.476562 389.332031 87.476562 378.011719 C 87.476562 358.25 71.445312 342.230469 51.691406 342.230469 C 31.917969 342.230469 15.898438 358.25 15.890625 378.011719 C 15.898438 397.773438 31.917969 413.789062 51.691406 413.789062 C 58.375 413.789062 64.632812 411.917969 69.972656 408.734375 L 68.121094 405.617188 L 64.964844 407.410156 C 88.527344 448.757812 103.195312 482.863281 111.96875 506.605469 C 116.363281 518.476562 119.273438 527.753906 121.078125 534.050781 C 121.984375 537.1875 122.621094 539.585938 123.015625 541.195312 C 123.222656 541.996094 123.367188 542.59375 123.460938 542.988281 L 123.5625 543.433594 L 123.59375 543.566406 C 123.953125 545.230469 125.425781 546.429688 127.136719 546.429688 L 647.515625 546.429688 C 649.214844 546.429688 650.699219 545.230469 651.058594 543.566406 L 651.089844 543.433594 C 651.75 540.476562 664.027344 487.515625 709.6875 407.410156 L 706.53125 405.617188 L 704.671875 408.726562 C 710.011719 411.917969 716.277344 413.789062 722.96875 413.789062 C 742.722656 413.789062 758.746094 397.773438 758.753906 378.011719 C 758.746094 358.25 742.734375 342.230469 722.96875 342.230469 L 722.96875 349.488281 C 730.851562 349.488281 737.960938 352.671875 743.140625 357.84375 C 748.300781 363.011719 751.496094 370.121094 751.496094 378.011719 C 751.496094 385.902344 748.300781 393.007812 743.140625 398.179688 C 737.960938 403.347656 730.851562 406.53125 722.96875 406.53125 C 717.628906 406.53125 712.675781 405.046875 708.394531 402.496094 C 707.5625 401.996094 706.542969 401.855469 705.605469 402.101562 C 704.671875 402.355469 703.859375 402.96875 703.375 403.820312 C 655.832031 487.242188 644.027344 541.722656 643.960938 542.027344 L 647.515625 542.800781 L 647.515625 539.171875 L 127.136719 539.171875 L 127.136719 542.800781 L 130.679688 542.027344 C 130.617188 541.722656 118.808594 487.242188 71.265625 403.820312 C 70.796875 402.980469 69.980469 402.355469 69.035156 402.101562 C 68.101562 401.855469 67.089844 401.996094 66.257812 402.496094 C 61.96875 405.046875 57.023438 406.53125 51.691406 406.53125 C 43.800781 406.53125 36.683594 403.347656 31.511719 398.179688 C 26.34375 393.007812 23.15625 385.902344 23.148438 378.011719 C 23.15625 370.121094 26.34375 363.011719 31.511719 357.84375 C 36.683594 352.671875 43.800781 349.488281 51.691406 349.488281 C 59.574219 349.488281 66.683594 352.671875 71.863281 357.84375 C 77.03125 363.011719 80.21875 370.121094 80.21875 378.011719 C 80.21875 387.046875 76.023438 395.050781 69.460938 400.296875 C 68.6875 400.910156 68.195312 401.835938 68.109375 402.808594 C 68.027344 403.792969 68.347656 404.785156 68.988281 405.519531 C 79.59375 417.664062 93.488281 431.992188 108.714844 443.398438 C 116.332031 449.109375 124.292969 454.078125 132.390625 457.660156 C 140.492188 461.242188 148.761719 463.445312 156.96875 463.453125 C 160.84375 463.453125 164.6875 462.953125 168.460938 461.882812 C 173.621094 460.417969 177.96875 457.40625 181.371094 453.371094 C 186.484375 447.300781 189.671875 439.070312 191.691406 429.507812 C 193.695312 419.933594 194.5 408.96875 194.5 397.335938 C 194.492188 366 188.648438 329.71875 183.574219 303.992188 C 183.375 303.011719 182.796875 302.167969 181.957031 301.628906 C 181.117188 301.09375 180.105469 300.929688 179.140625 301.167969 C 176.902344 301.726562 174.613281 302.039062 172.277344 302.039062 C 164.386719 302.039062 157.277344 298.851562 152.097656 293.683594 C 146.9375 288.511719 143.742188 281.40625 143.742188 273.515625 C 143.742188 265.625 146.9375 258.515625 152.097656 253.347656 C 157.277344 248.179688 164.386719 244.992188 172.277344 244.992188 C 180.160156 244.992188 187.269531 248.179688 192.449219 253.347656 C 197.609375 258.515625 200.796875 265.625 200.804688 273.515625 C 200.804688 284.050781 195.066406 293.230469 186.5625 298.179688 C 184.832031 299.183594 184.246094 301.394531 185.226562 303.125 C 195.824219 321.542969 211.003906 345.160156 228.808594 364.355469 C 237.722656 373.945312 247.289062 382.453125 257.382812 388.632812 C 267.46875 394.792969 278.140625 398.660156 289.113281 398.667969 C 297.800781 398.679688 306.597656 396.195312 315.085938 390.757812 C 327.828125 382.585938 339.867188 367.964844 351.136719 345.09375 C 362.390625 322.203125 372.875 291 382.230469 249.339844 C 382.441406 248.375 382.269531 247.394531 381.730469 246.5625 C 381.191406 245.738281 380.359375 245.183594 379.394531 244.984375 C 360.796875 241.296875 346.730469 224.882812 346.742188 205.1875 C 346.742188 193.96875 351.277344 183.847656 358.628906 176.496094 C 365.984375 169.144531 376.105469 164.605469 387.328125 164.605469 L 387.328125 160.976562 L 387.136719 164.605469 L 387.488281 164.617188 L 387.855469 164.617188 L 388.207031 164.605469 L 388.015625 160.976562 L 384.386719 160.976562 L 384.386719 161.015625 C 384.386719 162.992188 385.976562 164.605469 387.960938 164.644531 C 410.085938 164.984375 427.914062 182.996094 427.914062 205.1875 C 427.921875 224.890625 413.867188 241.296875 395.246094 244.984375 C 394.28125 245.183594 393.449219 245.738281 392.914062 246.5625 C 392.375 247.394531 392.195312 248.375 392.410156 249.339844 C 404.898438 304.882812 419.347656 341.851562 435.03125 365.28125 C 442.882812 376.980469 451.070312 385.316406 459.558594 390.757812 C 468.042969 396.195312 476.84375 398.679688 485.53125 398.667969 C 496.449219 398.660156 507.050781 394.84375 517.082031 388.738281 C 532.136719 379.570312 546.058594 365.222656 558.308594 349.734375 C 570.550781 334.246094 581.070312 317.59375 589.046875 303.777344 C 589.539062 302.925781 589.660156 301.894531 589.386719 300.949219 C 589.113281 300.015625 588.460938 299.210938 587.589844 298.75 C 578.515625 293.964844 572.335938 284.46875 572.335938 273.515625 C 572.335938 265.625 575.519531 258.515625 580.691406 253.347656 C 585.871094 248.179688 592.980469 244.992188 600.871094 244.992188 C 608.753906 244.992188 615.863281 248.179688 621.03125 253.347656 C 626.203125 258.515625 629.386719 265.625 629.386719 273.515625 C 629.386719 281.40625 626.203125 288.511719 621.03125 293.683594 C 615.863281 298.851562 608.753906 302.039062 600.871094 302.039062 C 598.960938 302.039062 597.097656 301.847656 595.273438 301.480469 C 594.320312 301.289062 593.347656 301.488281 592.542969 302.027344 C 591.742188 302.566406 591.191406 303.386719 591.003906 304.34375 C 585.945312 330.046875 580.152344 366.132812 580.144531 397.328125 C 580.152344 412.84375 581.5625 427.152344 585.390625 438.589844 C 587.316406 444.304688 589.859375 449.335938 593.28125 453.371094 C 596.683594 457.40625 601.023438 460.417969 606.191406 461.882812 C 609.953125 462.953125 613.808594 463.453125 617.675781 463.453125 C 625.890625 463.445312 634.160156 461.242188 642.261719 457.660156 C 654.40625 452.28125 666.238281 443.785156 677.070312 434.375 C 687.902344 424.960938 697.714844 414.632812 705.664062 405.519531 C 706.304688 404.785156 706.628906 403.792969 706.542969 402.808594 C 706.457031 401.835938 705.957031 400.910156 705.191406 400.296875 C 698.628906 395.050781 694.445312 387.046875 694.433594 378.011719 C 694.445312 370.121094 697.628906 363.011719 702.789062 357.84375 C 707.96875 352.671875 715.078125 349.488281 722.96875 349.488281 L 722.96875 345.859375 "/>
</g>
<path style=" stroke:none;fill-rule:nonzero;fill:rgb(0%,0%,0%);fill-opacity:1;" d="M 127.128906 565.625 L 127.128906 611.289062 L 647.515625 611.289062 L 647.515625 565.625 L 127.128906 565.625 "/>
<g clip-path="url(#clip2)" clip-rule="nonzero">
<path style=" stroke:none;fill-rule:nonzero;fill:rgb(0%,0%,0%);fill-opacity:1;" d="M 127.128906 565.625 L 123.5 565.625 L 123.5 611.289062 C 123.5 612.242188 123.886719 613.179688 124.566406 613.859375 C 125.238281 614.53125 126.171875 614.917969 127.128906 614.917969 L 647.515625 614.917969 C 648.480469 614.917969 649.386719 614.550781 650.078125 613.859375 C 650.765625 613.167969 651.144531 612.261719 651.144531 611.289062 L 651.144531 565.625 C 651.144531 564.667969 650.757812 563.734375 650.078125 563.0625 C 649.394531 562.382812 648.46875 561.996094 647.515625 561.996094 L 127.128906 561.996094 C 126.171875 561.996094 125.238281 562.382812 124.566406 563.0625 C 123.886719 563.734375 123.5 564.667969 123.5 565.625 L 127.128906 565.625 L 127.128906 569.253906 L 643.886719 569.253906 L 643.886719 607.660156 L 130.757812 607.660156 L 130.757812 565.625 L 127.128906 565.625 L 127.128906 569.253906 L 127.128906 565.625 "/>
</g>
</g>
</svg>
