<?xml version="1.0" encoding="UTF-8"?>
<svg xmlns="http://www.w3.org/2000/svg" xmlns:xlink="http://www.w3.org/1999/xlink" width="768pt" height="767.999994pt" viewBox="0 0 768 767.999994" version="1.2">
<g id="surface1">
<path style=" stroke:none;fill-rule:nonzero;fill:rgb(0%,0%,0%);fill-opacity:1;" d="M 735.78125 224.894531 C 721.761719 214.378906 695.765625 220.804688 694.453125 240.523438 C 694.453125 241.253906 694.597656 241.839844 694.890625 242.425781 C 693.867188 250.605469 696.058594 259.222656 701.316406 265.648438 C 683.5 269.886719 667.433594 282.738281 651.808594 291.355469 C 632.96875 301.726562 616.902344 315.457031 600.546875 329.335938 C 585.796875 342.042969 570.609375 354.167969 557.027344 368.191406 C 551.917969 373.449219 546.074219 379.582031 541.109375 386.300781 C 540.964844 384.550781 540.671875 382.796875 540.523438 381.191406 C 539.210938 367.898438 537.894531 354.605469 536.875 341.3125 C 535.121094 317.648438 534.246094 292.816406 529.570312 269.445312 C 536.144531 267.984375 542.132812 264.480469 545.78125 259.222656 C 552.5 249.433594 551.1875 234.972656 544.761719 225.480469 C 537.894531 215.253906 524.898438 211.75 514.820312 217.445312 C 509.125 219.199219 504.015625 222.996094 500.511719 229.132812 C 494.085938 240.234375 496.128906 255.714844 505.914062 264.335938 C 508.6875 266.816406 512.046875 268.425781 515.550781 269.445312 C 498.757812 288.726562 485.761719 310.199219 473.640625 332.988281 C 466.335938 346.570312 459.617188 360.449219 453.046875 374.324219 C 451.441406 377.539062 449.542969 381.042969 447.644531 384.550781 C 439.320312 356.359375 429.828125 328.75 420.773438 300.707031 C 415.953125 285.804688 411.863281 270.90625 408.066406 255.714844 C 405.585938 245.636719 402.226562 234.972656 395.070312 227.378906 C 395.070312 227.234375 395.214844 226.941406 395.214844 226.792969 C 395.214844 226.648438 395.214844 226.503906 395.214844 226.503906 C 402.078125 226.941406 409.234375 224.894531 414.636719 219.636719 C 429.097656 205.761719 422.816406 180.636719 404.269531 174.210938 C 389.082031 168.953125 368.78125 176.402344 366.589844 193.929688 C 365.132812 206.492188 375.355469 226.0625 388.351562 226.503906 C 377.398438 238.042969 370.535156 254.253906 364.253906 268.425781 C 357.097656 284.347656 349.503906 299.683594 341.910156 315.3125 C 334.753906 330.210938 329.496094 345.839844 321.171875 360.15625 C 318.398438 364.976562 315.183594 370.089844 312.703125 375.347656 C 309.199219 368.628906 306.570312 361.324219 303.503906 354.605469 C 298.097656 342.480469 291.527344 331.089844 285.246094 319.257812 C 274.441406 298.808594 263.925781 273.535156 246.546875 256.886719 C 251.511719 253.816406 255.746094 249.144531 258.375 243.300781 C 264.800781 228.839844 260.421875 211.457031 245.960938 204.152344 C 239.535156 200.792969 231.941406 200.355469 224.933594 202.109375 C 223.035156 201.671875 221.136719 201.523438 219.089844 201.964844 C 211.496094 203.421875 206.386719 209.558594 202.878906 216.277344 C 194.996094 231.90625 199.230469 250.605469 215.730469 258.492188 C 220.257812 260.683594 225.222656 261.707031 229.898438 261.707031 C 219.382812 284.929688 210.621094 309.03125 205.507812 334.007812 C 202.589844 348.46875 198.792969 362.640625 195.578125 376.953125 C 194.265625 383.234375 192.21875 390.539062 191.050781 397.839844 C 175.863281 381.042969 163.449219 361.761719 146.800781 346.277344 C 125.917969 326.851562 100.796875 310.785156 72.320312 306.257812 C 72.027344 306.109375 71.589844 305.816406 71.296875 305.671875 C 73.78125 302.019531 75.679688 297.785156 76.703125 293.546875 C 80.9375 274.996094 66.769531 253.964844 46.761719 255.277344 C 44.136719 255.425781 41.652344 256.007812 39.167969 257.03125 C 30.554688 259.367188 24.128906 265.066406 21.207031 273.097656 C 16.972656 280.984375 16.242188 290.042969 21.789062 297.054688 C 25.003906 306.109375 31.285156 313.996094 40.335938 317.359375 C 49.683594 320.863281 58.59375 318.234375 65.3125 312.539062 C 70.277344 319.109375 77.433594 324.953125 82.25 331.378906 C 88.824219 340.4375 94.519531 350.222656 99.484375 360.300781 C 110 381.628906 117.738281 404.414062 125.625 426.910156 C 134.386719 451.742188 143.734375 476.28125 150.160156 501.84375 C 153.8125 516.304688 157.023438 530.765625 159.945312 545.371094 C 162.574219 558.371094 162.71875 575.460938 171.917969 585.6875 C 174.695312 588.753906 178.636719 588.167969 181.265625 585.980469 C 196.308594 587.730469 211.789062 582.472656 226.246094 578.675781 C 241.726562 574.585938 257.351562 570.496094 273.125 566.988281 C 305.984375 559.6875 339.28125 555.742188 372.871094 555.304688 C 405.585938 554.867188 438.441406 557.789062 470.132812 566.113281 C 485.320312 570.058594 499.488281 575.753906 513.945312 581.890625 C 524.023438 586.125 535.996094 592.699219 547.535156 594.304688 C 552.207031 599.269531 562.722656 596.933594 563.746094 588.023438 C 567.394531 555.15625 572.070312 524.335938 582.148438 492.785156 C 592.371094 460.945312 605.804688 430.121094 620.992188 400.324219 C 634.722656 373.300781 650.054688 346.863281 666.703125 321.59375 C 677.65625 305.085938 690.800781 281.277344 709.347656 272.515625 L 709.492188 272.515625 C 721.175781 277.917969 737.386719 272.953125 744.25 261.996094 C 751.992188 249.289062 746.878906 233.222656 735.78125 224.894531 Z M 512.484375 239.648438 C 512.777344 235.703125 513.945312 232.492188 515.699219 230.007812 C 519.640625 227.234375 523.875 223.875 528.84375 225.625 C 532.929688 227.085938 535.851562 231.175781 537.457031 234.972656 C 541.402344 244.613281 536.875 253.523438 526.066406 254.402344 C 516.429688 255.132812 511.753906 248.996094 512.484375 239.648438 Z M 405.875 192.03125 C 413.324219 203.863281 399.742188 218.761719 387.476562 211.457031 C 384.261719 209.558594 382.070312 206.929688 380.757812 204.152344 C 380.171875 202.253906 379.734375 200.503906 379.589844 198.75 C 379.589844 194.804688 381.195312 191.007812 384.261719 188.230469 C 390.835938 183.851562 401.785156 185.601562 405.875 192.03125 Z M 213.394531 233.367188 C 213.25 232.636719 213.101562 232.054688 213.101562 231.324219 C 215.878906 226.0625 217.777344 220.367188 222.597656 216.421875 C 228.292969 211.894531 236.617188 211.3125 242.894531 214.964844 C 254.433594 221.828125 250.34375 239.066406 239.390625 243.882812 C 229.605469 248.265625 215.878906 244.90625 213.394531 233.367188 Z M 49.101562 302.3125 C 41.214844 303.1875 35.664062 292.964844 34.058594 286.683594 C 33.472656 284.492188 33.328125 282.15625 33.328125 280.109375 C 34.058594 277.917969 35.519531 275.726562 37.710938 273.683594 C 43.40625 268.277344 51.875 266.964844 58.300781 272.367188 C 63.851562 277.042969 66.1875 287.265625 61.660156 293.546875 C 59.175781 296.617188 53.480469 301.875 49.101562 302.3125 Z M 606.242188 389.371094 C 574.113281 445.753906 548.558594 509 545.34375 574.292969 C 542.863281 573.5625 540.523438 572.832031 538.1875 571.957031 C 530.15625 568.886719 522.417969 565.382812 514.53125 562.023438 C 500.949219 556.179688 487.367188 551.066406 473.054688 547.269531 C 440.339844 538.652344 406.460938 535.4375 372.726562 535.875 C 339.28125 536.316406 306.570312 540.550781 274 548.4375 C 257.792969 552.382812 241.582031 556.910156 225.515625 561.585938 C 212.226562 565.382812 197.476562 568.449219 185.0625 575.316406 C 186.085938 563.335938 180.972656 548.878906 178.785156 538.214844 C 175.570312 523.023438 172.210938 507.832031 167.832031 492.933594 C 160.089844 466.492188 149.285156 441.078125 139.207031 415.371094 C 130.589844 393.3125 121.535156 371.257812 109.414062 350.808594 C 104.304688 342.1875 98.460938 333.863281 92.183594 326.121094 C 108.390625 337.078125 123.726562 349.347656 137.164062 363.371094 C 156.148438 383.089844 168.851562 408.210938 189.882812 426.03125 C 194.847656 430.269531 200.980469 428.808594 204.632812 425.15625 C 205.800781 424.425781 206.824219 423.402344 207.554688 421.796875 C 212.957031 409.382812 212.371094 394.042969 215 380.605469 C 217.777344 366.144531 221.136719 351.828125 223.617188 337.367188 C 228 311.953125 234.570312 286.683594 237.199219 261.121094 C 237.492188 261.121094 237.636719 260.976562 237.929688 260.976562 C 243.917969 271.785156 250.488281 282.15625 255.894531 293.402344 C 262.320312 306.839844 268.160156 320.570312 274.292969 334.15625 C 284.515625 356.503906 291.089844 383.820312 307.445312 402.660156 C 307.589844 402.953125 307.882812 403.101562 308.027344 403.390625 C 311.242188 409.382812 322.925781 408.652344 324.09375 401.054688 C 326.429688 386.011719 334.316406 375.199219 341.179688 361.910156 C 348.480469 347.738281 354.03125 332.402344 360.605469 317.941406 C 367.03125 303.773438 372.433594 289.3125 377.835938 274.707031 C 382.65625 261.707031 388.351562 248.703125 392.585938 235.558594 C 395.652344 245.199219 396.820312 255.132812 398.429688 265.210938 C 400.910156 280.695312 404.855469 295.886719 409.089844 311.078125 C 418.144531 343.941406 429.097656 376.660156 435.8125 409.964844 C 436.398438 412.59375 437.710938 414.347656 439.464844 415.371094 C 441.21875 418.875 446.328125 419.898438 449.542969 418.144531 C 460.640625 412.15625 465.3125 393.898438 470.71875 383.089844 C 477.144531 369.796875 483.570312 356.503906 490.140625 343.210938 C 500.21875 322.617188 510.441406 302.019531 520.371094 281.425781 C 518.910156 301.582031 521.6875 322.46875 522.417969 342.335938 C 522.855469 355.042969 524.167969 367.605469 525.335938 380.167969 C 526.359375 391.707031 524.316406 406.019531 529.132812 416.539062 C 529.570312 417.414062 530.15625 418 530.886719 418.4375 C 532.492188 422.820312 538.625 425.15625 542.277344 421.210938 C 553.523438 408.941406 560.679688 393.75 572.507812 381.628906 C 585.359375 368.480469 599.671875 356.941406 613.691406 344.964844 C 628.734375 332.109375 642.898438 318.964844 658.964844 307.277344 C 660.277344 306.257812 661.738281 305.234375 663.050781 304.210938 C 661.445312 306.402344 659.839844 308.445312 658.234375 310.492188 C 638.957031 334.886719 621.871094 361.910156 606.242188 389.371094 Z M 736.074219 250.3125 C 734.027344 255.425781 725.996094 257.90625 721.175781 258.492188 C 711.832031 259.804688 706.863281 253.085938 707.011719 244.175781 C 707.011719 241.839844 707.449219 239.792969 708.03125 237.894531 C 710.953125 234.683594 714.019531 231.613281 718.546875 230.882812 C 723.804688 230.152344 728.917969 232.929688 732.277344 236.875 C 735.050781 240.378906 737.824219 245.929688 736.074219 250.3125 Z M 736.074219 250.3125 "/>
</g>
</svg>
