<?xml version="1.0" encoding="UTF-8"?>
<svg xmlns="http://www.w3.org/2000/svg" xmlns:xlink="http://www.w3.org/1999/xlink" width="375pt" height="374.999991pt" viewBox="0 0 375 374.999991" version="1.2">
<defs>
<filter id="alpha" filterUnits="objectBoundingBox" x="0%" y="0%" width="100%" height="100%">
  <feColorMatrix type="matrix" in="SourceGraphic" values="0 0 0 0 1 0 0 0 0 1 0 0 0 0 1 0 0 0 1 0"/>
</filter>
<mask id="mask0">
  <g filter="url(#alpha)">
<rect x="0" y="0" width="375" height="374.999991" style="fill:rgb(0%,0%,0%);fill-opacity:0.3765;stroke:none;"/>
  </g>
</mask>
<clipPath id="clip2">
  <path d="M 0.59375 43 L 225 43 L 225 247.789062 L 0.59375 247.789062 Z M 0.59375 43 "/>
</clipPath>
<clipPath id="clip3">
  <path d="M 147 0.59375 L 247.789062 0.59375 L 247.789062 107 L 147 107 Z M 147 0.59375 "/>
</clipPath>
<clipPath id="clip4">
  <path d="M 0.59375 0.59375 L 247.789062 0.59375 L 247.789062 247.789062 L 0.59375 247.789062 Z M 0.59375 0.59375 "/>
</clipPath>
<clipPath id="clip1">
  <rect x="0" y="0" width="249" height="249"/>
</clipPath>
<g id="surface5" clip-path="url(#clip1)">
<g clip-path="url(#clip2)" clip-rule="nonzero">
<path style=" stroke:none;fill-rule:nonzero;fill:rgb(29.019165%,7.839966%,54.899597%);fill-opacity:1;" d="M 57.683594 247.789062 C 25.902344 247.789062 0.59375 221.890625 0.59375 190.699219 C 0.59375 145.96875 27.667969 135.960938 55.917969 125.957031 C 70.632812 120.660156 86.523438 115.363281 100.648438 104.179688 C 111.242188 96.527344 120.660156 87.113281 130.078125 77.105469 C 142.4375 63.570312 151.855469 55.917969 153.621094 53.5625 C 154.796875 51.796875 170.097656 44.734375 171.277344 45.914062 C 171.277344 45.914062 195.996094 37.671875 212.476562 53.5625 C 228.957031 69.457031 224.246094 98.882812 224.246094 100.648438 C 218.359375 161.859375 141.847656 247.789062 57.683594 247.789062 Z M 57.683594 247.789062 "/>
</g>
<g clip-path="url(#clip3)" clip-rule="nonzero">
<path style=" stroke:none;fill-rule:nonzero;fill:rgb(29.798889%,68.629456%,31.369019%);fill-opacity:1;" d="M 236.019531 0.59375 L 247.789062 12.363281 C 247.789062 12.363281 234.839844 34.730469 224.246094 47.679688 C 232.488281 58.273438 242.492188 75.929688 230.132812 106.535156 C 217.773438 103.003906 206.589844 77.105469 206.589844 77.105469 C 206.589844 77.105469 199.527344 85.933594 177.160156 88.878906 C 175.394531 67.101562 183.046875 59.449219 183.046875 59.449219 C 183.046875 59.449219 155.972656 61.804688 147.734375 53.5625 C 147.734375 53.5625 164.214844 22.371094 206.589844 35.90625 C 223.070312 24.136719 236.019531 0.59375 236.019531 0.59375 Z M 236.019531 0.59375 "/>
</g>
<g clip-path="url(#clip4)" clip-rule="nonzero">
<path style="fill:none;stroke-width:2;stroke-linecap:round;stroke-linejoin:miter;stroke:rgb(58.428955%,45.878601%,80.389404%);stroke-opacity:1;stroke-miterlimit:10;" d="M 7.000131 35.000091 C 7.000131 35.000091 6.400151 31.499764 11.999744 29.000289 C 17.600001 26.50015 24.000011 24.300002 29.000288 18.00021 " transform="matrix(5.885611,0,0,5.885611,-17.06333,-17.063334)"/>
</g>
</g>
</defs>
<g id="surface1">
<use xlink:href="#surface5" transform="matrix(1,0,0,1,63,63)" mask="url(#mask0)"/>
</g>
</svg>
