<?xml version="1.0" encoding="UTF-8"?>
<svg xmlns="http://www.w3.org/2000/svg" xmlns:xlink="http://www.w3.org/1999/xlink" width="375pt" height="374.999991pt" viewBox="0 0 375 374.999991" version="1.2">
<defs>
<clipPath id="clip1">
  <path d="M 16 13 L 364.492188 13 L 364.492188 366.808594 L 16 366.808594 Z M 16 13 "/>
</clipPath>
</defs>
<g id="surface1">
<g clip-path="url(#clip1)" clip-rule="nonzero">
<path style=" stroke:none;fill-rule:nonzero;fill:rgb(0%,0%,0%);fill-opacity:1;" d="M 363.726562 242.039062 C 363.25 239.648438 361.335938 237.261719 359.425781 236.304688 L 278.691406 189.46875 L 355.128906 145.496094 C 359.90625 142.628906 361.335938 136.894531 358.472656 132.59375 L 324.074219 72.375 C 321.210938 67.59375 315.476562 66.160156 311.175781 69.027344 L 233.308594 113.476562 L 233.308594 22.667969 C 233.308594 17.414062 229.011719 13.109375 223.753906 13.109375 L 154.964844 13.109375 C 149.710938 13.109375 145.410156 17.414062 145.410156 22.667969 L 145.410156 112.042969 L 69.929688 68.550781 C 65.152344 66.160156 59.421875 67.59375 57.03125 71.894531 L 22.160156 132.117188 C 19.292969 136.894531 21.203125 142.628906 25.503906 145.019531 L 101.9375 188.988281 L 21.203125 235.828125 C 16.425781 238.695312 14.992188 244.429688 17.859375 248.730469 L 52.734375 308.949219 C 55.601562 313.730469 61.332031 315.164062 65.632812 312.296875 L 145.410156 266.414062 L 145.410156 357.222656 C 145.410156 362.476562 149.710938 366.78125 154.964844 366.78125 L 223.753906 366.78125 C 229.011719 366.78125 233.308594 362.476562 233.308594 357.222656 L 233.308594 265.457031 L 315.476562 312.773438 C 320.253906 315.164062 325.988281 313.730469 328.375 309.429688 L 363.25 249.207031 C 364.203125 246.820312 364.679688 244.429688 363.726562 242.039062 Z M 316.433594 291.265625 L 228.53125 240.605469 C 223.753906 237.738281 218.023438 239.648438 215.632812 243.953125 C 214.679688 245.386719 214.199219 246.820312 214.199219 248.730469 L 214.199219 347.664062 L 164.519531 347.664062 L 164.519531 250.164062 C 164.519531 244.90625 160.21875 240.605469 154.964844 240.605469 C 153.054688 240.605469 151.621094 241.082031 150.1875 242.039062 L 64.199219 291.746094 L 38.878906 248.253906 L 125.824219 198.070312 C 130.601562 195.203125 132.035156 189.46875 129.167969 185.164062 C 128.210938 183.730469 127.257812 182.296875 125.824219 181.820312 L 43.179688 134.027344 L 68.496094 90.535156 L 150.1875 137.371094 C 154.964844 140.242188 160.695312 138.328125 163.085938 134.027344 C 164.042969 132.59375 164.519531 131.160156 164.519531 129.246094 L 164.519531 32.226562 L 214.199219 32.226562 L 214.199219 130.203125 C 214.199219 135.460938 218.5 139.761719 223.753906 139.761719 C 225.667969 139.761719 227.097656 139.285156 228.53125 138.328125 L 312.132812 90.058594 L 337.453125 133.550781 L 254.808594 181.34375 C 250.03125 184.210938 248.597656 189.945312 251.464844 194.246094 C 252.417969 195.679688 253.375 197.113281 254.808594 197.59375 L 341.75 247.773438 Z M 316.433594 291.265625 "/>
</g>
</g>
</svg>
