<?xml version="1.0" encoding="UTF-8"?>
<svg xmlns="http://www.w3.org/2000/svg" xmlns:xlink="http://www.w3.org/1999/xlink" width="375pt" height="374.999991pt" viewBox="0 0 375 374.999991" version="1.2">
<defs>
<clipPath id="clip1">
  <path d="M 20.410156 151.4375 L 85 151.4375 L 85 336.757812 L 20.410156 336.757812 Z M 20.410156 151.4375 "/>
</clipPath>
<clipPath id="clip2">
  <path d="M 3.210938 47 L 178 47 L 178 106 L 3.210938 106 Z M 3.210938 47 "/>
</clipPath>
<clipPath id="clip3">
  <path d="M 181 37.765625 L 370.933594 37.765625 L 370.933594 316.960938 L 181 316.960938 Z M 181 37.765625 "/>
</clipPath>
</defs>
<g id="surface1">
<g clip-path="url(#clip1)" clip-rule="nonzero">
<path style=" stroke:none;fill-rule:nonzero;fill:rgb(12.939453%,12.939453%,12.939453%);fill-opacity:1;" d="M 26.578125 151.496094 L 78.695312 151.496094 C 81.863281 151.496094 84.4375 154.066406 84.4375 157.238281 L 84.4375 331.011719 C 84.4375 334.183594 81.863281 336.757812 78.695312 336.757812 L 26.578125 336.757812 C 23.410156 336.757812 20.835938 334.183594 20.835938 331.011719 L 20.835938 157.238281 C 20.835938 154.066406 23.410156 151.496094 26.578125 151.496094 Z M 72.953125 162.984375 L 32.316406 162.984375 L 32.316406 325.269531 L 72.953125 325.269531 L 72.953125 162.984375 "/>
</g>
<path style=" stroke:none;fill-rule:nonzero;fill:rgb(12.939453%,12.939453%,12.939453%);fill-opacity:1;" d="M 38.113281 151.496094 L 67.160156 151.496094 L 67.160156 139.816406 L 38.113281 139.816406 Z M 72.902344 162.984375 L 32.367188 162.984375 C 29.199219 162.984375 26.625 160.414062 26.625 157.238281 L 26.625 134.070312 C 26.625 130.902344 29.199219 128.324219 32.367188 128.324219 L 72.902344 128.324219 C 76.074219 128.324219 78.644531 130.902344 78.644531 134.070312 L 78.644531 157.238281 C 78.644531 160.414062 76.074219 162.984375 72.902344 162.984375 "/>
<path style=" stroke:none;fill-rule:nonzero;fill:rgb(12.939453%,12.939453%,12.939453%);fill-opacity:1;" d="M 38.160156 93.574219 L 67.113281 93.574219 C 70.28125 93.574219 72.851562 96.144531 72.851562 99.316406 L 72.851562 134.070312 C 72.851562 137.242188 70.28125 139.816406 67.113281 139.816406 L 38.160156 139.816406 C 34.988281 139.816406 32.417969 137.242188 32.417969 134.070312 L 32.417969 99.316406 C 32.417969 96.144531 34.988281 93.574219 38.160156 93.574219 Z M 61.371094 105.0625 L 43.902344 105.0625 L 43.902344 128.324219 L 61.371094 128.324219 L 61.371094 105.0625 "/>
<g clip-path="url(#clip2)" clip-rule="nonzero">
<path style=" stroke:none;fill-rule:nonzero;fill:rgb(12.939453%,12.939453%,12.939453%);fill-opacity:1;" d="M 14.949219 93.574219 L 121.054688 93.574219 L 162.773438 78.574219 C 164.164062 77.910156 165.109375 77.210938 165.636719 76.535156 C 165.847656 76.261719 165.949219 76.058594 165.949219 75.941406 C 165.949219 75.863281 165.84375 75.6875 165.625 75.425781 C 165.078125 74.765625 164.152344 74.121094 162.839844 73.546875 C 154.097656 69.714844 136.109375 63.679688 124.847656 59.902344 C 123.585938 59.476562 122.40625 59.082031 121.332031 58.722656 L 14.949219 58.722656 Z M 121.980469 105.0625 L 9.207031 105.0625 C 6.035156 105.0625 3.464844 102.488281 3.464844 99.316406 L 3.464844 52.976562 C 3.464844 49.804688 6.035156 47.234375 9.207031 47.234375 L 122.09375 47.234375 C 122.746094 47.21875 123.402344 47.316406 124.054688 47.535156 L 124.050781 47.554688 C 125.355469 47.996094 126.847656 48.496094 128.480469 49.042969 C 139.945312 52.886719 158.257812 59.03125 167.414062 63.046875 C 170.460938 64.382812 172.820312 66.128906 174.457031 68.113281 C 176.371094 70.417969 177.351562 73.054688 177.390625 75.804688 C 177.425781 78.519531 176.519531 81.179688 174.648438 83.574219 C 173.070312 85.613281 170.792969 87.4375 167.851562 88.875 C 167.617188 88.996094 167.371094 89.101562 167.113281 89.195312 L 165.171875 83.789062 L 167.097656 89.175781 L 124.417969 104.519531 C 123.679688 104.867188 122.855469 105.0625 121.980469 105.0625 "/>
</g>
<g clip-path="url(#clip3)" clip-rule="nonzero">
<path style=" stroke:none;fill-rule:nonzero;fill:rgb(12.939453%,12.939453%,12.939453%);fill-opacity:1;" d="M 181.457031 142.003906 C 181.457031 145.175781 184.03125 147.75 187.199219 147.75 C 190.371094 147.75 192.9375 145.175781 192.9375 142.003906 C 192.9375 116.253906 202.328125 92.988281 217.503906 76.191406 C 232.542969 59.546875 253.296875 49.25 276.195312 49.25 C 299.09375 49.25 319.847656 59.546875 334.886719 76.191406 C 350.0625 92.988281 359.453125 116.253906 359.453125 142.003906 C 359.453125 152.226562 357.980469 162.035156 355.261719 171.183594 C 352.445312 180.660156 348.296875 189.457031 343.066406 197.296875 C 340.753906 200.757812 337.207031 205.011719 333.1875 209.828125 C 319.0625 226.761719 299.40625 250.332031 297.25 282.347656 C 296.683594 290.816406 291.757812 297.285156 284.65625 301.117188 C 279.746094 303.761719 273.828125 305.203125 267.550781 305.242188 C 261.121094 305.285156 254.324219 303.878906 247.832031 300.828125 C 233.679688 294.183594 220.9375 279.675781 216.207031 255.25 C 215.613281 252.136719 212.609375 250.101562 209.503906 250.691406 C 206.390625 251.289062 204.355469 254.292969 204.953125 257.402344 C 210.476562 285.964844 225.84375 303.148438 242.988281 311.195312 C 251.066406 314.988281 259.542969 316.738281 267.589844 316.6875 C 275.792969 316.632812 283.566406 314.722656 290.078125 311.214844 C 300.554688 305.5625 307.832031 295.882812 308.691406 283.109375 C 310.589844 254.816406 328.855469 232.917969 341.980469 217.1875 C 346.152344 212.183594 349.835938 207.765625 352.574219 203.667969 C 358.449219 194.859375 363.105469 185.007812 366.253906 174.410156 C 369.289062 164.1875 370.933594 153.289062 370.933594 142.003906 C 370.933594 113.355469 360.398438 87.371094 343.367188 68.519531 C 326.195312 49.515625 302.449219 37.761719 276.195312 37.761719 C 249.945312 37.761719 226.195312 49.515625 209.027344 68.519531 C 191.992188 87.371094 181.457031 113.355469 181.457031 142.003906 "/>
</g>
<path style=" stroke:none;fill-rule:nonzero;fill:rgb(12.939453%,12.939453%,12.939453%);fill-opacity:1;" d="M 224.117188 175.066406 C 224.117188 178.238281 226.6875 180.808594 229.855469 180.808594 C 233.03125 180.808594 235.601562 178.238281 235.601562 175.066406 C 235.601562 165.894531 238.914062 157.636719 244.273438 151.703125 C 249.5 145.917969 256.691406 142.34375 264.613281 142.34375 C 272.527344 142.34375 279.722656 145.917969 284.945312 151.703125 C 290.308594 157.636719 293.625 165.894531 293.625 175.066406 C 293.625 178.730469 293.101562 182.230469 292.136719 185.472656 C 291.140625 188.835938 289.671875 191.949219 287.824219 194.71875 C 286.980469 195.984375 285.675781 197.546875 284.199219 199.320312 L 284.1875 199.308594 L 284.179688 199.316406 L 284.175781 199.308594 C 284.101562 199.394531 284.035156 199.480469 283.972656 199.570312 C 278.167969 206.527344 270.253906 216.167969 269.347656 229.640625 C 269.214844 231.628906 268.003906 233.179688 266.261719 234.121094 C 264.832031 234.894531 263.085938 235.3125 261.222656 235.328125 C 259.203125 235.339844 257.0625 234.894531 255.011719 233.929688 C 250.398438 231.761719 246.21875 226.914062 244.617188 218.632812 C 244.023438 215.519531 241.019531 213.484375 237.914062 214.078125 C 234.800781 214.671875 232.765625 217.675781 233.359375 220.785156 C 235.757812 233.199219 242.558594 240.722656 250.167969 244.292969 C 253.804688 246.003906 257.632812 246.789062 261.265625 246.765625 C 265.054688 246.742188 268.65625 245.855469 271.6875 244.21875 C 276.804688 241.457031 280.363281 236.703125 280.785156 230.402344 C 281.441406 220.625 287.972656 212.671875 292.773438 206.917969 C 292.847656 206.835938 292.921875 206.753906 292.992188 206.667969 L 288.582031 202.988281 L 292.980469 206.648438 C 294.695312 204.585938 296.210938 202.769531 297.335938 201.085938 C 299.828125 197.355469 301.800781 193.183594 303.125 188.703125 C 304.410156 184.382812 305.105469 179.796875 305.105469 175.066406 C 305.105469 162.996094 300.640625 152.019531 293.421875 144.03125 C 286.070312 135.890625 275.886719 130.859375 264.613281 130.859375 C 253.335938 130.859375 243.148438 135.890625 235.796875 144.03125 C 228.578125 152.019531 224.117188 162.996094 224.117188 175.066406 "/>
</g>
</svg>
