<?xml version="1.0" encoding="UTF-8"?>
<svg xmlns="http://www.w3.org/2000/svg" xmlns:xlink="http://www.w3.org/1999/xlink" width="375pt" height="374.999991pt" viewBox="0 0 375 374.999991" version="1.2">
<defs>
<clipPath id="clip1">
  <path d="M 54.140625 0 L 321.140625 0 L 321.140625 375 L 54.140625 375 Z M 54.140625 0 "/>
</clipPath>
</defs>
<g id="surface1">
<g clip-path="url(#clip1)" clip-rule="nonzero">
<path style=" stroke:none;fill-rule:nonzero;fill:rgb(0%,0%,0%);fill-opacity:1;" d="M 187.78125 0.738281 C 114.089844 0.738281 54.140625 60.5625 54.140625 134.097656 C 54.140625 142.269531 60.574219 148.6875 68.761719 148.6875 C 76.949219 148.6875 83.382812 142.269531 83.382812 134.097656 C 83.382812 76.609375 130.171875 29.921875 187.78125 29.921875 C 245.390625 29.921875 292.179688 76.609375 292.179688 134.097656 C 292.179688 172.035156 276.09375 187.792969 257.671875 205.882812 C 237.496094 225.4375 214.683594 247.90625 214.683594 297.222656 C 214.683594 323.484375 193.046875 345.078125 166.726562 345.078125 C 140.40625 345.078125 118.769531 323.484375 118.769531 297.222656 C 118.769531 289.050781 112.335938 282.632812 104.144531 282.632812 C 95.957031 282.632812 89.523438 289.050781 89.523438 297.222656 C 89.523438 339.828125 124.03125 374.261719 166.726562 374.261719 C 209.421875 374.261719 243.929688 339.828125 243.929688 297.222656 C 243.929688 259.871094 259.71875 244.402344 278.140625 226.601562 C 298.613281 206.757812 321.421875 184.289062 321.421875 134.097656 C 321.421875 60.558594 261.472656 0.738281 187.78125 0.738281 Z M 187.78125 0.738281 "/>
</g>
<path style=" stroke:none;fill-rule:nonzero;fill:rgb(0%,0%,0%);fill-opacity:1;" d="M 116.722656 229.8125 C 112.625 227.480469 107.070312 228.644531 104.730469 232.730469 C 102.390625 236.816406 103.5625 242.359375 107.65625 244.695312 C 115.550781 249.363281 124.03125 251.40625 132.511719 251.40625 C 149.179688 251.40625 165.558594 242.945312 174.621094 227.480469 C 181.347656 216.390625 183.101562 203.257812 179.886719 190.417969 C 176.667969 177.871094 168.480469 167.074219 157.367188 160.652344 C 153.859375 158.609375 149.765625 157.152344 146.839844 155.984375 L 146.839844 135.558594 C 146.839844 109.878906 167.894531 88.867188 193.628906 88.867188 C 219.363281 88.867188 240.417969 109.878906 240.417969 135.558594 C 240.417969 140.519531 244.21875 144.3125 249.191406 144.3125 C 254.164062 144.3125 257.964844 140.519531 257.964844 135.558594 C 257.964844 100.246094 229.015625 71.359375 193.628906 71.359375 C 158.246094 71.359375 129.296875 100.246094 129.296875 135.558594 L 129.296875 153.941406 C 129.296875 153.941406 128.125 153.941406 127.539062 153.941406 C 122.863281 154.523438 119.351562 158.902344 119.644531 163.570312 C 120.230469 168.238281 124.617188 172.035156 129.296875 171.449219 C 136.019531 170.867188 142.746094 172.324219 148.59375 175.535156 C 163.507812 184.289062 168.480469 203.550781 159.414062 218.433594 C 150.644531 233.605469 131.34375 238.566406 116.722656 229.8125 Z M 116.722656 229.8125 "/>
</g>
</svg>
