<?xml version="1.0" encoding="UTF-8"?>
<svg xmlns="http://www.w3.org/2000/svg" xmlns:xlink="http://www.w3.org/1999/xlink" width="375pt" height="374.999991pt" viewBox="0 0 375 374.999991" version="1.2">
<defs>
<clipPath id="clip1">
  <path d="M 0 59.660156 L 375 59.660156 L 375 315.410156 L 0 315.410156 Z M 0 59.660156 "/>
</clipPath>
</defs>
<g id="surface1">
<g clip-path="url(#clip1)" clip-rule="nonzero">
<path style=" stroke:none;fill-rule:nonzero;fill:rgb(0%,0%,0%);fill-opacity:1;" d="M 187.5 59.660156 C 102.273438 59.660156 29.488281 112.699219 0 187.570312 C 29.488281 262.4375 102.273438 315.480469 187.5 315.480469 C 272.726562 315.480469 345.511719 262.4375 375 187.570312 C 345.511719 112.699219 272.8125 59.660156 187.5 59.660156 Z M 187.5 272.84375 C 140.453125 272.84375 102.273438 234.640625 102.273438 187.570312 C 102.273438 140.5 140.453125 102.296875 187.5 102.296875 C 234.546875 102.296875 272.726562 140.5 272.726562 187.570312 C 272.726562 234.640625 234.546875 272.84375 187.5 272.84375 Z M 187.5 136.40625 C 159.289062 136.40625 136.363281 159.34375 136.363281 187.570312 C 136.363281 215.792969 159.289062 238.734375 187.5 238.734375 C 215.710938 238.734375 238.636719 215.792969 238.636719 187.570312 C 238.636719 159.34375 215.710938 136.40625 187.5 136.40625 Z M 187.5 136.40625 "/>
</g>
</g>
</svg>
