<?xml version="1.0" encoding="UTF-8"?>
<svg xmlns="http://www.w3.org/2000/svg" xmlns:xlink="http://www.w3.org/1999/xlink" width="768pt" height="767.999994pt" viewBox="0 0 768 767.999994" version="1.2">
<defs>
<clipPath id="clip1">
  <path d="M 32.128906 156.882812 L 754.941406 156.882812 L 754.941406 623 L 32.128906 623 Z M 32.128906 156.882812 "/>
</clipPath>
</defs>
<g id="surface1">
<g clip-path="url(#clip1)" clip-rule="nonzero">
<path style=" stroke:none;fill-rule:nonzero;fill:rgb(59.999084%,66.668701%,70.979309%);fill-opacity:1;" d="M 756.195312 389.992188 C 756.195312 459.980469 594.207031 623 394.425781 623 C 194.625 623 32.660156 479.996094 32.660156 389.992188 C 32.660156 319.816406 194.648438 156.988281 394.425781 156.988281 C 594.207031 156.988281 756.195312 319.796875 756.195312 389.992188 Z M 756.195312 389.992188 "/>
</g>
<path style=" stroke:none;fill-rule:nonzero;fill:rgb(96.078491%,97.24884%,98.039246%);fill-opacity:1;" d="M 729.867188 389.992188 C 729.867188 451.507812 579.644531 594.761719 394.40625 594.761719 C 209.144531 594.761719 58.964844 469.046875 58.964844 389.992188 C 58.964844 328.3125 209.144531 185.246094 394.40625 185.246094 C 579.644531 185.222656 729.867188 328.3125 729.867188 389.992188 Z M 729.867188 389.992188 "/>
<path style=" stroke:none;fill-rule:nonzero;fill:rgb(33.329773%,67.449951%,93.328857%);fill-opacity:1;" d="M 573.878906 389.992188 C 573.878906 392.925781 573.808594 395.855469 573.664062 398.785156 C 573.519531 401.714844 573.304688 404.636719 573.015625 407.554688 C 572.730469 410.472656 572.371094 413.382812 571.9375 416.28125 C 571.507812 419.183594 571.007812 422.070312 570.433594 424.945312 C 569.863281 427.820312 569.21875 430.679688 568.507812 433.527344 C 567.792969 436.371094 567.011719 439.195312 566.160156 442 C 565.308594 444.808594 564.386719 447.589844 563.398438 450.351562 C 562.410156 453.113281 561.355469 455.847656 560.230469 458.554688 C 559.109375 461.265625 557.921875 463.945312 556.667969 466.59375 C 555.410156 469.246094 554.09375 471.863281 552.710938 474.449219 C 551.328125 477.035156 549.882812 479.585938 548.371094 482.101562 C 546.863281 484.613281 545.292969 487.089844 543.664062 489.53125 C 542.035156 491.96875 540.34375 494.363281 538.597656 496.71875 C 536.851562 499.074219 535.046875 501.386719 533.183594 503.652344 C 531.324219 505.917969 529.40625 508.136719 527.4375 510.308594 C 525.464844 512.480469 523.441406 514.605469 521.367188 516.679688 C 519.292969 518.753906 517.167969 520.773438 514.996094 522.742188 C 512.820312 524.710938 510.601562 526.625 508.332031 528.484375 C 506.0625 530.347656 503.75 532.148438 501.394531 533.894531 C 499.039062 535.644531 496.640625 537.332031 494.199219 538.960938 C 491.761719 540.589844 489.28125 542.15625 486.765625 543.664062 C 484.25 545.171875 481.699219 546.617188 479.109375 548 C 476.523438 549.378906 473.902344 550.699219 471.25 551.953125 C 468.597656 553.207031 465.914062 554.394531 463.203125 555.515625 C 460.496094 556.636719 457.757812 557.691406 454.996094 558.679688 C 452.230469 559.667969 449.445312 560.585938 446.640625 561.4375 C 443.832031 562.289062 441.003906 563.070312 438.160156 563.785156 C 435.3125 564.496094 432.449219 565.140625 429.574219 565.710938 C 426.695312 566.28125 423.804688 566.785156 420.902344 567.214844 C 418 567.644531 415.089844 568.003906 412.167969 568.289062 C 409.25 568.578125 406.324219 568.792969 403.394531 568.9375 C 400.460938 569.082031 397.53125 569.152344 394.597656 569.152344 C 391.664062 569.152344 388.730469 569.082031 385.800781 568.9375 C 382.867188 568.792969 379.945312 568.578125 377.023438 568.289062 C 374.105469 568.003906 371.191406 567.644531 368.289062 567.214844 C 365.386719 566.785156 362.496094 566.28125 359.621094 565.710938 C 356.742188 565.140625 353.878906 564.496094 351.035156 563.785156 C 348.1875 563.070312 345.359375 562.289062 342.554688 561.4375 C 339.746094 560.585938 336.960938 559.667969 334.199219 558.679688 C 331.433594 557.691406 328.699219 556.636719 325.988281 555.515625 C 323.277344 554.394531 320.59375 553.207031 317.941406 551.953125 C 315.289062 550.699219 312.671875 549.378906 310.082031 548 C 307.496094 546.617188 304.941406 545.171875 302.425781 543.664062 C 299.910156 542.15625 297.433594 540.589844 294.992188 538.960938 C 292.550781 537.332031 290.15625 535.644531 287.796875 533.894531 C 285.441406 532.148438 283.128906 530.347656 280.859375 528.484375 C 278.59375 526.625 276.371094 524.710938 274.199219 522.742188 C 272.023438 520.773438 269.898438 518.753906 267.824219 516.679688 C 265.75 514.605469 263.726562 512.480469 261.757812 510.308594 C 259.785156 508.136719 257.871094 505.917969 256.007812 503.652344 C 254.148438 501.386719 252.34375 499.074219 250.59375 496.71875 C 248.847656 494.363281 247.15625 491.96875 245.527344 489.53125 C 243.898438 487.089844 242.328125 484.613281 240.820312 482.101562 C 239.3125 479.585938 237.867188 477.035156 236.484375 474.449219 C 235.101562 471.863281 233.78125 469.246094 232.527344 466.59375 C 231.273438 463.945312 230.082031 461.265625 228.960938 458.554688 C 227.835938 455.847656 226.78125 453.113281 225.792969 450.351562 C 224.804688 447.589844 223.886719 444.808594 223.035156 442 C 222.179688 439.195312 221.398438 436.371094 220.6875 433.527344 C 219.972656 430.679688 219.332031 427.820312 218.757812 424.945312 C 218.1875 422.070312 217.683594 419.183594 217.253906 416.28125 C 216.824219 413.382812 216.464844 410.472656 216.175781 407.554688 C 215.890625 404.636719 215.671875 401.714844 215.53125 398.785156 C 215.386719 395.855469 215.3125 392.925781 215.3125 389.992188 C 215.3125 387.0625 215.386719 384.132812 215.53125 381.203125 C 215.671875 378.273438 215.890625 375.351562 216.175781 372.433594 C 216.464844 369.515625 216.824219 366.605469 217.253906 363.707031 C 217.683594 360.804688 218.1875 357.917969 218.757812 355.042969 C 219.332031 352.164062 219.972656 349.304688 220.6875 346.460938 C 221.398438 343.617188 222.179688 340.792969 223.035156 337.984375 C 223.886719 335.179688 224.804688 332.398438 225.792969 329.636719 C 226.78125 326.875 227.835938 324.140625 228.960938 321.433594 C 230.082031 318.722656 231.273438 316.042969 232.527344 313.394531 C 233.78125 310.742188 235.101562 308.125 236.484375 305.539062 C 237.867188 302.953125 239.3125 300.402344 240.820312 297.886719 C 242.328125 295.371094 243.898438 292.894531 245.527344 290.457031 C 247.15625 288.019531 248.847656 285.625 250.59375 283.269531 C 252.34375 280.914062 254.148438 278.601562 256.007812 276.335938 C 257.871094 274.070312 259.785156 271.851562 261.757812 269.675781 C 263.726562 267.503906 265.75 265.382812 267.824219 263.308594 C 269.898438 261.234375 272.023438 259.214844 274.199219 257.246094 C 276.371094 255.277344 278.59375 253.359375 280.859375 251.5 C 283.128906 249.640625 285.441406 247.835938 287.796875 246.089844 C 290.15625 244.34375 292.550781 242.65625 294.992188 241.027344 C 297.433594 239.398438 299.910156 237.832031 302.425781 236.324219 C 304.941406 234.816406 307.496094 233.371094 310.082031 231.988281 C 312.671875 230.605469 315.289062 229.289062 317.941406 228.035156 C 320.59375 226.78125 323.277344 225.59375 325.988281 224.472656 C 328.699219 223.347656 331.433594 222.292969 334.199219 221.304688 C 336.960938 220.320312 339.746094 219.398438 342.554688 218.546875 C 345.359375 217.695312 348.1875 216.914062 351.035156 216.203125 C 353.878906 215.492188 356.742188 214.847656 359.621094 214.277344 C 362.496094 213.703125 365.386719 213.203125 368.289062 212.773438 C 371.191406 212.34375 374.105469 211.984375 377.023438 211.695312 C 379.945312 211.410156 382.867188 211.195312 385.800781 211.050781 C 388.730469 210.90625 391.664062 210.832031 394.597656 210.832031 C 397.53125 210.832031 400.460938 210.90625 403.394531 211.050781 C 406.324219 211.195312 409.25 211.410156 412.167969 211.695312 C 415.089844 211.984375 418 212.34375 420.902344 212.773438 C 423.804688 213.203125 426.695312 213.703125 429.574219 214.277344 C 432.449219 214.847656 435.3125 215.492188 438.160156 216.203125 C 441.003906 216.914062 443.832031 217.695312 446.640625 218.546875 C 449.445312 219.398438 452.230469 220.320312 454.996094 221.308594 C 457.757812 222.292969 460.496094 223.347656 463.203125 224.472656 C 465.914062 225.59375 468.597656 226.78125 471.25 228.035156 C 473.902344 229.289062 476.523438 230.605469 479.109375 231.988281 C 481.699219 233.371094 484.25 234.816406 486.765625 236.324219 C 489.28125 237.832031 491.761719 239.398438 494.199219 241.027344 C 496.640625 242.65625 499.039062 244.34375 501.394531 246.089844 C 503.75 247.835938 506.0625 249.640625 508.332031 251.5 C 510.601562 253.359375 512.820312 255.277344 514.996094 257.246094 C 517.167969 259.214844 519.292969 261.234375 521.367188 263.308594 C 523.441406 265.382812 525.464844 267.503906 527.4375 269.675781 C 529.40625 271.851562 531.324219 274.070312 533.183594 276.335938 C 535.046875 278.601562 536.851562 280.914062 538.597656 283.269531 C 540.34375 285.625 542.035156 288.019531 543.664062 290.457031 C 545.292969 292.894531 546.863281 295.371094 548.371094 297.886719 C 549.882812 300.402344 551.328125 302.953125 552.710938 305.539062 C 554.09375 308.125 555.410156 310.742188 556.667969 313.394531 C 557.921875 316.042969 559.109375 318.722656 560.230469 321.433594 C 561.355469 324.140625 562.410156 326.875 563.398438 329.636719 C 564.386719 332.398438 565.308594 335.179688 566.160156 337.984375 C 567.011719 340.792969 567.792969 343.617188 568.507812 346.460938 C 569.21875 349.304688 569.863281 352.164062 570.433594 355.042969 C 571.007812 357.917969 571.507812 360.804688 571.9375 363.707031 C 572.371094 366.605469 572.730469 369.515625 573.015625 372.433594 C 573.304688 375.351562 573.519531 378.273438 573.664062 381.203125 C 573.808594 384.132812 573.878906 387.0625 573.878906 389.992188 Z M 573.878906 389.992188 "/>
<path style=" stroke:none;fill-rule:nonzero;fill:rgb(16.079712%,18.429565%,19.999695%);fill-opacity:1;" d="M 494.390625 389.992188 C 494.390625 391.625 494.351562 393.257812 494.269531 394.886719 C 494.191406 396.515625 494.070312 398.144531 493.910156 399.769531 C 493.75 401.394531 493.550781 403.011719 493.3125 404.625 C 493.070312 406.242188 492.792969 407.847656 492.472656 409.449219 C 492.15625 411.050781 491.796875 412.640625 491.402344 414.226562 C 491.003906 415.808594 490.566406 417.378906 490.09375 418.941406 C 489.621094 420.503906 489.109375 422.054688 488.558594 423.589844 C 488.007812 425.125 487.417969 426.648438 486.792969 428.15625 C 486.167969 429.664062 485.507812 431.15625 484.808594 432.632812 C 484.113281 434.105469 483.378906 435.566406 482.609375 437.003906 C 481.835938 438.445312 481.03125 439.863281 480.191406 441.261719 C 479.355469 442.664062 478.480469 444.042969 477.574219 445.398438 C 476.664062 446.753906 475.726562 448.089844 474.753906 449.398438 C 473.78125 450.710938 472.773438 451.996094 471.738281 453.257812 C 470.703125 454.519531 469.636719 455.757812 468.539062 456.964844 C 467.441406 458.175781 466.316406 459.355469 465.160156 460.511719 C 464.007812 461.664062 462.824219 462.789062 461.613281 463.886719 C 460.40625 464.980469 459.167969 466.046875 457.90625 467.082031 C 456.644531 468.117188 455.355469 469.121094 454.042969 470.09375 C 452.730469 471.066406 451.398438 472.007812 450.039062 472.914062 C 448.679688 473.820312 447.300781 474.691406 445.902344 475.53125 C 444.5 476.371094 443.078125 477.175781 441.640625 477.945312 C 440.199219 478.714844 438.742188 479.445312 437.265625 480.144531 C 435.789062 480.84375 434.296875 481.503906 432.785156 482.128906 C 431.277344 482.753906 429.753906 483.339844 428.214844 483.890625 C 426.679688 484.441406 425.128906 484.953125 423.566406 485.425781 C 422.003906 485.898438 420.429688 486.335938 418.84375 486.730469 C 417.261719 487.128906 415.667969 487.484375 414.066406 487.804688 C 412.464844 488.121094 410.855469 488.402344 409.238281 488.640625 C 407.625 488.878906 406.003906 489.078125 404.378906 489.238281 C 402.753906 489.398438 401.125 489.519531 399.492188 489.601562 C 397.863281 489.679688 396.230469 489.71875 394.597656 489.71875 C 392.964844 489.71875 391.332031 489.679688 389.699219 489.601562 C 388.070312 489.519531 386.441406 489.398438 384.816406 489.238281 C 383.191406 489.078125 381.570312 488.878906 379.953125 488.640625 C 378.339844 488.402344 376.730469 488.121094 375.128906 487.804688 C 373.527344 487.484375 371.933594 487.128906 370.347656 486.730469 C 368.765625 486.335938 367.191406 485.898438 365.628906 485.425781 C 364.066406 484.953125 362.515625 484.441406 360.976562 483.890625 C 359.4375 483.339844 357.914062 482.753906 356.40625 482.128906 C 354.898438 481.503906 353.40625 480.84375 351.929688 480.144531 C 350.453125 479.445312 348.992188 478.714844 347.554688 477.945312 C 346.113281 477.175781 344.691406 476.371094 343.292969 475.53125 C 341.890625 474.691406 340.511719 473.820312 339.152344 472.914062 C 337.796875 472.007812 336.460938 471.066406 335.148438 470.09375 C 333.835938 469.121094 332.550781 468.117188 331.289062 467.082031 C 330.023438 466.046875 328.789062 464.980469 327.578125 463.886719 C 326.367188 462.789062 325.1875 461.664062 324.03125 460.511719 C 322.875 459.355469 321.75 458.175781 320.652344 456.964844 C 319.554688 455.757812 318.488281 454.519531 317.453125 453.257812 C 316.417969 451.996094 315.414062 450.710938 314.441406 449.398438 C 313.46875 448.089844 312.527344 446.753906 311.621094 445.398438 C 310.710938 444.042969 309.839844 442.664062 309 441.261719 C 308.160156 439.863281 307.355469 438.445312 306.585938 437.003906 C 305.816406 435.566406 305.082031 434.105469 304.382812 432.632812 C 303.683594 431.15625 303.023438 429.664062 302.398438 428.15625 C 301.773438 426.648438 301.183594 425.125 300.636719 423.589844 C 300.085938 422.054688 299.574219 420.503906 299.097656 418.941406 C 298.625 417.378906 298.1875 415.808594 297.792969 414.226562 C 297.394531 412.640625 297.039062 411.050781 296.71875 409.449219 C 296.402344 407.847656 296.121094 406.242188 295.882812 404.625 C 295.640625 403.011719 295.441406 401.394531 295.28125 399.769531 C 295.121094 398.144531 295.003906 396.515625 294.921875 394.886719 C 294.839844 393.257812 294.800781 391.625 294.800781 389.992188 C 294.800781 388.363281 294.839844 386.730469 294.921875 385.101562 C 295.003906 383.46875 295.121094 381.84375 295.28125 380.21875 C 295.441406 378.59375 295.640625 376.976562 295.882812 375.359375 C 296.121094 373.746094 296.402344 372.136719 296.71875 370.539062 C 297.039062 368.9375 297.394531 367.34375 297.792969 365.761719 C 298.1875 364.179688 298.625 362.605469 299.097656 361.042969 C 299.574219 359.484375 300.085938 357.933594 300.636719 356.398438 C 301.183594 354.859375 301.773438 353.335938 302.398438 351.828125 C 303.023438 350.320312 303.683594 348.832031 304.382812 347.355469 C 305.082031 345.878906 305.816406 344.421875 306.585938 342.984375 C 307.355469 341.542969 308.160156 340.125 309 338.722656 C 309.839844 337.324219 310.710938 335.945312 311.621094 334.589844 C 312.527344 333.230469 313.46875 331.898438 314.441406 330.585938 C 315.414062 329.277344 316.417969 327.988281 317.453125 326.726562 C 318.488281 325.464844 319.554688 324.230469 320.652344 323.019531 C 321.75 321.8125 322.875 320.628906 324.03125 319.476562 C 325.1875 318.324219 326.367188 317.199219 327.578125 316.101562 C 328.789062 315.003906 330.023438 313.941406 331.289062 312.902344 C 332.550781 311.867188 333.835938 310.863281 335.148438 309.894531 C 336.460938 308.921875 337.796875 307.980469 339.152344 307.074219 C 340.511719 306.167969 341.890625 305.292969 343.292969 304.457031 C 344.691406 303.617188 346.113281 302.8125 347.554688 302.042969 C 348.992188 301.273438 350.453125 300.539062 351.929688 299.84375 C 353.40625 299.144531 354.898438 298.484375 356.40625 297.859375 C 357.914062 297.234375 359.4375 296.648438 360.976562 296.097656 C 362.515625 295.546875 364.066406 295.035156 365.628906 294.5625 C 367.191406 294.085938 368.765625 293.652344 370.347656 293.257812 C 371.933594 292.859375 373.527344 292.5 375.128906 292.183594 C 376.730469 291.863281 378.339844 291.585938 379.953125 291.347656 C 381.570312 291.105469 383.191406 290.90625 384.816406 290.746094 C 386.441406 290.585938 388.070312 290.46875 389.699219 290.386719 C 391.332031 290.308594 392.964844 290.265625 394.597656 290.265625 C 396.230469 290.265625 397.863281 290.308594 399.492188 290.386719 C 401.125 290.46875 402.753906 290.585938 404.378906 290.746094 C 406.003906 290.90625 407.625 291.105469 409.238281 291.347656 C 410.855469 291.585938 412.464844 291.863281 414.066406 292.183594 C 415.667969 292.5 417.261719 292.859375 418.84375 293.257812 C 420.429688 293.652344 422.003906 294.085938 423.566406 294.5625 C 425.128906 295.035156 426.679688 295.546875 428.214844 296.097656 C 429.753906 296.648438 431.277344 297.234375 432.785156 297.859375 C 434.296875 298.484375 435.789062 299.144531 437.265625 299.84375 C 438.742188 300.539062 440.199219 301.273438 441.640625 302.042969 C 443.078125 302.8125 444.5 303.617188 445.902344 304.457031 C 447.300781 305.292969 448.679688 306.167969 450.039062 307.074219 C 451.398438 307.980469 452.730469 308.921875 454.042969 309.894531 C 455.355469 310.863281 456.644531 311.867188 457.90625 312.902344 C 459.167969 313.941406 460.40625 315.003906 461.613281 316.101562 C 462.824219 317.199219 464.007812 318.324219 465.160156 319.476562 C 466.316406 320.628906 467.441406 321.8125 468.539062 323.019531 C 469.636719 324.230469 470.703125 325.464844 471.738281 326.726562 C 472.773438 327.988281 473.78125 329.277344 474.753906 330.585938 C 475.726562 331.898438 476.664062 333.230469 477.574219 334.589844 C 478.480469 335.945312 479.355469 337.324219 480.191406 338.722656 C 481.03125 340.125 481.835938 341.542969 482.609375 342.984375 C 483.378906 344.421875 484.113281 345.878906 484.808594 347.355469 C 485.507812 348.832031 486.167969 350.320312 486.792969 351.828125 C 487.417969 353.335938 488.007812 354.859375 488.558594 356.398438 C 489.109375 357.933594 489.621094 359.484375 490.09375 361.042969 C 490.566406 362.605469 491.003906 364.179688 491.402344 365.761719 C 491.796875 367.34375 492.15625 368.9375 492.472656 370.539062 C 492.792969 372.136719 493.070312 373.746094 493.3125 375.359375 C 493.550781 376.976562 493.75 378.59375 493.910156 380.21875 C 494.070312 381.84375 494.191406 383.46875 494.269531 385.101562 C 494.351562 386.730469 494.390625 388.363281 494.390625 389.992188 Z M 494.390625 389.992188 "/>
<path style=" stroke:none;fill-rule:nonzero;fill:rgb(96.078491%,97.24884%,98.039246%);fill-opacity:1;" d="M 500.582031 326.445312 C 500.582031 327.835938 500.511719 329.21875 500.375 330.597656 C 500.242188 331.980469 500.035156 333.351562 499.765625 334.710938 C 499.496094 336.074219 499.160156 337.417969 498.753906 338.746094 C 498.351562 340.070312 497.886719 341.378906 497.355469 342.660156 C 496.824219 343.941406 496.230469 345.195312 495.574219 346.417969 C 494.921875 347.640625 494.207031 348.828125 493.4375 349.984375 C 492.664062 351.136719 491.839844 352.25 490.957031 353.324219 C 490.078125 354.394531 489.144531 355.421875 488.164062 356.402344 C 487.183594 357.382812 486.15625 358.316406 485.082031 359.195312 C 484.007812 360.074219 482.894531 360.902344 481.738281 361.671875 C 480.585938 362.441406 479.394531 363.15625 478.171875 363.808594 C 476.945312 364.464844 475.691406 365.054688 474.410156 365.585938 C 473.128906 366.117188 471.820312 366.585938 470.492188 366.988281 C 469.164062 367.390625 467.820312 367.726562 466.457031 367.996094 C 465.097656 368.269531 463.722656 368.472656 462.34375 368.605469 C 460.960938 368.742188 459.574219 368.8125 458.1875 368.8125 C 456.796875 368.8125 455.414062 368.742188 454.03125 368.605469 C 452.648438 368.472656 451.277344 368.269531 449.917969 367.996094 C 448.554688 367.726562 447.210938 367.390625 445.878906 366.988281 C 444.550781 366.585938 443.246094 366.117188 441.964844 365.585938 C 440.679688 365.054688 439.425781 364.464844 438.203125 363.808594 C 436.976562 363.15625 435.789062 362.441406 434.632812 361.671875 C 433.480469 360.902344 432.367188 360.074219 431.292969 359.195312 C 430.21875 358.316406 429.191406 357.382812 428.210938 356.402344 C 427.226562 355.421875 426.296875 354.394531 425.417969 353.324219 C 424.535156 352.25 423.710938 351.136719 422.9375 349.984375 C 422.167969 348.828125 421.453125 347.640625 420.800781 346.417969 C 420.144531 345.195312 419.550781 343.941406 419.019531 342.660156 C 418.488281 341.378906 418.023438 340.070312 417.617188 338.746094 C 417.214844 337.417969 416.878906 336.074219 416.609375 334.710938 C 416.335938 333.351562 416.132812 331.980469 415.996094 330.597656 C 415.859375 329.21875 415.792969 327.835938 415.792969 326.445312 C 415.792969 325.058594 415.859375 323.675781 415.996094 322.292969 C 416.132812 320.914062 416.335938 319.542969 416.609375 318.183594 C 416.878906 316.820312 417.214844 315.476562 417.617188 314.148438 C 418.023438 312.820312 418.488281 311.515625 419.019531 310.234375 C 419.550781 308.953125 420.144531 307.699219 420.800781 306.476562 C 421.453125 305.253906 422.167969 304.0625 422.9375 302.910156 C 423.710938 301.757812 424.535156 300.644531 425.417969 299.570312 C 426.296875 298.5 427.226562 297.472656 428.210938 296.492188 C 429.191406 295.507812 430.21875 294.578125 431.292969 293.699219 C 432.367188 292.816406 433.480469 291.992188 434.632812 291.222656 C 435.789062 290.449219 436.976562 289.738281 438.203125 289.085938 C 439.425781 288.429688 440.679688 287.835938 441.964844 287.308594 C 443.246094 286.777344 444.550781 286.308594 445.878906 285.90625 C 447.210938 285.503906 448.554688 285.167969 449.917969 284.894531 C 451.277344 284.625 452.648438 284.421875 454.03125 284.285156 C 455.414062 284.148438 456.796875 284.082031 458.1875 284.082031 C 459.574219 284.082031 460.960938 284.148438 462.34375 284.285156 C 463.722656 284.421875 465.097656 284.625 466.457031 284.894531 C 467.820312 285.167969 469.164062 285.503906 470.492188 285.90625 C 471.820312 286.308594 473.128906 286.777344 474.410156 287.308594 C 475.691406 287.835938 476.945312 288.429688 478.171875 289.085938 C 479.394531 289.738281 480.585938 290.449219 481.738281 291.222656 C 482.894531 291.992188 484.007812 292.816406 485.082031 293.699219 C 486.15625 294.578125 487.183594 295.507812 488.164062 296.492188 C 489.144531 297.472656 490.078125 298.5 490.957031 299.570312 C 491.839844 300.644531 492.664062 301.757812 493.4375 302.910156 C 494.207031 304.0625 494.921875 305.253906 495.574219 306.476562 C 496.230469 307.699219 496.824219 308.953125 497.355469 310.234375 C 497.886719 311.515625 498.351562 312.820312 498.753906 314.148438 C 499.160156 315.476562 499.496094 316.820312 499.765625 318.183594 C 500.035156 319.542969 500.242188 320.914062 500.375 322.292969 C 500.511719 323.675781 500.582031 325.058594 500.582031 326.445312 Z M 500.582031 326.445312 "/>
</g>
</svg>
