<?xml version="1.0" encoding="UTF-8"?><svg xmlns="http://www.w3.org/2000/svg" xmlns:xlink="http://www.w3.org/1999/xlink" contentScriptType="text/ecmascript" width="375pt" zoomAndPan="magnify" contentStyleType="text/css" viewBox="0 0 375 374.999991" height="374.999991pt" preserveAspectRatio="xMidYMid meet" version="1.2"><defs><filter x="0%" y="0%" width="100%" xmlns:xlink="http://www.w3.org/1999/xlink" xlink:type="simple" filterUnits="objectBoundingBox" xlink:actuate="onLoad" id="alpha" height="100%" xlink:show="other" xml:id="alpha"><feColorMatrix values="0 0 0 0 1 0 0 0 0 1 0 0 0 0 1 0 0 0 1 0" type="matrix" in="SourceGraphic"/></filter><clipPath xml:id="clip2" id="clip2"><path d="M 0.847656 0.949219 L 333.542969 0.949219 L 333.542969 333.472656 L 0.847656 333.472656 Z M 0.847656 0.949219 "/></clipPath><clipPath xml:id="clip1" id="clip1"><rect x="0" width="335" y="0" height="335"/></clipPath></defs><g xml:id="surface1" id="surface1"><rect x="0" width="375" y="0" height="374.999991" style="fill:rgb(100%,100%,100%);fill-opacity:1;stroke:none;"/><rect x="0" width="375" y="0" height="374.999991" style="fill:rgb(100%,100%,100%);fill-opacity:1;stroke:none;"/><rect x="0" width="375" y="0" height="374.999991" style="fill:rgb(100%,100%,100%);fill-opacity:1;stroke:none;"/><g mask="url(#mask0)" transform="matrix(1,0,0,1,20,20)"><g xml:id="surface5" id="surface5" clip-path="url(#clip1)"><path style=" stroke:none;fill-rule:nonzero;fill:rgb(88.238525%,92.158508%,96.078491%);fill-opacity:1;" d="M 330.105469 167.132812 C 330.105469 257.109375 257.164062 330.050781 167.1875 330.050781 C 77.210938 330.050781 4.273438 257.109375 4.273438 167.132812 C 4.273438 77.15625 77.210938 4.21875 167.1875 4.21875 C 257.164062 4.21875 330.105469 77.15625 330.105469 167.132812 "/><path style=" stroke:none;fill-rule:nonzero;fill:rgb(87.838745%,87.449646%,86.669922%);fill-opacity:1;" d="M 167.097656 330.050781 C 167.089844 330.050781 167.082031 330.050781 167.074219 330.050781 C 167.089844 330.050781 167.089844 330.050781 167.097656 330.050781 M 166.988281 330.050781 C 166.984375 330.050781 166.976562 330.050781 166.976562 330.050781 C 166.984375 330.050781 166.984375 330.050781 166.988281 330.050781 M 166.894531 330.050781 C 166.886719 330.050781 166.878906 330.050781 166.875 330.050781 C 166.878906 330.050781 166.886719 330.050781 166.894531 330.050781 M 166.785156 330.050781 C 166.78125 330.050781 166.777344 330.050781 166.773438 330.050781 C 166.777344 330.050781 166.78125 330.050781 166.785156 330.050781 M 166.6875 330.050781 C 166.683594 330.050781 166.679688 330.050781 166.675781 330.050781 C 166.679688 330.050781 166.683594 330.050781 166.6875 330.050781 M 166.582031 330.050781 C 166.578125 330.050781 166.574219 330.050781 166.570312 330.050781 C 166.574219 330.050781 166.578125 330.050781 166.582031 330.050781 M 166.480469 330.050781 C 166.480469 330.050781 166.476562 330.050781 166.472656 330.050781 L 166.480469 330.050781 M 166.378906 330.046875 C 166.375 330.046875 166.371094 330.046875 166.367188 330.046875 C 166.375 330.046875 166.375 330.046875 166.378906 330.046875 M 166.171875 330.046875 L 166.167969 330.046875 L 166.171875 330.046875 M 330.105469 167.046875 C 330.105469 167.035156 330.105469 167.035156 330.105469 167.023438 C 330.105469 167.03125 330.105469 167.039062 330.105469 167.046875 M 330.105469 166.941406 L 330.105469 166.933594 L 330.105469 166.941406 M 330.105469 166.847656 C 330.105469 166.839844 330.105469 166.839844 330.105469 166.828125 C 330.105469 166.835938 330.105469 166.839844 330.105469 166.847656 M 330.105469 166.746094 L 330.105469 166.742188 L 330.105469 166.746094 M 330.105469 166.652344 C 330.105469 166.644531 330.105469 166.636719 330.105469 166.632812 C 330.105469 166.640625 330.105469 166.644531 330.105469 166.652344 M 330.101562 166.546875 L 330.101562 166.542969 L 330.101562 166.546875 M 330.101562 166.457031 C 330.101562 166.449219 330.101562 166.441406 330.101562 166.433594 C 330.101562 166.441406 330.101562 166.449219 330.101562 166.457031 M 330.101562 166.351562 L 330.101562 166.34375 L 330.101562 166.351562 M 330.101562 166.253906 C 330.101562 166.25 330.101562 166.246094 330.101562 166.238281 C 330.101562 166.246094 330.101562 166.25 330.101562 166.253906 M 330.101562 166.058594 C 330.101562 166.050781 330.101562 166.050781 330.101562 166.042969 C 330.101562 166.050781 330.101562 166.050781 330.101562 166.058594 M 330.097656 165.960938 C 330.097656 165.957031 330.097656 165.957031 330.097656 165.953125 L 330.097656 165.960938 M 330.097656 165.863281 C 330.097656 165.859375 330.097656 165.851562 330.097656 165.847656 C 330.097656 165.855469 330.097656 165.855469 330.097656 165.863281 M 330.097656 165.761719 C 330.097656 165.757812 330.097656 165.761719 330.097656 165.757812 L 330.097656 165.761719 M 330.097656 165.664062 C 330.097656 165.660156 330.097656 165.65625 330.097656 165.652344 C 330.097656 165.660156 330.097656 165.660156 330.097656 165.664062 M 330.097656 165.566406 C 330.097656 165.558594 330.097656 165.566406 330.097656 165.558594 L 330.097656 165.566406 M 330.097656 165.46875 C 330.097656 165.464844 330.097656 165.460938 330.097656 165.453125 C 330.097656 165.460938 330.097656 165.464844 330.097656 165.46875 M 330.09375 165.367188 C 330.09375 165.363281 330.09375 165.371094 330.09375 165.363281 L 330.09375 165.367188 M 330.09375 165.273438 C 330.09375 165.265625 330.09375 165.265625 330.09375 165.261719 C 330.09375 165.265625 330.09375 165.265625 330.09375 165.273438 M 330.09375 165.171875 L 330.09375 165.167969 L 330.09375 165.171875 M 330.089844 165.074219 C 330.089844 165.070312 330.089844 165.070312 330.089844 165.066406 L 330.089844 165.074219 M 330.089844 164.976562 L 330.089844 164.972656 L 330.089844 164.976562 M 330.089844 164.878906 C 330.089844 164.871094 330.089844 164.875 330.089844 164.871094 L 330.089844 164.878906 M 330.089844 164.78125 L 330.089844 164.777344 L 330.089844 164.78125 M 330.085938 164.683594 C 330.085938 164.675781 330.085938 164.679688 330.085938 164.675781 L 330.085938 164.683594 M 330.085938 164.582031 L 330.085938 164.578125 L 330.085938 164.582031 M 330.082031 164.484375 L 330.082031 164.480469 L 330.082031 164.484375 M 330.082031 164.285156 L 330.082031 164.285156 M 330.078125 164.09375 L 330.078125 164.089844 L 330.078125 164.09375 "/><path style=" stroke:none;fill-rule:nonzero;fill:rgb(76.078796%,79.219055%,82.348633%);fill-opacity:1;" d="M 167.1875 330.050781 C 167.160156 330.050781 167.125 330.050781 167.097656 330.050781 C 167.089844 330.050781 167.089844 330.050781 167.074219 330.050781 C 167.046875 330.050781 167.019531 330.050781 166.988281 330.050781 C 166.984375 330.050781 166.984375 330.050781 166.976562 330.050781 C 166.949219 330.050781 166.921875 330.050781 166.894531 330.050781 C 166.886719 330.050781 166.878906 330.050781 166.875 330.050781 C 166.84375 330.050781 166.816406 330.050781 166.785156 330.050781 C 166.78125 330.050781 166.777344 330.050781 166.773438 330.050781 C 166.742188 330.050781 166.71875 330.050781 166.6875 330.050781 C 166.683594 330.050781 166.679688 330.050781 166.675781 330.050781 C 166.644531 330.050781 166.613281 330.050781 166.582031 330.050781 C 166.578125 330.050781 166.574219 330.050781 166.570312 330.050781 C 166.539062 330.050781 166.511719 330.050781 166.480469 330.050781 L 166.472656 330.050781 C 166.441406 330.050781 166.410156 330.050781 166.378906 330.046875 C 166.375 330.046875 166.375 330.046875 166.367188 330.046875 C 166.300781 330.046875 166.238281 330.046875 166.171875 330.046875 L 166.167969 330.046875 C 131.789062 329.835938 99.941406 318.96875 73.746094 300.59375 C 93.457031 309.0625 115.171875 313.757812 137.984375 313.757812 C 227.960938 313.757812 300.902344 240.820312 300.902344 150.839844 C 300.902344 95.636719 273.4375 46.847656 231.429688 17.378906 C 288.582031 41.933594 328.871094 98.230469 330.078125 164.089844 L 330.078125 164.09375 C 330.078125 164.15625 330.078125 164.21875 330.082031 164.285156 C 330.082031 164.320312 330.082031 164.351562 330.082031 164.382812 C 330.082031 164.417969 330.082031 164.445312 330.082031 164.480469 L 330.082031 164.484375 C 330.082031 164.515625 330.082031 164.546875 330.085938 164.578125 L 330.085938 164.582031 C 330.085938 164.613281 330.085938 164.640625 330.085938 164.675781 C 330.085938 164.679688 330.085938 164.675781 330.085938 164.683594 C 330.085938 164.714844 330.085938 164.746094 330.089844 164.777344 L 330.089844 164.78125 C 330.089844 164.8125 330.089844 164.835938 330.089844 164.871094 C 330.089844 164.875 330.089844 164.871094 330.089844 164.878906 C 330.089844 164.914062 330.089844 164.941406 330.089844 164.972656 L 330.089844 164.976562 C 330.089844 165.007812 330.089844 165.03125 330.089844 165.066406 C 330.089844 165.070312 330.089844 165.070312 330.089844 165.074219 C 330.089844 165.109375 330.09375 165.132812 330.09375 165.167969 L 330.09375 165.171875 C 330.09375 165.199219 330.09375 165.230469 330.09375 165.261719 C 330.09375 165.265625 330.09375 165.265625 330.09375 165.273438 C 330.09375 165.304688 330.09375 165.332031 330.09375 165.363281 C 330.09375 165.371094 330.09375 165.363281 330.09375 165.367188 C 330.097656 165.398438 330.097656 165.425781 330.097656 165.453125 C 330.097656 165.460938 330.097656 165.464844 330.097656 165.46875 C 330.097656 165.503906 330.097656 165.527344 330.097656 165.558594 C 330.097656 165.566406 330.097656 165.558594 330.097656 165.566406 C 330.097656 165.59375 330.097656 165.621094 330.097656 165.652344 C 330.097656 165.65625 330.097656 165.660156 330.097656 165.664062 C 330.097656 165.695312 330.097656 165.726562 330.097656 165.757812 C 330.097656 165.761719 330.097656 165.757812 330.097656 165.761719 C 330.097656 165.789062 330.097656 165.816406 330.097656 165.847656 C 330.097656 165.851562 330.097656 165.859375 330.097656 165.863281 C 330.097656 165.894531 330.097656 165.925781 330.097656 165.953125 C 330.097656 165.957031 330.097656 165.957031 330.097656 165.960938 C 330.097656 165.988281 330.101562 166.015625 330.101562 166.042969 C 330.101562 166.050781 330.101562 166.050781 330.101562 166.058594 C 330.101562 166.113281 330.101562 166.183594 330.101562 166.238281 C 330.101562 166.246094 330.101562 166.25 330.101562 166.253906 C 330.101562 166.285156 330.101562 166.316406 330.101562 166.34375 L 330.101562 166.351562 C 330.101562 166.378906 330.101562 166.40625 330.101562 166.433594 C 330.101562 166.441406 330.101562 166.449219 330.101562 166.457031 C 330.101562 166.484375 330.101562 166.515625 330.101562 166.542969 L 330.101562 166.546875 C 330.105469 166.574219 330.105469 166.601562 330.105469 166.632812 C 330.105469 166.636719 330.105469 166.644531 330.105469 166.652344 C 330.105469 166.679688 330.105469 166.710938 330.105469 166.742188 L 330.105469 166.746094 C 330.105469 166.777344 330.105469 166.796875 330.105469 166.828125 C 330.105469 166.839844 330.105469 166.839844 330.105469 166.847656 C 330.105469 166.878906 330.105469 166.910156 330.105469 166.933594 L 330.105469 166.941406 C 330.105469 166.96875 330.105469 166.996094 330.105469 167.023438 C 330.105469 167.035156 330.105469 167.035156 330.105469 167.046875 C 330.105469 167.078125 330.105469 167.105469 330.105469 167.132812 C 330.105469 257.109375 257.164062 330.050781 167.1875 330.050781 "/><path style=" stroke:none;fill-rule:nonzero;fill:rgb(68.629456%,69.018555%,30.198669%);fill-opacity:1;" d="M 191.765625 127.941406 C 191.765625 168.261719 159.078125 200.949219 118.757812 200.949219 C 78.441406 200.949219 45.753906 168.261719 45.753906 127.941406 C 45.753906 87.621094 78.441406 54.9375 118.757812 54.9375 C 159.078125 54.9375 191.765625 87.621094 191.765625 127.941406 "/><path style=" stroke:none;fill-rule:nonzero;fill:rgb(20.388794%,20.388794%,20.388794%);fill-opacity:1;" d="M 139.769531 118.167969 C 139.769531 137.679688 123.949219 153.5 104.433594 153.5 C 84.921875 153.5 69.101562 137.679688 69.101562 118.167969 C 69.101562 98.652344 84.921875 82.832031 104.433594 82.832031 C 123.949219 82.832031 139.769531 98.652344 139.769531 118.167969 "/><g clip-rule="nonzero" clip-path="url(#clip2)"><path style=" stroke:none;fill-rule:nonzero;fill:rgb(20.388794%,20.388794%,20.388794%);fill-opacity:1;" d="M 326.640625 167.132812 C 326.546875 198.527344 317.332031 229.132812 300.046875 255.339844 C 283.300781 280.734375 259.109375 300.773438 231.386719 313.160156 C 173.429688 339.039062 103.679688 326.316406 57.6875 283.042969 C 35.371094 262.042969 19.609375 234.710938 12.261719 205 C 4.628906 174.148438 6.773438 141.28125 17.699219 111.5 C 39.199219 52.914062 95.402344 11.800781 157.476562 7.96875 C 220.382812 4.085938 280.433594 38.816406 309.265625 94.664062 C 320.792969 117 326.566406 142.039062 326.640625 167.132812 C 326.652344 171.605469 333.585938 171.605469 333.570312 167.132812 C 333.386719 104.5625 297.476562 46.339844 241.523438 18.246094 C 184.960938 -10.148438 115.082031 -3.082031 65.183594 35.710938 C 41.105469 54.433594 22.65625 79.496094 11.664062 107.925781 C 0.226562 137.519531 -2.011719 170.339844 4.335938 201.347656 C 16.757812 262.050781 64.28125 311.617188 123.855469 327.816406 C 184.851562 344.40625 251.476562 323.703125 292.867188 276.160156 C 319.074219 246.046875 333.453125 207 333.570312 167.132812 C 333.585938 162.660156 326.652344 162.664062 326.640625 167.132812 "/></g><path style=" stroke:none;fill-rule:nonzero;fill:rgb(20.388794%,20.388794%,20.388794%);fill-opacity:1;" d="M 188.296875 127.941406 C 188.089844 159.632812 166.429688 187.445312 135.742188 195.390625 C 104.855469 203.394531 72.222656 188.183594 57.234375 160.386719 C 42.046875 132.222656 49.324219 96.757812 72.882812 75.675781 C 96.71875 54.339844 132.960938 53.144531 158.949219 71.171875 C 177.382812 83.960938 188.152344 105.671875 188.296875 127.941406 C 188.324219 132.410156 195.257812 132.414062 195.230469 127.941406 C 195.023438 96.402344 175.59375 68.339844 146.398438 56.636719 C 117.042969 44.871094 82.492188 53.804688 61.589844 77.160156 C 40.410156 100.828125 36.609375 135.902344 51.25 163.890625 C 65.8125 191.726562 97.355469 207.652344 128.351562 203.789062 C 166.273438 199.0625 194.980469 165.964844 195.230469 127.941406 C 195.257812 123.46875 188.324219 123.472656 188.296875 127.941406 "/><path style=" stroke:none;fill-rule:nonzero;fill:rgb(85.099792%,85.099792%,64.309692%);fill-opacity:1;" d="M 139.753906 117.140625 C 139.40625 104.921875 132.855469 94.257812 123.136719 88.183594 C 126.371094 84.5 131.113281 82.171875 136.402344 82.171875 C 146.144531 82.171875 154.042969 90.074219 154.042969 99.816406 C 154.042969 108.414062 147.894531 115.574219 139.753906 117.140625 "/><path style=" stroke:none;fill-rule:nonzero;fill:rgb(59.609985%,59.999084%,59.999084%);fill-opacity:1;" d="M 136.402344 117.460938 C 126.65625 117.460938 118.757812 109.558594 118.757812 99.816406 C 118.757812 95.359375 120.414062 91.289062 123.136719 88.183594 C 132.855469 94.257812 139.40625 104.921875 139.753906 117.140625 C 138.671875 117.351562 137.550781 117.460938 136.402344 117.460938 "/></g><mask xml:id="mask0" id="mask0"><g filter="url(#alpha)"><rect x="0" width="375" y="0" height="374.999991" style="fill:rgb(0%,0%,0%);fill-opacity:0.1686;stroke:none;"/></g></mask></g></g></svg>