<?xml version="1.0" encoding="UTF-8"?>
<svg xmlns="http://www.w3.org/2000/svg" xmlns:xlink="http://www.w3.org/1999/xlink" width="768pt" height="767.999994pt" viewBox="0 0 768 767.999994" version="1.2">
<defs>
<clipPath id="clip1">
  <path d="M 10.195312 231 L 757.945312 231 L 757.945312 636.960938 L 10.195312 636.960938 Z M 10.195312 231 "/>
</clipPath>
</defs>
<g id="surface1">
<g clip-path="url(#clip1)" clip-rule="nonzero">
<path style=" stroke:none;fill-rule:nonzero;fill:rgb(6.269836%,5.879211%,5.099487%);fill-opacity:1;" d="M 507.96875 273.789062 C 524.300781 279.039062 540.371094 285.351562 555.90625 292.597656 C 624.496094 324.636719 685.113281 371.558594 733.453125 429.917969 C 735.511719 432.375 735.511719 435.898438 733.453125 438.359375 C 685.113281 496.714844 624.496094 543.574219 555.90625 575.679688 C 540.371094 582.921875 524.300781 589.238281 507.96875 594.488281 C 596.476562 526.027344 612.675781 398.679688 544.289062 310.144531 C 533.796875 296.519531 521.582031 284.289062 507.96875 273.789062 Z M 260.242188 273.789062 C 171.738281 342.316406 155.535156 469.597656 223.925781 558.128906 C 234.414062 571.757812 246.632812 583.984375 260.242188 594.488281 C 243.84375 589.238281 227.777344 582.921875 212.238281 575.679688 C 143.652344 543.574219 83.097656 496.714844 34.761719 438.359375 C 32.703125 435.898438 32.703125 432.375 34.761719 429.917969 C 83.097656 371.558594 143.652344 324.703125 212.238281 292.597656 C 227.777344 285.351562 243.84375 279.039062 260.242188 273.855469 Z M 381.085938 252.320312 C 480.214844 250.65625 561.75 329.753906 563.476562 428.921875 C 563.476562 430.648438 563.476562 432.441406 563.476562 434.171875 C 564.738281 533.339844 485.527344 614.828125 386.464844 616.15625 C 287.332031 617.417969 205.929688 538.058594 204.667969 438.890625 C 204.667969 437.296875 204.667969 435.699219 204.667969 434.171875 C 203.40625 335.203125 282.289062 253.914062 381.085938 252.320312 Z M 400.007812 231.582031 C 331.953125 229.054688 264.226562 242.816406 202.546875 271.660156 C 130.902344 305.226562 67.496094 354.210938 17.03125 415.160156 C 7.9375 426.195312 7.9375 442.148438 17.03125 453.113281 C 67.496094 514.0625 130.902344 563.050781 202.546875 596.613281 C 317.609375 650.453125 450.667969 650.453125 565.800781 596.613281 C 637.375 563.050781 700.785156 514.0625 751.246094 453.113281 C 760.34375 442.148438 760.34375 426.195312 751.246094 415.160156 C 700.785156 354.210938 637.375 305.226562 565.800781 271.660156 C 513.746094 247.335938 457.375 233.710938 400.007812 231.582031 "/>
</g>
<path style=" stroke:none;fill-rule:nonzero;fill:rgb(6.269836%,5.879211%,5.099487%);fill-opacity:1;" d="M 452.128906 434.171875 C 452.859375 396.550781 423.113281 365.445312 385.535156 364.648438 C 347.953125 363.851562 316.878906 393.695312 316.082031 431.3125 C 316.082031 432.242188 316.082031 433.175781 316.082031 434.171875 C 315.285156 471.726562 345.097656 502.898438 382.679688 503.628906 C 420.257812 504.425781 451.332031 474.582031 452.128906 436.964844 C 452.128906 436.03125 452.128906 435.101562 452.128906 434.171875 "/>
<path style=" stroke:none;fill-rule:nonzero;fill:rgb(6.269836%,5.879211%,5.099487%);fill-opacity:1;" d="M 143.851562 198.082031 L 189.863281 236.5 C 194.84375 240.488281 202.082031 239.691406 206.0625 234.707031 C 209.914062 229.921875 209.316406 222.875 204.601562 218.753906 L 158.589844 180.335938 C 153.609375 176.347656 146.375 177.148438 142.390625 182.132812 C 138.472656 186.984375 139.136719 194.027344 143.851562 198.082031 "/>
<path style=" stroke:none;fill-rule:nonzero;fill:rgb(6.269836%,5.879211%,5.099487%);fill-opacity:1;" d="M 609.554688 180.335938 L 563.476562 218.753906 C 558.628906 222.875 557.964844 230.1875 562.015625 235.039062 C 566.199219 239.957031 573.4375 240.621094 578.347656 236.5 L 624.363281 198.082031 C 629.144531 193.894531 629.742188 186.585938 625.492188 181.800781 C 621.441406 177.078125 614.46875 176.480469 609.554688 180.335938 "/>
<path style=" stroke:none;fill-rule:nonzero;fill:rgb(6.269836%,5.879211%,5.099487%);fill-opacity:1;" d="M 372.585938 126.035156 L 372.585938 185.988281 C 372.785156 192.367188 378.164062 197.351562 384.539062 197.085938 C 390.578125 196.820312 395.359375 192.035156 395.625 185.988281 L 395.625 126.035156 C 395.359375 119.652344 390.046875 114.667969 383.609375 114.933594 C 377.632812 115.199219 372.785156 119.984375 372.585938 126.035156 "/>
</g>
</svg>
