<?xml version="1.0" encoding="UTF-8"?>
<svg xmlns="http://www.w3.org/2000/svg" xmlns:xlink="http://www.w3.org/1999/xlink" width="375pt" height="374.999991pt" viewBox="0 0 375 374.999991" version="1.2">
<defs>
<filter id="alpha" filterUnits="objectBoundingBox" x="0%" y="0%" width="100%" height="100%">
  <feColorMatrix type="matrix" in="SourceGraphic" values="0 0 0 0 1 0 0 0 0 1 0 0 0 0 1 0 0 0 1 0"/>
</filter>
<mask id="mask0">
  <g filter="url(#alpha)">
<rect x="0" y="0" width="375" height="374.999991" style="fill:rgb(0%,0%,0%);fill-opacity:0.6196;stroke:none;"/>
  </g>
</mask>
<clipPath id="clip2">
  <path d="M 52 1.117188 L 119 1.117188 L 119 67 L 52 67 Z M 52 1.117188 "/>
</clipPath>
<clipPath id="clip3">
  <path d="M 1.058594 72 L 169.808594 72 L 169.808594 372 L 1.058594 372 Z M 1.058594 72 "/>
</clipPath>
<clipPath id="clip1">
  <rect x="0" y="0" width="171" height="372"/>
</clipPath>
<g id="surface5" clip-path="url(#clip1)">
<g clip-path="url(#clip2)" clip-rule="nonzero">
<path style=" stroke:none;fill-rule:nonzero;fill:rgb(90.979004%,49.798584%,74.119568%);fill-opacity:1;" d="M 85.644531 1.117188 C 103.742188 1.117188 118.417969 15.804688 118.417969 33.917969 C 118.417969 52.039062 103.742188 66.722656 85.644531 66.722656 C 67.546875 66.722656 52.871094 52.039062 52.871094 33.917969 C 52.871094 15.804688 67.546875 1.117188 85.644531 1.117188 Z M 85.644531 1.117188 "/>
</g>
<g clip-path="url(#clip3)" clip-rule="nonzero">
<path style=" stroke:none;fill-rule:nonzero;fill:rgb(90.979004%,49.798584%,74.119568%);fill-opacity:1;" d="M 169.109375 187.550781 L 143.132812 106.753906 C 142.964844 106.207031 142.683594 105.726562 142.445312 105.226562 C 132.121094 79.019531 109.09375 72.84375 100.960938 72.84375 C 93.59375 72.84375 95.269531 72.84375 87.601562 72.84375 C 85.875 72.84375 84.460938 72.84375 83.261719 72.84375 C 75.601562 72.84375 77.28125 72.84375 69.917969 72.84375 C 61.78125 72.84375 38.757812 79.015625 28.429688 105.226562 C 28.183594 105.726562 27.925781 106.207031 27.746094 106.753906 L 1.765625 187.550781 C -0.46875 194.3125 3.199219 201.625 9.976562 203.847656 C 16.730469 206.09375 24.019531 202.410156 26.246094 195.640625 L 51.265625 117.796875 L 57.128906 117.796875 L 14.425781 251.304688 L 49.261719 251.304688 L 49.261719 357.105469 C 49.261719 365.53125 56.089844 372.355469 64.5 372.355469 C 72.917969 372.355469 79.746094 365.53125 79.746094 357.105469 L 79.746094 251.3125 L 91.128906 251.3125 L 91.128906 357.113281 C 91.128906 365.53125 97.945312 372.363281 106.371094 372.363281 C 114.78125 372.363281 121.609375 365.53125 121.609375 357.113281 L 121.609375 251.3125 L 156.449219 251.3125 L 113.738281 117.804688 L 119.582031 117.804688 L 144.617188 195.648438 C 146.847656 202.410156 154.121094 206.09375 160.894531 203.855469 C 167.664062 201.625 171.335938 194.316406 169.109375 187.550781 Z M 169.109375 187.550781 "/>
</g>
</g>
</defs>
<g id="surface1">
<use xlink:href="#surface5" transform="matrix(1,0,0,1,103,3)" mask="url(#mask0)"/>
</g>
</svg>
