<?xml version="1.0" encoding="UTF-8"?>
<svg xmlns="http://www.w3.org/2000/svg" xmlns:xlink="http://www.w3.org/1999/xlink" width="375pt" height="374.999991pt" viewBox="0 0 375 374.999991" version="1.2">
<defs>
<filter id="alpha" filterUnits="objectBoundingBox" x="0%" y="0%" width="100%" height="100%">
  <feColorMatrix type="matrix" in="SourceGraphic" values="0 0 0 0 1 0 0 0 0 1 0 0 0 0 1 0 0 0 1 0"/>
</filter>
<mask id="mask0">
  <g filter="url(#alpha)">
<rect x="0" y="0" width="375" height="374.999991" style="fill:rgb(0%,0%,0%);fill-opacity:0.3373;stroke:none;"/>
  </g>
</mask>
<clipPath id="clip2">
  <path d="M 0.8125 0.5 L 88.5625 0.5 L 88.5625 150.5 L 0.8125 150.5 Z M 0.8125 0.5 "/>
</clipPath>
<clipPath id="clip1">
  <rect x="0" y="0" width="89" height="151"/>
</clipPath>
<g id="surface5" clip-path="url(#clip1)">
<g clip-path="url(#clip2)" clip-rule="nonzero">
<path style=" stroke:none;fill-rule:nonzero;fill:rgb(95.689392%,43.139648%,70.199585%);fill-opacity:1;" d="M 44.851562 65.648438 C 32.820312 65.648438 23.027344 55.941406 23.027344 44.007812 C 23.027344 32.078125 32.820312 22.367188 44.851562 22.367188 C 56.890625 22.367188 66.679688 32.078125 66.679688 44.007812 C 66.679688 55.941406 56.890625 65.648438 44.851562 65.648438 Z M 33.703125 86.097656 L 33.703125 107.261719 L 17.152344 107.261719 L 17.152344 129.378906 L 33.703125 129.378906 L 33.703125 150.46875 L 56.007812 150.46875 L 56.007812 129.378906 L 72.558594 129.378906 L 72.558594 107.261719 L 56.007812 107.261719 L 56.007812 86.097656 C 74.828125 81.195312 88.746094 64.183594 88.746094 44.007812 C 88.746094 20.011719 69.058594 0.488281 44.851562 0.488281 C 20.652344 0.488281 0.960938 20.011719 0.960938 44.007812 C 0.960938 64.183594 14.882812 81.195312 33.703125 86.097656 "/>
</g>
</g>
</defs>
<g id="surface1">
<use xlink:href="#surface5" transform="matrix(1,0,0,1,143,112)" mask="url(#mask0)"/>
</g>
</svg>
