<?xml version="1.0" encoding="UTF-8"?>
<svg xmlns="http://www.w3.org/2000/svg" xmlns:xlink="http://www.w3.org/1999/xlink" width="375pt" height="374.999991pt" viewBox="0 0 375 374.999991" version="1.2">
<defs>
<clipPath id="clip1">
  <path d="M 47.710938 12.761719 L 327.460938 12.761719 L 327.460938 362.261719 L 47.710938 362.261719 Z M 47.710938 12.761719 "/>
</clipPath>
</defs>
<g id="surface1">
<g clip-path="url(#clip1)" clip-rule="nonzero">
<path style=" stroke:none;fill-rule:nonzero;fill:rgb(0%,0%,0%);fill-opacity:1;" d="M 321.804688 12.761719 L 53.542969 12.761719 C 50.324219 12.761719 47.710938 15.367188 47.710938 18.589844 L 47.710938 356.472656 C 47.710938 359.695312 50.324219 362.296875 53.542969 362.296875 L 321.804688 362.296875 C 325.023438 362.296875 327.636719 359.695312 327.636719 356.472656 L 327.636719 18.589844 C 327.636719 15.367188 325.023438 12.761719 321.804688 12.761719 Z M 315.972656 24.414062 L 315.972656 82.667969 L 59.375 82.667969 L 59.375 24.414062 Z M 59.375 350.648438 L 59.375 338.996094 L 222.664062 338.996094 L 222.664062 327.34375 L 59.375 327.34375 L 59.375 94.320312 L 315.972656 94.320312 L 315.972656 327.34375 L 257.652344 327.34375 L 257.652344 338.996094 L 315.972656 338.996094 L 315.972656 350.648438 Z M 59.375 350.648438 "/>
</g>
<path style=" stroke:none;fill-rule:nonzero;fill:rgb(0%,0%,0%);fill-opacity:1;" d="M 234.328125 327.34375 L 245.992188 327.34375 L 245.992188 338.996094 L 234.328125 338.996094 Z M 234.328125 327.34375 "/>
<path style=" stroke:none;fill-rule:nonzero;fill:rgb(0%,0%,0%);fill-opacity:1;" d="M 240.160156 36.066406 L 304.308594 36.066406 L 304.308594 47.714844 L 240.160156 47.714844 Z M 240.160156 36.066406 "/>
<path style=" stroke:none;fill-rule:nonzero;fill:rgb(0%,0%,0%);fill-opacity:1;" d="M 216.832031 36.066406 L 228.496094 36.066406 L 228.496094 47.714844 L 216.832031 47.714844 Z M 216.832031 36.066406 "/>
<path style=" stroke:none;fill-rule:nonzero;fill:rgb(0%,0%,0%);fill-opacity:1;" d="M 71.039062 36.066406 L 205.167969 36.066406 L 205.167969 47.714844 L 71.039062 47.714844 Z M 71.039062 36.066406 "/>
<path style=" stroke:none;fill-rule:nonzero;fill:rgb(0%,0%,0%);fill-opacity:1;" d="M 71.039062 59.367188 L 304.308594 59.367188 L 304.308594 71.019531 L 71.039062 71.019531 Z M 71.039062 59.367188 "/>
<path style=" stroke:none;fill-rule:nonzero;fill:rgb(0%,0%,0%);fill-opacity:1;" d="M 135.1875 117.625 L 298.476562 117.625 L 298.476562 129.273438 L 135.1875 129.273438 Z M 135.1875 117.625 "/>
<path style=" stroke:none;fill-rule:nonzero;fill:rgb(0%,0%,0%);fill-opacity:1;" d="M 135.1875 140.925781 L 298.476562 140.925781 L 298.476562 152.578125 L 135.1875 152.578125 Z M 135.1875 140.925781 "/>
<path style=" stroke:none;fill-rule:nonzero;fill:rgb(0%,0%,0%);fill-opacity:1;" d="M 82.703125 158.402344 L 117.691406 158.402344 C 120.910156 158.402344 123.523438 155.796875 123.523438 152.578125 L 123.523438 117.625 C 123.523438 114.402344 120.910156 111.796875 117.691406 111.796875 L 82.703125 111.796875 C 79.484375 111.796875 76.871094 114.402344 76.871094 117.625 L 76.871094 152.578125 C 76.871094 155.796875 79.484375 158.402344 82.703125 158.402344 Z M 88.535156 123.449219 L 111.859375 123.449219 L 111.859375 146.75 L 88.535156 146.75 Z M 88.535156 123.449219 "/>
<path style=" stroke:none;fill-rule:nonzero;fill:rgb(0%,0%,0%);fill-opacity:1;" d="M 135.1875 193.355469 L 298.476562 193.355469 L 298.476562 205.007812 L 135.1875 205.007812 Z M 135.1875 193.355469 "/>
<path style=" stroke:none;fill-rule:nonzero;fill:rgb(0%,0%,0%);fill-opacity:1;" d="M 245.992188 216.660156 L 298.476562 216.660156 L 298.476562 228.308594 L 245.992188 228.308594 Z M 245.992188 216.660156 "/>
<path style=" stroke:none;fill-rule:nonzero;fill:rgb(0%,0%,0%);fill-opacity:1;" d="M 222.664062 216.660156 L 234.320312 216.660156 L 234.320312 228.308594 L 222.664062 228.308594 Z M 222.664062 216.660156 "/>
<path style=" stroke:none;fill-rule:nonzero;fill:rgb(0%,0%,0%);fill-opacity:1;" d="M 135.1875 216.660156 L 211 216.660156 L 211 228.308594 L 135.1875 228.308594 Z M 135.1875 216.660156 "/>
<path style=" stroke:none;fill-rule:nonzero;fill:rgb(0%,0%,0%);fill-opacity:1;" d="M 135.1875 269.089844 L 298.476562 269.089844 L 298.476562 280.738281 L 135.1875 280.738281 Z M 135.1875 269.089844 "/>
<path style=" stroke:none;fill-rule:nonzero;fill:rgb(0%,0%,0%);fill-opacity:1;" d="M 135.1875 292.390625 L 298.476562 292.390625 L 298.476562 304.042969 L 135.1875 304.042969 Z M 135.1875 292.390625 "/>
<path style=" stroke:none;fill-rule:nonzero;fill:rgb(0%,0%,0%);fill-opacity:1;" d="M 117.691406 263.261719 L 82.703125 263.261719 C 79.484375 263.261719 76.871094 265.867188 76.871094 269.089844 L 76.871094 304.042969 C 76.871094 307.261719 79.484375 309.867188 82.703125 309.867188 L 117.691406 309.867188 C 120.910156 309.867188 123.523438 307.261719 123.523438 304.042969 L 123.523438 269.089844 C 123.523438 265.867188 120.910156 263.261719 117.691406 263.261719 Z M 111.859375 298.214844 L 88.535156 298.214844 L 88.535156 274.914062 L 111.859375 274.914062 Z M 111.859375 298.214844 "/>
<path style=" stroke:none;fill-rule:nonzero;fill:rgb(0%,0%,0%);fill-opacity:1;" d="M 133.480469 177.585938 C 131.199219 175.308594 127.511719 175.308594 125.234375 177.585938 L 115.277344 187.53125 L 82.703125 187.53125 C 79.484375 187.53125 76.871094 190.132812 76.871094 193.355469 L 76.871094 228.308594 C 76.871094 231.53125 79.484375 234.136719 82.703125 234.136719 L 117.691406 234.136719 C 120.910156 234.136719 123.523438 231.53125 123.523438 228.308594 L 123.523438 195.769531 L 133.480469 185.824219 C 135.757812 183.546875 135.757812 179.863281 133.480469 177.585938 Z M 103.613281 199.179688 L 94.367188 208.421875 L 88.535156 202.59375 L 88.535156 199.179688 Z M 111.859375 222.484375 L 88.535156 222.484375 L 88.535156 219.070312 L 90.242188 220.777344 C 91.378906 221.914062 92.871094 222.484375 94.367188 222.484375 C 95.859375 222.484375 97.351562 221.914062 98.488281 220.777344 L 111.859375 207.417969 Z M 111.859375 222.484375 "/>
</g>
</svg>
