<?xml version="1.0" encoding="UTF-8"?>
<svg xmlns="http://www.w3.org/2000/svg" xmlns:xlink="http://www.w3.org/1999/xlink" width="768pt" height="767.999994pt" viewBox="0 0 768 767.999994" version="1.2">
<defs>
<clipPath id="clip1">
  <path d="M 577.203125 144.820312 L 768 144.820312 L 768 354.371094 L 577.203125 354.371094 Z M 577.203125 144.820312 "/>
</clipPath>
<clipPath id="clip2">
  <path d="M 0.3125 593.65625 L 43.992188 593.65625 L 43.992188 636.816406 L 0.3125 636.816406 Z M 0.3125 593.65625 "/>
</clipPath>
</defs>
<g id="surface1">
<g clip-path="url(#clip1)" clip-rule="nonzero">
<path style=" stroke:none;fill-rule:nonzero;fill:rgb(21.958923%,71.369934%,100%);fill-opacity:1;" d="M 684.476562 203.253906 C 666.945312 205.390625 651.035156 207.25 635.148438 209.292969 C 624.296875 210.691406 613.5 212.421875 602.65625 213.875 C 590.84375 215.453125 580.757812 209.148438 578.003906 198.621094 C 575.082031 187.4375 580.597656 176.410156 592.058594 172.261719 C 598.761719 169.835938 605.894531 168.429688 612.9375 167.097656 C 649.5625 160.171875 686.214844 153.410156 722.875 146.621094 C 726.234375 145.996094 729.617188 145.441406 733.015625 145.050781 C 743.847656 143.808594 752.707031 147.503906 758.589844 156.703125 C 764.265625 165.578125 763.945312 175.042969 758.550781 183.933594 C 754.652344 190.355469 749.992188 196.320312 745.574219 202.421875 C 736.539062 214.890625 727.570312 227.414062 718.324219 239.730469 C 704.554688 258.074219 690.578125 276.257812 676.683594 294.511719 C 674.875 296.898438 673.0625 299.285156 670.328125 302.882812 C 674.390625 303.164062 677.25 303.617188 680.097656 303.515625 C 703.34375 302.691406 726.59375 301.839844 749.828125 300.84375 C 764.289062 300.222656 776.074219 309.539062 777.335938 322.886719 C 778.550781 335.722656 769.25 347.335938 755.097656 349.046875 C 743.578125 350.441406 731.890625 350.535156 720.265625 350.964844 C 691.207031 352.039062 662.136719 353 633.074219 353.945312 C 627.269531 354.132812 621.375 354.652344 615.648438 353.96875 C 597.902344 351.851562 588.300781 333.953125 596.316406 317.972656 C 598.585938 313.441406 601.914062 309.386719 605.082031 305.371094 C 629.246094 274.726562 653.511719 244.160156 677.679688 213.519531 C 679.929688 210.664062 681.71875 207.449219 684.476562 203.253906 "/>
</g>
<path style=" stroke:none;fill-rule:nonzero;fill:rgb(21.958923%,71.369934%,100%);fill-opacity:1;" d="M 466.792969 275.917969 C 461.210938 276.582031 457.285156 277.085938 453.351562 277.5 C 434.992188 279.449219 416.632812 281.367188 398.273438 283.300781 C 386.152344 284.578125 376.253906 278.449219 373.582031 268.003906 C 370.742188 256.921875 376.378906 246.445312 388.050781 241.863281 C 392.476562 240.125 397.152344 238.789062 401.835938 237.984375 C 436.898438 232.007812 472.003906 226.277344 507.070312 220.3125 C 518.539062 218.363281 528.3125 220.992188 535.25 230.5625 C 542.242188 240.199219 541.542969 250.539062 535.960938 260.582031 C 533.144531 265.65625 529.589844 270.3125 526.476562 275.222656 C 510.710938 300.082031 494.972656 324.957031 479.257812 349.847656 C 478.742188 350.664062 478.601562 351.722656 477.835938 354.035156 C 487.105469 353.289062 495.738281 352.878906 504.292969 351.828125 C 517.171875 350.25 529.996094 348.257812 542.839844 346.375 C 553.261719 344.847656 562.980469 349.550781 567.890625 358.609375 C 572.777344 367.632812 571.492188 378.507812 564.578125 386.34375 C 558.777344 392.917969 551.101562 395.417969 542.714844 396.339844 C 510.074219 399.917969 477.441406 403.535156 444.789062 407.019531 C 440.722656 407.453125 436.546875 407.59375 432.492188 407.183594 C 413.339844 405.246094 402.804688 387.285156 410.480469 369.644531 C 412.242188 365.589844 414.691406 361.816406 417.011719 358.023438 C 431.660156 334.070312 446.367188 310.15625 461.023438 286.207031 C 462.761719 283.367188 464.292969 280.398438 466.792969 275.917969 "/>
<path style=" stroke:none;fill-rule:nonzero;fill:rgb(21.958923%,71.369934%,100%);fill-opacity:1;" d="M 325.125 428.515625 C 329.191406 428.089844 331.773438 428.015625 334.265625 427.527344 C 347.007812 425.019531 359.714844 422.351562 372.460938 419.863281 C 375.800781 419.210938 379.21875 418.640625 382.601562 418.617188 C 395.511719 418.53125 405.242188 426.539062 407.363281 438.699219 C 409.347656 450.121094 401.96875 461.867188 389.84375 465.398438 C 381.996094 467.6875 373.882812 469.179688 365.8125 470.605469 C 342.269531 474.75 318.703125 478.800781 295.097656 482.59375 C 290.441406 483.34375 285.46875 483.433594 280.820312 482.695312 C 263.3125 479.921875 253.761719 464.75 259.136719 447.792969 C 261.386719 440.691406 264.679688 433.753906 268.523438 427.355469 C 276.269531 414.460938 284.722656 401.996094 292.871094 389.347656 C 294.332031 387.078125 295.75 384.78125 297.886719 381.386719 C 294.667969 381.648438 292.5 381.574219 290.449219 382.03125 C 280.113281 384.335938 269.824219 386.867188 259.480469 389.128906 C 255.15625 390.074219 250.746094 391.050781 246.351562 391.148438 C 236.757812 391.359375 228.835938 385.484375 226.089844 376.789062 C 223.195312 367.625 226.554688 357.945312 234.703125 352.476562 C 236.667969 351.15625 238.867188 350.078125 241.105469 349.292969 C 272.816406 338.195312 305.25 330.078125 338.660156 326.160156 C 349.992188 324.832031 359.847656 327.921875 366.394531 337.828125 C 372.710938 347.367188 371.757812 357.359375 366.5625 367.035156 C 363.980469 371.839844 360.882812 376.386719 357.777344 380.882812 C 349.015625 393.542969 340.101562 406.097656 331.308594 418.734375 C 329.402344 421.46875 327.734375 424.371094 325.125 428.515625 "/>
<path style=" stroke:none;fill-rule:nonzero;fill:rgb(21.958923%,71.369934%,100%);fill-opacity:1;" d="M 147.351562 486.617188 C 142.058594 487.210938 138.714844 487.835938 135.363281 487.910156 C 126.023438 488.117188 118.542969 483.160156 115.222656 474.847656 C 111.953125 466.667969 113.996094 457.511719 120.652344 451.351562 C 122.390625 449.746094 124.339844 448.097656 126.5 447.253906 C 144.363281 440.265625 162.449219 434.015625 181.757812 432.394531 C 183.792969 432.226562 185.867188 432.28125 187.910156 432.398438 C 207.050781 433.484375 217.726562 450.136719 210.652344 468.105469 C 208.667969 473.144531 206.011719 477.917969 202.980469 484.234375 C 206.824219 484.285156 209.683594 484.164062 212.515625 484.386719 C 223.503906 485.238281 232.179688 492.675781 234.34375 502.960938 C 236.515625 513.296875 231.769531 523.886719 222.144531 528.945312 C 218.257812 530.988281 213.929688 532.460938 209.632812 533.390625 C 196.605469 536.210938 183.492188 538.652344 170.40625 541.203125 C 169.070312 541.460938 167.6875 541.503906 166.320312 541.582031 C 145.03125 542.773438 132.261719 525.730469 139.554688 505.707031 C 141.753906 499.667969 144.40625 493.792969 147.351562 486.617188 "/>
<path style=" stroke:none;fill-rule:nonzero;fill:rgb(21.958923%,71.369934%,100%);fill-opacity:1;" d="M 85.351562 596.917969 C 75.359375 596.707031 67.425781 590.433594 64.1875 580.570312 C 62.734375 576.140625 61.011719 571.75 58.894531 567.597656 C 54.089844 558.167969 55.765625 547.175781 64.171875 540.824219 C 73.308594 533.921875 83.988281 531.492188 95.097656 534.386719 C 109.675781 538.191406 121.941406 564.230469 116.277344 578.191406 C 112.511719 587.46875 96.523438 597.152344 85.351562 596.917969 "/>
<g clip-path="url(#clip2)" clip-rule="nonzero">
<path style=" stroke:none;fill-rule:nonzero;fill:rgb(21.958923%,71.369934%,100%);fill-opacity:1;" d="M 21.269531 636.8125 C 9.152344 636.714844 0.0585938 627.359375 0.316406 615.257812 C 0.570312 603.460938 10.167969 593.941406 21.925781 593.820312 C 33.429688 593.707031 43.652344 603.683594 43.746094 615.113281 C 43.839844 626.898438 33.46875 636.914062 21.269531 636.8125 "/>
</g>
</g>
</svg>
