<?xml version="1.0" encoding="UTF-8"?>
<svg xmlns="http://www.w3.org/2000/svg" xmlns:xlink="http://www.w3.org/1999/xlink" width="375pt" height="374.999991pt" viewBox="0 0 375 374.999991" version="1.2">
<defs>
<clipPath id="clip1">
  <path d="M 2.441406 28 L 231 28 L 231 298 L 2.441406 298 Z M 2.441406 28 "/>
</clipPath>
</defs>
<g id="surface1">
<path style=" stroke:none;fill-rule:nonzero;fill:rgb(0%,0%,0%);fill-opacity:1;" d="M 206.292969 349.953125 C 188.632812 349.953125 170.386719 347.675781 151.972656 343.125 C 124.121094 336.226562 105.285156 325.058594 94.34375 308.9375 C 92.792969 306.640625 91.710938 304.292969 90.75 302.179688 C 89.292969 298.964844 88.519531 297.511719 87.8125 297.394531 C 84.621094 296.808594 79.96875 299.90625 75.859375 302.648438 L 75.15625 303.121094 L 50.964844 319.238281 L 40.867188 304.128906 L 65.761719 287.539062 C 72.054688 283.339844 80.652344 277.589844 91.125 279.539062 C 101.246094 281.414062 105.027344 289.699219 107.304688 294.671875 C 108.011719 296.246094 108.691406 297.722656 109.371094 298.730469 C 117.6875 310.980469 133.042969 319.730469 156.339844 325.503906 C 192.015625 334.324219 226.914062 333.855469 257.253906 324.144531 C 282.878906 315.953125 305.585938 298.636719 322.964844 274.070312 C 352.910156 231.742188 367.09375 167.945312 336.234375 127.890625 C 320.007812 106.84375 289.3125 100.792969 264.394531 97.882812 C 263.527344 97.789062 262.539062 97.625 261.390625 97.460938 C 259.746094 97.25 257.890625 96.992188 255.941406 96.757812 C 243.515625 95.371094 232.269531 88.894531 225.105469 78.992188 C 222.027344 74.746094 221.371094 67.753906 220.621094 44.171875 C 220.433594 38.074219 220.242188 32.324219 219.9375 28.570312 L 238.046875 27.046875 C 238.398438 31.292969 238.585938 37.277344 238.796875 43.585938 C 239.03125 51.210938 239.476562 65.054688 240.417969 69.117188 C 244.597656 74.464844 250.9375 77.9375 257.960938 78.710938 C 260.191406 78.96875 262.257812 79.253906 263.925781 79.488281 C 264.933594 79.628906 265.804688 79.769531 266.507812 79.839844 C 294.972656 83.171875 330.269531 90.398438 350.632812 116.816406 C 368.175781 139.578125 375.007812 169.398438 370.40625 203.070312 C 366.578125 230.992188 354.695312 260.671875 337.808594 284.558594 C 318.128906 312.363281 292.199219 332.050781 262.796875 341.4375 C 245.089844 347.113281 226.042969 349.953125 206.292969 349.953125 "/>
<g clip-path="url(#clip1)" clip-rule="nonzero">
<path style=" stroke:none;fill-rule:nonzero;fill:rgb(0%,0%,0%);fill-opacity:1;" d="M 17.523438 297.160156 L 2.234375 287.328125 C 3.011719 286.15625 3.761719 284.957031 4.511719 283.761719 C 9.5625 275.878906 14.753906 267.734375 21.351562 260.578125 C 27.714844 253.65625 35.535156 247.746094 45.257812 242.488281 C 54.746094 237.375 62.566406 234.582031 70.644531 233.457031 C 72.710938 233.152344 74.800781 232.960938 76.824219 232.773438 C 83.328125 232.164062 89.433594 231.578125 92.699219 228.410156 C 108.574219 213.019531 128.980469 214.683594 146.996094 216.164062 C 157.28125 216.984375 167.003906 217.78125 175.105469 215.578125 C 189.386719 211.632812 200.773438 202.554688 207.1875 189.929688 C 213.855469 176.835938 214.511719 161.585938 208.996094 147.039062 C 204.414062 134.90625 200.773438 128.007812 192.460938 121.628906 C 181 112.804688 178.511719 101.894531 176.117188 91.382812 C 175.789062 89.953125 175.457031 88.519531 175.105469 87.066406 C 174.167969 83.242188 171.699219 30.824219 171.628906 28.640625 L 189.785156 28.007812 C 190.160156 38.378906 192.34375 78.289062 192.859375 83.195312 C 193.210938 84.625 193.519531 85.984375 193.824219 87.324219 C 196.078125 97.226562 197.535156 102.621094 203.570312 107.246094 C 216.34375 117.097656 221.464844 128.644531 225.996094 140.609375 C 233.230469 159.734375 232.269531 180.710938 223.390625 198.167969 C 214.632812 215.386719 199.203125 227.777344 179.921875 233.082031 C 168.71875 236.152344 156.90625 235.191406 145.492188 234.253906 C 129.3125 232.914062 115.3125 231.789062 105.355469 241.433594 C 97.511719 249.058594 86.992188 250.042969 78.558594 250.84375 C 76.632812 251.03125 74.828125 251.195312 73.183594 251.429688 C 67.335938 252.25 61.394531 254.410156 53.902344 258.46875 C 45.988281 262.738281 39.714844 267.453125 34.738281 272.851562 C 29.21875 278.859375 24.453125 286.320312 19.847656 293.546875 C 19.074219 294.765625 18.296875 295.964844 17.523438 297.160156 "/>
</g>
<path style=" stroke:none;fill-rule:nonzero;fill:rgb(0%,0%,0%);fill-opacity:1;" d="M 320.664062 214.308594 C 325.714844 214.261719 329.308594 219.238281 327.617188 223.976562 C 322.964844 237.070312 316.414062 249.808594 308.476562 261.027344 C 293.445312 282.261719 274.023438 297.160156 252.324219 304.105469 C 225.269531 312.761719 193.917969 313.089844 161.601562 305.113281 C 143.496094 300.632812 131.472656 294.320312 125.835938 286.34375 C 125.625 285.921875 125.296875 285.191406 125.058594 284.675781 C 123.792969 281.90625 121.585938 277.027344 117.640625 272.21875 C 112.894531 266.398438 113.574219 257.90625 119 252.671875 C 119.046875 252.625 119.09375 252.601562 119.140625 252.554688 C 122.804688 248.988281 131.261719 249.480469 144.742188 250.585938 C 157.164062 251.59375 171.253906 252.742188 185.628906 248.800781 C 195.703125 246.03125 204.957031 241.714844 213.128906 236.058594 C 233.113281 222.238281 256.949219 215.011719 281.257812 214.753906 L 320.664062 214.308594 "/>
</g>
</svg>
