<?xml version="1.0" encoding="UTF-8"?>
<svg xmlns="http://www.w3.org/2000/svg" xmlns:xlink="http://www.w3.org/1999/xlink" width="375pt" height="374.999991pt" viewBox="0 0 375 374.999991" version="1.2">
<defs>
<clipPath id="clip1">
  <path d="M 4 78.949219 L 371 78.949219 L 371 295 L 4 295 Z M 4 78.949219 "/>
</clipPath>
</defs>
<g id="surface1">
<g clip-path="url(#clip1)" clip-rule="nonzero">
<path style=" stroke:none;fill-rule:nonzero;fill:rgb(10.5896%,9.799194%,9.408569%);fill-opacity:1;" d="M 313.199219 79.757812 C 294.46875 79.757812 276.148438 82.597656 259.054688 90.3125 C 221.1875 107.773438 187.402344 105.742188 187.402344 105.742188 C 187.402344 105.742188 153.613281 107.367188 115.753906 89.5 C 98.65625 81.785156 80.335938 78.945312 61.609375 78.945312 C 16.417969 78.945312 5.019531 106.960938 4.207031 125.234375 C 3.394531 139.039062 8.683594 152.4375 17.640625 162.585938 L 42.882812 191.011719 C 44.507812 193.039062 47.359375 191.414062 46.953125 188.980469 C 44.101562 178.828125 42.066406 162.992188 49.800781 150 C 50.617188 148.375 49.394531 146.347656 47.359375 146.75 C 35.960938 148.375 12.347656 149.1875 21.710938 117.925781 C 21.710938 117.925781 33.925781 86.660156 81.960938 102.496094 C 81.960938 102.496094 122.671875 108.582031 128.371094 161.777344 C 128.371094 161.777344 125.929688 212.121094 153.207031 234.453125 C 159.71875 239.328125 164.605469 245.417969 167.859375 252.726562 C 171.933594 261.253906 174.78125 273.433594 170.710938 286.429688 C 170.710938 286.429688 169.898438 291.300781 175.1875 294.140625 C 177.226562 294.953125 179.261719 293.738281 179.261719 291.707031 L 179.261719 255.160156 C 179.261719 251.507812 179.667969 247.855469 180.074219 245.011719 C 180.886719 240.140625 180.074219 227.957031 164.195312 209.28125 C 164.195312 209.28125 148.726562 194.257812 151.578125 171.113281 C 151.578125 171.113281 152.796875 152.03125 141.804688 141.878906 C 140.179688 140.664062 140.992188 138.226562 143.027344 138.226562 C 172.339844 130.105469 201.652344 130.105469 230.964844 138.226562 C 232.589844 138.226562 233.40625 140.664062 232.183594 141.878906 C 220.785156 152.03125 222.414062 171.113281 222.414062 171.113281 C 225.261719 193.851562 209.792969 209.28125 209.792969 209.28125 C 193.914062 227.957031 193.101562 240.140625 193.914062 245.011719 C 194.324219 248.261719 194.324219 251.914062 194.324219 255.570312 L 194.324219 292.113281 C 194.324219 294.140625 196.765625 295.359375 198.394531 294.546875 C 203.683594 291.707031 202.871094 286.832031 202.871094 286.832031 C 198.800781 274.246094 201.652344 262.066406 205.722656 253.132812 C 208.976562 245.824219 214.269531 239.734375 220.375 234.863281 C 248.0625 212.53125 245.207031 162.183594 245.207031 162.183594 C 250.910156 108.988281 291.621094 102.902344 291.621094 102.902344 C 340.472656 87.066406 353.09375 118.328125 353.09375 118.328125 C 362.457031 149.59375 338.84375 149.1875 327.445312 147.15625 C 325.410156 146.75 324.1875 148.78125 325 150.40625 C 332.738281 163.398438 330.703125 179.234375 327.851562 189.386719 C 327.445312 191.824219 330.296875 193.039062 331.921875 191.414062 L 357.164062 162.992188 C 366.117188 152.4375 371.414062 139.445312 370.597656 126.046875 C 369.375 107.773438 357.976562 79.757812 313.199219 79.757812 "/>
</g>
<path style=" stroke:none;fill-rule:nonzero;fill:rgb(10.5896%,9.799194%,9.408569%);fill-opacity:1;" d="M 78.296875 210.09375 C 94.175781 210.90625 99.875 201.972656 102.316406 193.039062 C 103.945312 186.140625 102.722656 178.828125 98.652344 172.738281 C 93.363281 165.433594 90.105469 154.0625 88.476562 147.972656 C 87.660156 144.316406 84.40625 141.070312 80.332031 140.257812 C 67.308594 137.820312 59.570312 163.402344 59.570312 163.402344 C 54.6875 184.109375 64.457031 199.535156 69.75 205.628906 C 71.785156 208.472656 75.042969 210.09375 78.296875 210.09375 "/>
<path style=" stroke:none;fill-rule:nonzero;fill:rgb(10.5896%,9.799194%,9.408569%);fill-opacity:1;" d="M 296.503906 210.09375 C 299.761719 210.09375 303.015625 208.472656 305.050781 205.628906 C 310.34375 199.535156 320.113281 184.109375 315.230469 163.402344 C 315.230469 163.402344 307.496094 137.820312 294.46875 140.257812 C 290.398438 141.070312 287.140625 144.316406 286.324219 147.972656 C 284.699219 154.0625 281.441406 165.433594 276.148438 172.738281 C 272.078125 178.828125 270.855469 186.140625 272.484375 193.039062 C 274.929688 201.972656 280.628906 210.90625 296.503906 210.09375 "/>
</g>
</svg>
