<?xml version="1.0" encoding="UTF-8"?>
<svg xmlns="http://www.w3.org/2000/svg" xmlns:xlink="http://www.w3.org/1999/xlink" width="768pt" height="767.999994pt" viewBox="0 0 768 767.999994" version="1.2">
<defs>
<clipPath id="clip1">
  <path d="M 278.53125 600.097656 L 332.984375 600.097656 L 332.984375 767.867188 L 278.53125 767.867188 Z M 278.53125 600.097656 "/>
</clipPath>
<clipPath id="clip2">
  <path d="M 336.304688 588.152344 L 459 588.152344 L 459 767.867188 L 336.304688 767.867188 Z M 336.304688 588.152344 "/>
</clipPath>
<clipPath id="clip3">
  <path d="M 542.167969 271 L 592.949219 271 L 592.949219 338.644531 L 542.167969 338.644531 Z M 542.167969 271 "/>
</clipPath>
</defs>
<g id="surface1">
<g clip-path="url(#clip1)" clip-rule="nonzero">
<path style=" stroke:none;fill-rule:nonzero;fill:rgb(11.369324%,11.369324%,10.5896%);fill-opacity:1;" d="M 287.875 718.15625 C 287.875 718.15625 281.042969 692.210938 283.09375 675.402344 C 285.148438 658.585938 284.53125 640.957031 280.222656 631.933594 C 275.914062 622.910156 280.222656 599.332031 291.507812 600.5625 C 302.792969 601.792969 297.253906 612.863281 306.898438 614.503906 C 316.539062 616.144531 324.542969 606.507812 330.085938 619.425781 C 335.625 632.34375 331.519531 641.980469 320.847656 661.867188 C 310.179688 681.753906 318.578125 710.382812 318.992188 719.199219 C 319.402344 728.011719 326.253906 767.867188 326.253906 767.867188 L 296.089844 767.867188 L 287.875 718.15625 "/>
</g>
<g clip-path="url(#clip2)" clip-rule="nonzero">
<path style=" stroke:none;fill-rule:nonzero;fill:rgb(11.369324%,11.369324%,10.5896%);fill-opacity:1;" d="M 369.683594 767.867188 C 369.683594 767.867188 369.480469 735.882812 367.632812 717.230469 C 365.789062 698.570312 360.484375 674.636719 351.628906 660.636719 C 340.34375 642.800781 342.921875 641.714844 341.574219 636.035156 C 339.730469 628.242188 336.464844 625.683594 336.464844 618.914062 C 336.464844 618.914062 337.265625 607.53125 365.582031 609.378906 C 393.898438 611.226562 414.136719 607.828125 426.335938 596.773438 C 443.980469 580.777344 461.199219 587.851562 458.527344 612.863281 C 455.863281 637.878906 453.605469 644.847656 440.472656 667.609375 C 427.34375 690.367188 421.800781 713.332031 422.417969 732.808594 C 423.035156 752.285156 422.417969 767.867188 422.417969 767.867188 L 369.683594 767.867188 "/>
</g>
<path style=" stroke:none;fill-rule:nonzero;fill:rgb(11.369324%,11.369324%,10.5896%);fill-opacity:1;" d="M 302.789062 594.316406 C 303.226562 593.082031 327.117188 565.28125 347.835938 565.058594 C 368.5625 564.832031 380.273438 569.109375 371.941406 579.238281 C 363.605469 589.367188 339.054688 594.542969 330.046875 598.820312 C 321.035156 603.097656 298.957031 605.121094 302.789062 594.316406 "/>
<path style=" stroke:none;fill-rule:nonzero;fill:rgb(11.369324%,11.369324%,10.5896%);fill-opacity:1;" d="M 360.902344 594.996094 C 360.902344 594.996094 389.960938 573.160156 397.394531 563.703125 C 404.828125 554.253906 403.699219 544.125 415.863281 541.199219 C 428.027344 538.269531 441.316406 560.105469 442.671875 564.382812 C 444.019531 568.65625 418.34375 594.996094 407.753906 598.820312 C 397.167969 602.644531 357.523438 604.222656 360.902344 594.996094 "/>
<path style=" stroke:none;fill-rule:nonzero;fill:rgb(11.369324%,11.369324%,10.5896%);fill-opacity:1;" d="M 296.933594 589.589844 C 296.933594 589.589844 328.242188 569.558594 325.765625 558.980469 C 323.289062 548.402344 319.457031 533.546875 301.886719 532.417969 C 284.320312 531.292969 283.417969 549.300781 285.894531 557.40625 C 288.371094 565.507812 282.742188 600.394531 296.933594 589.589844 "/>
<path style=" stroke:none;fill-rule:nonzero;fill:rgb(11.369324%,11.369324%,10.5896%);fill-opacity:1;" d="M 280.714844 520.265625 C 275.984375 520.144531 283.417969 532.644531 294.230469 528.59375 C 305.042969 524.542969 315.175781 526.339844 321.484375 536.25 C 327.789062 546.152344 331.167969 557.855469 329.59375 562.132812 C 328.015625 566.40625 337.699219 561.90625 342.433594 559.203125 C 347.164062 556.507812 345.589844 538.945312 346.714844 529.042969 C 347.835938 519.144531 349.414062 506.082031 340.855469 506.539062 C 332.296875 506.984375 330.269531 500.90625 327.34375 496.179688 C 324.414062 491.457031 320.585938 495.28125 316.53125 502.035156 C 312.472656 508.789062 289.496094 520.492188 280.714844 520.265625 "/>
<path style=" stroke:none;fill-rule:nonzero;fill:rgb(11.369324%,11.369324%,10.5896%);fill-opacity:1;" d="M 353.019531 558.53125 C 353.019531 558.53125 379.375 569.335938 390.183594 561.230469 C 400.996094 553.128906 392.664062 542.097656 391.3125 536.921875 C 389.960938 531.746094 385.230469 518.019531 386.132812 511.039062 C 387.03125 504.0625 380.046875 495.054688 368.789062 496.632812 C 357.523438 498.207031 351.890625 511.265625 351.890625 526.570312 C 351.890625 541.875 348.742188 553.128906 353.019531 558.53125 "/>
<path style=" stroke:none;fill-rule:nonzero;fill:rgb(11.369324%,11.369324%,10.5896%);fill-opacity:1;" d="M 404.828125 542.324219 C 404.828125 542.324219 413.835938 530.847656 419.917969 524.769531 C 426 518.6875 421.269531 507.886719 413.835938 505.859375 C 406.402344 503.835938 390.863281 503.386719 394.015625 519.367188 C 397.167969 535.347656 396.269531 552.226562 404.828125 542.324219 "/>
<path style=" stroke:none;fill-rule:nonzero;fill:rgb(11.369324%,11.369324%,10.5896%);fill-opacity:1;" d="M 421.945312 504.511719 C 421.945312 504.511719 428.253906 514.640625 427.128906 520.941406 C 426 527.246094 416.539062 531.742188 431.859375 543.675781 C 447.175781 555.605469 451.226562 558.980469 463.839844 545.027344 C 476.457031 531.070312 474.429688 525.441406 460.6875 519.589844 C 446.949219 513.738281 438.613281 524.09375 433.433594 516.664062 C 428.253906 509.234375 423.074219 493.480469 421.945312 504.511719 "/>
<path style=" stroke:none;fill-rule:nonzero;fill:rgb(11.369324%,11.369324%,10.5896%);fill-opacity:1;" d="M 431.40625 496.632812 C 431.40625 496.632812 430.054688 514.1875 440.195312 512.613281 C 450.324219 511.039062 459.335938 509.914062 466.996094 514.640625 C 474.65625 519.367188 478.257812 521.394531 482.3125 512.164062 C 486.363281 502.933594 480.511719 488.976562 489.746094 476.152344 C 498.980469 463.320312 511.597656 445.3125 520.605469 436.3125 C 529.613281 427.304688 526.914062 417.402344 516.101562 411.773438 C 505.289062 406.148438 489.746094 399.621094 488.394531 416.953125 C 487.042969 434.285156 489.746094 442.160156 480.957031 454.542969 C 472.175781 466.921875 461.367188 477.050781 453.480469 479.976562 C 445.597656 482.902344 434.332031 488.304688 431.40625 496.632812 "/>
<path style=" stroke:none;fill-rule:nonzero;fill:rgb(11.369324%,11.369324%,10.5896%);fill-opacity:1;" d="M 510.46875 402.773438 C 525.5625 404.574219 527.359375 413.574219 528.039062 416.277344 C 528.714844 418.976562 534.796875 421.226562 538.625 407.046875 C 542.453125 392.867188 533.21875 385.441406 553.492188 364.734375 C 573.761719 344.023438 565.878906 342.449219 560.023438 339.972656 C 554.164062 337.496094 541.777344 330.972656 538.625 335.695312 C 535.472656 340.425781 537.273438 342.222656 537.050781 349.425781 C 536.820312 356.628906 529.167969 374.1875 519.929688 378.464844 C 510.695312 382.738281 495.375 400.972656 510.46875 402.773438 "/>
<g clip-path="url(#clip3)" clip-rule="nonzero">
<path style=" stroke:none;fill-rule:nonzero;fill:rgb(11.369324%,11.369324%,10.5896%);fill-opacity:1;" d="M 545.382812 327.820312 C 545.382812 327.820312 554.617188 326.691406 559.574219 329.84375 C 564.527344 332.996094 565.878906 341.550781 570.609375 337.496094 C 575.339844 333.445312 570.160156 317.238281 581.199219 301.933594 C 592.234375 286.625 596.0625 274.023438 590.660156 271.773438 C 585.253906 269.519531 579.847656 281.902344 571.964844 290.230469 C 564.078125 298.558594 550.5625 303.734375 546.507812 312.964844 C 542.453125 322.191406 540.425781 328.945312 545.382812 327.820312 "/>
</g>
<path style=" stroke:none;fill-rule:nonzero;fill:rgb(11.369324%,11.369324%,10.5896%);fill-opacity:1;" d="M 386.355469 496.125 C 386.355469 496.125 396.324219 490.890625 395.816406 479.414062 C 395.3125 467.933594 395.144531 463.542969 400.71875 455.945312 C 406.292969 448.351562 411.699219 434.675781 410.175781 410.367188 C 408.65625 386.058594 404.941406 351.453125 400.71875 342.507812 C 396.492188 333.558594 396.324219 314.988281 413.554688 311.105469 C 430.789062 307.222656 443.457031 317.183594 440.417969 336.765625 C 437.375 356.347656 432.308594 370.863281 431.96875 386.566406 C 431.632812 402.265625 426.902344 431.300781 430.957031 441.597656 C 435.011719 451.894531 445.3125 471.308594 439.234375 480.425781 C 433.152344 489.539062 422.339844 493.761719 417.441406 494.269531 C 412.539062 494.773438 384.667969 506.761719 386.355469 496.125 "/>
<path style=" stroke:none;fill-rule:nonzero;fill:rgb(11.369324%,11.369324%,10.5896%);fill-opacity:1;" d="M 422.339844 301.144531 C 427.929688 297.652344 432.8125 310.597656 440.246094 309.585938 C 447.679688 308.570312 441.9375 295.066406 438.894531 281.5625 C 435.855469 268.058594 430.957031 240.371094 436.195312 224.167969 C 441.429688 207.960938 447.003906 198.84375 440.078125 196.3125 C 433.152344 193.777344 426.222656 196.988281 423.183594 194.625 C 420.144531 192.257812 415.242188 192.257812 412.203125 198.84375 C 409.164062 205.425781 414.738281 221.128906 414.738281 231.425781 C 414.738281 241.722656 416.597656 270.421875 413.386719 276.667969 C 410.175781 282.914062 400.378906 299.457031 402.238281 304.519531 C 404.09375 309.585938 412.878906 307.054688 422.339844 301.144531 "/>
<path style=" stroke:none;fill-rule:nonzero;fill:rgb(11.369324%,11.369324%,10.5896%);fill-opacity:1;" d="M 412.539062 188.714844 C 412.539062 188.714844 417.609375 184.664062 421.835938 185.507812 C 426.054688 186.351562 429.941406 192.429688 437.542969 191.417969 C 445.148438 190.402344 450.550781 187.703125 446.496094 175.378906 C 442.441406 163.054688 436.023438 147.863281 438.222656 136.886719 C 440.417969 125.917969 441.9375 118.828125 439.234375 115.113281 C 436.53125 111.398438 430.957031 118.65625 427.746094 118.828125 C 424.535156 118.996094 421.160156 114.269531 416.425781 112.410156 C 411.699219 110.554688 415.414062 120.855469 416.425781 126.761719 C 417.441406 132.667969 419.128906 147.691406 414.90625 155.796875 C 410.683594 163.898438 400.886719 195.128906 412.539062 188.714844 "/>
<path style=" stroke:none;fill-rule:nonzero;fill:rgb(11.369324%,11.369324%,10.5896%);fill-opacity:1;" d="M 416.425781 103.128906 C 416.425781 103.128906 420.652344 110.554688 426.734375 110.554688 C 432.8125 110.554688 434.164062 106.671875 438.726562 103.804688 C 443.289062 100.933594 435.6875 92.65625 434.503906 82.53125 C 433.320312 72.402344 432.644531 60.585938 434.503906 57.378906 C 436.363281 54.167969 437.882812 41.507812 427.914062 41.167969 C 417.945312 40.835938 415.414062 51.128906 418.457031 60.921875 C 421.496094 70.710938 422.847656 74.429688 421.664062 79.324219 C 420.480469 84.222656 411.019531 95.695312 416.425781 103.128906 "/>
<path style=" stroke:none;fill-rule:nonzero;fill:rgb(11.369324%,11.369324%,10.5896%);fill-opacity:1;" d="M 355.273438 479.75 C 356.949219 481.988281 355.609375 490.046875 356.960938 493.929688 C 358.3125 497.8125 364.902344 493.761719 370.984375 492.074219 C 377.066406 490.386719 384.328125 494.941406 387.875 483.632812 C 391.421875 472.320312 388.722656 466.75 383.316406 463.035156 C 377.910156 459.324219 373.855469 457.128906 371.660156 433.15625 C 369.464844 409.1875 368.109375 343.683594 368.109375 336.085938 C 368.109375 328.492188 371.320312 310.429688 353.753906 311.613281 C 336.183594 312.792969 328.75 322.753906 331.621094 339.296875 C 334.492188 355.839844 348.515625 384.199219 351.722656 409.355469 C 354.933594 434.507812 356.792969 451.050781 355.441406 458.984375 C 354.089844 466.921875 350.203125 467.257812 349.699219 471.476562 C 349.191406 475.699219 353.753906 477.726562 355.273438 479.75 "/>
<path style=" stroke:none;fill-rule:nonzero;fill:rgb(11.369324%,11.369324%,10.5896%);fill-opacity:1;" d="M 348.007812 306.210938 C 353.167969 304.980469 367.4375 311.613281 371.320312 306.210938 C 375.207031 300.808594 365.238281 284.265625 362.367188 277.171875 C 359.496094 270.082031 349.359375 238.515625 349.359375 221.800781 C 349.359375 205.089844 352.230469 186.859375 352.230469 180.78125 C 352.230469 174.703125 347.667969 169.300781 335.675781 170.824219 C 323.679688 172.339844 318.613281 169.976562 316.246094 174.535156 C 313.882812 179.09375 317.261719 195.972656 320.980469 208.972656 C 324.695312 221.972656 328.75 232.777344 329.929688 251.511719 C 331.113281 270.253906 332.125 289.664062 329.425781 296.925781 C 326.722656 304.183594 323.511719 317.183594 331.113281 314.988281 C 338.71875 312.792969 340.910156 307.898438 348.007812 306.210938 "/>
<path style=" stroke:none;fill-rule:nonzero;fill:rgb(11.369324%,11.369324%,10.5896%);fill-opacity:1;" d="M 315.574219 161.875 C 315.574219 161.875 323.171875 169.472656 331.789062 168.289062 C 340.40625 167.109375 349.125 165.460938 349.96875 161.066406 C 350.8125 156.679688 350.144531 145.878906 345.316406 138.011719 C 340.734375 130.546875 339.730469 118.320312 339.730469 109.882812 C 339.730469 101.4375 341.25 86.410156 342.433594 79.832031 C 343.617188 73.246094 340.742188 67.671875 336.011719 67.671875 C 331.28125 67.671875 326.890625 71.5625 323.34375 72.742188 C 319.796875 73.921875 316.886719 66.578125 310.976562 67.59375 C 305.0625 68.601562 305.410156 80.152344 311.15625 90.117188 C 316.898438 100.074219 315.066406 106.335938 316.078125 120.34375 C 317.09375 134.359375 312.867188 157.65625 315.574219 161.875 "/>
<path style=" stroke:none;fill-rule:nonzero;fill:rgb(11.369324%,11.369324%,10.5896%);fill-opacity:1;" d="M 321.992188 66.160156 C 321.992188 66.160156 330.945312 62.445312 336.855469 61.261719 C 342.773438 60.082031 335.84375 50.121094 332.464844 44.378906 C 329.085938 38.640625 324.863281 23.78125 324.863281 18.042969 C 324.863281 12.300781 327.738281 0.152344 315.742188 1.671875 C 303.746094 3.191406 307.460938 18.71875 311.347656 26.65625 C 315.234375 34.585938 315.910156 42.695312 314.050781 46.578125 C 312.191406 50.457031 305.433594 57.207031 309.488281 62.269531 C 313.542969 67.339844 319.457031 68.183594 321.992188 66.160156 "/>
<path style=" stroke:none;fill-rule:nonzero;fill:rgb(11.369324%,11.369324%,10.5896%);fill-opacity:1;" d="M 314.050781 495.28125 C 314.050781 495.28125 320.132812 486.332031 326.214844 488.191406 C 332.296875 490.046875 333.648438 498.65625 340.070312 500.851562 C 346.484375 503.046875 350.203125 497.644531 350.371094 491.566406 C 350.539062 485.488281 347.332031 478.0625 342.773438 474.855469 C 338.210938 471.648438 339.222656 464.558594 338.378906 462.191406 C 337.535156 459.828125 322.667969 449.871094 320.980469 429.105469 C 319.289062 408.339844 318.105469 359.554688 318.105469 357.191406 C 318.105469 354.828125 315.574219 337.609375 295.46875 340.480469 C 275.367188 343.347656 278.742188 363.4375 278.742188 363.4375 C 278.742188 363.4375 280.433594 363.941406 279.589844 372.554688 C 278.742188 381.164062 288.371094 389.769531 292.761719 397.707031 C 297.15625 405.644531 302.054688 427.417969 306.109375 435.855469 C 310.164062 444.300781 315.910156 459.492188 313.882812 468.941406 C 311.855469 478.398438 306.449219 497.8125 314.050781 495.28125 "/>
<path style=" stroke:none;fill-rule:nonzero;fill:rgb(11.369324%,11.369324%,10.5896%);fill-opacity:1;" d="M 269.960938 332.882812 C 269.960938 332.882812 268.4375 351.28125 275.195312 347.566406 C 281.953125 343.855469 279.925781 335.917969 288.035156 335.414062 C 296.144531 334.910156 299.691406 338.621094 306.785156 335.582031 C 313.882812 332.542969 302.734375 317.519531 298.507812 307.394531 C 294.285156 297.261719 282.292969 270.421875 281.277344 260.292969 C 280.265625 250.164062 280.601562 223.152344 281.109375 218.933594 C 281.613281 214.710938 281.785156 211.503906 277.390625 211.167969 C 273 210.828125 269.621094 217.582031 266.074219 218.765625 C 262.523438 219.945312 257.121094 214.542969 250.871094 216.0625 C 244.617188 217.582031 246.308594 225.515625 253.0625 234.800781 C 259.820312 244.085938 265.90625 263.332031 268.269531 279.875 C 270.632812 296.417969 269.960938 332.882812 269.960938 332.882812 "/>
<path style=" stroke:none;fill-rule:nonzero;fill:rgb(11.369324%,11.369324%,10.5896%);fill-opacity:1;" d="M 263.03125 210.660156 C 267.566406 210.28125 272.492188 205.765625 277.730469 206.945312 C 282.964844 208.128906 281.109375 196.988281 278.742188 189.898438 C 276.378906 182.804688 263.875 156.808594 264.214844 143.476562 C 264.554688 130.136719 267.085938 109.710938 260.160156 110.554688 C 253.234375 111.398438 252.558594 117.140625 248.671875 117.476562 C 244.785156 117.8125 242.253906 112.242188 236.679688 113.257812 C 231.101562 114.269531 238.875 125.242188 242.253906 133.683594 C 245.632812 142.121094 248.167969 164.914062 248.167969 179.261719 C 248.167969 193.609375 240.902344 208.972656 247.488281 210.660156 C 254.078125 212.347656 258.980469 211 263.03125 210.660156 "/>
<path style=" stroke:none;fill-rule:nonzero;fill:rgb(11.369324%,11.369324%,10.5896%);fill-opacity:1;" d="M 239.042969 105.320312 C 239.042969 105.320312 242.761719 111.90625 249.011719 110.722656 C 255.261719 109.542969 256.78125 102.621094 259.652344 102.621094 C 262.523438 102.621094 264.214844 97.390625 260.667969 93 C 257.121094 88.609375 250.53125 82.367188 249.519531 75.269531 C 248.503906 68.183594 246.816406 56.53125 246.308594 54.679688 C 245.800781 52.824219 244.449219 44.042969 237.523438 45.726562 C 230.597656 47.421875 231.78125 53.5 235.496094 64.128906 C 239.210938 74.769531 239.042969 82.191406 237.183594 88.945312 C 235.328125 95.695312 235.664062 102.789062 239.042969 105.320312 "/>
<path style=" stroke:none;fill-rule:nonzero;fill:rgb(11.369324%,11.369324%,10.5896%);fill-opacity:1;" d="M 268.777344 490.214844 C 268.777344 490.214844 270.632812 522.796875 295.132812 512.839844 C 319.628906 502.878906 297.15625 477.050781 297.15625 477.050781 C 297.15625 477.050781 280.769531 459.324219 272.660156 438.898438 C 264.554688 418.472656 262.695312 392.136719 261.511719 384.03125 C 260.332031 375.929688 259.484375 366.308594 250.871094 362.425781 C 242.253906 358.539062 232.960938 358.539062 228.570312 368.164062 C 224.175781 377.789062 228.910156 393.320312 243.605469 415.265625 C 258.300781 437.210938 263.875 455.441406 266.917969 466.414062 C 269.960938 477.386719 268.777344 490.214844 268.777344 490.214844 "/>
<path style=" stroke:none;fill-rule:nonzero;fill:rgb(11.369324%,11.369324%,10.5896%);fill-opacity:1;" d="M 233.300781 355.164062 C 236.980469 353.328125 244.28125 353.816406 251.039062 354.828125 C 257.796875 355.839844 253.402344 347.230469 248.503906 342.84375 C 243.605469 338.453125 232.285156 316.84375 228.230469 302.832031 C 224.175781 288.824219 222.824219 274.136719 222.996094 269.746094 C 223.164062 265.355469 219.449219 263.332031 215.5625 264.851562 C 211.675781 266.371094 212.351562 269.578125 209.988281 270.757812 C 207.621094 271.941406 202.722656 269.746094 199.003906 271.097656 C 195.289062 272.449219 200.527344 282.742188 206.945312 295.238281 C 213.363281 307.730469 217.082031 326.46875 218.433594 338.792969 C 219.785156 351.113281 214.546875 366.136719 222.316406 364.789062 C 230.089844 363.4375 229.246094 357.191406 233.300781 355.164062 "/>
<path style=" stroke:none;fill-rule:nonzero;fill:rgb(11.369324%,11.369324%,10.5896%);fill-opacity:1;" d="M 193.765625 265.695312 C 193.765625 265.695312 206.777344 269.914062 210.324219 264.851562 C 213.875 259.785156 216.238281 257.929688 219.109375 258.605469 C 221.980469 259.28125 220.460938 248.8125 216.238281 245.605469 C 212.011719 242.398438 206.269531 226.867188 204.242188 218.257812 C 202.214844 209.648438 201.203125 204.078125 202.042969 198.84375 C 202.890625 193.609375 195.964844 194.117188 192.585938 195.636719 C 189.207031 197.15625 178.058594 196.480469 184.136719 210.324219 C 190.222656 224.167969 194.78125 237.164062 194.78125 244.59375 C 194.78125 252.023438 190.726562 262.996094 193.765625 265.695312 "/>
<path style=" stroke:none;fill-rule:nonzero;fill:rgb(11.369324%,11.369324%,10.5896%);fill-opacity:1;" d="M 181.433594 182.300781 C 181.433594 182.300781 178.394531 195.804688 188.023438 193.949219 C 197.65625 192.089844 200.355469 192.257812 201.539062 192.257812 C 202.722656 192.257812 202.890625 186.519531 200.695312 182.300781 C 198.5 178.082031 188.699219 169.640625 188.53125 161.03125 C 188.359375 152.421875 192.078125 140.773438 184.984375 139.253906 C 177.890625 137.734375 175.1875 144.65625 178.058594 150.734375 C 180.929688 156.808594 183.125 168.796875 182.957031 172.339844 C 182.785156 175.886719 181.433594 182.300781 181.433594 182.300781 "/>
</g>
</svg>
