<?xml version="1.0" encoding="UTF-8"?>
<svg xmlns="http://www.w3.org/2000/svg" xmlns:xlink="http://www.w3.org/1999/xlink" width="375pt" height="374.999991pt" viewBox="0 0 375 374.999991" version="1.2">
<defs>
<clipPath id="clip1">
  <path d="M 37.5 146 L 74 146 L 74 183 L 37.5 183 Z M 37.5 146 "/>
</clipPath>
<clipPath id="clip2">
  <path d="M 189 7.730469 L 226 7.730469 L 226 150 L 189 150 Z M 189 7.730469 "/>
</clipPath>
<clipPath id="clip3">
  <path d="M 230 33 L 324 33 L 324 179.226562 L 230 179.226562 Z M 230 33 "/>
</clipPath>
<clipPath id="clip4">
  <path d="M 161.082031 298 L 210.875 298 L 210.875 375 L 161.082031 375 Z M 161.082031 298 "/>
</clipPath>
</defs>
<g id="surface1">
<path style=" stroke:none;fill-rule:nonzero;fill:rgb(25.489807%,25.489807%,25.489807%);fill-opacity:1;" d="M 220.226562 369.917969 C 220.160156 369.75 197.957031 309.242188 226.613281 306.496094 L 226.613281 306.492188 C 235.910156 305.5625 241.050781 305.6875 244.285156 316.023438 C 246.714844 323.792969 247.394531 338.640625 247.976562 367.378906 L 248.058594 371.347656 L 244.078125 371.566406 L 224.296875 372.644531 L 221.265625 372.808594 L 220.226562 369.917969 "/>
<path style=" stroke:none;fill-rule:nonzero;fill:rgb(25.489807%,25.489807%,25.489807%);fill-opacity:1;" d="M 174.617188 258.066406 C 174.71875 258.027344 211.472656 244.074219 238.402344 267.042969 L 238.582031 267.203125 C 238.644531 267.265625 261.523438 288.734375 233.410156 297.109375 L 233.390625 297.109375 C 224.9375 299.601562 212.363281 301.195312 199.585938 300.015625 C 189.53125 299.085938 179.285156 296.445312 170.675781 291.183594 L 170.445312 291.042969 C 170.367188 290.988281 142.503906 271.757812 174.4375 258.148438 L 174.617188 258.066406 "/>
<path style=" stroke:none;fill-rule:nonzero;fill:rgb(25.489807%,25.489807%,25.489807%);fill-opacity:1;" d="M 260.023438 218.972656 C 263.691406 212.472656 268.097656 206.457031 273.097656 201.945312 L 273.164062 201.898438 C 275.722656 199.6875 278.949219 196.335938 280.792969 192.824219 C 281.851562 190.800781 282.410156 188.804688 281.914062 187.203125 C 281.398438 185.558594 279.957031 184.503906 278.191406 183.816406 C 275.859375 182.921875 272.992188 182.625 270.464844 182.566406 C 268.460938 182.515625 266.59375 182.597656 264.960938 183.015625 C 263.554688 183.378906 262.253906 184.03125 261.078125 185.15625 C 259.246094 186.90625 258.230469 189.519531 257.679688 192.339844 C 257.050781 195.542969 257.03125 198.972656 257.152344 201.898438 C 257.25 204.226562 256.570312 207.101562 255.566406 209.972656 C 254.261719 213.699219 252.371094 217.585938 251.089844 219.945312 C 250.101562 221.761719 249.03125 223.582031 247.894531 225.300781 C 246.71875 227.082031 245.429688 228.824219 244.023438 230.460938 C 243.574219 230.984375 242.589844 232.054688 241.578125 232.988281 C 240.824219 233.683594 239.980469 234.367188 239.15625 234.847656 L 235.015625 237.292969 L 233.25 232.820312 C 233.0625 232.351562 232.902344 231.78125 232.773438 231.230469 C 232.613281 230.527344 232.511719 229.886719 232.472656 229.53125 C 232.273438 227.871094 232.28125 226.128906 232.410156 224.410156 C 232.53125 222.757812 232.757812 221.160156 233.015625 219.703125 C 234.039062 213.863281 235.914062 207.808594 238.171875 201.894531 C 240.367188 196.171875 242.992188 190.457031 245.5625 185.210938 L 245.628906 185.082031 C 246.066406 184.265625 246.636719 183.609375 247.0625 183.121094 L 247.070312 183.128906 L 247.203125 182.972656 L 247.800781 182.28125 C 248.394531 181.597656 248.988281 180.914062 249.398438 180.394531 C 250.152344 179.445312 250.835938 178.4375 251.292969 177.410156 C 251.648438 176.617188 251.855469 175.804688 251.800781 175.003906 C 251.675781 173.160156 250.1875 171.808594 248.253906 170.796875 C 245.652344 169.441406 242.238281 168.671875 239.472656 168.179688 C 238.367188 167.980469 237.414062 167.753906 236.484375 167.535156 C 234.25 167.003906 232.175781 166.511719 230.039062 167.175781 C 227.074219 168.105469 225.917969 171.257812 225.585938 174.816406 C 225.160156 179.34375 226.039062 184.621094 226.632812 188.015625 C 227.578125 193.46875 227.175781 201.613281 225.484375 209.523438 C 223.988281 216.503906 221.457031 223.449219 217.921875 228.433594 L 213.246094 235.03125 L 210.679688 227.355469 C 210.371094 226.4375 210.113281 225.550781 209.902344 224.757812 C 209.601562 223.621094 209.386719 222.664062 209.265625 222.046875 C 208.769531 219.503906 208.441406 216.90625 208.234375 214.3125 C 208.039062 211.890625 207.953125 209.308594 207.925781 206.695312 C 207.882812 202.738281 208.003906 198.835938 208.242188 195.003906 C 208.480469 191.089844 208.839844 187.214844 209.261719 183.402344 L 210.359375 181.03125 C 212.871094 178.367188 215.488281 174.847656 216.992188 171.230469 C 218.015625 168.773438 218.492188 166.328125 217.949219 164.265625 C 217.644531 163.121094 217.085938 162.144531 216.328125 161.328125 C 215.429688 160.347656 214.203125 159.539062 212.769531 158.894531 C 210.175781 157.722656 207.25 156.628906 204.316406 156.066406 C 201.628906 155.550781 198.929688 155.476562 196.527344 156.238281 C 194.402344 156.910156 192.871094 158.105469 191.792969 159.59375 C 190.402344 161.523438 189.65625 164.050781 189.351562 166.699219 C 189.082031 169.011719 189.441406 171.597656 190.28125 174.09375 C 191.148438 176.671875 192.519531 179.125 194.238281 181.054688 L 195.265625 183.457031 C 195.597656 187.335938 195.847656 191.457031 196.015625 195.746094 C 196.164062 199.808594 196.226562 203.910156 196.191406 207.972656 C 196.167969 210.550781 196.113281 213.140625 195.96875 215.605469 C 195.820312 218.1875 195.570312 220.804688 195.167969 223.410156 C 195.070312 224.046875 194.886719 225.097656 194.683594 226.03125 C 194.527344 226.746094 194.324219 227.566406 194.074219 228.425781 L 186.363281 228.910156 C 186 228.089844 185.558594 227.023438 185.054688 225.792969 C 184.53125 224.503906 184.132812 223.515625 183.828125 222.71875 C 182.328125 218.875 180.957031 214.976562 179.789062 211.089844 C 178.613281 207.160156 177.613281 203.136719 176.867188 199.054688 C 176.246094 195.660156 175.757812 191.976562 175.640625 188.253906 C 175.523438 184.421875 175.785156 180.558594 176.679688 176.953125 L 176.984375 176.117188 C 177.726562 174.621094 178.332031 172.882812 178.722656 171.125 C 179.09375 169.476562 179.273438 167.820312 179.195312 166.375 C 179.015625 162.972656 177.597656 160.609375 175.460938 159.070312 C 172.539062 156.964844 168.226562 156.09375 163.621094 156.089844 L 163.449219 156.089844 L 162.746094 156.058594 C 161.636719 156.007812 160.632812 155.96875 159.429688 156.070312 C 158.210938 156.175781 157.058594 156.402344 156.0625 156.789062 C 155.257812 157.09375 154.503906 157.53125 153.835938 158.125 C 151.433594 160.234375 151.402344 163.648438 152.308594 167.167969 C 153.449219 171.558594 155.996094 176.09375 157.898438 179.238281 C 160.058594 182.800781 161.867188 187.121094 163.335938 191.558594 C 165.144531 197.039062 166.480469 202.773438 167.324219 207.503906 C 167.957031 211.046875 168.484375 214.921875 168.722656 218.890625 C 168.964844 222.894531 168.90625 226.917969 168.347656 230.679688 C 168.148438 232.054688 167.65625 233.378906 167.214844 234.578125 C 167.046875 235.03125 166.9375 235.316406 166.902344 235.410156 C 166.515625 236.519531 166.179688 237.617188 166.023438 238.636719 C 165.890625 239.480469 165.875 240.320312 166.066406 241.140625 C 166.320312 242.25 166.929688 243.144531 167.746094 243.855469 C 168.96875 244.917969 170.664062 245.667969 172.5 246.203125 C 175.394531 247.042969 178.890625 247.472656 182.457031 247.667969 C 186.203125 247.882812 189.949219 247.839844 193.210938 247.753906 L 193.335938 247.753906 C 196.460938 247.789062 199.542969 247.871094 202.542969 247.992188 C 205.773438 248.125 208.84375 248.296875 211.722656 248.507812 C 213.140625 248.609375 214.683594 248.734375 216.453125 248.910156 C 218.148438 249.078125 219.757812 249.261719 221.234375 249.472656 C 222.117188 249.601562 223.199219 249.753906 224.292969 249.972656 C 225.527344 250.210938 226.773438 250.523438 227.824219 250.933594 L 228.015625 251.015625 C 231.136719 252.433594 235.277344 253.742188 239.257812 254.050781 C 242.019531 254.265625 244.640625 253.992188 246.589844 252.898438 C 248.0625 252.074219 249.003906 250.929688 249.558594 249.636719 L 249.558594 249.621094 C 250.339844 247.792969 250.488281 245.59375 250.289062 243.398438 L 250.417969 241.902344 C 252.484375 234.71875 255.757812 226.527344 260.023438 218.972656 "/>
<g clip-path="url(#clip1)" clip-rule="nonzero">
<path style=" stroke:none;fill-rule:evenodd;fill:rgb(25.489807%,25.489807%,25.489807%);fill-opacity:1;" d="M 37.492188 156.933594 C 37.496094 157.09375 37.5 157.257812 37.511719 157.425781 C 37.515625 157.503906 37.519531 157.582031 37.519531 157.660156 C 37.523438 157.828125 37.53125 158 37.539062 158.164062 L 37.570312 158.859375 C 37.601562 159.617188 37.722656 160.378906 37.910156 161.113281 C 38.09375 161.824219 38.355469 162.515625 38.6875 163.167969 C 40.304688 166.308594 42.085938 169.410156 44.167969 172.261719 C 46.296875 175.167969 48.859375 177.984375 51.90625 179.941406 C 54.339844 181.503906 57.175781 182.503906 60.078125 182.535156 C 62.855469 182.566406 65.4375 181.726562 67.675781 180.078125 C 68.265625 179.640625 68.816406 179.160156 69.320312 178.628906 C 69.835938 178.101562 70.296875 177.519531 70.714844 176.914062 C 71.566406 175.664062 72.214844 174.253906 72.609375 172.792969 C 72.988281 171.375 73.140625 169.886719 72.992188 168.429688 C 72.445312 163.105469 68.074219 159.359375 64.316406 156.039062 C 63.347656 155.183594 62.371094 154.328125 61.445312 153.417969 C 60.171875 152.167969 58.835938 150.972656 57.398438 149.90625 C 55.925781 148.816406 54.316406 147.839844 52.59375 147.183594 C 50.769531 146.484375 48.789062 146.152344 46.839844 146.359375 C 44.972656 146.550781 43.246094 147.226562 41.746094 148.363281 C 40.597656 149.234375 39.675781 150.328125 38.984375 151.597656 C 38.265625 152.910156 37.824219 154.367188 37.632812 155.851562 L 37.550781 156.535156 C 37.53125 156.667969 37.507812 156.800781 37.492188 156.933594 "/>
</g>
<path style=" stroke:none;fill-rule:nonzero;fill:rgb(25.489807%,25.489807%,25.489807%);fill-opacity:1;" d="M 169.089844 94.507812 C 168.734375 94.257812 168.371094 94.035156 168.003906 93.851562 L 165 92.339844 L 165.859375 89.113281 C 166.214844 87.789062 166.195312 86.503906 165.804688 85.304688 C 165.390625 84.023438 164.554688 82.777344 163.308594 81.621094 C 163.0625 81.398438 162.570312 81.023438 162.09375 80.652344 C 161.679688 80.339844 161.269531 80.023438 160.921875 79.730469 L 159.570312 77.523438 C 159.140625 75.734375 159.085938 73.007812 159.039062 70.785156 C 159.023438 69.96875 159.011719 69.246094 158.957031 68.585938 L 158.894531 67.800781 C 158.640625 64.679688 158.195312 59.265625 159.550781 56.042969 C 159.714844 55.660156 159.878906 55.25 160.09375 54.683594 C 160.230469 54.320312 160.363281 53.921875 160.496094 53.460938 C 160.90625 52.011719 161.015625 50.582031 160.734375 49.277344 C 160.507812 48.183594 159.976562 47.144531 159.09375 46.230469 L 158.976562 46.113281 L 158.84375 45.984375 L 156 43.300781 L 158.523438 40.328125 C 159.074219 39.675781 159.492188 38.972656 159.722656 38.238281 C 159.921875 37.601562 159.984375 36.914062 159.886719 36.195312 C 159.761719 35.277344 159.378906 34.445312 158.835938 33.671875 C 158.1875 32.75 157.289062 31.894531 156.285156 31.082031 C 156.03125 30.878906 155.785156 30.695312 155.535156 30.507812 C 155.175781 30.246094 154.8125 29.972656 154.429688 29.664062 L 152.96875 27.171875 C 152.742188 25.890625 152.757812 23.933594 152.769531 22.222656 C 152.773438 21.421875 152.78125 20.691406 152.738281 20.183594 C 152.617188 18.625 152.085938 17.0625 151.210938 15.71875 C 150.402344 14.484375 149.292969 13.429688 147.933594 12.734375 C 146.945312 12.234375 145.898438 11.949219 144.847656 11.878906 C 143.71875 11.804688 142.570312 11.960938 141.460938 12.332031 C 139.128906 13.109375 137.765625 14.414062 137.09375 15.96875 C 136.128906 18.195312 136.285156 21.148438 136.976562 24.078125 C 137.121094 24.679688 137.28125 25.214844 137.441406 25.777344 C 137.667969 26.539062 137.902344 27.320312 138.027344 27.796875 L 138.605469 30.066406 L 136.929688 31.726562 C 136.585938 32.066406 136.289062 32.378906 136.050781 32.703125 C 135.855469 32.972656 135.671875 33.304688 135.503906 33.761719 C 134.953125 35.222656 134.710938 36.6875 134.882812 38.039062 C 135.027344 39.148438 135.472656 40.230469 136.292969 41.226562 C 136.316406 41.253906 136.308594 41.238281 136.402344 41.34375 L 136.402344 41.363281 C 136.457031 41.429688 136.378906 41.332031 136.507812 41.476562 L 139.019531 44.238281 L 136.507812 47.003906 C 135.648438 47.949219 135.128906 49.105469 134.996094 50.386719 C 134.851562 51.769531 135.144531 53.347656 135.914062 55.039062 C 136.269531 55.820312 136.75 56.664062 137.316406 57.515625 C 137.875 58.359375 138.511719 59.191406 139.179688 59.941406 L 139.597656 60.503906 L 139.945312 61.101562 L 139.960938 61.101562 C 140 61.167969 140.113281 61.363281 140.296875 61.703125 C 141.242188 63.429688 142.488281 66.503906 143.277344 69.449219 C 143.949219 71.957031 144.332031 74.53125 144.039062 76.5 L 143.71875 77.59375 C 143.441406 78.210938 143.222656 78.832031 143.007812 79.441406 C 142.667969 80.417969 142.332031 81.375 141.855469 82.339844 L 141.839844 82.386719 C 140.871094 84.289062 140.242188 86.285156 140.316406 88.097656 C 140.367188 89.398438 140.8125 90.671875 141.816406 91.804688 L 141.964844 91.960938 L 141.980469 91.976562 C 142.050781 92.050781 142.101562 92.105469 142.132812 92.140625 L 145.023438 94.996094 L 142.183594 97.917969 C 142 98.113281 141.851562 98.277344 141.746094 98.410156 C 140.714844 99.714844 140.4375 101.328125 140.796875 103 C 141.238281 105.058594 142.574219 107.234375 144.632812 109.234375 C 145.152344 109.742188 145.683594 110.210938 146.214844 110.628906 L 147.148438 111.660156 C 148.523438 113.847656 149.746094 117.726562 150.523438 121.5625 C 151.339844 125.554688 151.695312 129.734375 151.261719 132.082031 L 150.90625 133.160156 C 150.492188 133.992188 150.171875 134.761719 149.847656 135.53125 C 149.394531 136.617188 148.9375 137.695312 148.421875 138.699219 C 147.355469 140.757812 146.609375 142.960938 146.660156 144.964844 C 146.695312 146.339844 147.136719 147.675781 148.195312 148.859375 C 149.691406 150.539062 151.945312 151.320312 154.414062 151.605469 C 157.316406 151.933594 160.527344 151.582031 163.359375 151.089844 C 165.410156 150.734375 167.492188 150.28125 169.503906 149.757812 C 171.578125 149.222656 173.636719 148.59375 175.574219 147.917969 L 175.589844 147.917969 L 176.667969 147.542969 L 177.21875 146.621094 C 178.558594 144.375 179.011719 142.234375 178.601562 140.347656 C 178.195312 138.460938 176.882812 136.667969 174.710938 135.136719 C 174.324219 134.863281 173.898438 134.609375 173.476562 134.355469 C 173.007812 134.074219 172.539062 133.792969 172.050781 133.46875 L 170.378906 131.148438 C 169.832031 129.171875 169.71875 125.910156 169.628906 123.300781 C 169.59375 122.253906 169.5625 121.332031 169.511719 120.804688 L 169.421875 119.929688 C 169.039062 116.097656 168.417969 109.933594 170.152344 106.023438 L 170.167969 106.023438 C 170.394531 105.511719 170.617188 105.003906 170.851562 104.417969 C 171.011719 104.007812 171.179688 103.542969 171.351562 102.964844 C 171.820312 101.414062 171.96875 99.863281 171.691406 98.457031 C 171.46875 97.332031 170.941406 96.261719 170.027344 95.324219 C 169.722656 95.011719 169.40625 94.738281 169.089844 94.507812 "/>
<g clip-path="url(#clip2)" clip-rule="nonzero">
<path style=" stroke:none;fill-rule:nonzero;fill:rgb(25.489807%,25.489807%,25.489807%);fill-opacity:1;" d="M 195.902344 85.441406 C 196.117188 85.746094 196.34375 86.015625 196.582031 86.261719 L 201.054688 90.882812 L 194.988281 93.015625 C 193.289062 93.609375 191.996094 94.394531 191.09375 95.308594 C 190.234375 96.171875 189.71875 97.167969 189.53125 98.226562 C 189.320312 99.390625 189.46875 100.691406 189.945312 102.054688 C 190.601562 103.921875 191.867188 105.851562 193.6875 107.660156 L 194.527344 108.867188 C 195.601562 111.21875 196.277344 115.203125 196.511719 119.0625 C 196.757812 123.117188 196.523438 127.316406 195.757812 129.589844 L 195.273438 130.589844 C 194.757812 131.359375 194.378906 131.988281 194.003906 132.613281 C 193.355469 133.683594 192.714844 134.753906 192.015625 135.722656 C 190.65625 137.597656 189.585938 139.675781 189.324219 141.664062 C 189.144531 143.023438 189.371094 144.386719 190.207031 145.660156 C 191.421875 147.503906 193.53125 148.558594 195.925781 149.148438 C 198.789062 149.847656 202.058594 149.898438 204.957031 149.769531 C 207.03125 149.679688 209.199219 149.496094 211.335938 149.222656 C 213.4375 148.957031 215.574219 148.601562 217.609375 148.171875 L 218.769531 147.925781 L 219.464844 147.058594 C 221.136719 144.972656 221.894531 142.914062 221.757812 141.015625 C 221.625 139.113281 220.578125 137.195312 218.644531 135.390625 C 218.351562 135.113281 217.960938 134.796875 217.570312 134.484375 C 217.089844 134.097656 216.609375 133.707031 216.230469 133.367188 L 214.90625 130.871094 C 214.625 128.820312 214.96875 125.5 215.246094 122.894531 C 215.351562 121.855469 215.449219 120.941406 215.472656 120.453125 C 215.5 119.914062 215.503906 119.816406 215.511719 119.582031 C 215.679688 115.75 215.945312 109.511719 218.125 105.90625 C 218.453125 105.363281 218.765625 104.84375 219.027344 104.378906 C 219.316406 103.863281 219.566406 103.390625 219.746094 102.992188 C 220.421875 101.523438 220.792969 100.007812 220.714844 98.582031 C 220.652344 97.457031 220.285156 96.34375 219.519531 95.320312 C 219.410156 95.167969 219.300781 95.03125 219.195312 94.90625 C 219.089844 94.789062 218.964844 94.65625 218.824219 94.515625 L 216.128906 91.871094 L 218.53125 88.960938 C 219.667969 87.589844 220.292969 86.140625 220.382812 84.703125 C 220.480469 83.214844 220.054688 81.636719 219.085938 80.042969 C 218.875 79.691406 218.53125 79.238281 218.199219 78.789062 C 217.914062 78.414062 217.636719 78.042969 217.324219 77.578125 L 216.617188 75.070312 C 216.707031 73.25 217.4375 70.617188 218.035156 68.460938 C 218.269531 67.613281 218.480469 66.855469 218.59375 66.316406 L 218.597656 66.316406 L 218.757812 65.558594 C 219.40625 62.476562 220.535156 57.074219 222.707031 54.371094 C 223.089844 53.890625 223.4375 53.453125 223.632812 53.195312 C 223.839844 52.917969 224.078125 52.582031 224.375 52.109375 C 225.191406 50.816406 225.71875 49.46875 225.828125 48.144531 C 225.917969 47.050781 225.722656 45.9375 225.15625 44.875 C 224.976562 44.523438 224.769531 44.207031 224.546875 43.917969 C 224.308594 43.609375 224.046875 43.316406 223.75 43.039062 L 220.703125 40.136719 L 223.667969 37.15625 C 224.535156 36.285156 225 35.234375 225.125 34.101562 C 225.289062 32.636719 224.953125 30.992188 224.214844 29.328125 C 223.972656 28.765625 223.792969 28.414062 223.617188 28.070312 L 223.609375 28.074219 C 223.355469 27.585938 223.109375 27.097656 222.828125 26.464844 L 222.46875 25.117188 C 222.351562 23.65625 222.796875 21.398438 223.175781 19.457031 C 223.351562 18.550781 223.511719 17.722656 223.546875 17.421875 C 223.574219 17.15625 223.585938 16.828125 223.585938 16.441406 C 223.585938 14.351562 222.925781 12.265625 221.691406 10.65625 C 220.554688 9.175781 218.90625 8.113281 216.835938 7.890625 C 216.621094 7.867188 216.335938 7.855469 215.980469 7.855469 L 214.652344 7.855469 L 214.164062 7.914062 C 213.25 8.023438 212.402344 8.25 211.65625 8.597656 C 210.953125 8.917969 210.296875 9.359375 209.726562 9.914062 C 208.660156 10.941406 208.039062 12.207031 207.691406 13.578125 C 207.277344 15.21875 207.21875 17.027344 207.292969 18.824219 C 207.316406 19.308594 207.371094 19.910156 207.433594 20.542969 C 207.503906 21.277344 207.578125 22.035156 207.613281 22.65625 L 207.75 24.964844 L 205.808594 26.277344 C 205.429688 26.539062 205.085938 26.78125 204.785156 27.058594 C 204.550781 27.277344 204.3125 27.570312 204.039062 28.003906 L 204.023438 28.003906 C 203.160156 29.390625 202.582031 30.867188 202.460938 32.316406 C 202.367188 33.425781 202.566406 34.535156 203.148438 35.582031 L 204.777344 38.476562 L 202.265625 40.6875 C 201.425781 41.421875 200.800781 42.371094 200.441406 43.488281 C 200.054688 44.679688 199.953125 46.097656 200.183594 47.691406 C 200.316406 48.625 200.546875 49.601562 200.847656 50.542969 C 201.167969 51.542969 201.566406 52.53125 202.007812 53.414062 L 202.1875 53.785156 C 202.246094 53.9375 202.324219 54.160156 202.414062 54.425781 L 202.414062 54.441406 C 202.5 54.695312 202.570312 54.914062 202.625 55.085938 C 203.207031 57.0625 203.5625 60.230469 203.46875 63.207031 C 203.386719 65.886719 202.925781 68.578125 201.941406 70.488281 L 201.378906 71.308594 C 200.925781 71.832031 200.515625 72.394531 200.109375 72.953125 C 199.472656 73.824219 198.847656 74.683594 198.140625 75.4375 C 196.660156 77.027344 195.472656 78.816406 195.015625 80.625 C 194.691406 81.890625 194.746094 83.210938 195.371094 84.519531 L 195.371094 84.539062 C 195.519531 84.847656 195.699219 85.148438 195.902344 85.441406 "/>
</g>
<path style=" stroke:none;fill-rule:nonzero;fill:rgb(25.489807%,25.489807%,25.489807%);fill-opacity:1;" d="M 254.054688 149.195312 C 254.050781 149.203125 254.046875 149.203125 254.054688 149.199219 L 254.054688 149.195312 "/>
<g clip-path="url(#clip3)" clip-rule="nonzero">
<path style=" stroke:none;fill-rule:nonzero;fill:rgb(25.489807%,25.489807%,25.489807%);fill-opacity:1;" d="M 306.242188 141.183594 C 306.089844 140.65625 305.855469 140.136719 305.5625 139.636719 L 303.488281 136.105469 L 307.011719 134.011719 C 308.601562 133.070312 309.597656 131.882812 309.972656 130.59375 C 310.363281 129.277344 310.160156 127.714844 309.339844 126.050781 L 309.339844 126.035156 L 309.246094 125.855469 L 309.230469 125.855469 C 308.96875 125.359375 309.230469 125.828125 309.113281 125.613281 L 308.046875 123.703125 L 309.046875 121.75 C 309.554688 120.769531 310.070312 119.929688 310.558594 119.152344 C 310.917969 118.570312 311.261719 118.023438 311.421875 117.71875 L 311.425781 117.722656 L 311.578125 117.4375 C 312.453125 115.757812 314.457031 111.914062 316.449219 110.605469 L 317.511719 109.910156 L 317.511719 109.894531 C 317.796875 109.691406 318.078125 109.476562 318.355469 109.242188 C 319.296875 108.453125 320.03125 107.550781 320.4375 106.589844 C 320.769531 105.8125 320.894531 104.964844 320.753906 104.082031 C 320.65625 103.496094 320.4375 102.929688 320.128906 102.398438 C 319.78125 101.804688 319.332031 101.273438 318.816406 100.785156 L 314.195312 96.480469 L 320.007812 93.992188 C 320.0625 93.96875 320.148438 93.929688 320.269531 93.871094 L 320.265625 93.863281 C 320.515625 93.75 320.46875 93.777344 320.53125 93.746094 C 322.320312 92.835938 323.351562 91.621094 323.765625 90.28125 C 324.273438 88.621094 323.976562 86.601562 323.085938 84.554688 C 322.878906 84.078125 322.664062 83.660156 322.449219 83.246094 C 322.144531 82.652344 321.847656 82.066406 321.679688 81.695312 L 321.324219 80.265625 C 321.234375 78.859375 321.675781 76.667969 322.0625 74.746094 C 322.234375 73.878906 322.398438 73.078125 322.445312 72.625 C 322.527344 71.851562 322.503906 71.058594 322.382812 70.269531 C 322.097656 68.40625 321.25 66.683594 319.984375 65.386719 C 318.761719 64.132812 317.140625 63.273438 315.242188 63.074219 L 315.226562 63.074219 C 314.511719 62.996094 313.722656 63.015625 312.875 63.144531 C 310.417969 63.519531 308.820312 64.59375 307.839844 66.042969 C 306.441406 68.109375 306.023438 71.046875 306.148438 74.035156 C 306.164062 74.5 306.222656 75.125 306.285156 75.765625 C 306.355469 76.503906 306.433594 77.273438 306.464844 77.832031 L 306.605469 80.183594 L 304.660156 81.492188 C 304.246094 81.773438 303.878906 82.027344 303.621094 82.269531 C 303.382812 82.496094 303.140625 82.78125 302.871094 83.207031 C 301.964844 84.652344 301.367188 86.171875 301.273438 87.636719 C 301.199219 88.785156 301.4375 89.929688 302.09375 90.996094 L 304.171875 94.359375 L 300.886719 96.566406 C 299.738281 97.34375 298.945312 98.539062 298.554688 99.96875 C 298.09375 101.640625 298.148438 103.625 298.769531 105.71875 L 298.929688 106.652344 C 299.011719 108.085938 298.859375 109.976562 298.492188 111.726562 C 298.144531 113.375 297.570312 115.015625 296.757812 116.273438 L 295.546875 117.5 C 295.421875 117.582031 294.980469 117.894531 294.539062 118.210938 C 293.96875 118.625 293.398438 119.03125 292.632812 119.480469 L 292.488281 119.5625 C 290.921875 120.40625 289.546875 121.457031 288.703125 122.6875 C 288.140625 123.503906 287.824219 124.441406 287.894531 125.488281 L 288.121094 128.875 L 284.832031 129.742188 C 283.558594 130.078125 282.433594 130.726562 281.5625 131.695312 C 280.691406 132.664062 280.035156 133.992188 279.664062 135.699219 C 279.476562 136.558594 279.371094 137.480469 279.34375 138.386719 C 279.3125 139.363281 279.367188 140.359375 279.5 141.292969 L 279.53125 141.746094 C 279.578125 143.242188 279.386719 144.714844 279.035156 146.113281 C 278.660156 147.570312 278.082031 149.027344 277.382812 150.386719 C 277.007812 151.125 276.351562 152.25 275.660156 153.21875 C 275.050781 154.070312 274.351562 154.90625 273.613281 155.511719 L 272.605469 156.136719 C 272.019531 156.386719 271.386719 156.714844 270.757812 157.042969 C 269.808594 157.527344 268.875 158.011719 267.761719 158.425781 C 267.011719 158.707031 266.257812 159.039062 265.515625 159.425781 C 264.914062 159.746094 264.324219 160.113281 263.769531 160.527344 L 257.265625 156.421875 C 257.414062 155.667969 257.449219 154.90625 257.371094 154.140625 C 257.285156 153.335938 257.070312 152.488281 256.730469 151.609375 C 256.484375 150.984375 256.125 150.34375 255.78125 149.714844 C 255.339844 148.929688 254.910156 148.160156 254.570312 147.335938 L 254.3125 146.449219 C 254.054688 144.972656 254.042969 143.226562 254.167969 141.492188 C 254.320312 139.402344 254.671875 137.261719 255.003906 135.703125 C 255.257812 134.523438 255.914062 132.042969 256.757812 129.945312 C 257.460938 128.203125 258.371094 126.585938 259.503906 125.609375 L 259.902344 125.304688 C 262.28125 123.734375 264.523438 121.710938 265.863281 119.421875 C 266.789062 117.828125 267.257812 116.089844 266.945312 114.285156 C 266.871094 113.855469 266.761719 113.457031 266.617188 113.089844 C 266.464844 112.699219 266.269531 112.316406 266.03125 111.9375 L 262.113281 105.734375 L 269.109375 105.640625 L 270.027344 104.863281 C 271.605469 103.527344 272.484375 102.058594 272.667969 100.613281 C 272.855469 99.152344 272.371094 97.550781 271.214844 95.96875 C 271.046875 95.738281 270.816406 95.464844 270.59375 95.195312 L 270.519531 95.109375 L 269.257812 93.605469 L 269.617188 91.710938 C 269.847656 90.503906 270.253906 89.21875 270.617188 88.054688 C 270.820312 87.410156 271.007812 86.808594 271.113281 86.367188 L 271.117188 86.367188 L 271.214844 85.949219 C 271.707031 83.84375 272.730469 79.460938 274.484375 77.519531 C 274.792969 77.179688 275.085938 76.855469 275.332031 76.558594 C 275.566406 76.273438 275.789062 75.992188 275.996094 75.703125 C 276.71875 74.671875 277.203125 73.582031 277.339844 72.511719 C 277.457031 71.628906 277.339844 70.722656 276.933594 69.835938 C 276.882812 69.726562 276.824219 69.609375 276.753906 69.488281 C 276.6875 69.363281 276.621094 69.25 276.550781 69.144531 L 274.441406 65.871094 L 277.613281 63.585938 C 278.863281 62.6875 279.566406 61.566406 279.820312 60.347656 C 280.140625 58.785156 279.828125 56.96875 279.027344 55.125 C 278.867188 54.753906 278.628906 54.292969 278.390625 53.832031 L 278.390625 53.816406 C 278.074219 53.199219 277.757812 52.582031 277.578125 52.175781 L 277.257812 50.886719 C 277.113281 49.351562 277.570312 47.046875 277.960938 45.105469 C 278.132812 44.242188 278.285156 43.464844 278.316406 43.195312 C 278.410156 42.367188 278.390625 41.539062 278.261719 40.71875 L 278.261719 40.703125 C 277.984375 38.871094 277.164062 37.179688 275.929688 35.898438 C 274.746094 34.675781 273.160156 33.824219 271.28125 33.613281 C 270.523438 33.523438 269.695312 33.542969 268.804688 33.675781 C 266.351562 34.054688 264.753906 35.125 263.773438 36.574219 C 262.378906 38.640625 261.960938 41.574219 262.085938 44.558594 C 262.105469 45.023438 262.164062 45.640625 262.226562 46.285156 C 262.296875 47.015625 262.367188 47.769531 262.398438 48.328125 L 262.539062 50.667969 L 260.578125 51.980469 C 260.183594 52.25 259.832031 52.5 259.53125 52.78125 C 259.269531 53.023438 259.015625 53.320312 258.75 53.734375 C 257.914062 55.046875 257.339844 56.441406 257.179688 57.8125 C 257.054688 58.882812 257.195312 59.949219 257.683594 60.953125 L 259.144531 63.964844 L 256.476562 66.011719 C 255.648438 66.644531 255.027344 67.472656 254.6875 68.445312 C 254.328125 69.457031 254.246094 70.695312 254.496094 72.128906 C 254.628906 72.871094 254.832031 73.617188 255.078125 74.316406 C 255.355469 75.078125 255.695312 75.832031 256.078125 76.523438 L 256.304688 77.007812 C 256.953125 78.640625 257.292969 80.878906 257.261719 83.003906 C 257.234375 85.105469 256.847656 87.261719 256.058594 88.875 L 255.464844 89.789062 L 252.757812 92.867188 C 251.632812 94.148438 250.757812 95.535156 250.367188 96.925781 C 250.089844 97.929688 250.066406 98.960938 250.410156 99.964844 L 251.917969 104.277344 L 247.464844 105.328125 C 246.386719 105.585938 245.363281 105.929688 244.445312 106.355469 C 243.601562 106.753906 242.804688 107.234375 242.089844 107.816406 C 240.003906 109.492188 239.011719 111.523438 238.847656 113.597656 C 238.644531 116.179688 239.621094 118.945312 241.351562 121.367188 L 242.109375 124.027344 C 241.90625 127.074219 241.480469 131.472656 240.820312 135.230469 C 240.296875 138.226562 239.582031 140.964844 238.632812 142.699219 L 236.570312 144.546875 C 235.070312 145.160156 233.714844 146 232.636719 147.050781 L 232.628906 147.042969 C 231.71875 147.9375 231.011719 148.992188 230.601562 150.199219 C 230.171875 151.445312 230.113281 152.757812 230.410156 153.988281 C 230.695312 155.203125 231.324219 156.34375 232.277344 157.277344 C 235.191406 160.136719 239.425781 162.5625 243.808594 163.4375 C 247.1875 164.105469 250.589844 163.816406 253.367188 161.984375 C 254.21875 161.421875 253.914062 161.617188 254.035156 161.535156 C 254.113281 161.484375 254.066406 161.546875 254.054688 161.566406 L 254.085938 161.542969 L 261.089844 164.730469 L 261.078125 164.929688 L 261.070312 164.929688 L 261.066406 165.050781 C 261.015625 166.828125 261.917969 168.4375 263.25 169.851562 C 264.925781 171.640625 267.269531 173.148438 269.496094 174.378906 C 270.984375 175.203125 272.59375 176.003906 274.230469 176.742188 C 275.835938 177.460938 277.511719 178.144531 279.179688 178.738281 L 280.316406 179.144531 L 281.445312 178.792969 C 283.996094 178.007812 285.738281 176.746094 286.617188 175.183594 C 287.484375 173.660156 287.59375 171.671875 286.90625 169.410156 C 286.855469 169.238281 286.707031 168.84375 286.5625 168.457031 C 286.507812 168.308594 286.457031 168.171875 286.335938 167.839844 L 285.65625 165.949219 L 286.71875 164.25 C 287.546875 162.933594 288.886719 161.382812 290.046875 160.03125 C 290.675781 159.296875 291.253906 158.628906 291.511719 158.277344 L 291.878906 157.785156 L 291.878906 157.78125 C 293.621094 155.414062 296.769531 151.136719 299.898438 149.726562 C 300.449219 149.484375 300.957031 149.25 301.34375 149.0625 C 301.769531 148.847656 302.183594 148.632812 302.5625 148.40625 L 302.558594 148.398438 C 303.839844 147.621094 304.898438 146.691406 305.582031 145.628906 C 306.136719 144.773438 306.457031 143.816406 306.464844 142.777344 C 306.46875 142.21875 306.386719 141.691406 306.242188 141.183594 "/>
</g>
<g clip-path="url(#clip4)" clip-rule="nonzero">
<path style=" stroke:none;fill-rule:nonzero;fill:rgb(25.489807%,25.489807%,25.489807%);fill-opacity:1;" d="M 165.222656 369.003906 C 164.066406 359.167969 161.707031 308.699219 161.699219 308.554688 L 161.699219 308.054688 C 163.394531 286.570312 204.851562 307.949219 204.972656 308.011719 L 205.777344 308.542969 C 222.453125 322.871094 191.554688 372.746094 191.472656 372.890625 L 190.082031 375.148438 L 187.476562 374.839844 L 168.828125 372.628906 L 165.597656 372.246094 L 165.222656 369.003906 "/>
</g>
<path style=" stroke:none;fill-rule:evenodd;fill:rgb(25.489807%,25.489807%,25.489807%);fill-opacity:1;" d="M 144.785156 236.296875 L 144.273438 235.789062 C 142.65625 234.144531 139.703125 231.261719 139.101562 229.113281 C 138.96875 228.636719 138.824219 228.171875 138.671875 227.699219 C 138.570312 227.382812 138.464844 227.0625 138.351562 226.746094 L 138.144531 226.253906 C 137.417969 224.542969 136.363281 222.96875 134.933594 221.765625 C 133.554688 220.601562 131.953125 219.878906 130.171875 219.589844 C 129.777344 219.527344 129.375 219.484375 128.980469 219.46875 L 127.761719 219.414062 L 127.035156 218.441406 C 126.371094 217.5625 125.570312 216.808594 124.65625 216.199219 C 123.058594 215.125 121.214844 214.539062 119.308594 214.328125 C 118.921875 214.285156 118.542969 214.257812 118.152344 214.242188 L 117.082031 214.207031 L 116.355469 213.425781 C 115.726562 212.746094 115.121094 212.03125 114.523438 211.328125 C 114.121094 210.851562 113.71875 210.359375 113.289062 209.90625 L 112.824219 209.414062 C 111.578125 208.117188 109.058594 205.59375 108.554688 203.929688 C 108.433594 203.527344 108.304688 203.121094 108.167969 202.722656 C 108.023438 202.304688 107.863281 201.894531 107.683594 201.492188 C 106.96875 199.859375 105.929688 198.378906 104.550781 197.246094 C 103.730469 196.570312 102.816406 196.039062 101.824219 195.664062 L 100.578125 195.195312 L 100.242188 193.902344 C 100.152344 193.554688 100.042969 193.214844 99.90625 192.882812 C 99.460938 191.796875 98.785156 190.855469 97.929688 190.050781 C 96.886719 189.0625 95.675781 188.390625 94.316406 187.953125 C 93.042969 187.550781 91.699219 187.375 90.371094 187.3125 L 88.960938 187.25 L 88.234375 186.371094 C 87.933594 186.007812 87.636719 185.640625 87.339844 185.269531 C 86.949219 184.777344 86.542969 184.257812 86.105469 183.800781 C 84.773438 182.394531 83.0625 181.300781 81.238281 180.644531 C 79.445312 180.003906 77.507812 179.761719 75.621094 180.046875 C 74.234375 180.257812 72.914062 180.726562 71.722656 181.46875 C 70.535156 182.207031 69.527344 183.183594 68.734375 184.332031 C 67.132812 186.644531 66.5625 189.089844 67.355469 191.824219 C 68.179688 194.660156 70.746094 197.117188 72.875 199.058594 L 72.890625 199.074219 C 73.074219 199.246094 73.394531 199.4375 73.605469 199.589844 L 74.582031 200.277344 L 74.683594 201.46875 C 74.734375 202.089844 74.875 202.679688 75.074219 203.265625 C 75.664062 204.976562 76.597656 206.5625 77.902344 207.820312 C 78.695312 208.585938 79.601562 209.203125 80.605469 209.652344 L 81.773438 210.1875 L 82.058594 211.433594 C 82.292969 212.476562 82.722656 213.453125 83.3125 214.34375 C 84.425781 216.023438 86.03125 217.308594 87.804688 218.238281 C 88.652344 218.6875 89.558594 219.058594 90.464844 219.375 C 91.460938 219.726562 92.480469 219.847656 93.492188 220.261719 L 93.769531 220.378906 C 93.777344 220.382812 93.789062 220.386719 93.808594 220.394531 L 95.992188 221.289062 L 95.90625 221.472656 C 96.839844 222.019531 97.753906 222.640625 98.558594 223.238281 C 99.238281 223.746094 99.992188 224.324219 100.585938 224.957031 L 100.828125 224.867188 L 101.050781 225.480469 L 101.125 225.566406 L 101.289062 226.078125 C 101.34375 226.238281 101.398438 226.402344 101.457031 226.566406 L 101.710938 227.257812 C 101.914062 227.792969 102.113281 228.34375 102.25 228.902344 L 102.492188 229.894531 C 103.007812 231.730469 103.847656 233.496094 105.117188 234.929688 C 106.0625 236 107.191406 236.835938 108.507812 237.386719 L 109.757812 237.914062 L 110.035156 239.230469 C 110.460938 241.257812 111.660156 242.902344 113.257812 244.179688 C 115.601562 246.039062 118.722656 246.976562 121.660156 247.253906 C 121.839844 247.269531 122.019531 247.285156 122.199219 247.300781 L 122.691406 247.335938 L 123.136719 247.554688 C 124.777344 248.363281 126.503906 249.707031 127.90625 250.875 C 129.265625 252.019531 130.988281 253.542969 132.015625 254.988281 L 132.292969 255.375 L 132.414062 255.832031 C 132.546875 256.339844 132.695312 256.84375 132.84375 257.34375 C 133.0625 258.0625 133.285156 258.789062 133.445312 259.515625 C 133.9375 261.8125 134.851562 264.109375 136.394531 265.90625 C 137.832031 267.589844 139.617188 268.644531 141.789062 269.089844 C 144.660156 269.683594 147.339844 269 149.851562 267.601562 C 152.109375 266.347656 154.121094 264.554688 155.902344 262.699219 C 157.039062 261.515625 158.125 260.277344 159.15625 259 C 160.195312 257.710938 161.171875 256.363281 162.09375 254.992188 L 162.886719 253.820312 L 163.285156 252.082031 L 163.074219 250.695312 C 162.652344 247.910156 161.472656 245.414062 159.273438 243.617188 C 157.050781 241.804688 154.269531 241.121094 151.4375 241.148438 C 151.140625 241.152344 150.839844 241.171875 150.535156 241.191406 L 149.328125 241.285156 L 148.488281 240.414062 C 147.710938 239.605469 146.96875 238.75 146.234375 237.910156 C 145.765625 237.363281 145.289062 236.816406 144.785156 236.296875 "/>
</g>
</svg>
