<?xml version="1.0" encoding="UTF-8"?>
<svg xmlns="http://www.w3.org/2000/svg" xmlns:xlink="http://www.w3.org/1999/xlink" width="768pt" height="767.999994pt" viewBox="0 0 768 767.999994" version="1.2">
<defs>
<clipPath id="clip1">
  <path d="M 8 82.558594 L 759 82.558594 L 759 685 L 8 685 Z M 8 82.558594 "/>
</clipPath>
</defs>
<g id="surface1">
<path style=" stroke:none;fill-rule:nonzero;fill:rgb(6.269836%,70.979309%,72.158813%);fill-opacity:1;" d="M 473.113281 222.109375 C 463.429688 220.601562 453.21875 221.144531 443.457031 221.417969 C 435.175781 221.65625 426.816406 221.550781 418.546875 222.078125 C 399.707031 223.285156 374.152344 225.9375 367.808594 244.679688 C 383.804688 238.476562 400.324219 234.363281 417.359375 232.339844 C 428.511719 231.101562 439.683594 230.851562 450.878906 231.585938 C 462.078125 232.320312 473.121094 234.027344 484.015625 236.710938 C 483.789062 229.703125 481.984375 223.570312 473.113281 222.109375 Z M 473.113281 222.109375 "/>
<path style=" stroke:none;fill-rule:nonzero;fill:rgb(6.269836%,70.979309%,72.158813%);fill-opacity:1;" d="M 374.453125 424.277344 C 374.453125 424.277344 374.511719 424.140625 374.453125 424.277344 Z M 374.453125 424.277344 "/>
<path style=" stroke:none;fill-rule:nonzero;fill:rgb(6.269836%,70.979309%,72.158813%);fill-opacity:1;" d="M 373.230469 425.40625 C 373.648438 425.070312 374.027344 424.695312 374.359375 424.277344 C 374.015625 424.683594 373.636719 425.0625 373.230469 425.40625 Z M 373.230469 425.40625 "/>
<path style=" stroke:none;fill-rule:nonzero;fill:rgb(6.269836%,70.979309%,72.158813%);fill-opacity:1;" d="M 733.628906 115.042969 C 725.121094 109.015625 714.050781 105.808594 704.066406 103.15625 C 690.238281 99.433594 676.683594 98.757812 662.332031 99.117188 C 638.964844 99.898438 615.765625 102.3125 592.738281 106.367188 C 574.558594 109.378906 556.441406 112.890625 538.292969 116.175781 C 559.589844 117.679688 580.960938 119.023438 602.167969 121.417969 C 640.269531 125.726562 683.011719 134.976562 720.554688 122.925781 C 724.699219 121.582031 732.015625 119.910156 735.8125 116.898438 C 735.136719 116.21875 734.40625 115.601562 733.628906 115.042969 Z M 733.628906 115.042969 "/>
<path style=" stroke:none;fill-rule:nonzero;fill:rgb(6.269836%,70.979309%,72.158813%);fill-opacity:1;" d="M 371.425781 122.757812 C 347.835938 119.175781 324.125 116.789062 300.292969 115.601562 C 276.046875 114.488281 252.207031 113.070312 228.246094 108.957031 C 216.089844 106.863281 203.695312 104.527344 191.316406 104.4375 C 184.613281 104.4375 176.722656 104.347656 170.878906 108.234375 C 162.234375 113.988281 163.109375 124.160156 168.90625 131.890625 C 178.996094 145.449219 198.394531 150.632812 214.480469 151.070312 C 235.851562 151.65625 256.753906 147.183594 277.582031 142.992188 C 316.527344 135.160156 356.003906 130.835938 395.535156 127.25 C 387.554688 125.449219 379.515625 123.953125 371.425781 122.757812 Z M 371.425781 122.757812 "/>
<path style=" stroke:none;fill-rule:nonzero;fill:rgb(6.269836%,70.979309%,72.158813%);fill-opacity:1;" d="M 432.976562 121.898438 C 428.351562 121.582031 425.085938 126.417969 423.382812 131.332031 C 425.167969 132.140625 426.78125 133.203125 428.226562 134.523438 C 429.671875 135.84375 430.878906 137.359375 431.847656 139.0625 C 435.972656 138.007812 439.84375 135.550781 441.140625 132.566406 C 443.082031 128.09375 437.253906 122.1875 432.976562 121.898438 Z M 432.976562 121.898438 "/>
<path style=" stroke:none;fill-rule:nonzero;fill:rgb(6.269836%,70.979309%,72.158813%);fill-opacity:1;" d="M 423.5625 168.289062 C 423.292969 167.339844 423.050781 166.378906 422.839844 165.429688 C 422.570312 167.792969 422.3125 170.203125 422.089844 172.390625 C 420.851562 184.863281 417.960938 196.074219 410.941406 206.003906 C 413.050781 205.824219 415.160156 205.671875 417.285156 205.550781 C 425.824219 205.054688 434.46875 204.84375 443.066406 204.753906 C 440.28125 190.980469 427.433594 181.398438 423.5625 168.289062 Z M 423.5625 168.289062 "/>
<path style=" stroke:none;fill-rule:nonzero;fill:rgb(83.529663%,89.7995%,89.7995%);fill-opacity:1;" d="M 618.339844 396.824219 C 618.105469 395.070312 617.605469 393.390625 616.835938 391.792969 C 614.457031 387.039062 611.515625 382.664062 608.007812 378.671875 C 599.671875 368.929688 590.605469 359.925781 580.808594 351.65625 C 570.148438 342.3125 558.671875 334.164062 547.675781 325.316406 C 538.640625 318.101562 529.859375 310.65625 521.292969 302.957031 C 515.792969 298.03125 510.554688 291.238281 503.429688 288.722656 C 502.441406 289.246094 501.394531 289.566406 500.28125 289.683594 C 477.238281 292.367188 475.3125 325.378906 476.90625 343.050781 C 479.226562 368.800781 490.101562 396.148438 518.398438 400.304688 C 527.4375 401.664062 536.066406 400.847656 545.132812 400.609375 C 556.441406 400.304688 567.722656 401.089844 579.019531 401.148438 C 586.308594 401.148438 593.582031 401.875 600.871094 401.753906 C 605.269531 401.753906 614.246094 402.460938 617.632812 398.738281 C 618.597656 397.804688 618.550781 398.242188 618.339844 396.824219 Z M 618.339844 396.824219 "/>
<path style=" stroke:none;fill-rule:nonzero;fill:rgb(73.329163%,73.728943%,73.329163%);fill-opacity:1;" d="M 679.320312 428.796875 C 660.449219 389.625 632.890625 354.96875 601.335938 325.242188 C 570.296875 295.96875 533.566406 268.710938 492.328125 255.933594 C 412.824219 231.421875 331.347656 267.175781 278.472656 327.804688 C 277.339844 329.179688 275.902344 330.0625 274.164062 330.457031 C 266.632812 337.128906 260.867188 345.371094 251.90625 350.40625 C 244.179688 354.742188 235.339844 357.003906 226.679688 358.527344 C 215.15625 360.542969 203.953125 364.265625 192.339844 366.058594 C 181.527344 367.777344 170.65625 369.066406 159.734375 369.929688 C 149.359375 370.761719 139.191406 372.34375 128.84375 373.367188 C 119.988281 374.242188 110.171875 374.585938 101.828125 370.894531 C 85.410156 363.601562 75.351562 345.28125 65.441406 331.253906 C 62.429688 327.082031 54.6875 315.613281 48.453125 316.472656 C 41.253906 317.453125 33.390625 326.386719 28.875 331.433594 C 23.707031 337.3125 23.390625 338.59375 29.519531 343.609375 C 36.539062 349.335938 43.601562 354.5625 49.703125 361.34375 C 71.539062 385.617188 73.347656 416.398438 71.691406 447.226562 C 75.683594 446.878906 79.65625 446.5 83.664062 446.351562 C 83.707031 445.882812 83.789062 445.421875 83.914062 444.96875 C 84.035156 444.515625 84.191406 444.074219 84.386719 443.648438 C 84.582031 443.222656 84.8125 442.8125 85.074219 442.425781 C 85.335938 442.035156 85.632812 441.671875 85.957031 441.332031 C 86.28125 440.996094 86.628906 440.683594 87.007812 440.402344 C 87.382812 440.121094 87.78125 439.875 88.195312 439.660156 C 88.613281 439.449219 89.046875 439.269531 89.496094 439.128906 C 89.941406 438.984375 90.398438 438.882812 90.863281 438.816406 C 98.542969 437.613281 105.261719 440.988281 112.460938 442.992188 C 122.039062 445.671875 131.84375 445.265625 141.675781 444.996094 C 155.230469 444.617188 168.574219 443.683594 182.085938 441.980469 C 209.539062 438.636719 240.398438 433.421875 267.117188 443.277344 C 277.386719 447.074219 286.558594 453.539062 291.738281 463.390625 C 296.710938 472.855469 299.960938 482.980469 303.441406 493.011719 C 309.121094 509.40625 316.273438 533.421875 337.855469 530.679688 C 339.171875 530.496094 340.457031 530.625 341.710938 531.070312 C 389.632812 531.945312 437.523438 530.226562 485.417969 529.007812 C 508.308594 528.433594 531.578125 526.972656 554.453125 528.210938 C 568.144531 528.949219 581.789062 530.257812 595.464844 531.085938 C 622.574219 532.714844 657.210938 534.988281 681.007812 519.335938 C 715.089844 497.082031 692.84375 456.929688 679.320312 428.796875 Z M 460.207031 498.695312 C 450.839844 506.695312 435.566406 506.875 423.925781 507.238281 C 410.285156 507.671875 396.730469 508.988281 383.261719 511.183594 C 367.945312 513.609375 350.898438 515.871094 336.46875 508.667969 C 336.039062 508.480469 335.625 508.253906 335.238281 507.992188 C 334.847656 507.726562 334.484375 507.433594 334.148438 507.101562 C 333.8125 506.773438 333.507812 506.414062 333.238281 506.03125 C 332.96875 505.644531 332.734375 505.238281 332.539062 504.808594 C 332.34375 504.382812 332.1875 503.9375 332.074219 503.480469 C 331.957031 503.023438 331.886719 502.5625 331.855469 502.09375 C 331.828125 501.621094 331.839844 501.152344 331.898438 500.6875 C 331.953125 500.21875 332.050781 499.761719 332.191406 499.3125 C 331.535156 499.027344 330.921875 498.667969 330.359375 498.230469 C 329.792969 497.792969 329.292969 497.289062 328.855469 496.722656 C 328.417969 496.15625 328.0625 495.542969 327.78125 494.882812 C 327.503906 494.222656 327.3125 493.539062 327.207031 492.832031 C 324.691406 477.765625 325.777344 462.503906 324.4375 447.300781 C 323.894531 441.0625 322.253906 434.765625 321.421875 428.511719 C 320.171875 419.726562 314.722656 394.882812 329.527344 395.0625 C 327.765625 391.023438 328.804688 386.113281 334.300781 384.9375 C 355.925781 380.296875 377.824219 378.910156 399.875 377.945312 C 414.46875 377.34375 435.703125 372.671875 447.539062 384.246094 C 457.496094 393.964844 458.941406 408.019531 460.550781 421.160156 C 462.164062 434.296875 466.789062 447.253906 468.472656 460.589844 C 470.070312 473.246094 470.855469 489.5625 460.207031 498.695312 Z M 630.691406 409.121094 C 620.902344 419.667969 604.574219 418.703125 591.367188 418.070312 C 582.03125 417.632812 572.675781 417.527344 563.339844 417.273438 C 552.796875 416.984375 542.390625 417.996094 531.925781 417.859375 C 517.84375 417.679688 503.535156 415.691406 491.515625 407.839844 C 468.683594 392.894531 459.769531 361.042969 459.996094 335.007812 C 460.222656 309.394531 468.324219 277.753906 497.570312 273.367188 C 498.488281 272.585938 499.535156 272.054688 500.710938 271.777344 C 501.882812 271.496094 503.054688 271.5 504.226562 271.785156 C 512.949219 273.546875 519.769531 278.671875 526.066406 284.742188 C 532.359375 290.816406 539.242188 296.796875 546.066406 302.566406 C 558.371094 312.917969 571.667969 322.035156 583.914062 332.414062 C 600.148438 346.171875 618.640625 361.207031 629.289062 379.980469 C 634.15625 388.570312 638.476562 400.683594 630.691406 409.121094 Z M 630.691406 409.121094 "/>
<path style=" stroke:none;fill-rule:nonzero;fill:rgb(6.269836%,70.979309%,72.158813%);fill-opacity:1;" d="M 451.667969 459.910156 C 449.90625 448.566406 445.929688 437.523438 444.496094 426.160156 C 443.445312 417.738281 443.835938 402.746094 436.605469 396.691406 C 432.089844 392.921875 426.273438 393.359375 420.746094 393.675781 C 411.394531 394.128906 402.042969 394.445312 392.691406 394.898438 C 374.992188 395.769531 357.148438 396.902344 339.78125 400.621094 C 339.011719 400.789062 338.234375 400.855469 337.449219 400.820312 C 337.660156 401.992188 337.652344 403.164062 337.425781 404.332031 C 337.195312 405.503906 336.761719 406.59375 336.121094 407.597656 L 336.121094 410.824219 C 336.289062 413.699219 336.527344 416.578125 336.875 419.457031 C 337.570312 425.394531 338.4375 431.304688 339.480469 437.191406 C 340.679688 443.75 341.34375 450.363281 341.46875 457.035156 C 341.710938 468.621094 341.832031 480.144531 343.726562 491.6875 C 343.871094 492.453125 343.898438 493.21875 343.820312 493.992188 C 355.867188 499.914062 371.363281 496.523438 383.941406 494.429688 C 394.957031 492.476562 406.054688 491.320312 417.238281 490.964844 C 426.394531 490.753906 441.035156 492.15625 448.941406 486.550781 C 455.6875 481.652344 452.675781 466.554688 451.667969 459.910156 Z M 411.546875 468.953125 C 411.546875 464.929688 411.230469 460.949219 410.808594 457.003906 C 400.429688 457.125 390.070312 457.953125 379.707031 458.3125 C 380.613281 461.660156 381.53125 465.003906 382.34375 468.363281 C 383.039062 469.074219 383.566406 469.890625 383.921875 470.816406 C 384.277344 471.746094 384.433594 472.703125 384.390625 473.699219 L 384.390625 478.21875 C 384.433594 478.761719 384.421875 479.304688 384.355469 479.847656 C 384.292969 480.386719 384.175781 480.917969 384.007812 481.4375 C 383.835938 481.957031 383.617188 482.453125 383.351562 482.929688 C 383.082031 483.40625 382.773438 483.851562 382.417969 484.265625 C 382.0625 484.679688 381.671875 485.054688 381.242188 485.390625 C 380.8125 485.730469 380.355469 486.023438 379.871094 486.269531 C 379.382812 486.515625 378.878906 486.714844 378.351562 486.859375 C 377.828125 487.007812 377.292969 487.101562 376.75 487.144531 C 376.203125 487.1875 375.660156 487.175781 375.121094 487.109375 C 374.578125 487.046875 374.046875 486.929688 373.53125 486.757812 C 373.011719 486.589844 372.515625 486.371094 372.039062 486.105469 C 371.5625 485.835938 371.117188 485.523438 370.703125 485.171875 C 370.289062 484.816406 369.914062 484.421875 369.578125 483.992188 C 369.238281 483.566406 368.949219 483.105469 368.699219 482.621094 C 368.453125 482.132812 368.257812 481.628906 368.109375 481.101562 C 367.960938 480.578125 367.867188 480.042969 367.824219 479.5 C 366.0625 468.425781 361.515625 455.390625 359.253906 443.546875 C 357.296875 433.257812 354.542969 419.230469 363.925781 411.726562 C 371.800781 405.429688 380.402344 417.285156 374.464844 424.234375 C 374.4375 424.285156 374.402344 424.328125 374.359375 424.367188 C 374.074219 424.957031 373.941406 425.582031 373.96875 426.238281 C 373.9375 428.472656 374.046875 430.703125 374.300781 432.925781 C 374.664062 435.941406 375.144531 438.953125 375.714844 441.875 C 386.484375 441.589844 397.207031 440.6875 407.960938 440.503906 C 406.238281 432.957031 404.074219 425.539062 401.46875 418.25 C 397.871094 408.15625 413.519531 402.703125 417.101562 412.765625 C 423.414062 430.425781 427.839844 448.761719 428.082031 467.59375 C 428.203125 478.261719 411.679688 479.574219 411.546875 468.890625 Z M 411.546875 468.953125 "/>
<path style=" stroke:none;fill-rule:nonzero;fill:rgb(99.21875%,74.508667%,6.269836%);fill-opacity:1;" d="M 739.9375 590.015625 C 738.886719 600.378906 735.796875 610.730469 728.898438 616.863281 C 716.972656 627.410156 702.4375 627.878906 687.621094 631.34375 C 665.902344 636.40625 642.769531 638.167969 620.601562 640.035156 C 599.0625 641.863281 577.476562 642.996094 555.839844 643.425781 C 470.777344 645.25 385.808594 638.769531 300.761719 639.28125 C 300.097656 640.105469 299.304688 640.78125 298.382812 641.300781 C 297.460938 641.820312 296.476562 642.152344 295.429688 642.296875 C 283.757812 644.195312 272.402344 639.675781 260.789062 640.230469 C 254.765625 640.535156 242.113281 645.972656 248.246094 653.792969 C 253.214844 660.121094 262.867188 663.316406 270.550781 664.519531 C 276.710938 665.5 283.050781 664.714844 289.285156 664.6875 C 297.132812 664.6875 304.976562 664.6875 312.824219 664.988281 C 361.664062 666.417969 410.355469 669.160156 459.242188 668.089844 C 483.699219 667.546875 508.144531 666.492188 532.570312 665.226562 C 556.425781 663.992188 580.3125 663.554688 604.152344 662.050781 C 627.519531 660.574219 650.875 659.207031 674.230469 657.949219 C 691.414062 657.03125 713.507812 655.480469 726.160156 642.070312 C 737.320312 630.136719 747.273438 605.941406 739.9375 590.015625 Z M 739.9375 590.015625 "/>
<g clip-path="url(#clip1)" clip-rule="nonzero">
<path style=" stroke:none;fill-rule:nonzero;fill:rgb(0%,0%,0%);fill-opacity:1;" d="M 735.242188 563.285156 C 729.714844 560.722656 722.589844 564.882812 723.296875 571.347656 C 724.140625 579.015625 724.398438 589.605469 721.203125 597.863281 C 719.304688 593.796875 716.519531 590 714.546875 586.097656 C 705.902344 568.996094 691.65625 554.457031 685.164062 536.375 L 685.074219 536.164062 C 686.371094 535.5 687.632812 534.824219 688.898438 534.085938 C 692.230469 532.164062 695.328125 529.914062 698.1875 527.339844 C 701.042969 524.765625 703.601562 521.917969 705.859375 518.804688 C 708.117188 515.6875 710.027344 512.371094 711.582031 508.851562 C 713.140625 505.332031 714.316406 501.691406 715.105469 497.925781 C 718.988281 479.105469 711.867188 458.992188 704.15625 442.101562 C 668.898438 364.929688 610.417969 296.722656 534.980469 256.417969 C 523.859375 250.464844 512.3125 245.503906 500.34375 241.53125 C 500.238281 228.347656 498.941406 215.34375 485.460938 208.730469 C 477.78125 204.964844 468.503906 204.675781 459.769531 204.722656 C 459.753906 204.484375 459.722656 204.25 459.679688 204.015625 C 458.097656 195.261719 454.046875 187.726562 449.664062 180.195312 C 445.28125 172.660156 439.558594 166.046875 437.929688 157.503906 C 437.75 156.554688 437.570312 155.589844 437.359375 154.640625 C 446.953125 152.109375 455.339844 145.191406 457.828125 134.539062 C 458.050781 133.546875 458.191406 132.542969 458.25 131.527344 C 458.710938 131.566406 459.171875 131.566406 459.632812 131.527344 C 505.011719 128.242188 551.621094 132.671875 596.773438 137.554688 C 635.78125 141.726562 676.25 149.699219 715.238281 141.394531 C 727.152344 138.851562 745.601562 134.992188 751.925781 123.058594 C 757.257812 113.011719 747.621094 104.375 740 99.644531 C 718.449219 86.238281 691.382812 82.664062 666.640625 82.621094 C 594.230469 82.5 524.5 107.480469 452.328125 110.539062 C 450.972656 110.574219 449.707031 110.929688 448.535156 111.609375 C 447.429688 110.601562 446.238281 109.710938 444.964844 108.929688 C 443.6875 108.152344 442.351562 107.5 440.953125 106.972656 C 439.554688 106.449219 438.117188 106.058594 436.644531 105.808594 C 435.171875 105.554688 433.6875 105.445312 432.195312 105.476562 C 430.453125 105.59375 428.746094 105.890625 427.070312 106.363281 C 425.390625 106.839844 423.78125 107.480469 422.238281 108.292969 C 420.695312 109.105469 419.253906 110.066406 417.910156 111.175781 C 416.570312 112.289062 415.355469 113.527344 414.273438 114.894531 C 369.195312 102.464844 321.90625 100.550781 275.472656 98.0625 C 251.167969 96.769531 227.625 91.164062 203.46875 88.753906 C 187.65625 87.246094 169.191406 86.660156 156.78125 98.378906 C 134.597656 119.382812 156.542969 149.609375 178.183594 159.371094 C 217.550781 177.285156 260.878906 161.933594 301.015625 155.484375 C 335.65625 149.894531 370.566406 146.203125 405.550781 143.054688 C 406.175781 144.109375 406.875 145.113281 407.644531 146.066406 C 406.546875 151.21875 407.132812 157.804688 406.574219 162.203125 C 404.753906 176.59375 404.421875 189.324219 394.015625 200.65625 C 393.492188 201.171875 393.058594 201.75 392.710938 202.398438 C 392.367188 203.042969 392.121094 203.726562 391.976562 204.449219 C 391.835938 205.167969 391.800781 205.890625 391.878906 206.621094 C 391.953125 207.351562 392.132812 208.054688 392.417969 208.730469 C 385.171875 210.246094 378.242188 212.664062 371.621094 215.976562 C 357.34375 223.253906 350.535156 237.328125 349.871094 252.574219 C 335.539062 259.527344 321.953125 267.722656 309.121094 277.164062 C 294.335938 288.085938 280.832031 300.410156 268.605469 314.136719 C 260.730469 319.488281 255.234375 327.261719 248.019531 333.363281 C 240.382812 339.8125 230.441406 340.324219 221.300781 342.945312 C 199.042969 349.351562 176.121094 352.347656 153.078125 354.050781 C 143.710938 354.742188 134.539062 356.371094 125.1875 357.289062 C 114.644531 358.34375 107.203125 356.566406 99.582031 349.152344 C 86.148438 336.136719 79.160156 318.117188 64.371094 306.273438 C 49.945312 294.734375 36.074219 302.523438 24.113281 313.324219 C 12.757812 323.585938 1.070312 337.582031 13.796875 351.640625 C 19.339844 357.789062 26.585938 362.1875 32.652344 367.671875 C 39.292969 373.734375 44.566406 380.8125 48.46875 388.914062 C 55.5625 403.847656 56.222656 420.691406 55.800781 436.917969 C 55.652344 442.839844 55.230469 448.761719 54.808594 454.667969 C 54.402344 460.167969 57.730469 464.640625 63.574219 464.507812 C 71.101562 464.339844 78.632812 463.179688 86.164062 463 C 86.664062 463.011719 87.160156 462.96875 87.652344 462.875 C 88.140625 462.785156 88.617188 462.640625 89.082031 462.453125 C 89.542969 462.261719 89.980469 462.023438 90.394531 461.742188 C 90.808594 461.460938 91.1875 461.140625 91.535156 460.78125 C 91.882812 460.421875 92.1875 460.03125 92.457031 459.605469 C 92.722656 459.183594 92.941406 458.734375 93.117188 458.265625 C 93.289062 457.796875 93.414062 457.316406 93.488281 456.820312 C 93.5625 456.328125 93.585938 455.832031 93.558594 455.332031 C 99.460938 455 105.488281 458.34375 111.058594 459.851562 C 120.382812 462.441406 130.726562 461.960938 140.292969 461.703125 C 154.160156 461.328125 167.703125 460.558594 181.480469 458.902344 C 207.597656 455.753906 239.300781 449.078125 264.3125 460.152344 C 282.960938 468.378906 285.761719 494.582031 292.539062 511.574219 C 297.660156 524.398438 305.21875 536.496094 316.167969 542.914062 C 311.875 559.125 308.441406 576.0625 302.476562 591.714844 C 300.429688 597.019531 298.699219 602.429688 296.695312 607.746094 C 295.789062 610.179688 294.785156 612.558594 293.683594 614.890625 C 291.785156 619.109375 290.941406 617.648438 295.609375 616.710938 C 294.738281 616.878906 293.914062 617.167969 293.128906 617.585938 C 292.347656 618.003906 291.644531 618.527344 291.023438 619.160156 C 290.398438 619.789062 289.886719 620.5 289.476562 621.289062 C 289.070312 622.074219 288.792969 622.90625 288.636719 623.777344 C 287.617188 624.382812 286.820312 625.199219 286.242188 626.234375 C 272.972656 625.933594 259.734375 620.917969 246.632812 626.355469 C 232.640625 632.171875 226.273438 648.789062 233.726562 661.914062 C 240.035156 673.019531 255.5625 678.488281 267.339844 680.730469 C 275.851562 682.3125 284.855469 681.183594 293.457031 681.152344 C 306.210938 681.152344 318.96875 681.5625 331.710938 682.074219 C 380.492188 684.078125 429.152344 685.597656 477.976562 684.09375 C 526.050781 682.585938 574.363281 680.6875 622.257812 677.402344 C 647.753906 675.65625 674.289062 676.5 699.441406 671.796875 C 718.027344 668.332031 734.652344 660.257812 745.40625 644.375 C 762.078125 619.832031 767.125 578.066406 735.242188 563.285156 Z M 592.738281 106.367188 C 615.765625 102.308594 638.964844 99.886719 662.332031 99.101562 C 676.683594 98.742188 690.238281 99.417969 704.066406 103.140625 C 713.988281 105.792969 725.148438 109.046875 733.628906 115.027344 C 734.40625 115.566406 735.132812 116.164062 735.8125 116.820312 C 732.019531 119.835938 724.699219 121.554688 720.554688 122.847656 C 683.011719 134.902344 640.269531 125.695312 602.167969 121.34375 C 580.960938 118.945312 559.589844 117.546875 538.292969 116.097656 C 556.441406 112.90625 574.558594 109.378906 592.738281 106.367188 Z M 277.582031 142.949219 C 256.753906 147.136719 235.851562 151.613281 214.480469 151.023438 C 198.394531 150.585938 178.996094 145.328125 168.90625 131.84375 C 163.109375 124.113281 162.234375 113.945312 170.878906 108.1875 C 176.722656 104.300781 184.613281 104.316406 191.316406 104.390625 C 203.695312 104.527344 216.089844 106.863281 228.246094 108.910156 C 252.207031 113.023438 276.046875 114.441406 300.292969 115.554688 C 324.125 116.746094 347.835938 119.128906 371.425781 122.714844 C 379.507812 123.917969 387.539062 125.425781 395.519531 127.234375 C 356.003906 130.789062 316.527344 135.113281 277.582031 142.949219 Z M 432.976562 121.855469 C 437.253906 122.140625 443.082031 128.046875 441.140625 132.523438 C 439.84375 135.535156 435.972656 137.960938 431.847656 139.015625 C 430.878906 137.3125 429.671875 135.800781 428.226562 134.480469 C 426.78125 133.160156 425.167969 132.09375 423.382812 131.285156 C 425.085938 126.496094 428.351562 121.582031 432.976562 121.898438 Z M 422.089844 172.34375 C 422.3125 170.160156 422.570312 167.824219 422.839844 165.382812 C 423.050781 166.332031 423.292969 167.296875 423.5625 168.246094 C 427.433594 181.355469 440.28125 190.9375 443.066406 204.707031 C 434.46875 204.796875 425.824219 205.007812 417.285156 205.507812 C 415.160156 205.625 413.050781 205.777344 410.941406 205.957031 C 418.035156 196.074219 420.851562 184.863281 422.089844 172.390625 Z M 418.546875 222.066406 C 426.816406 221.539062 435.117188 221.644531 443.457031 221.402344 C 453.21875 221.128906 463.429688 220.511719 473.113281 222.09375 C 481.984375 223.601562 483.789062 229.628906 484.015625 236.753906 C 473.121094 234.074219 462.078125 232.363281 450.878906 231.628906 C 439.683594 230.898438 428.511719 231.148438 417.359375 232.386719 C 400.324219 234.410156 383.804688 238.523438 367.808594 244.726562 C 374.152344 225.9375 399.707031 223.285156 418.546875 222.078125 Z M 303.425781 493.148438 C 299.949219 483.070312 296.695312 472.988281 291.722656 463.527344 C 286.542969 453.671875 277.371094 447.210938 267.101562 443.414062 C 240.382812 433.558594 209.523438 438.773438 182.070312 442.117188 C 168.515625 443.757812 155.261719 444.695312 141.660156 445.128906 C 131.828125 445.402344 122.082031 445.808594 112.445312 443.125 C 105.246094 441.121094 98.527344 437.746094 90.847656 438.953125 C 90.382812 439.019531 89.925781 439.121094 89.480469 439.261719 C 89.03125 439.40625 88.597656 439.582031 88.183594 439.796875 C 87.765625 440.011719 87.367188 440.257812 86.992188 440.539062 C 86.613281 440.820312 86.265625 441.128906 85.941406 441.46875 C 85.617188 441.808594 85.324219 442.171875 85.058594 442.5625 C 84.796875 442.949219 84.566406 443.359375 84.371094 443.785156 C 84.175781 444.210938 84.019531 444.652344 83.898438 445.105469 C 83.777344 445.558594 83.691406 446.019531 83.648438 446.488281 C 79.644531 446.636719 75.667969 447.015625 71.675781 447.359375 C 73.332031 416.59375 71.523438 385.8125 49.6875 361.480469 C 43.585938 354.699219 36.523438 349.425781 29.507812 343.746094 C 23.375 338.726562 23.691406 337.445312 28.859375 331.570312 C 33.375 326.523438 41.222656 317.589844 48.4375 316.609375 C 54.671875 315.75 62.488281 327.15625 65.425781 331.390625 C 75.335938 345.417969 85.394531 363.738281 101.8125 371.03125 C 110.15625 374.722656 119.976562 374.375 128.832031 373.503906 C 139.175781 372.476562 149.34375 370.894531 159.71875 370.066406 C 170.644531 369.203125 181.511719 367.914062 192.324219 366.195312 C 203.9375 364.339844 215.140625 360.621094 226.664062 358.660156 C 235.339844 357.15625 244.164062 354.878906 251.890625 350.539062 C 260.925781 345.507812 266.617188 337.265625 274.148438 330.589844 C 275.886719 330.199219 277.324219 329.316406 278.457031 327.941406 C 331.363281 267.3125 412.839844 231.511719 492.316406 256.070312 C 533.566406 268.789062 570.28125 296.042969 601.324219 325.378906 C 632.890625 355.046875 660.511719 389.625 679.320312 428.796875 C 692.875 456.867188 715.089844 497.019531 680.992188 519.394531 C 657.136719 535.050781 622.574219 532.773438 595.449219 531.148438 C 581.773438 530.320312 568.128906 529.007812 554.4375 528.269531 C 531.5625 527.035156 508.292969 528.496094 485.402344 529.066406 C 437.511719 530.289062 389.617188 532.082031 341.695312 531.132812 C 340.441406 530.6875 339.15625 530.554688 337.839844 530.742188 C 316.257812 533.558594 309.105469 509.542969 303.425781 493.148438 Z M 315.925781 602.867188 C 322.3125 584.785156 326.996094 566.148438 331.996094 547.617188 C 334.171875 547.71875 336.339844 547.644531 338.503906 547.390625 C 339.199219 547.578125 339.90625 547.679688 340.625 547.691406 C 390.324219 548.683594 440.023438 546.847656 489.722656 545.582031 C 512.132812 545.023438 534.90625 543.726562 557.269531 544.933594 C 571.578125 545.71875 585.886719 547.148438 600.179688 547.945312 C 623.023438 549.183594 647.632812 549.453125 669.832031 542.433594 C 674.59375 555.300781 682.90625 566.117188 690.539062 577.371094 C 694.484375 583.367188 698.027344 589.589844 701.171875 596.039062 C 702.015625 597.726562 702.921875 599.355469 703.898438 600.984375 C 704.441406 601.855469 704.96875 602.746094 705.496094 603.632812 C 705.546875 603.710938 705.59375 603.792969 705.632812 603.875 C 705.363281 605.042969 705.347656 606.214844 705.578125 607.390625 C 705.808594 608.566406 706.269531 609.644531 706.957031 610.625 C 701.933594 611.964844 696.84375 612.96875 691.6875 613.640625 C 682.304688 615.222656 672.996094 617.027344 663.566406 618.386719 C 622.632812 624.292969 581.230469 626.507812 539.890625 627.019531 C 462.839844 627.996094 385.882812 622.589844 308.832031 622.589844 C 312.132812 616.214844 314 608.320312 315.925781 602.867188 Z M 726.175781 642.039062 C 713.523438 655.449219 691.429688 657 674.246094 657.921875 C 650.871094 659.175781 627.511719 660.542969 604.167969 662.019531 C 580.328125 663.527344 556.441406 663.960938 532.585938 665.199219 C 508.160156 666.464844 483.714844 667.519531 459.257812 668.0625 C 410.371094 669.128906 361.679688 666.386719 312.839844 664.957031 C 304.992188 664.714844 297.144531 664.640625 289.300781 664.65625 C 283.066406 664.65625 276.722656 665.46875 270.5625 664.488281 C 262.882812 663.285156 253.230469 660.089844 248.261719 653.761719 C 242.128906 645.988281 254.796875 640.546875 260.804688 640.203125 C 272.417969 639.644531 283.773438 644.164062 295.445312 642.265625 C 296.492188 642.121094 297.476562 641.792969 298.398438 641.269531 C 299.320312 640.75 300.113281 640.078125 300.777344 639.253906 C 385.820312 638.742188 470.792969 645.28125 555.855469 643.394531 C 577.472656 642.925781 599.058594 641.792969 620.613281 640.007812 C 642.785156 638.136719 665.917969 636.375 687.632812 631.3125 C 702.453125 627.847656 716.988281 627.441406 728.914062 616.832031 C 735.8125 610.65625 738.824219 600.304688 739.9375 590.015625 C 747.273438 605.941406 737.320312 630.136719 726.175781 641.980469 Z M 726.175781 642.039062 "/>
</g>
<path style=" stroke:none;fill-rule:nonzero;fill:rgb(0%,0%,0%);fill-opacity:1;" d="M 629.289062 379.980469 C 618.640625 361.207031 600.148438 346.171875 583.914062 332.414062 C 571.667969 322.035156 558.308594 312.917969 546.066406 302.566406 C 539.242188 296.8125 532.511719 290.9375 526.066406 284.742188 C 519.621094 278.550781 512.949219 273.546875 504.226562 271.785156 C 503.054688 271.5 501.882812 271.496094 500.710938 271.777344 C 499.535156 272.054688 498.488281 272.585938 497.570312 273.367188 C 468.324219 277.753906 460.222656 309.378906 459.996094 335.007812 C 459.769531 361.042969 468.683594 392.894531 491.515625 407.839844 C 503.566406 415.691406 517.84375 417.679688 531.925781 417.859375 C 542.390625 417.996094 552.828125 416.984375 563.339844 417.273438 C 572.675781 417.527344 582.03125 417.632812 591.367188 418.070312 C 604.574219 418.703125 620.902344 419.710938 630.691406 409.121094 C 638.476562 400.683594 634.15625 388.570312 629.289062 379.980469 Z M 617.617188 398.859375 C 614.230469 402.519531 605.253906 401.753906 600.855469 401.875 C 593.566406 401.992188 586.292969 401.316406 579.003906 401.269531 C 567.691406 401.269531 556.414062 400.425781 545.117188 400.726562 C 536.082031 400.96875 527.40625 401.78125 518.382812 400.425781 C 490.085938 396.207031 479.226562 368.863281 476.894531 343.171875 C 475.296875 325.5 477.222656 292.488281 500.265625 289.804688 C 501.378906 289.6875 502.425781 289.367188 503.414062 288.839844 C 510.539062 291.359375 515.777344 298.152344 521.277344 303.078125 C 529.84375 310.777344 538.671875 318.222656 547.664062 325.4375 C 558.714844 334.28125 570.253906 342.433594 580.796875 351.777344 C 590.589844 360.046875 599.65625 369.050781 607.996094 378.789062 C 611.5 382.785156 614.441406 387.160156 616.820312 391.914062 C 617.589844 393.511719 618.089844 395.1875 618.324219 396.945312 C 618.550781 398.242188 618.597656 397.804688 617.617188 398.859375 Z M 617.617188 398.859375 "/>
<path style=" stroke:none;fill-rule:nonzero;fill:rgb(0%,0%,0%);fill-opacity:1;" d="M 468.472656 460.589844 C 466.789062 447.253906 462.195312 434.464844 460.550781 421.160156 C 458.910156 407.855469 457.539062 393.964844 447.539062 384.246094 C 435.703125 372.671875 414.40625 377.34375 399.875 377.945312 C 377.824219 378.882812 355.925781 380.296875 334.300781 384.9375 C 328.804688 386.113281 327.765625 390.964844 329.527344 395.0625 C 314.722656 394.882812 320.171875 419.726562 321.421875 428.511719 C 322.3125 434.765625 323.953125 441.0625 324.4375 447.300781 C 325.777344 462.503906 324.691406 477.707031 327.207031 492.832031 C 327.3125 493.539062 327.503906 494.222656 327.78125 494.882812 C 328.0625 495.542969 328.417969 496.15625 328.855469 496.722656 C 329.292969 497.289062 329.792969 497.792969 330.359375 498.230469 C 330.921875 498.667969 331.535156 499.027344 332.191406 499.3125 C 332.046875 499.753906 331.945312 500.210938 331.886719 500.671875 C 331.824219 501.136719 331.808594 501.601562 331.832031 502.066406 C 331.855469 502.53125 331.921875 502.992188 332.027344 503.449219 C 332.136719 503.902344 332.285156 504.34375 332.472656 504.769531 C 332.660156 505.199219 332.882812 505.605469 333.144531 505.992188 C 333.410156 506.378906 333.703125 506.738281 334.03125 507.070312 C 334.359375 507.402344 334.710938 507.703125 335.09375 507.972656 C 335.476562 508.242188 335.878906 508.472656 336.304688 508.667969 C 350.730469 515.871094 367.78125 513.609375 383.097656 511.183594 C 396.566406 508.988281 410.121094 507.671875 423.757812 507.238281 C 435.402344 506.875 450.671875 506.695312 460.039062 498.695312 C 470.855469 489.5625 470.070312 473.246094 468.472656 460.589844 Z M 449 486.429688 C 441.09375 492.035156 426.410156 490.632812 417.296875 490.84375 C 406.117188 491.199219 395.015625 492.355469 384 494.308594 C 371.425781 496.402344 355.867188 499.792969 343.878906 493.871094 C 343.960938 493.097656 343.929688 492.332031 343.789062 491.566406 C 341.890625 480.101562 341.769531 468.574219 341.53125 456.914062 C 341.402344 450.246094 340.742188 443.628906 339.542969 437.070312 C 338.539062 431.195312 337.667969 425.28125 336.9375 419.335938 C 336.589844 416.457031 336.347656 413.582031 336.183594 410.703125 L 336.183594 407.476562 C 336.824219 406.472656 337.257812 405.382812 337.484375 404.214844 C 337.714844 403.042969 337.722656 401.871094 337.507812 400.699219 C 338.296875 400.734375 339.074219 400.671875 339.84375 400.503906 C 357.207031 396.78125 375.054688 395.652344 392.75 394.777344 C 402.101562 394.324219 411.457031 394.007812 420.808594 393.554688 C 426.335938 393.285156 432.179688 392.847656 436.667969 396.570312 C 443.894531 402.597656 443.503906 417.664062 444.558594 426.039062 C 445.988281 437.402344 449.964844 448.445312 451.726562 459.789062 C 452.675781 466.554688 455.6875 481.652344 449 486.429688 Z M 449 486.429688 "/>
<path style=" stroke:none;fill-rule:nonzero;fill:rgb(0%,0%,0%);fill-opacity:1;" d="M 417.085938 412.78125 C 413.519531 402.71875 397.855469 408.171875 401.46875 418.25 C 404.09375 425.515625 406.277344 432.90625 408.019531 440.429688 C 397.269531 440.609375 386.546875 441.515625 375.777344 441.800781 C 375.203125 438.789062 374.722656 435.863281 374.359375 432.851562 C 374.109375 430.628906 373.996094 428.398438 374.03125 426.160156 C 373.980469 425.503906 374.089844 424.878906 374.359375 424.277344 C 374.011719 424.6875 373.617188 425.054688 373.1875 425.378906 C 373.625 425.019531 374.03125 424.628906 374.40625 424.203125 C 374.40625 424.113281 374.480469 424.097656 374.40625 424.203125 C 380.339844 417.257812 371.742188 405.398438 363.863281 411.695312 C 354.480469 419.230469 357.238281 433.226562 359.195312 443.519531 C 361.453125 455.40625 366.003906 468.394531 367.765625 479.46875 C 367.808594 480.011719 367.902344 480.546875 368.046875 481.074219 C 368.195312 481.597656 368.394531 482.105469 368.640625 482.589844 C 368.886719 483.078125 369.179688 483.535156 369.515625 483.964844 C 369.851562 484.394531 370.230469 484.785156 370.644531 485.140625 C 371.058594 485.496094 371.503906 485.804688 371.976562 486.074219 C 372.453125 486.339844 372.949219 486.558594 373.46875 486.730469 C 373.988281 486.898438 374.519531 487.015625 375.058594 487.078125 C 375.601562 487.144531 376.144531 487.15625 376.6875 487.113281 C 377.230469 487.074219 377.765625 486.976562 378.292969 486.832031 C 378.816406 486.683594 379.324219 486.484375 379.808594 486.238281 C 380.296875 485.992188 380.753906 485.699219 381.183594 485.363281 C 381.609375 485.023438 382.003906 484.648438 382.359375 484.234375 C 382.710938 483.820312 383.023438 483.375 383.289062 482.898438 C 383.558594 482.421875 383.777344 481.925781 383.945312 481.40625 C 384.113281 480.886719 384.230469 480.359375 384.296875 479.816406 C 384.363281 479.273438 384.375 478.730469 384.332031 478.1875 L 384.332031 473.667969 C 384.375 472.675781 384.21875 471.714844 383.859375 470.789062 C 383.503906 469.859375 382.980469 469.042969 382.28125 468.332031 C 381.46875 464.972656 380.550781 461.628906 379.648438 458.285156 C 390.007812 457.921875 400.371094 457.09375 410.746094 456.972656 C 411.167969 460.921875 411.441406 464.898438 411.484375 468.921875 C 411.621094 479.605469 428.140625 478.292969 428.050781 467.640625 C 427.824219 448.777344 423.398438 430.441406 417.085938 412.78125 Z M 417.085938 412.78125 "/>
<path style=" stroke:none;fill-rule:nonzero;fill:rgb(0%,0%,0%);fill-opacity:1;" d="M 374.453125 424.277344 C 374.492188 424.238281 374.527344 424.191406 374.558594 424.140625 Z M 374.453125 424.277344 "/>
</g>
</svg>
