<?xml version="1.0" encoding="UTF-8"?>
<svg xmlns="http://www.w3.org/2000/svg" xmlns:xlink="http://www.w3.org/1999/xlink" width="375pt" height="374.999991pt" viewBox="0 0 375 374.999991" version="1.2">
<defs>
<clipPath id="clip1">
  <path d="M 43 102 L 173 102 L 173 370.355469 L 43 370.355469 Z M 43 102 "/>
</clipPath>
</defs>
<g id="surface1">
<path style=" stroke:none;fill-rule:nonzero;fill:rgb(0%,0%,0%);fill-opacity:1;" d="M 188.40625 189.1875 L 200.164062 189.1875 C 213.292969 190.007812 218.488281 184.542969 220.675781 179.894531 C 221.222656 178.527344 221.496094 176.613281 221.769531 170.324219 L 221.769531 169.234375 C 222.042969 167.046875 221.769531 165.132812 221.222656 163.492188 C 226.148438 156.382812 223.410156 147.636719 221.222656 140.800781 C 220.128906 137.792969 219.308594 134.515625 219.308594 132.601562 C 219.308594 132.054688 219.582031 131.234375 219.855469 130.140625 C 220.402344 128.226562 221.496094 125.492188 220.949219 121.9375 C 220.402344 118.660156 219.582031 115.925781 218.761719 113.191406 C 217.941406 110.730469 217.394531 108.269531 217.121094 106.082031 C 216.847656 103.894531 216.847656 101.710938 216.847656 99.25 C 216.847656 96.789062 216.847656 94.054688 216.574219 91.046875 C 216.027344 87.21875 215.480469 83.667969 214.660156 80.113281 L 214.113281 77.105469 C 213.566406 74.371094 214.386719 71.363281 214.933594 67.8125 C 215.753906 64.257812 216.300781 60.703125 216.300781 56.875 C 216.027344 52.230469 215.480469 47.308594 214.386719 42.933594 C 219.308594 33.914062 215.207031 23.25 214.933594 22.703125 C 213.839844 19.96875 210.832031 18.605469 207.824219 19.695312 C 205.089844 20.789062 203.722656 24.070312 204.816406 26.804688 C 204.816406 26.804688 207.550781 34.1875 204.269531 38.558594 L 184.03125 38.558594 C 181.023438 34.460938 183.484375 27.078125 183.484375 26.804688 C 184.578125 24.070312 183.210938 20.789062 180.476562 19.695312 C 177.742188 18.605469 174.460938 19.96875 173.363281 22.703125 C 173.089844 23.25 168.988281 33.914062 173.910156 42.933594 C 172.816406 47.308594 171.996094 52.230469 171.996094 56.875 C 171.722656 60.703125 172.542969 64.257812 173.363281 67.8125 C 174.183594 71.089844 174.734375 74.371094 174.183594 77.105469 L 173.910156 80.386719 C 173.089844 83.941406 172.542969 87.492188 171.996094 91.320312 C 171.722656 94.054688 171.722656 96.789062 171.722656 99.523438 C 171.722656 101.984375 171.722656 104.167969 171.449219 106.355469 C 171.175781 108.816406 170.355469 111.003906 169.808594 113.464844 C 168.988281 116.199219 168.167969 119.207031 167.621094 122.210938 C 167.074219 125.492188 168.167969 128.226562 168.714844 130.414062 C 168.988281 131.507812 169.261719 132.328125 169.261719 132.875 C 169.261719 134.789062 168.167969 138.066406 167.347656 141.074219 C 165.160156 147.910156 162.425781 156.65625 167.347656 163.765625 C 167.074219 165.40625 166.800781 167.320312 166.800781 169.507812 L 166.800781 170.597656 C 167.074219 176.613281 167.347656 178.527344 167.894531 180.167969 C 169.808594 184.542969 174.457031 189.460938 185.671875 189.460938 C 186.765625 189.1875 187.585938 189.1875 188.40625 189.1875 Z M 184.03125 49.769531 L 204.816406 49.769531 C 205.363281 52.230469 205.636719 54.960938 205.636719 57.695312 C 205.636719 60.15625 205.089844 62.890625 204.542969 65.625 C 204.542969 65.898438 204.542969 65.898438 204.542969 66.171875 L 184.304688 66.171875 C 184.304688 65.898438 184.304688 65.898438 184.304688 65.625 C 183.757812 62.617188 183.210938 59.882812 183.210938 57.695312 C 183.210938 54.960938 183.484375 52.230469 184.03125 49.769531 Z M 182.664062 92.6875 C 183.210938 89.40625 183.757812 86.128906 184.304688 82.574219 L 184.851562 79.566406 C 185.125 78.746094 185.125 78.199219 185.125 77.378906 L 203.175781 77.378906 C 203.175781 78.199219 203.449219 78.746094 203.449219 79.566406 L 203.996094 82.574219 C 204.816406 86.128906 205.363281 89.40625 205.636719 92.6875 C 205.910156 94.601562 205.910156 96.789062 205.910156 98.976562 L 182.390625 98.976562 C 182.664062 96.789062 182.390625 94.601562 182.664062 92.6875 Z M 178.289062 123.851562 C 178.5625 121.390625 179.382812 119.207031 179.929688 116.746094 C 180.476562 114.558594 181.296875 112.371094 181.570312 109.910156 L 206.457031 109.910156 C 207.003906 112.371094 207.550781 114.558594 208.097656 116.746094 C 208.917969 119.207031 209.464844 121.664062 209.738281 123.851562 C 209.738281 124.671875 209.738281 125.492188 209.191406 127.132812 C 208.917969 127.679688 208.917969 128.5 208.644531 129.046875 L 179.65625 129.046875 C 179.382812 128.226562 179.382812 127.679688 179.109375 127.132812 C 178.5625 125.492188 178.289062 124.671875 178.289062 123.851562 Z M 177.742188 144.355469 C 178.289062 142.988281 178.5625 141.347656 179.109375 139.980469 L 210.011719 139.980469 C 210.285156 141.347656 210.832031 142.988281 211.378906 144.355469 C 213.019531 149.824219 214.113281 153.648438 213.292969 156.382812 L 175.828125 156.382812 C 175.007812 153.648438 176.101562 149.824219 177.742188 144.355469 Z M 178.289062 175.792969 C 178.289062 174.972656 178.015625 172.785156 177.742188 169.78125 C 177.742188 169.234375 177.742188 168.6875 177.742188 168.414062 C 177.742188 168.140625 177.742188 167.59375 177.742188 167.320312 L 211.105469 167.320312 C 211.105469 167.59375 211.105469 168.140625 211.105469 168.414062 C 211.105469 168.6875 211.105469 169.234375 211.105469 169.78125 C 210.832031 172.785156 210.832031 174.972656 210.558594 175.792969 C 208.917969 178.253906 203.175781 178.253906 200.714844 178.253906 C 200.714844 178.253906 200.441406 178.253906 200.441406 178.253906 L 188.132812 178.253906 C 188.132812 178.253906 187.859375 178.253906 187.859375 178.253906 C 185.398438 178.253906 179.65625 178.527344 178.289062 175.792969 Z M 178.289062 175.792969 "/>
<path style=" stroke:none;fill-rule:nonzero;fill:rgb(0%,0%,0%);fill-opacity:1;" d="M 322.683594 211.332031 C 324.597656 206.683594 327.058594 202.039062 329.523438 197.117188 C 334.171875 188.09375 338.820312 178.800781 341.554688 168.414062 C 342.648438 164.585938 343.195312 160.757812 343.46875 156.929688 C 344.835938 141.347656 336.632812 130.960938 330.070312 122.757812 C 328.972656 121.390625 327.878906 120.023438 326.785156 118.660156 C 321.589844 108.816406 306.277344 103.894531 297.25 101.984375 C 296.429688 101.710938 295.882812 101.710938 295.0625 101.710938 C 294.789062 101.710938 294.242188 101.710938 293.96875 101.710938 C 266.894531 101.710938 249.390625 114.285156 241.1875 121.9375 C 237.90625 124.945312 236.265625 129.046875 236.265625 133.421875 C 236.265625 136.15625 237.085938 139.160156 238.726562 141.347656 C 238.179688 141.894531 237.90625 142.441406 237.632812 142.988281 L 232.710938 153.105469 C 231.070312 156.382812 231.34375 160.210938 232.984375 163.492188 C 232.984375 164.039062 232.984375 164.859375 231.890625 166.5 C 229.703125 169.507812 229.429688 173.605469 230.796875 176.886719 C 232.164062 180.441406 235.171875 182.902344 239 183.449219 L 252.675781 185.910156 C 252.675781 187 252.949219 188.09375 253.222656 188.914062 C 254.589844 193.015625 257.597656 196.296875 261.699219 198.210938 C 263.886719 199.304688 265.253906 199.851562 262.792969 205.316406 C 262.246094 206.410156 261.425781 207.777344 260.605469 209.144531 C 258.964844 211.332031 257.324219 214.066406 256.230469 217.074219 C 254.589844 220.898438 254.316406 224.726562 253.769531 228.007812 C 253.496094 229.921875 253.222656 232.109375 252.949219 233.203125 C 252.125 234.570312 248.84375 237.03125 247.203125 238.121094 L 246.109375 238.394531 C 240.914062 242.222656 234.351562 245.503906 225.871094 248.511719 C 218.214844 250.972656 213.566406 256.984375 213.566406 263.546875 C 213.566406 269.015625 216.574219 273.113281 222.589844 275.847656 C 222.589844 275.847656 222.589844 276.121094 222.589844 276.121094 C 220.949219 282.957031 222.316406 290.335938 226.695312 296.625 C 231.070312 302.640625 237.632812 306.464844 244.46875 306.738281 C 246.109375 306.738281 248.023438 307.011719 249.664062 307.011719 C 256.503906 307.011719 263.339844 305.917969 270.449219 301.273438 C 270.175781 315.214844 269.082031 343.371094 265.253906 363.328125 C 264.707031 366.335938 266.621094 369.070312 269.628906 369.617188 C 269.902344 369.617188 270.449219 369.617188 270.722656 369.617188 C 273.183594 369.617188 275.644531 367.703125 275.917969 365.242188 C 281.390625 337.085938 281.390625 294.710938 281.390625 292.796875 C 281.390625 292.523438 281.390625 291.976562 281.117188 291.703125 C 286.039062 286.511719 290.414062 280.222656 289.046875 275.574219 C 288.773438 275.027344 287.953125 272.839844 284.398438 264.09375 C 285.21875 263.546875 286.039062 263.273438 286.585938 263 C 289.867188 261.359375 292.328125 258.078125 292.601562 254.25 C 293.148438 248.785156 301.078125 242.222656 303.542969 240.308594 C 304.089844 239.761719 304.910156 239.214844 305.457031 238.667969 C 307.097656 237.300781 309.011719 235.664062 310.925781 234.023438 C 313.660156 235.117188 316.667969 237.574219 319.128906 242.496094 C 319.128906 242.496094 325.691406 255.070312 318.308594 262.453125 C 318.035156 262.726562 317.761719 263 317.761719 263.273438 C 317.488281 263.820312 309.011719 277.214844 306.550781 286.511719 C 305.457031 289.789062 294.515625 324.507812 292.875 364.148438 C 292.875 367.15625 295.0625 369.617188 298.070312 369.890625 C 298.070312 369.890625 298.34375 369.890625 298.34375 369.890625 C 301.351562 369.890625 303.542969 367.703125 303.816406 364.695312 C 305.457031 325.601562 316.941406 290.335938 317.214844 289.789062 C 317.214844 289.789062 317.214844 289.515625 317.214844 289.242188 C 318.582031 283.230469 324.324219 273.386719 326.785156 269.5625 C 339.09375 256.4375 329.523438 238.121094 328.972656 237.304688 C 325.964844 231.015625 321.863281 227.1875 317.761719 225 C 319.402344 221.992188 320.222656 218.714844 321.316406 215.980469 C 321.589844 214.066406 322.136719 212.699219 322.683594 211.332031 Z M 254.316406 175.519531 L 240.367188 173.058594 C 246.109375 164.859375 241.734375 158.570312 241.734375 158.570312 L 246.109375 149.824219 C 247.476562 151.191406 248.570312 152.011719 248.570312 152.011719 C 249.664062 153.105469 251.03125 153.921875 252.402344 154.46875 L 253.769531 155.015625 C 254.589844 163.21875 254.863281 171.417969 254.316406 175.519531 Z M 264.980469 291.429688 C 259.238281 295.53125 253.496094 296.078125 244.742188 295.804688 C 241.1875 295.53125 237.632812 293.34375 235.171875 290.0625 C 232.984375 287.058594 232.164062 283.777344 232.4375 280.496094 C 234.898438 281.589844 237.632812 282.136719 240.914062 282.136719 C 250.757812 282.136719 262.519531 276.394531 274.824219 269.5625 C 275.644531 271.746094 277.285156 275.847656 278.109375 278.035156 C 276.191406 281.316406 267.714844 289.515625 264.980469 291.429688 Z M 312.566406 206.957031 C 310.652344 211.605469 309.832031 216.800781 307.097656 221.171875 C 304.636719 225.546875 300.257812 228.554688 296.429688 231.5625 C 290.140625 236.757812 282.484375 244.136719 281.664062 252.886719 C 273.730469 256.710938 252.402344 270.925781 240.640625 270.925781 C 238.726562 270.925781 237.359375 270.652344 235.992188 269.835938 C 233.804688 268.46875 231.34375 267.101562 229.15625 266.28125 C 226.421875 265.1875 224.230469 264.914062 224.230469 263.273438 C 224.230469 261.632812 226.421875 259.445312 229.429688 258.625 C 237.632812 255.890625 245.5625 252.339844 252.675781 247.144531 C 255.957031 244.683594 260.605469 241.402344 262.246094 237.847656 C 264.707031 232.65625 263.613281 226.640625 265.800781 221.445312 C 267.441406 217.347656 270.722656 214.066406 272.363281 210.238281 C 276.464844 201.21875 275.644531 193.015625 266.074219 188.640625 C 263.339844 187.273438 262.519531 184.816406 263.886719 182.355469 C 267.441406 175.246094 264.160156 146.816406 264.160156 146.816406 L 256.230469 144.082031 C 256.230469 144.082031 252.125 140.253906 248.84375 137.519531 C 246.65625 135.609375 246.109375 132.328125 248.296875 130.414062 C 254.863281 124.398438 269.902344 113.191406 293.695312 113.191406 C 293.96875 113.191406 294.242188 113.191406 294.789062 113.191406 C 294.789062 113.191406 314.753906 117.839844 317.488281 124.945312 C 324.871094 135.0625 333.898438 142.714844 332.804688 156.65625 C 332.53125 159.9375 331.984375 163.21875 331.164062 166.226562 C 327.058594 180.167969 318.308594 193.5625 312.566406 206.957031 Z M 312.566406 206.957031 "/>
<g clip-path="url(#clip1)" clip-rule="nonzero">
<path style=" stroke:none;fill-rule:nonzero;fill:rgb(0%,0%,0%);fill-opacity:1;" d="M 172.816406 263.546875 C 172.816406 256.984375 167.894531 250.972656 160.511719 248.511719 C 152.035156 245.503906 145.46875 242.496094 140.273438 238.667969 L 139.726562 238.394531 C 138.359375 237.300781 134.804688 234.84375 133.984375 233.476562 C 133.4375 232.382812 133.164062 230.46875 133.164062 228.28125 C 132.890625 225.273438 132.34375 221.445312 130.703125 217.621094 C 129.335938 214.339844 127.695312 211.878906 126.328125 209.691406 C 125.507812 208.324219 124.414062 206.957031 124.140625 205.863281 C 121.675781 200.398438 123.042969 199.851562 125.234375 198.757812 C 129.335938 196.84375 132.34375 193.5625 133.710938 189.460938 C 134.257812 188.09375 134.257812 186.726562 134.53125 185.363281 C 136.171875 186.183594 138.085938 186.726562 140 186.726562 C 140.820312 186.726562 141.640625 186.726562 142.460938 186.457031 C 145.46875 185.636719 148.203125 183.722656 149.574219 180.714844 L 154.496094 170.597656 C 156.136719 167.320312 155.863281 163.492188 154.222656 160.210938 C 154.222656 159.664062 154.222656 158.84375 155.316406 157.203125 C 157.503906 154.195312 157.777344 150.097656 156.410156 146.816406 C 155.042969 143.808594 152.308594 141.347656 149.300781 140.527344 C 150.394531 138.339844 150.941406 136.15625 150.941406 133.96875 C 150.941406 129.59375 149.300781 125.492188 146.015625 122.484375 C 137.8125 114.832031 120.308594 102.257812 93.234375 102.257812 C 92.960938 102.257812 92.414062 102.257812 92.140625 102.257812 C 91.320312 102.257812 90.773438 102.257812 89.953125 102.53125 C 80.929688 104.441406 65.613281 109.363281 60.417969 119.207031 C 59.324219 120.570312 58.230469 121.9375 57.136719 123.304688 C 50.574219 131.507812 42.367188 141.894531 43.734375 157.476562 C 44.007812 161.304688 44.828125 165.132812 45.652344 168.960938 C 48.386719 179.347656 53.035156 188.640625 57.410156 197.664062 C 59.871094 202.585938 62.332031 207.230469 64.246094 211.878906 C 64.792969 213.246094 65.339844 214.886719 65.886719 216.527344 C 66.707031 219.261719 67.800781 222.539062 69.441406 225.546875 C 65.339844 227.734375 61.511719 231.5625 58.503906 237.847656 C 57.957031 238.667969 48.386719 256.984375 60.691406 270.109375 C 63.152344 273.933594 68.894531 283.777344 70.261719 289.789062 C 70.261719 290.0625 70.261719 290.0625 70.261719 290.335938 C 70.261719 290.609375 82.023438 325.875 83.664062 365.242188 C 83.664062 368.25 86.125 370.4375 89.132812 370.4375 C 89.132812 370.4375 89.40625 370.4375 89.40625 370.4375 C 92.414062 370.4375 94.601562 367.703125 94.601562 364.695312 C 92.960938 325.054688 82.023438 290.335938 80.929688 287.058594 C 78.46875 277.761719 69.988281 264.367188 69.714844 263.820312 C 69.441406 263.546875 69.167969 263.273438 69.167969 263 C 62.058594 255.617188 68.347656 243.042969 68.347656 243.042969 C 70.808594 238.121094 73.546875 235.9375 76.28125 234.570312 C 78.195312 236.484375 80.109375 237.847656 81.75 239.214844 C 82.296875 239.761719 83.117188 240.308594 83.664062 240.855469 C 86.125 243.042969 94.054688 249.605469 94.601562 254.796875 C 94.875 258.625 97.339844 261.90625 100.621094 263.546875 C 101.167969 263.820312 101.988281 264.367188 102.808594 264.640625 C 99.253906 273.386719 98.433594 275.574219 98.160156 276.121094 C 96.789062 280.769531 101.167969 287.054688 106.089844 292.25 C 106.089844 292.523438 105.816406 293.070312 105.816406 293.34375 C 105.816406 295.257812 105.816406 337.628906 111.285156 365.789062 C 111.832031 368.523438 114.019531 370.164062 116.480469 370.164062 C 116.753906 370.164062 117.300781 370.164062 117.574219 370.164062 C 120.582031 369.617188 122.496094 366.609375 121.949219 363.875 C 118.121094 343.917969 117.027344 315.761719 116.753906 301.820312 C 123.867188 306.464844 130.703125 307.558594 137.539062 307.558594 C 139.179688 307.558594 141.09375 307.558594 142.734375 307.285156 C 149.574219 307.011719 156.136719 303.1875 160.511719 297.171875 C 164.886719 291.15625 166.527344 283.777344 164.613281 276.667969 C 164.613281 276.667969 164.613281 276.394531 164.613281 276.394531 C 169.808594 273.113281 172.816406 269.015625 172.816406 263.546875 Z M 145.742188 150.644531 C 140 158.84375 144.375 165.132812 144.375 165.132812 L 139.179688 175.519531 L 134.257812 171.691406 C 133.164062 170.597656 132.34375 169.507812 131.523438 168.140625 C 131.523438 164.3125 131.796875 159.390625 132.070312 154.46875 L 133.4375 153.921875 C 134.804688 153.375 136.171875 152.558594 137.265625 151.464844 C 137.265625 151.464844 138.359375 150.644531 139.726562 149.277344 Z M 150.941406 289.789062 C 148.476562 293.070312 144.921875 295.257812 141.367188 295.53125 C 132.617188 296.078125 126.875 295.53125 121.128906 291.15625 C 118.394531 289.242188 110.191406 281.042969 108.003906 277.761719 C 108.824219 275.574219 110.464844 271.746094 111.285156 269.289062 C 123.59375 276.394531 135.625 282.136719 145.195312 282.136719 C 148.203125 282.136719 150.941406 281.589844 153.675781 280.496094 C 153.949219 283.777344 153.128906 287.058594 150.941406 289.789062 Z M 156.957031 266.554688 C 154.769531 267.375 152.308594 268.742188 150.121094 270.109375 C 148.75 270.925781 147.109375 271.199219 145.46875 271.199219 C 133.710938 271.199219 112.378906 256.984375 104.449219 253.160156 C 103.628906 244.136719 95.96875 237.03125 89.679688 231.835938 C 85.851562 228.554688 81.476562 225.820312 79.015625 221.445312 C 76.554688 217.074219 75.734375 211.878906 73.546875 207.230469 C 67.800781 193.5625 59.324219 180.441406 55.496094 165.953125 C 54.675781 162.671875 54.128906 159.664062 53.855469 156.382812 C 52.761719 142.714844 61.785156 134.789062 69.167969 124.671875 C 71.90625 117.566406 91.867188 112.917969 91.867188 112.917969 C 92.140625 112.917969 92.414062 112.917969 92.960938 112.917969 C 116.480469 112.917969 131.796875 124.125 138.359375 130.140625 C 140.546875 132.054688 140 135.335938 137.8125 137.246094 C 134.53125 140.253906 130.429688 143.808594 130.429688 143.808594 L 122.496094 146.542969 C 122.496094 146.542969 119.214844 174.972656 122.769531 182.082031 C 124.140625 184.816406 123.042969 187.273438 120.582031 188.367188 C 111.011719 192.742188 110.191406 201.21875 114.292969 209.964844 C 116.207031 214.066406 119.214844 217.347656 120.855469 221.171875 C 123.042969 226.367188 121.949219 232.382812 124.414062 237.574219 C 126.054688 241.402344 130.976562 244.683594 133.984375 246.871094 C 140.820312 252.066406 149.027344 255.617188 157.230469 258.351562 C 159.964844 259.171875 162.425781 261.359375 162.425781 263 C 161.878906 265.1875 159.691406 265.460938 156.957031 266.554688 Z M 156.957031 266.554688 "/>
</g>
</g>
</svg>
