<?xml version="1.0" encoding="UTF-8"?>
<svg xmlns="http://www.w3.org/2000/svg" xmlns:xlink="http://www.w3.org/1999/xlink" width="375pt" height="374.999991pt" viewBox="0 0 375 374.999991" version="1.2">
<defs>
<clipPath id="clip1">
  <path d="M 22 42.695312 L 354 42.695312 L 354 332 L 22 332 Z M 22 42.695312 "/>
</clipPath>
</defs>
<g id="surface1">
<g clip-path="url(#clip1)" clip-rule="nonzero">
<path style=" stroke:none;fill-rule:nonzero;fill:rgb(1.568604%,2.349854%,2.349854%);fill-opacity:1;" d="M 167.367188 269.972656 C 167.367188 258.566406 176.621094 249.328125 188.050781 249.328125 C 199.476562 249.328125 208.730469 258.566406 208.730469 269.972656 C 208.730469 281.378906 199.476562 290.617188 188.050781 290.617188 C 176.621094 290.617188 167.367188 281.378906 167.367188 269.972656 Z M 188.050781 104.808594 C 199.476562 104.808594 208.730469 114.046875 208.730469 125.453125 L 208.730469 208.035156 C 208.730469 219.445312 199.476562 228.679688 188.050781 228.679688 C 176.621094 228.679688 167.367188 219.445312 167.367188 208.035156 L 167.367188 125.453125 C 167.367188 114.046875 176.621094 104.808594 188.050781 104.808594 Z M 347.601562 269.355469 L 223.507812 62.929688 C 216.046875 50.496094 202.5625 42.871094 188.050781 42.871094 C 173.535156 42.871094 160.050781 50.496094 152.589844 62.929688 L 28.496094 269.355469 C 20.828125 282.144531 20.625 298.039062 27.96875 310.941406 C 35.3125 323.902344 49.0625 331.910156 63.957031 331.910156 L 312.140625 331.910156 C 327.039062 331.910156 340.785156 323.902344 348.128906 310.941406 C 355.476562 298.039062 355.269531 282.113281 347.601562 269.355469 "/>
</g>
</g>
</svg>
