<?xml version="1.0" encoding="UTF-8"?><svg xmlns="http://www.w3.org/2000/svg" xmlns:xlink="http://www.w3.org/1999/xlink" contentScriptType="text/ecmascript" width="375pt" zoomAndPan="magnify" contentStyleType="text/css" viewBox="0 0 375 374.999991" height="374.999991pt" preserveAspectRatio="xMidYMid meet" version="1.2"><defs><filter x="0%" y="0%" width="100%" xmlns:xlink="http://www.w3.org/1999/xlink" xlink:type="simple" filterUnits="objectBoundingBox" xlink:actuate="onLoad" id="alpha" height="100%" xlink:show="other" xml:id="alpha"><feColorMatrix values="0 0 0 0 1 0 0 0 0 1 0 0 0 0 1 0 0 0 1 0" type="matrix" in="SourceGraphic"/></filter><clipPath xml:id="clip2" id="clip2"><path d="M 245 265 L 344.972656 265 L 344.972656 342.648438 L 245 342.648438 Z M 245 265 "/></clipPath><clipPath xml:id="clip3" id="clip3"><path d="M 58 0.683594 L 159 0.683594 L 159 51 L 58 51 Z M 58 0.683594 "/></clipPath><clipPath xml:id="clip4" id="clip4"><path d="M 187 257 L 273 257 L 273 342.648438 L 187 342.648438 Z M 187 257 "/></clipPath><clipPath xml:id="clip5" id="clip5"><path d="M 250 213 L 344.972656 213 L 344.972656 287 L 250 287 Z M 250 213 "/></clipPath><clipPath xml:id="clip1" id="clip1"><rect x="0" width="346" y="0" height="344"/></clipPath></defs><g xml:id="surface1" id="surface1"><g mask="url(#mask0)" transform="matrix(1,0,0,1,16,17)"><g xml:id="surface5" id="surface5" clip-path="url(#clip1)"><path style=" stroke:none;fill-rule:nonzero;fill:rgb(100%,100%,100%);fill-opacity:1;" d="M 95.996094 139.214844 C 87.5 131.007812 87.273438 117.476562 95.496094 108.992188 L 128.054688 75.15625 C 136.277344 66.667969 149.832031 66.445312 158.332031 74.652344 C 166.832031 82.859375 167.058594 96.386719 158.835938 104.875 L 126.273438 138.710938 C 118.054688 147.195312 104.5 147.421875 95.996094 139.214844 "/><path style=" stroke:none;fill-rule:nonzero;fill:rgb(93.328857%,15.289307%,36.079407%);fill-opacity:1;" d="M 164.457031 101.269531 C 164.03125 101.269531 163.53125 101.199219 163.101562 101.128906 C 159.25 100.34375 156.679688 96.640625 157.460938 92.722656 C 158.175781 88.945312 161.960938 86.382812 165.816406 87.097656 C 169.671875 87.875 172.238281 91.582031 171.457031 95.429688 C 170.8125 98.78125 167.886719 101.269531 164.457031 101.269531 Z M 110.929688 152.351562 L 110.859375 152.351562 C 103.367188 152.351562 96.371094 149.5 91.019531 144.296875 C 85.523438 139.03125 82.308594 131.546875 82.308594 123.855469 C 82.308594 116.445312 85.164062 109.394531 90.375 104.050781 L 122.921875 70.210938 C 131.128906 61.734375 144.691406 59.238281 155.398438 64.085938 C 158.964844 65.722656 160.53125 70 158.894531 73.558594 C 157.25 76.980469 152.898438 78.6875 149.398438 77.046875 C 144.046875 74.628906 137.339844 75.835938 133.199219 80.113281 L 100.582031 113.953125 C 98.011719 116.589844 96.582031 120.152344 96.582031 123.855469 C 96.582031 127.773438 98.15625 131.402344 100.9375 134.113281 C 103.652344 136.679688 107.148438 138.101562 110.859375 138.101562 C 114.78125 138.101562 118.425781 136.535156 121.136719 133.753906 L 142.402344 111.601562 C 142.476562 111.601562 142.476562 111.601562 142.546875 111.53125 C 145.117188 108.894531 149.828125 108.820312 152.539062 111.390625 C 153.894531 112.738281 154.683594 114.523438 154.753906 116.375 C 154.753906 118.296875 154.039062 120.078125 152.753906 121.503906 L 131.414062 143.660156 C 126.0625 149.144531 118.570312 152.351562 110.929688 152.351562 "/><path style=" stroke:none;fill-rule:nonzero;fill:rgb(100%,100%,100%);fill-opacity:1;" d="M 10.148438 168.59375 C 5.820312 157.605469 11.230469 145.203125 22.238281 140.878906 L 68.234375 127.144531 C 79.242188 122.828125 91.671875 128.230469 95.996094 139.214844 C 100.328125 150.199219 94.914062 162.605469 83.910156 166.929688 L 37.910156 180.660156 C 26.90625 184.980469 14.472656 179.578125 10.148438 168.59375 "/><path style=" stroke:none;fill-rule:nonzero;fill:rgb(93.328857%,15.289307%,36.079407%);fill-opacity:1;" d="M 76.050781 132.789062 C 74.316406 132.789062 72.558594 133.105469 70.84375 133.773438 L 24.285156 147.707031 C 21.300781 148.90625 18.507812 151.59375 16.984375 155.082031 C 15.464844 158.574219 15.390625 162.441406 16.789062 165.984375 C 18.183594 169.527344 20.878906 172.3125 24.375 173.832031 C 27.863281 175.351562 31.753906 175.425781 35.296875 174.03125 L 81.863281 160.101562 C 84.84375 158.90625 87.640625 156.21875 89.15625 152.722656 C 90.679688 149.234375 90.753906 145.363281 89.359375 141.824219 C 87.148438 136.214844 81.753906 132.789062 76.050781 132.789062 Z M 30.191406 189.308594 C 26.335938 189.308594 22.398438 188.515625 18.675781 186.898438 C 11.683594 183.859375 6.296875 178.28125 3.507812 171.203125 C 0.714844 164.113281 0.851562 156.375 3.898438 149.390625 C 6.945312 142.410156 12.527344 137.035156 19.628906 134.253906 L 66.1875 120.320312 C 80.28125 114.773438 96.882812 121.996094 102.640625 136.609375 C 108.402344 151.226562 101.175781 167.804688 86.523438 173.558594 L 39.953125 187.484375 C 36.902344 188.695312 33.578125 189.308594 30.191406 189.308594 "/><path style=" stroke:none;fill-rule:nonzero;fill:rgb(100%,100%,100%);fill-opacity:1;" d="M 254.957031 284.679688 C 260.082031 274.039062 272.878906 269.566406 283.53125 274.683594 L 325.964844 294.875 C 336.621094 299.992188 341.105469 312.761719 335.980469 323.398438 C 330.851562 334.035156 318.054688 338.507812 307.398438 333.390625 L 264.96875 313.203125 C 254.3125 308.085938 249.828125 295.316406 254.957031 284.679688 "/><g clip-rule="nonzero" clip-path="url(#clip2)"><path style=" stroke:none;fill-rule:nonzero;fill:rgb(93.328857%,15.289307%,36.079407%);fill-opacity:1;" d="M 292.714844 333.511719 C 291.640625 333.511719 290.644531 333.300781 289.648438 332.875 L 261.878906 319.621094 C 252.03125 314.917969 245.683594 304.804688 245.683594 293.902344 C 245.683594 289.703125 246.679688 285.425781 248.535156 281.582031 C 253.246094 271.75 263.308594 265.40625 274.226562 265.40625 C 278.507812 265.40625 282.792969 266.402344 286.574219 268.257812 L 329.042969 288.417969 C 338.890625 293.195312 345.246094 303.234375 345.246094 314.136719 C 345.246094 315.207031 345.171875 316.273438 345.03125 317.273438 C 344.597656 321.121094 341.246094 323.96875 337.183594 323.609375 C 335.25 323.398438 333.535156 322.402344 332.394531 320.976562 C 331.179688 319.480469 330.609375 317.628906 330.828125 315.703125 C 330.894531 315.207031 330.972656 314.707031 330.972656 314.136719 C 330.894531 308.582031 327.828125 303.664062 322.910156 301.3125 L 280.441406 281.082031 C 278.507812 280.15625 276.4375 279.730469 274.226562 279.65625 C 268.730469 279.730469 263.738281 282.789062 261.386719 287.851562 C 260.460938 289.703125 259.957031 291.769531 259.957031 293.902344 C 259.957031 299.464844 263.09375 304.378906 268.023438 306.796875 L 295.78125 319.976562 C 299.351562 321.6875 300.847656 325.960938 299.144531 329.453125 C 297.996094 331.949219 295.492188 333.511719 292.714844 333.511719 Z M 319.339844 342.417969 C 315.769531 342.417969 312.769531 339.78125 312.273438 336.21875 C 312.054688 334.371094 312.558594 332.515625 313.703125 330.949219 C 314.914062 329.453125 316.554688 328.527344 318.480469 328.246094 C 322.476562 327.742188 325.972656 330.59375 326.476562 334.4375 C 326.683594 336.296875 326.191406 338.21875 324.972656 339.710938 C 323.835938 341.210938 322.191406 342.132812 320.335938 342.417969 L 320.265625 342.417969 C 319.980469 342.417969 319.617188 342.417969 319.339844 342.417969 "/></g><path style=" stroke:none;fill-rule:nonzero;fill:rgb(100%,100%,100%);fill-opacity:1;" d="M 199.984375 212.597656 C 209.066406 205.039062 222.570312 206.257812 230.140625 215.324219 L 257.6875 254.578125 C 265.261719 263.640625 264.035156 277.121094 254.953125 284.679688 C 245.871094 292.238281 232.371094 291.015625 224.796875 281.949219 L 197.253906 242.699219 C 189.679688 233.632812 190.902344 220.15625 199.984375 212.597656 "/><path style=" stroke:none;fill-rule:nonzero;fill:rgb(93.328857%,15.289307%,36.079407%);fill-opacity:1;" d="M 204.5625 218.066406 C 198.511719 223.101562 197.695312 232.105469 202.734375 238.136719 L 230.644531 277.863281 C 232.722656 280.3125 236.160156 282.113281 239.960938 282.453125 C 243.726562 282.820312 247.460938 281.648438 250.386719 279.207031 C 253.316406 276.769531 255.121094 273.339844 255.460938 269.554688 C 255.804688 265.761719 254.648438 262.066406 252.203125 259.144531 L 224.292969 219.410156 C 222.214844 216.960938 218.785156 215.164062 214.988281 214.820312 C 211.152344 214.464844 207.480469 215.628906 204.5625 218.066406 Z M 241.296875 296.761719 C 240.425781 296.761719 239.546875 296.726562 238.671875 296.644531 C 231.074219 295.957031 224.199219 292.359375 219.3125 286.511719 L 191.40625 246.785156 C 181.691406 235.199219 183.324219 217.195312 195.417969 207.125 C 201.269531 202.246094 208.65625 199.910156 216.277344 200.628906 C 223.863281 201.320312 230.738281 204.914062 235.625 210.761719 L 263.535156 250.492188 C 268.050781 255.863281 270.363281 263.253906 269.679688 270.835938 C 268.992188 278.414062 265.386719 285.277344 259.53125 290.148438 C 254.351562 294.460938 247.957031 296.761719 241.296875 296.761719 "/><path style=" stroke:none;fill-rule:nonzero;fill:rgb(97.648621%,68.629456%,73.728943%);fill-opacity:1;" d="M 133.558594 43.421875 L 83.597656 43.421875 C 73.742188 43.421875 65.753906 35.449219 65.753906 25.609375 C 65.753906 15.777344 73.742188 7.800781 83.597656 7.800781 L 133.558594 7.800781 C 143.414062 7.800781 151.402344 15.777344 151.402344 25.609375 C 151.402344 35.449219 143.414062 43.421875 133.558594 43.421875 "/><g clip-rule="nonzero" clip-path="url(#clip3)"><path style=" stroke:none;fill-rule:nonzero;fill:rgb(93.328857%,15.289307%,36.079407%);fill-opacity:1;" d="M 113.144531 14.925781 C 109.21875 14.925781 106.003906 11.71875 106.003906 7.804688 C 106.003906 3.882812 109.21875 0.679688 113.144531 0.679688 C 117.070312 0.679688 120.28125 3.882812 120.28125 7.804688 C 120.28125 11.71875 117.070312 14.925781 113.144531 14.925781 Z M 133.558594 50.550781 L 83.597656 50.550781 C 69.820312 50.550781 58.617188 39.359375 58.617188 25.613281 C 58.617188 11.863281 69.820312 0.679688 83.597656 0.679688 L 84.59375 0.679688 C 88.519531 0.679688 91.730469 3.882812 91.730469 7.804688 C 91.730469 11.71875 88.519531 14.925781 84.59375 14.925781 L 83.597656 14.925781 C 77.675781 14.925781 72.890625 19.699219 72.890625 25.613281 C 72.890625 31.523438 77.675781 36.300781 83.597656 36.300781 L 133.558594 36.300781 C 139.476562 36.300781 144.261719 31.523438 144.261719 25.613281 C 144.261719 21.550781 141.976562 17.917969 138.339844 16.0625 C 138.339844 16.0625 138.265625 16.0625 138.265625 15.996094 C 136.554688 15.214844 135.269531 13.714844 134.695312 11.933594 C 134.054688 10.082031 134.199219 8.15625 135.054688 6.449219 C 136.699219 3.027344 141.121094 1.53125 144.621094 3.242188 C 153.183594 7.445312 158.539062 16.0625 158.539062 25.613281 C 158.539062 39.359375 147.328125 50.550781 133.558594 50.550781 "/></g><path style=" stroke:none;fill-rule:nonzero;fill:rgb(97.648621%,68.629456%,73.728943%);fill-opacity:1;" d="M 210.230469 61.914062 L 162.363281 47.628906 C 152.917969 44.8125 147.554688 34.886719 150.378906 25.464844 C 153.199219 16.039062 163.144531 10.683594 172.585938 13.5 L 220.453125 27.785156 C 229.890625 30.601562 235.257812 40.527344 232.4375 49.953125 L 232.433594 49.953125 C 229.613281 59.375 219.671875 64.730469 210.230469 61.914062 "/><path style=" stroke:none;fill-rule:nonzero;fill:rgb(93.328857%,15.289307%,36.079407%);fill-opacity:1;" d="M 212.265625 55.089844 C 217.933594 56.792969 223.90625 53.558594 225.59375 47.914062 C 226.410156 45.179688 226.117188 42.289062 224.757812 39.777344 C 223.40625 37.265625 221.144531 35.429688 218.40625 34.613281 L 170.539062 20.328125 C 164.886719 18.640625 158.90625 21.855469 157.214844 27.507812 C 156.398438 30.242188 156.695312 33.132812 158.050781 35.644531 C 159.410156 38.15625 161.664062 39.988281 164.40625 40.804688 Z M 215.320312 69.789062 C 212.957031 69.789062 210.5625 69.449219 208.183594 68.742188 L 160.316406 54.453125 C 153.925781 52.550781 148.65625 48.269531 145.488281 42.410156 C 142.320312 36.546875 141.628906 29.808594 143.542969 23.421875 C 147.484375 10.253906 161.414062 2.746094 174.632812 6.675781 L 222.496094 20.964844 C 235.683594 24.898438 243.214844 38.820312 239.269531 51.992188 C 236.035156 62.792969 226.074219 69.789062 215.320312 69.789062 "/><path style=" stroke:none;fill-rule:nonzero;fill:rgb(97.648621%,68.629456%,73.728943%);fill-opacity:1;" d="M 260.28125 295.03125 L 224.953125 330.292969 C 217.984375 337.25 206.6875 337.25 199.71875 330.292969 C 192.75 323.339844 192.75 312.0625 199.71875 305.105469 L 235.046875 269.84375 C 242.015625 262.886719 253.3125 262.886719 260.28125 269.84375 C 267.25 276.800781 267.25 288.078125 260.28125 295.03125 "/><g clip-rule="nonzero" clip-path="url(#clip4)"><path style=" stroke:none;fill-rule:nonzero;fill:rgb(93.328857%,15.289307%,36.079407%);fill-opacity:1;" d="M 260.285156 295.027344 L 260.351562 295.027344 Z M 247.667969 271.757812 C 244.925781 271.757812 242.183594 272.796875 240.09375 274.882812 L 204.769531 310.144531 C 202.746094 312.160156 201.632812 314.847656 201.632812 317.699219 C 201.632812 320.550781 202.746094 323.238281 204.769531 325.253906 C 208.8125 329.300781 215.863281 329.292969 219.910156 325.253906 L 255.238281 289.992188 C 259.402344 285.828125 259.402344 279.050781 255.238281 274.882812 C 253.144531 272.796875 250.40625 271.757812 247.667969 271.757812 Z M 212.339844 342.632812 C 205.660156 342.632812 199.386719 340.039062 194.675781 335.324219 C 189.957031 330.625 187.359375 324.363281 187.359375 317.699219 C 187.359375 311.039062 189.957031 304.777344 194.675781 300.066406 L 230 264.808594 C 239.734375 255.089844 255.578125 255.082031 265.328125 264.808594 C 275.066406 274.53125 275.066406 290.34375 265.328125 300.066406 L 230 335.328125 C 225.28125 340.039062 219.007812 342.632812 212.339844 342.632812 "/></g><path style=" stroke:none;fill-rule:nonzero;fill:rgb(97.648621%,68.629456%,73.728943%);fill-opacity:1;" d="M 327.59375 253.988281 L 283.625 277.675781 C 274.957031 282.347656 264.132812 279.113281 259.449219 270.460938 C 254.773438 261.804688 258.007812 251 266.675781 246.328125 L 310.644531 222.644531 C 319.316406 217.972656 330.140625 221.203125 334.824219 229.859375 C 339.503906 238.515625 336.265625 249.320312 327.59375 253.988281 "/><g clip-rule="nonzero" clip-path="url(#clip5)"><path style=" stroke:none;fill-rule:nonzero;fill:rgb(93.328857%,15.289307%,36.079407%);fill-opacity:1;" d="M 319.105469 227.625 C 317.359375 227.625 315.625 228.0625 314.035156 228.914062 L 270.070312 252.59375 C 267.554688 253.953125 265.714844 256.207031 264.898438 258.941406 C 264.074219 261.675781 264.375 264.566406 265.734375 267.074219 C 267.09375 269.59375 269.351562 271.421875 272.09375 272.238281 C 274.828125 273.066406 277.722656 272.753906 280.238281 271.410156 L 324.203125 247.722656 C 324.203125 247.722656 324.203125 247.722656 324.203125 247.71875 C 326.722656 246.367188 328.558594 244.113281 329.375 241.378906 C 330.199219 238.648438 329.898438 235.753906 328.539062 233.242188 C 327.179688 230.730469 324.921875 228.898438 322.191406 228.078125 C 321.171875 227.777344 320.140625 227.625 319.105469 227.625 Z M 275.183594 286.949219 C 272.78125 286.949219 270.371094 286.597656 267.996094 285.890625 C 261.605469 283.984375 256.339844 279.703125 253.175781 273.84375 C 250.003906 267.984375 249.304688 261.238281 251.222656 254.859375 C 253.132812 248.476562 257.417969 243.222656 263.292969 240.054688 L 307.261719 216.378906 C 313.136719 213.21875 319.898438 212.53125 326.277344 214.429688 C 332.671875 216.335938 337.9375 220.617188 341.101562 226.480469 C 344.269531 232.335938 344.96875 239.078125 343.050781 245.457031 C 341.140625 251.839844 336.855469 257.097656 330.976562 260.261719 L 287.011719 283.945312 C 283.320312 285.9375 279.269531 286.949219 275.183594 286.949219 "/></g><path style=" stroke:none;fill-rule:nonzero;fill:rgb(97.648621%,68.629456%,73.728943%);fill-opacity:1;" d="M 41.96875 275.367188 L 13.074219 247.832031 C 7.371094 242.398438 7.164062 233.386719 12.605469 227.695312 C 18.046875 222.007812 27.078125 221.800781 32.773438 227.230469 L 61.671875 254.765625 C 67.371094 260.195312 67.582031 269.210938 62.136719 274.898438 C 56.695312 280.589844 47.664062 280.796875 41.96875 275.367188 "/><path style=" stroke:none;fill-rule:nonzero;fill:rgb(93.328857%,15.289307%,36.079407%);fill-opacity:1;" d="M 46.894531 270.214844 C 49.742188 272.921875 54.261719 272.824219 56.976562 269.976562 C 58.292969 268.609375 58.996094 266.800781 58.949219 264.902344 C 58.902344 263 58.121094 261.234375 56.746094 259.917969 L 27.847656 232.382812 C 25.007812 229.675781 20.488281 229.777344 17.765625 232.613281 C 16.453125 233.992188 15.753906 235.796875 15.796875 237.691406 C 15.839844 239.597656 16.625 241.363281 18 242.675781 Z M 51.816406 286.421875 C 46.496094 286.421875 41.175781 284.460938 37.039062 280.519531 L 8.144531 252.984375 C 4.007812 249.042969 1.660156 243.730469 1.523438 238.023438 C 1.390625 232.320312 3.496094 226.90625 7.441406 222.773438 C 11.390625 218.648438 16.714844 216.304688 22.429688 216.171875 C 28.035156 216.054688 33.566406 218.132812 37.703125 222.078125 L 66.601562 249.613281 C 70.738281 253.550781 73.085938 258.867188 73.21875 264.570312 C 73.351562 270.277344 71.25 275.691406 67.300781 279.820312 C 63.101562 284.207031 57.460938 286.421875 51.816406 286.421875 "/><path style=" stroke:none;fill-rule:nonzero;fill:rgb(97.648621%,68.629456%,73.728943%);fill-opacity:1;" d="M 76.082031 328.320312 L 56.300781 293.675781 C 52.398438 286.84375 54.785156 278.144531 61.632812 274.253906 C 68.476562 270.355469 77.191406 272.738281 81.089844 279.570312 L 100.875 314.214844 C 104.777344 321.050781 102.390625 329.742188 95.542969 333.640625 C 88.699219 337.535156 79.988281 335.152344 76.082031 328.320312 "/><path style=" stroke:none;fill-rule:nonzero;fill:rgb(93.328857%,15.289307%,36.079407%);fill-opacity:1;" d="M 102.292969 331.804688 C 101.726562 331.804688 101.152344 331.734375 100.582031 331.589844 C 98.722656 331.160156 97.15625 330.023438 96.230469 328.386719 C 95.230469 326.746094 94.945312 324.824219 95.371094 322.96875 C 96.300781 319.195312 100.296875 316.84375 104.078125 317.769531 C 107.863281 318.695312 110.21875 322.617188 109.21875 326.390625 C 108.433594 329.597656 105.578125 331.804688 102.292969 331.804688 Z M 79.601562 339.5 C 77.957031 339.5 76.386719 339 75.105469 338 C 73.035156 336.292969 71.25 334.230469 69.890625 331.875 L 50.125 297.179688 C 48.265625 293.976562 47.265625 290.273438 47.265625 286.636719 C 47.265625 278.945312 51.40625 271.820312 58.117188 268.042969 C 61.328125 266.191406 64.96875 265.261719 68.675781 265.261719 C 76.316406 265.261719 83.453125 269.394531 87.308594 276.023438 L 98.300781 295.328125 C 100.296875 298.75 99.082031 303.09375 95.660156 305.089844 C 92.300781 306.941406 87.808594 305.660156 85.878906 302.382812 L 74.890625 283.074219 C 73.601562 280.867188 71.320312 279.511719 68.675781 279.511719 C 67.464844 279.511719 66.25 279.796875 65.183594 280.441406 C 62.894531 281.722656 61.539062 284.003906 61.539062 286.636719 C 61.539062 287.851562 61.898438 289.0625 62.46875 290.128906 L 82.3125 324.824219 C 82.738281 325.605469 83.308594 326.246094 84.027344 326.816406 C 85.527344 328.027344 86.449219 329.667969 86.664062 331.589844 C 86.878906 333.511719 86.378906 335.367188 85.164062 336.863281 C 83.808594 338.570312 81.738281 339.5 79.601562 339.5 "/><path style=" stroke:none;fill-rule:nonzero;fill:rgb(97.648621%,68.629456%,73.728943%);fill-opacity:1;" d="M 98.300781 181.535156 C 108.058594 174.863281 121.382812 177.351562 128.066406 187.089844 L 160.335938 234.105469 C 167.015625 243.84375 164.527344 257.144531 154.773438 263.816406 C 145.015625 270.488281 131.691406 268 125.007812 258.261719 L 92.738281 211.246094 C 86.054688 201.507812 88.546875 188.207031 98.300781 181.535156 "/><path style=" stroke:none;fill-rule:nonzero;fill:rgb(93.328857%,15.289307%,36.079407%);fill-opacity:1;" d="M 110.378906 184.925781 C 107.601562 184.925781 104.796875 185.730469 102.335938 187.410156 C 95.839844 191.851562 94.179688 200.742188 98.625 207.21875 L 130.898438 254.234375 C 133.050781 257.378906 136.300781 259.492188 140.046875 260.191406 C 143.808594 260.882812 147.597656 260.085938 150.742188 257.933594 C 153.882812 255.785156 156.003906 252.542969 156.703125 248.800781 C 157.40625 245.0625 156.601562 241.269531 154.445312 238.128906 L 122.175781 191.117188 C 119.414062 187.09375 114.933594 184.925781 110.378906 184.925781 Z M 142.730469 274.6875 C 140.972656 274.6875 139.195312 274.523438 137.425781 274.191406 C 129.929688 272.796875 123.425781 268.570312 119.117188 262.289062 L 86.847656 215.273438 C 77.953125 202.3125 81.28125 184.542969 94.265625 175.660156 C 107.253906 166.78125 125.058594 170.097656 133.949219 183.058594 L 166.226562 230.074219 C 170.53125 236.359375 172.136719 243.9375 170.734375 251.417969 C 169.332031 258.902344 165.097656 265.390625 158.808594 269.691406 C 154 272.980469 148.433594 274.6875 142.730469 274.6875 "/><path style=" stroke:none;fill-rule:nonzero;fill:rgb(97.648621%,68.629456%,73.728943%);fill-opacity:1;" d="M 81.070312 83.292969 C 92.71875 81.257812 103.816406 89.03125 105.855469 100.660156 L 115.699219 156.796875 C 117.738281 168.421875 109.949219 179.5 98.300781 181.535156 C 86.652344 183.570312 75.558594 175.792969 73.515625 164.167969 L 63.671875 108.03125 C 61.632812 96.402344 69.421875 85.328125 81.070312 83.292969 "/><path style=" stroke:none;fill-rule:nonzero;fill:rgb(93.328857%,15.289307%,36.079407%);fill-opacity:1;" d="M 81.070312 83.289062 L 81.140625 83.289062 Z M 84.792969 90.089844 C 83.96875 90.089844 83.132812 90.164062 82.300781 90.308594 C 78.542969 90.964844 75.269531 93.042969 73.078125 96.15625 C 70.886719 99.269531 70.042969 103.050781 70.699219 106.800781 L 80.546875 162.9375 C 81.207031 166.6875 83.289062 169.960938 86.40625 172.144531 C 89.53125 174.335938 93.308594 175.167969 97.070312 174.519531 C 104.824219 173.160156 110.027344 165.765625 108.671875 158.023438 L 98.824219 101.886719 C 98.164062 98.136719 96.085938 94.867188 92.964844 92.683594 C 90.53125 90.976562 87.699219 90.089844 84.792969 90.089844 Z M 94.546875 188.988281 C 88.730469 188.988281 83.0625 187.214844 78.207031 183.808594 C 71.964844 179.433594 67.804688 172.894531 66.492188 165.394531 L 56.640625 109.257812 C 55.324219 101.757812 57.011719 94.199219 61.394531 87.96875 C 65.777344 81.742188 72.328125 77.585938 79.839844 76.273438 C 87.347656 74.957031 94.921875 76.648438 101.164062 81.019531 C 107.40625 85.394531 111.566406 91.933594 112.882812 99.433594 L 122.730469 155.570312 C 125.445312 171.046875 115.039062 185.839844 99.53125 188.550781 C 97.867188 188.84375 96.203125 188.988281 94.546875 188.988281 "/><path style=" stroke:none;fill-rule:nonzero;fill:rgb(97.648621%,68.629456%,73.728943%);fill-opacity:1;" d="M 258.566406 132.089844 C 250.066406 123.882812 249.839844 110.355469 258.0625 101.871094 L 290.621094 68.03125 C 298.84375 59.546875 312.398438 59.320312 320.898438 67.53125 C 329.398438 75.734375 329.621094 89.261719 321.402344 97.75 L 288.839844 131.585938 C 280.621094 140.074219 267.066406 140.296875 258.566406 132.089844 "/><path style=" stroke:none;fill-rule:nonzero;fill:rgb(93.328857%,15.289307%,36.079407%);fill-opacity:1;" d="M 327.042969 94.074219 C 326.546875 94.074219 326.113281 94.074219 325.691406 94 C 321.765625 93.21875 319.261719 89.445312 319.980469 85.59375 C 320.761719 81.816406 324.546875 79.257812 328.402344 79.96875 C 330.257812 80.324219 331.828125 81.394531 332.964844 82.960938 C 333.972656 84.597656 334.394531 86.453125 334.039062 88.304688 C 333.402344 91.652344 330.402344 94.074219 327.042969 94.074219 Z M 273.511719 145.226562 L 273.441406 145.226562 C 265.953125 145.226562 258.953125 142.375 253.597656 137.25 C 248.035156 131.828125 244.894531 124.421875 244.894531 116.730469 C 244.894531 109.246094 247.753906 102.265625 252.890625 96.921875 L 285.507812 63.082031 C 293.710938 54.539062 307.210938 52.042969 317.910156 56.957031 C 319.621094 57.742188 320.980469 59.167969 321.621094 60.949219 C 322.261719 62.800781 322.261719 64.722656 321.402344 66.433594 C 319.835938 69.851562 315.484375 71.5625 311.988281 69.921875 C 310.132812 69.066406 308.0625 68.640625 305.992188 68.640625 C 302.0625 68.640625 298.425781 70.210938 295.78125 72.984375 L 263.171875 106.824219 C 260.527344 109.535156 259.167969 112.953125 259.167969 116.730469 C 259.167969 120.644531 260.738281 124.277344 263.527344 126.988281 C 269.019531 132.257812 278.441406 132.046875 283.652344 126.628906 L 304.992188 104.476562 C 305.066406 104.476562 305.066406 104.40625 305.066406 104.40625 C 307.703125 101.695312 312.414062 101.695312 315.125 104.261719 C 317.910156 106.96875 318.050781 111.53125 315.339844 114.378906 L 294 136.53125 C 288.644531 142.089844 281.152344 145.226562 273.511719 145.226562 "/><path style=" stroke:none;fill-rule:nonzero;fill:rgb(97.648621%,68.629456%,73.728943%);fill-opacity:1;" d="M 172.714844 161.46875 C 168.386719 150.480469 173.800781 138.074219 184.804688 133.753906 L 230.804688 120.019531 C 241.8125 115.703125 254.242188 121.105469 258.566406 132.085938 C 262.894531 143.074219 257.484375 155.480469 246.476562 159.800781 L 200.480469 173.535156 C 189.476562 177.855469 177.042969 172.453125 172.714844 161.46875 "/><path style=" stroke:none;fill-rule:nonzero;fill:rgb(93.328857%,15.289307%,36.079407%);fill-opacity:1;" d="M 238.625 125.660156 C 236.886719 125.660156 235.125 125.980469 233.414062 126.652344 L 186.855469 140.582031 C 183.867188 141.78125 181.078125 144.46875 179.558594 147.957031 C 178.035156 151.445312 177.957031 155.320312 179.355469 158.859375 C 180.75 162.402344 183.445312 165.191406 186.941406 166.707031 C 190.421875 168.230469 194.308594 168.296875 197.863281 166.90625 L 244.4375 152.976562 C 247.410156 151.78125 250.207031 149.085938 251.734375 145.597656 C 253.25 142.109375 253.320312 138.238281 251.925781 134.699219 C 249.714844 129.09375 244.324219 125.660156 238.625 125.660156 Z M 192.761719 182.1875 C 188.898438 182.1875 184.960938 181.390625 181.238281 179.773438 C 174.25 176.738281 168.863281 171.160156 166.074219 164.078125 C 163.28125 156.992188 163.421875 149.246094 166.464844 142.269531 C 169.511719 135.289062 175.097656 129.910156 182.195312 127.125 L 228.753906 113.195312 C 242.855469 107.644531 259.453125 114.863281 265.214844 129.480469 C 268 136.566406 267.859375 144.3125 264.816406 151.289062 C 261.769531 158.269531 256.1875 163.644531 249.089844 166.433594 L 202.519531 180.359375 C 199.464844 181.570312 196.148438 182.1875 192.761719 182.1875 "/></g><mask xml:id="mask0" id="mask0"><g filter="url(#alpha)"><rect x="0" width="375" y="0" height="374.999991" style="fill:rgb(0%,0%,0%);fill-opacity:0.098;stroke:none;"/></g></mask></g></g></svg>