<?xml version="1.0" encoding="UTF-8"?>
<svg xmlns="http://www.w3.org/2000/svg" xmlns:xlink="http://www.w3.org/1999/xlink" width="768pt" height="767.999994pt" viewBox="0 0 768 767.999994" version="1.2">
<defs>
<clipPath id="clip1">
  <path d="M 37.023438 37.023438 L 730.773438 37.023438 L 730.773438 730.773438 L 37.023438 730.773438 Z M 37.023438 37.023438 "/>
</clipPath>
</defs>
<g id="surface1">
<g clip-path="url(#clip1)" clip-rule="nonzero">
<path style=" stroke:none;fill-rule:nonzero;fill:rgb(0%,0%,0%);fill-opacity:1;" d="M 730.773438 383.898438 C 730.773438 192.351562 575.441406 37.023438 383.898438 37.023438 C 192.351562 37.023438 37.023438 192.351562 37.023438 383.898438 C 37.023438 575.441406 192.351562 730.773438 383.898438 730.773438 C 575.441406 730.773438 730.773438 575.441406 730.773438 383.898438 Z M 730.773438 383.898438 "/>
</g>
<path style=" stroke:none;fill-rule:nonzero;fill:rgb(100%,100%,100%);fill-opacity:1;" d="M 230.242188 279.738281 C 230.242188 260.300781 236.535156 240.589844 248.976562 220.59375 C 261.421875 200.601562 279.738281 184.105469 303.644531 170.960938 C 327.550781 157.820312 355.515625 151.25 387.53125 151.25 C 417.171875 151.25 443.457031 156.703125 466.105469 167.746094 C 488.894531 178.652344 506.371094 193.613281 518.816406 212.488281 C 531.257812 231.359375 537.410156 251.773438 537.410156 273.863281 C 537.410156 291.339844 533.914062 306.582031 526.785156 319.582031 C 519.65625 332.726562 511.265625 344.050781 501.617188 353.558594 C 491.832031 363.066406 474.496094 379.144531 449.1875 401.652344 C 442.199219 407.945312 436.605469 413.535156 432.410156 418.429688 C 428.21875 423.183594 425.140625 427.65625 423.042969 431.574219 C 420.945312 435.628906 419.410156 439.542969 418.289062 443.597656 C 417.171875 447.652344 415.496094 454.640625 413.257812 464.707031 C 409.34375 485.960938 397.179688 496.726562 376.765625 496.726562 C 366.140625 496.726562 357.191406 493.230469 349.921875 486.238281 C 342.652344 479.25 339.015625 468.902344 339.015625 455.199219 C 339.015625 438.003906 341.671875 423.042969 346.984375 410.460938 C 352.300781 397.878906 359.429688 386.832031 368.238281 377.324219 C 377.046875 367.816406 388.929688 356.492188 403.890625 343.351562 C 417.03125 331.886719 426.398438 323.21875 432.273438 317.347656 C 438.144531 311.472656 443.039062 305.042969 446.953125 297.773438 C 451.007812 290.640625 452.964844 282.8125 452.964844 274.421875 C 452.964844 258.066406 446.8125 244.222656 434.648438 232.898438 C 422.484375 221.574219 406.6875 215.980469 387.53125 215.980469 C 365.023438 215.980469 348.382812 221.714844 337.757812 233.039062 C 327.132812 244.363281 318.042969 261.140625 310.773438 283.230469 C 303.785156 306.441406 290.640625 317.90625 271.207031 317.90625 C 259.742188 317.90625 250.097656 313.851562 242.125 305.742188 C 234.296875 297.910156 230.242188 289.242188 230.242188 279.734375 M 380.261719 616.40625 C 367.816406 616.40625 356.914062 612.351562 347.546875 604.242188 C 338.179688 596.132812 333.5625 584.808594 333.5625 570.265625 C 333.5625 557.402344 338.039062 546.5 347.125 537.691406 C 356.074219 528.882812 367.257812 524.546875 380.261719 524.546875 C 393.125 524.546875 404.03125 529.023438 412.835938 537.691406 C 421.644531 546.5 425.980469 557.402344 425.980469 570.265625 C 425.980469 584.667969 421.367188 595.851562 412.140625 604.101562 C 402.910156 612.351562 392.285156 616.40625 380.261719 616.40625 "/>
</g>
</svg>
