<?xml version="1.0" encoding="UTF-8"?>
<svg xmlns="http://www.w3.org/2000/svg" xmlns:xlink="http://www.w3.org/1999/xlink" width="768pt" height="767.999994pt" viewBox="0 0 768 767.999994" version="1.2">
<defs>
<clipPath id="clip1">
  <path d="M 70.351562 63.90625 L 697.058594 63.90625 L 697.058594 690.613281 L 70.351562 690.613281 Z M 70.351562 63.90625 "/>
</clipPath>
<clipPath id="clip2">
  <path d="M 70.351562 63.90625 L 670 63.90625 L 670 677 L 70.351562 677 Z M 70.351562 63.90625 "/>
</clipPath>
</defs>
<g id="surface1">
<g clip-path="url(#clip1)" clip-rule="nonzero">
<path style=" stroke:none;fill-rule:nonzero;fill:rgb(92.939758%,92.939758%,92.939758%);fill-opacity:1;" d="M 618.457031 584.761719 C 667.3125 529.464844 697.058594 456.875 697.058594 377.261719 C 697.058594 204.191406 556.773438 63.90625 383.707031 63.90625 C 210.636719 63.90625 70.351562 204.191406 70.351562 377.261719 C 70.351562 550.328125 210.636719 690.613281 383.707031 690.613281 C 429.261719 690.613281 472.476562 680.820312 511.484375 663.367188 L 697.058594 663.367188 L 618.457031 584.761719 "/>
</g>
<g clip-path="url(#clip2)" clip-rule="nonzero">
<path style=" stroke:none;fill-rule:nonzero;fill:rgb(90.19928%,90.19928%,88.62915%);fill-opacity:1;" d="M 669.8125 649.742188 L 591.207031 571.136719 C 640.0625 515.84375 669.8125 443.25 669.8125 363.636719 C 669.8125 246.339844 605.3125 144.109375 509.835938 90.410156 C 471.253906 73.433594 428.570312 63.90625 383.707031 63.90625 C 210.636719 63.90625 70.351562 204.191406 70.351562 377.261719 C 70.351562 494.554688 134.855469 596.789062 230.328125 650.488281 C 268.914062 667.464844 311.59375 676.988281 356.457031 676.988281 C 402.015625 676.988281 445.226562 667.199219 484.238281 649.742188 L 669.8125 649.742188 "/>
</g>
<path style=" stroke:none;fill-rule:nonzero;fill:rgb(47.44873%,74.899292%,91.369629%);fill-opacity:1;" d="M 465.453125 573.425781 L 405.847656 592.851562 C 391.847656 597.425781 376.523438 595.40625 364.175781 587.367188 C 350.871094 578.640625 342.835938 564.003906 342.835938 548.304688 L 342.835938 400.089844 C 342.835938 374.917969 326.390625 352.566406 301.960938 344.582031 L 361.566406 325.160156 C 375.5625 320.582031 390.890625 322.605469 403.238281 330.640625 C 416.542969 339.367188 424.578125 354.003906 424.578125 369.703125 L 424.578125 517.917969 C 424.578125 543.089844 441.023438 565.441406 465.453125 573.425781 "/>
<path style=" stroke:none;fill-rule:nonzero;fill:rgb(47.44873%,74.899292%,91.369629%);fill-opacity:1;" d="M 329.210938 213.769531 C 329.210938 183.648438 353.585938 159.273438 383.707031 159.273438 C 413.828125 159.273438 438.203125 183.648438 438.203125 213.769531 C 438.203125 243.894531 413.828125 268.269531 383.707031 268.269531 C 353.585938 268.269531 329.210938 243.894531 329.210938 213.769531 "/>
</g>
</svg>
