<?xml version="1.0" encoding="UTF-8"?>
<svg xmlns="http://www.w3.org/2000/svg" xmlns:xlink="http://www.w3.org/1999/xlink" width="375pt" height="374.999991pt" viewBox="0 0 375 374.999991" version="1.2">
<defs>
<clipPath id="clip1">
  <path d="M 56.25 0 L 316 0 L 316 371.917969 L 56.25 371.917969 Z M 56.25 0 "/>
</clipPath>
</defs>
<g id="surface1">
<g clip-path="url(#clip1)" clip-rule="nonzero">
<path style=" stroke:none;fill-rule:nonzero;fill:rgb(0%,0%,0%);fill-opacity:1;" d="M 314.234375 271.5 C 313.0625 270.128906 311.300781 269.152344 309.347656 269.152344 L 299.765625 269.152344 L 299.765625 249.96875 C 299.765625 232.351562 285.492188 217.867188 267.703125 217.867188 C 249.910156 217.867188 235.636719 232.15625 235.636719 249.96875 L 235.636719 313.976562 C 235.636719 338.835938 215.5 359 190.667969 359 C 166.035156 359 146.089844 339.03125 146.089844 314.171875 L 146.089844 294.792969 L 158.996094 294.792969 C 162.515625 294.792969 165.445312 291.859375 165.445312 288.335938 L 165.445312 265.039062 C 198.683594 254.46875 222.929688 222.953125 222.929688 185.960938 L 222.929688 77.710938 C 222.929688 70.859375 220.191406 64.007812 215.109375 59.117188 C 210.21875 54.222656 203.574219 51.285156 196.535156 51.285156 L 165.25 51.285156 L 165.25 25.644531 C 165.25 11.550781 153.714844 0 139.640625 0 C 125.5625 0 114.027344 11.550781 114.027344 25.644531 L 114.027344 51.285156 L 82.742188 51.285156 C 75.707031 51.285156 69.058594 54.027344 64.171875 59.117188 C 59.28125 64.007812 56.546875 70.859375 56.546875 77.710938 L 56.546875 185.960938 C 56.546875 222.953125 80.789062 254.46875 114.222656 265.234375 L 114.222656 288.53125 C 114.222656 292.054688 117.15625 294.988281 120.675781 294.988281 L 133.578125 294.988281 L 133.578125 314.367188 C 133.578125 346.078125 159.386719 371.917969 191.058594 371.917969 C 222.929688 371.917969 248.933594 345.882812 248.933594 313.976562 L 248.933594 249.96875 C 248.933594 239.398438 257.535156 230.785156 268.09375 230.785156 C 278.652344 230.785156 287.253906 239.398438 287.253906 249.96875 L 287.253906 269.152344 L 277.28125 269.152344 C 275.328125 269.152344 273.566406 269.933594 272.394531 271.5 C 271.222656 273.066406 270.632812 274.828125 271.027344 276.785156 L 277.476562 315.347656 C 278.0625 318.480469 280.605469 320.632812 283.734375 320.632812 L 286.863281 320.632812 L 286.863281 333.550781 C 286.863281 337.074219 289.796875 340.011719 293.3125 340.011719 C 296.832031 340.011719 299.765625 337.074219 299.765625 333.550781 L 299.765625 320.632812 L 302.894531 320.632812 C 306.023438 320.632812 308.761719 318.285156 309.152344 315.347656 L 315.601562 276.785156 C 315.996094 274.828125 315.40625 273.066406 314.234375 271.5 Z M 126.734375 25.644531 C 126.734375 18.597656 132.40625 12.722656 139.640625 12.722656 C 146.875 12.722656 152.542969 18.398438 152.542969 25.644531 L 152.542969 51.285156 L 126.734375 51.285156 Z M 73.164062 68.121094 C 75.707031 65.574219 79.226562 64.203125 82.742188 64.203125 L 196.730469 64.203125 C 200.25 64.203125 203.769531 65.574219 206.308594 68.121094 C 208.851562 70.664062 210.21875 74.1875 210.21875 77.710938 L 210.21875 115.492188 L 69.253906 115.492188 L 69.253906 102.570312 L 101.316406 102.570312 C 104.835938 102.570312 107.769531 99.636719 107.769531 96.113281 C 107.769531 92.589844 104.835938 89.652344 101.316406 89.652344 L 69.253906 89.652344 L 69.253906 77.515625 C 69.253906 74.1875 70.621094 70.664062 73.164062 68.121094 Z M 71.796875 205.140625 L 88.21875 205.140625 C 91.738281 205.140625 94.671875 202.207031 94.671875 198.683594 C 94.671875 195.160156 91.738281 192.222656 88.21875 192.222656 L 69.449219 192.222656 C 69.253906 190.070312 69.058594 187.917969 69.058594 185.761719 L 69.058594 179.304688 L 101.121094 179.304688 C 104.640625 179.304688 107.574219 176.367188 107.574219 172.84375 C 107.574219 169.320312 104.640625 166.382812 101.121094 166.382812 L 69.253906 166.382812 L 69.253906 153.464844 L 88.414062 153.464844 C 91.933594 153.464844 94.867188 150.527344 94.867188 147.003906 C 94.867188 143.480469 91.933594 140.546875 88.414062 140.546875 L 69.253906 140.546875 L 69.253906 127.625 L 210.21875 127.625 L 210.21875 185.960938 C 210.21875 224.914062 178.546875 256.425781 139.835938 256.425781 C 107.378906 256.425781 80.203125 234.699219 71.796875 205.140625 Z M 126.734375 269.347656 L 152.347656 269.347656 L 152.347656 282.265625 L 126.734375 282.265625 Z M 297.421875 307.714844 L 289.011719 307.714844 L 284.710938 282.070312 L 301.527344 282.070312 Z M 297.421875 307.714844 "/>
</g>
</g>
</svg>
