<?xml version="1.0" encoding="UTF-8"?>
<svg xmlns="http://www.w3.org/2000/svg" xmlns:xlink="http://www.w3.org/1999/xlink" width="375pt" height="374.999991pt" viewBox="0 0 375 374.999991" version="1.2">
<defs>
<clipPath id="clip1">
  <path d="M 59 9 L 321.90625 9 L 321.90625 374 L 59 374 Z M 59 9 "/>
</clipPath>
</defs>
<g id="surface1">
<g clip-path="url(#clip1)" clip-rule="nonzero">
<path style=" stroke:none;fill-rule:nonzero;fill:rgb(0%,0%,0%);fill-opacity:1;" d="M 110.195312 9.546875 C 109.441406 9.570312 108.710938 9.710938 108 9.964844 C 107.289062 10.21875 106.636719 10.574219 106.035156 11.03125 C 105.4375 11.488281 104.921875 12.027344 104.488281 12.644531 C 104.054688 13.261719 103.726562 13.933594 103.503906 14.652344 C 103.277344 15.375 103.167969 16.113281 103.171875 16.867188 C 103.179688 17.621094 103.296875 18.359375 103.53125 19.078125 C 103.765625 19.796875 104.101562 20.460938 104.542969 21.074219 C 104.980469 21.6875 105.503906 22.21875 106.109375 22.667969 C 106.109375 22.667969 187.84375 85.570312 235.515625 109.574219 C 253.117188 118.441406 253.667969 142.492188 236.59375 152.421875 C 236.59375 152.425781 236.59375 152.429688 236.59375 152.433594 C 225.875 158.667969 213.261719 162.207031 208.472656 162.570312 C 206.292969 162.738281 204.472656 161.195312 204.046875 158.589844 C 197.910156 121.015625 163.511719 91.9375 131.703125 71.472656 C 99.898438 51.007812 69.578125 39.214844 69.578125 39.214844 C 69.128906 39.03125 68.671875 38.894531 68.195312 38.804688 C 67.722656 38.714844 67.246094 38.671875 66.765625 38.675781 C 66.28125 38.679688 65.804688 38.730469 65.332031 38.828125 C 64.863281 38.929688 64.402344 39.074219 63.960938 39.265625 C 63.519531 39.453125 63.097656 39.6875 62.703125 39.960938 C 62.304688 40.234375 61.9375 40.546875 61.601562 40.894531 C 61.269531 41.238281 60.96875 41.617188 60.710938 42.023438 C 60.449219 42.429688 60.234375 42.859375 60.058594 43.308594 C 59.882812 43.757812 59.753906 44.222656 59.671875 44.699219 C 59.585938 45.171875 59.550781 45.652344 59.5625 46.136719 C 59.574219 46.617188 59.636719 47.09375 59.742188 47.566406 C 59.847656 48.039062 60 48.492188 60.199219 48.933594 C 60.394531 49.375 60.632812 49.792969 60.914062 50.183594 C 61.195312 50.578125 61.511719 50.9375 61.863281 51.269531 C 62.214844 51.597656 62.59375 51.890625 63.003906 52.144531 C 63.414062 52.398438 63.847656 52.609375 64.296875 52.777344 C 64.296875 52.777344 93.449219 64.160156 123.859375 83.726562 C 154.269531 103.292969 184.828125 131.09375 189.703125 160.949219 C 191.238281 170.355469 199.640625 177.851562 209.578125 177.085938 C 218.34375 176.417969 231.222656 172.378906 243.882812 165.015625 C 270.230469 149.699219 269.285156 110.289062 242.039062 96.566406 C 197.601562 74.1875 114.933594 11.097656 114.933594 11.097656 C 113.542969 10 111.964844 9.484375 110.195312 9.546875 Z M 285.171875 89.101562 C 282.300781 89.039062 279.292969 89.25 276.175781 89.769531 C 275.894531 89.816406 275.621094 89.878906 275.347656 89.957031 C 275.074219 90.035156 274.808594 90.132812 274.546875 90.242188 C 274.289062 90.351562 274.035156 90.476562 273.789062 90.617188 C 273.539062 90.757812 273.304688 90.910156 273.074219 91.078125 C 272.847656 91.246094 272.628906 91.425781 272.421875 91.617188 C 272.214844 91.8125 272.019531 92.015625 271.835938 92.234375 C 271.652344 92.449219 271.480469 92.675781 271.324219 92.910156 C 271.167969 93.148438 271.023438 93.390625 270.894531 93.644531 C 270.765625 93.898438 270.652344 94.15625 270.554688 94.421875 C 270.457031 94.691406 270.375 94.960938 270.308594 95.238281 C 270.242188 95.511719 270.191406 95.792969 270.15625 96.074219 C 270.121094 96.355469 270.105469 96.636719 270.101562 96.921875 C 270.101562 97.207031 270.117188 97.488281 270.148438 97.769531 C 270.179688 98.050781 270.230469 98.332031 270.292969 98.609375 C 270.359375 98.882812 270.4375 99.15625 270.535156 99.421875 C 270.632812 99.691406 270.742188 99.949219 270.867188 100.203125 C 277.589844 113.675781 279.183594 125.214844 279.183594 133.34375 C 279.183594 141.46875 277.734375 145.597656 277.734375 145.597656 C 277.644531 145.871094 277.570312 146.148438 277.511719 146.429688 C 277.453125 146.710938 277.414062 146.992188 277.390625 147.28125 C 277.363281 147.566406 277.359375 147.851562 277.367188 148.140625 C 277.375 148.429688 277.402344 148.714844 277.445312 148.996094 C 277.488281 149.28125 277.550781 149.5625 277.625 149.839844 C 277.703125 150.117188 277.792969 150.386719 277.902344 150.652344 C 278.011719 150.921875 278.136719 151.179688 278.273438 151.429688 C 278.414062 151.679688 278.566406 151.921875 278.734375 152.15625 C 278.902344 152.390625 279.082031 152.613281 279.277344 152.824219 C 279.472656 153.035156 279.679688 153.234375 279.894531 153.421875 C 280.113281 153.609375 280.339844 153.785156 280.578125 153.945312 C 280.816406 154.105469 281.0625 154.25 281.320312 154.378906 C 281.574219 154.511719 281.835938 154.625 282.105469 154.726562 C 282.375 154.824219 282.648438 154.910156 282.929688 154.976562 C 283.207031 155.042969 283.488281 155.09375 283.773438 155.128906 C 284.058594 155.164062 284.34375 155.179688 284.632812 155.179688 C 297.140625 155.179688 307.160156 150.796875 313.433594 143.761719 C 319.703125 136.730469 322.058594 127.464844 320.894531 118.726562 C 318.859375 103.441406 305.257812 89.542969 285.171875 89.101562 Z M 290.605469 104.015625 C 300.769531 105.921875 305.511719 113.292969 306.492188 120.660156 C 307.148438 125.574219 305.855469 130.410156 302.59375 134.066406 C 300.535156 136.371094 297.140625 138.046875 292.945312 139.214844 C 293.289062 136.652344 293.710938 136.847656 293.710938 133.34375 C 293.710938 125.648438 291.609375 115.285156 287.566406 104.042969 C 288.5 104.121094 289.75 103.855469 290.605469 104.015625 Z M 265.476562 176.203125 C 261.539062 176.488281 257.671875 178.027344 254.496094 180.980469 C 246.554688 188.371094 225.84375 191.949219 209.535156 192.328125 C 203.339844 192.46875 198.324219 197.09375 196.964844 202.261719 C 195.609375 207.433594 197.699219 213.941406 203.023438 217.121094 C 210.066406 221.328125 217.042969 225.574219 218.785156 226.746094 C 218.792969 226.75 218.796875 226.753906 218.800781 226.757812 C 227.628906 232.65625 229.78125 234.96875 230.804688 237.621094 C 231.824219 240.269531 231.945312 246.039062 233.128906 257.308594 L 241.289062 366.804688 C 241.324219 367.28125 241.40625 367.75 241.53125 368.210938 C 241.660156 368.671875 241.832031 369.117188 242.046875 369.542969 C 242.261719 369.96875 242.515625 370.371094 242.808594 370.75 C 243.101562 371.125 243.429688 371.46875 243.792969 371.78125 C 244.15625 372.09375 244.542969 372.367188 244.957031 372.605469 C 245.375 372.839844 245.808594 373.03125 246.261719 373.183594 C 246.714844 373.332031 247.179688 373.4375 247.652344 373.496094 C 248.125 373.550781 248.601562 373.5625 249.078125 373.527344 C 249.554688 373.492188 250.019531 373.410156 250.480469 373.285156 C 250.941406 373.15625 251.382812 372.984375 251.808594 372.769531 C 252.238281 372.554688 252.636719 372.296875 253.015625 372.003906 C 253.390625 371.710938 253.734375 371.382812 254.046875 371.019531 C 254.355469 370.65625 254.628906 370.265625 254.867188 369.851562 C 255.101562 369.433594 255.292969 369 255.441406 368.542969 C 255.589844 368.089844 255.695312 367.625 255.753906 367.152344 C 255.8125 366.675781 255.824219 366.199219 255.789062 365.722656 L 247.601562 256 C 247.597656 255.929688 247.59375 255.859375 247.585938 255.789062 C 246.476562 245.214844 246.960938 239.144531 244.351562 232.375 C 241.746094 225.605469 236.28125 220.929688 226.875 214.644531 L 226.859375 214.644531 C 224.570312 213.113281 219.039062 209.796875 213.566406 206.515625 C 230.570312 205.929688 251.238281 203.878906 264.371094 191.65625 C 266.089844 190.058594 269.214844 190.523438 270.699219 192.722656 C 274.746094 198.726562 279.609375 205.894531 281.480469 213.367188 C 283.351562 220.839844 282.988281 228.304688 275.265625 237.976562 C 274.152344 239.371094 273.621094 240.964844 273.679688 242.75 L 277.59375 366.492188 C 277.609375 366.96875 277.667969 367.441406 277.777344 367.90625 C 277.882812 368.375 278.035156 368.824219 278.230469 369.261719 C 278.429688 369.699219 278.664062 370.109375 278.941406 370.5 C 279.21875 370.890625 279.53125 371.246094 279.878906 371.574219 C 280.226562 371.902344 280.605469 372.195312 281.007812 372.449219 C 281.414062 372.699219 281.839844 372.910156 282.285156 373.082031 C 282.734375 373.25 283.191406 373.375 283.664062 373.453125 C 284.132812 373.53125 284.609375 373.5625 285.085938 373.550781 C 285.5625 373.535156 286.035156 373.472656 286.5 373.363281 C 286.964844 373.257812 287.414062 373.105469 287.847656 372.90625 C 288.285156 372.710938 288.695312 372.472656 289.085938 372.195312 C 289.472656 371.917969 289.832031 371.601562 290.15625 371.253906 C 290.484375 370.90625 290.773438 370.527344 291.027344 370.121094 C 291.277344 369.714844 291.488281 369.289062 291.65625 368.839844 C 291.828125 368.394531 291.949219 367.933594 292.027344 367.460938 C 292.105469 366.988281 292.136719 366.515625 292.121094 366.035156 L 288.25 243.691406 C 296.1875 231.945312 298.0625 219.785156 295.570312 209.828125 C 292.835938 198.914062 286.628906 190.363281 282.730469 184.578125 C 279.585938 179.914062 274.640625 177.046875 269.421875 176.332031 C 268.117188 176.152344 266.792969 176.109375 265.476562 176.203125 Z M 215.210938 242.425781 C 214.734375 242.449219 214.265625 242.515625 213.800781 242.632812 C 213.339844 242.746094 212.890625 242.90625 212.460938 243.113281 C 212.027344 243.316406 211.621094 243.558594 211.238281 243.84375 C 210.855469 244.128906 210.503906 244.445312 210.183594 244.800781 C 209.859375 245.15625 209.578125 245.535156 209.332031 245.945312 C 209.085938 246.355469 208.882812 246.785156 208.722656 247.234375 C 208.558594 247.683594 208.445312 248.148438 208.375 248.621094 C 208.304688 249.09375 208.277344 249.566406 208.300781 250.042969 L 212.21875 366.503906 C 212.234375 366.984375 212.296875 367.457031 212.40625 367.921875 C 212.511719 368.386719 212.664062 368.835938 212.863281 369.273438 C 213.058594 369.707031 213.296875 370.121094 213.574219 370.507812 C 213.855469 370.898438 214.167969 371.253906 214.515625 371.582031 C 214.863281 371.910156 215.242188 372.199219 215.648438 372.449219 C 216.050781 372.703125 216.476562 372.914062 216.925781 373.082031 C 217.371094 373.25 217.832031 373.371094 218.300781 373.449219 C 218.773438 373.527344 219.246094 373.558594 219.722656 373.542969 C 220.199219 373.527344 220.671875 373.464844 221.136719 373.355469 C 221.601562 373.246094 222.050781 373.09375 222.484375 372.894531 C 222.917969 372.699219 223.332031 372.460938 223.71875 372.183594 C 224.105469 371.902344 224.460938 371.589844 224.789062 371.238281 C 225.113281 370.890625 225.402344 370.511719 225.65625 370.105469 C 225.90625 369.699219 226.117188 369.273438 226.285156 368.824219 C 226.453125 368.378906 226.574219 367.917969 226.652344 367.445312 C 226.730469 366.976562 226.761719 366.5 226.746094 366.023438 L 222.832031 249.5625 C 222.820312 249.074219 222.765625 248.59375 222.660156 248.117188 C 222.554688 247.640625 222.402344 247.179688 222.203125 246.734375 C 222.007812 246.289062 221.765625 245.871094 221.484375 245.472656 C 221.203125 245.074219 220.882812 244.710938 220.527344 244.378906 C 220.171875 244.046875 219.789062 243.75 219.375 243.496094 C 218.960938 243.242188 218.523438 243.027344 218.066406 242.859375 C 217.609375 242.691406 217.140625 242.574219 216.660156 242.5 C 216.179688 242.425781 215.695312 242.402344 215.210938 242.425781 Z M 215.210938 242.425781 "/>
</g>
</g>
</svg>
