<?xml version="1.0" encoding="UTF-8"?>
<svg xmlns="http://www.w3.org/2000/svg" xmlns:xlink="http://www.w3.org/1999/xlink" width="768pt" height="767.999994pt" viewBox="0 0 768 767.999994" version="1.2">
<defs>
<clipPath id="clip1">
  <path d="M 168.480469 0.414062 L 595.980469 0.414062 L 595.980469 760.992188 L 168.480469 760.992188 Z M 168.480469 0.414062 "/>
</clipPath>
</defs>
<g id="surface1">
<g clip-path="url(#clip1)" clip-rule="nonzero">
<path style=" stroke:none;fill-rule:evenodd;fill:rgb(0%,0%,0%);fill-opacity:1;" d="M 241.875 612.589844 C 247.441406 600.855469 256.429688 592.550781 261.5625 580.402344 C 241.699219 572.828125 220.625 566.453125 195.332031 564.308594 C 200.59375 583.757812 222.0625 601.777344 241.875 612.589844 Z M 453.117188 457.023438 C 377.828125 530.871094 301.65625 615.527344 225.761719 687.683594 C 213.554688 699.289062 203.503906 706.996094 200.695312 725.230469 C 204.050781 733.207031 216.4375 732.15625 222.179688 737.75 C 259.589844 704.925781 300.292969 677.789062 338.542969 646.558594 C 388.695312 605.59375 434.390625 558.773438 479.964844 516.027344 C 475.015625 492.992188 471.519531 470.15625 453.117188 457.023438 Z M 320.636719 360.46875 C 334.195312 341.234375 351.007812 325.242188 365.390625 306.835938 C 339.234375 300.839844 304.34375 308.222656 290.203125 301.464844 C 299.742188 321.75 310.507812 340.789062 320.636719 360.46875 Z M 363.609375 457.023438 C 383.40625 453.109375 407.257812 452.132812 428.050781 448.089844 C 458.8125 442.101562 466.984375 430.125 483.550781 408.75 C 511.84375 372.21875 540.28125 334.167969 567.679688 303.253906 C 554.722656 289.375 549.605469 267.671875 537.25 253.191406 C 476.414062 318.191406 420.207031 387.8125 363.609375 457.023438 Z M 467.4375 231.738281 C 487.238281 234.683594 497.246094 232.414062 515.765625 231.738281 C 530.75 185.3125 552.136719 145.285156 571.265625 102.996094 C 561.140625 89.269531 555.730469 70.832031 544.410156 58.292969 C 516.898438 114.257812 494.535156 175.363281 467.4375 231.738281 Z M 417.308594 20.75 C 412.367188 25.945312 408.910156 32.613281 410.144531 43.988281 C 364.394531 122.269531 327.71875 209.597656 275.882812 281.800781 C 281.710938 278.789062 282.257812 287.5625 284.835938 288.953125 C 311.054688 303.085938 352.136719 291.96875 383.296875 301.464844 C 363.34375 323.269531 343.605469 345.269531 324.214844 367.621094 C 294.375 442.707031 237.183594 490.492188 198.914062 557.15625 C 225.53125 562.539062 256.378906 564.417969 274.101562 576.820312 C 273.949219 593.449219 245.386719 604.511719 250.820312 626.894531 C 238.539062 640.246094 231.414062 658.757812 223.96875 676.953125 C 299.152344 608.402344 375.308594 525.332031 449.53125 449.878906 C 415.035156 457.285156 369.320312 469.019531 342.121094 467.753906 C 350.367188 452.324219 366.378906 444.785156 377.929688 431.996094 C 404.824219 402.203125 425.277344 367.34375 453.117188 337.222656 C 480.949219 307.101562 507.070312 276.554688 531.878906 244.25 C 503.171875 235.695312 470.167969 248.046875 453.117188 238.890625 C 465.585938 206.933594 487.652344 172.957031 503.230469 135.183594 C 508.871094 121.535156 510.574219 105.796875 515.765625 92.261719 C 523.308594 72.621094 543.132812 56.449219 537.25 35.050781 C 499.707031 30.390625 455.820312 22.523438 417.308594 20.75 Z M 555.152344 17.171875 C 561.003906 50 581.40625 75.945312 596.324219 104.789062 C 580.050781 146.933594 555.65625 180.980469 540.832031 224.585938 C 544.148438 230.804688 557.011719 227.492188 560.519531 233.519531 C 557.339844 263.210938 592.914062 276.859375 589.164062 303.253906 C 587.746094 313.296875 566.648438 326.894531 558.730469 335.441406 C 529.675781 366.820312 505.023438 414.621094 478.171875 440.929688 C 486.929688 457.417969 492.132812 471.953125 497.871094 496.363281 C 500.273438 506.613281 505.039062 510.804688 501.445312 517.816406 C 492.71875 534.851562 462.28125 562.714844 445.949219 576.820312 C 425.128906 594.8125 404.445312 611.675781 385.082031 628.679688 C 342.507812 666.082031 292.921875 696.941406 257.988281 728.804688 C 244.644531 740.96875 235.144531 754.492188 218.601562 760.992188 C 204.320312 751.410156 187.753906 744.128906 175.632812 732.386719 C 190.296875 695.765625 210.421875 664.613281 225.761719 628.679688 C 206.226562 612.425781 187.535156 595.328125 168.480469 578.609375 C 200.078125 497.527344 262.730469 447.464844 300.949219 372.992188 C 291.191406 341.570312 267.4375 314.738281 259.78125 287.160156 C 256.605469 284.964844 252.523438 283.675781 250.820312 280.007812 C 296.40625 192.359375 349.957031 97.902344 395.824219 4.652344 C 447.457031 -7.203125 513.421875 8.6875 555.152344 17.171875 "/>
</g>
<path style=" stroke:none;fill-rule:evenodd;fill:rgb(100%,90.19928%,0%);fill-opacity:1;" d="M 300.949219 514.246094 C 298.867188 513.941406 299.003906 511.414062 299.15625 508.882812 C 288.753906 511.53125 289.195312 503.339844 279.460938 505.304688 C 276.417969 519.199219 297.082031 523.019531 300.949219 514.246094 Z M 293.789062 492.789062 C 297.769531 494.179688 300.769531 496.546875 306.316406 496.363281 C 309.253906 490.449219 305 485.820312 297.367188 485.632812 C 297.34375 489.1875 292.484375 487.910156 293.789062 492.789062 Z M 374.34375 212.0625 C 375.976562 201.667969 366.667969 189.480469 365.390625 176.300781 C 363.601562 176.300781 361.816406 176.300781 360.023438 176.300781 C 360.339844 186.371094 360.695312 209.589844 374.34375 212.0625 Z M 404.777344 185.25 C 403.808594 172.21875 404.765625 166.601562 402.984375 160.214844 C 400.597656 160.214844 398.214844 160.214844 395.824219 160.214844 C 395.617188 165.214844 390.917969 188.507812 404.777344 185.25 Z M 537.25 35.050781 C 543.132812 56.449219 523.308594 72.621094 515.765625 92.261719 C 510.574219 105.796875 508.871094 121.535156 503.230469 135.183594 C 487.652344 172.957031 465.585938 206.933594 453.117188 238.890625 C 470.167969 248.046875 503.171875 235.695312 531.878906 244.25 C 507.070312 276.554688 480.949219 307.101562 453.117188 337.222656 C 425.277344 367.34375 404.824219 402.203125 377.929688 431.996094 C 366.378906 444.785156 350.367188 452.324219 342.121094 467.753906 C 369.320312 469.019531 415.035156 457.285156 449.53125 449.878906 C 375.308594 525.332031 299.152344 608.402344 223.96875 676.953125 C 231.414062 658.757812 238.539062 640.246094 250.820312 626.894531 C 245.386719 604.511719 273.949219 593.449219 274.101562 576.820312 C 256.378906 564.417969 225.53125 562.539062 198.914062 557.15625 C 237.183594 490.492188 294.375 442.707031 324.214844 367.621094 C 343.605469 345.269531 363.34375 323.269531 383.296875 301.464844 C 352.136719 291.96875 311.054688 303.085938 284.835938 288.953125 C 282.257812 287.5625 281.710938 278.789062 275.882812 281.800781 C 327.71875 209.597656 364.394531 122.269531 410.144531 43.988281 C 408.910156 32.613281 412.367188 25.945312 417.308594 20.75 C 455.820312 22.523438 499.707031 30.390625 537.25 35.050781 "/>
<path style=" stroke:none;fill-rule:evenodd;fill:rgb(100%,76.078796%,0%);fill-opacity:1;" d="M 544.410156 58.292969 C 555.730469 70.832031 561.140625 89.269531 571.265625 102.996094 C 552.136719 145.285156 530.75 185.3125 515.765625 231.738281 C 497.246094 232.414062 487.238281 234.683594 467.4375 231.738281 C 494.535156 175.363281 516.898438 114.257812 544.410156 58.292969 "/>
<path style=" stroke:none;fill-rule:evenodd;fill:rgb(0%,0%,0%);fill-opacity:1;" d="M 395.824219 160.214844 C 398.214844 160.214844 400.597656 160.214844 402.984375 160.214844 C 404.765625 166.601562 403.808594 172.21875 404.777344 185.25 C 390.917969 188.507812 395.617188 165.214844 395.824219 160.214844 "/>
<path style=" stroke:none;fill-rule:evenodd;fill:rgb(0%,0%,0%);fill-opacity:1;" d="M 360.023438 176.300781 C 361.816406 176.300781 363.601562 176.300781 365.390625 176.300781 C 366.667969 189.480469 375.976562 201.667969 374.34375 212.0625 C 360.695312 209.589844 360.339844 186.371094 360.023438 176.300781 "/>
<path style=" stroke:none;fill-rule:evenodd;fill:rgb(100%,76.078796%,0%);fill-opacity:1;" d="M 537.25 253.191406 C 549.605469 267.671875 554.722656 289.375 567.679688 303.253906 C 540.28125 334.167969 511.84375 372.21875 483.550781 408.75 C 466.984375 430.125 458.8125 442.101562 428.050781 448.089844 C 407.257812 452.132812 383.40625 453.109375 363.609375 457.023438 C 420.207031 387.8125 476.414062 318.191406 537.25 253.191406 "/>
<path style=" stroke:none;fill-rule:evenodd;fill:rgb(100%,76.078796%,0%);fill-opacity:1;" d="M 290.203125 301.464844 C 304.34375 308.222656 339.234375 300.839844 365.390625 306.835938 C 351.007812 325.242188 334.195312 341.234375 320.636719 360.46875 C 310.507812 340.789062 299.742188 321.75 290.203125 301.464844 "/>
<path style=" stroke:none;fill-rule:evenodd;fill:rgb(100%,76.078796%,0%);fill-opacity:1;" d="M 479.964844 516.027344 C 434.390625 558.773438 388.695312 605.59375 338.542969 646.558594 C 300.292969 677.789062 259.589844 704.925781 222.179688 737.75 C 216.4375 732.15625 204.050781 733.207031 200.695312 725.230469 C 203.503906 706.996094 213.554688 699.289062 225.761719 687.683594 C 301.65625 615.527344 377.828125 530.871094 453.117188 457.023438 C 471.519531 470.15625 475.015625 492.992188 479.964844 516.027344 "/>
<path style=" stroke:none;fill-rule:evenodd;fill:rgb(0%,0%,0%);fill-opacity:1;" d="M 297.367188 485.632812 C 305 485.820312 309.253906 490.449219 306.316406 496.363281 C 300.769531 496.546875 297.769531 494.179688 293.789062 492.789062 C 292.484375 487.910156 297.34375 489.1875 297.367188 485.632812 "/>
<path style=" stroke:none;fill-rule:evenodd;fill:rgb(0%,0%,0%);fill-opacity:1;" d="M 279.460938 505.304688 C 289.195312 503.339844 288.753906 511.53125 299.15625 508.882812 C 299.003906 511.414062 298.867188 513.941406 300.949219 514.246094 C 297.082031 523.019531 276.417969 519.199219 279.460938 505.304688 "/>
<path style=" stroke:none;fill-rule:evenodd;fill:rgb(100%,76.078796%,0%);fill-opacity:1;" d="M 195.332031 564.308594 C 220.625 566.453125 241.699219 572.828125 261.5625 580.402344 C 256.429688 592.550781 247.441406 600.855469 241.875 612.589844 C 222.0625 601.777344 200.59375 583.757812 195.332031 564.308594 "/>
</g>
</svg>
