<?xml version="1.0" encoding="UTF-8"?>
<svg xmlns="http://www.w3.org/2000/svg" xmlns:xlink="http://www.w3.org/1999/xlink" width="768pt" height="767.999994pt" viewBox="0 0 768 767.999994" version="1.2">
<g id="surface1">
<path style=" stroke:none;fill-rule:nonzero;fill:rgb(21.958923%,71.369934%,100%);fill-opacity:1;" d="M 334.855469 231.863281 L 436.160156 130.5625 C 436.160156 130.5625 537.460938 29.257812 638.765625 130.5625 C 740.070312 231.863281 638.765625 333.167969 638.765625 333.167969 L 503.695312 468.238281 C 503.695312 468.238281 402.390625 569.542969 301.089844 468.238281 C 282.09375 449.246094 270.324219 424.003906 270.324219 424.003906 L 326.9375 367.476562 C 326.9375 367.476562 324.65625 390.503906 351.738281 417.585938 C 351.738281 417.585938 402.390625 468.238281 453.042969 417.585938 L 588.113281 282.515625 C 588.113281 282.515625 638.765625 231.863281 588.113281 181.210938 C 537.460938 130.5625 486.8125 181.210938 486.8125 181.210938 L 423.851562 244.171875 C 423.851562 244.171875 392.546875 218.492188 328.523438 238.195312 Z M 334.855469 231.863281 "/>
<path style=" stroke:none;fill-rule:nonzero;fill:rgb(21.958923%,71.369934%,100%);fill-opacity:1;" d="M 433.542969 535.773438 L 332.238281 637.078125 C 332.238281 637.078125 230.933594 738.378906 129.632812 637.078125 C 28.328125 535.773438 129.632812 434.472656 129.632812 434.472656 L 264.703125 299.398438 C 264.703125 299.398438 366.007812 198.097656 467.308594 299.398438 C 486.304688 318.394531 498.074219 343.636719 498.074219 343.636719 L 441.445312 400.179688 C 441.445312 400.179688 443.722656 377.132812 416.640625 350.050781 C 416.640625 350.050781 365.988281 299.398438 315.339844 350.050781 L 180.265625 485.121094 C 180.265625 485.121094 129.617188 535.773438 180.265625 586.425781 C 230.917969 637.078125 281.570312 586.425781 281.570312 586.425781 L 344.53125 523.464844 C 344.53125 523.464844 375.832031 549.144531 439.855469 529.441406 Z M 433.542969 535.773438 "/>
</g>
</svg>
