<?xml version="1.0" encoding="UTF-8"?>
<svg xmlns="http://www.w3.org/2000/svg" xmlns:xlink="http://www.w3.org/1999/xlink" width="375pt" height="374.999991pt" viewBox="0 0 375 374.999991" version="1.2">
<defs>
<clipPath id="clip1">
  <path d="M 77 20 L 298 20 L 298 241 L 77 241 Z M 77 20 "/>
</clipPath>
<clipPath id="clip2">
  <path d="M 187.496094 -40.695312 L 400.15625 171.96875 L 187.496094 384.628906 L -25.167969 171.96875 Z M 187.496094 -40.695312 "/>
</clipPath>
<clipPath id="clip3">
  <path d="M 187.496094 -40.695312 L 400.15625 171.96875 L 187.496094 384.628906 L -25.167969 171.96875 Z M 187.496094 -40.695312 "/>
</clipPath>
<clipPath id="clip4">
  <path d="M 187.496094 -40.695312 L 400.40625 172.214844 L 187.496094 385.128906 L -25.417969 172.214844 Z M 187.496094 -40.695312 "/>
</clipPath>
<clipPath id="clip5">
  <path d="M 158 215 L 217 215 L 217 370 L 158 370 Z M 158 215 "/>
</clipPath>
<clipPath id="clip6">
  <path d="M 187.496094 -40.695312 L 400.15625 171.96875 L 187.496094 384.628906 L -25.167969 171.96875 Z M 187.496094 -40.695312 "/>
</clipPath>
<clipPath id="clip7">
  <path d="M 187.496094 -40.695312 L 400.15625 171.96875 L 187.496094 384.628906 L -25.167969 171.96875 Z M 187.496094 -40.695312 "/>
</clipPath>
<clipPath id="clip8">
  <path d="M 187.496094 -40.695312 L 400.40625 172.214844 L 187.496094 385.128906 L -25.417969 172.214844 Z M 187.496094 -40.695312 "/>
</clipPath>
<clipPath id="clip9">
  <path d="M 187 64 L 254 64 L 254 166 L 187 166 Z M 187 64 "/>
</clipPath>
<clipPath id="clip10">
  <path d="M 187.496094 -40.695312 L 400.15625 171.96875 L 187.496094 384.628906 L -25.167969 171.96875 Z M 187.496094 -40.695312 "/>
</clipPath>
<clipPath id="clip11">
  <path d="M 187.496094 -40.695312 L 400.15625 171.96875 L 187.496094 384.628906 L -25.167969 171.96875 Z M 187.496094 -40.695312 "/>
</clipPath>
<clipPath id="clip12">
  <path d="M 187.496094 -40.695312 L 400.40625 172.214844 L 187.496094 385.128906 L -25.417969 172.214844 Z M 187.496094 -40.695312 "/>
</clipPath>
</defs>
<g id="surface1">
<g clip-path="url(#clip1)" clip-rule="nonzero">
<g clip-path="url(#clip2)" clip-rule="nonzero">
<g clip-path="url(#clip3)" clip-rule="nonzero">
<g clip-path="url(#clip4)" clip-rule="nonzero">
<path style=" stroke:none;fill-rule:nonzero;fill:rgb(13.729858%,12.159729%,12.548828%);fill-opacity:1;" d="M 187.457031 55.886719 C 146.519531 55.890625 113.214844 89.195312 113.214844 130.132812 C 113.214844 171.070312 146.519531 204.375 187.457031 204.378906 C 228.398438 204.378906 261.695312 171.066406 261.703125 130.132812 C 261.695312 89.199219 228.390625 55.894531 187.457031 55.886719 Z M 187.457031 240.214844 C 126.757812 240.214844 77.375 190.832031 77.375 130.132812 C 77.371094 69.429688 126.75 20.050781 187.453125 20.054688 C 248.15625 20.054688 297.535156 69.433594 297.535156 130.136719 C 297.535156 190.832031 248.160156 240.214844 187.457031 240.214844 "/>
</g>
</g>
</g>
</g>
<g clip-path="url(#clip5)" clip-rule="nonzero">
<g clip-path="url(#clip6)" clip-rule="nonzero">
<g clip-path="url(#clip7)" clip-rule="nonzero">
<g clip-path="url(#clip8)" clip-rule="nonzero">
<path style=" stroke:none;fill-rule:nonzero;fill:rgb(13.729858%,12.159729%,12.548828%);fill-opacity:1;" d="M 158.445312 215.460938 L 158.441406 340.058594 C 158.445312 356.082031 171.433594 369.070312 187.453125 369.070312 C 203.476562 369.066406 216.46875 356.078125 216.472656 340.054688 L 216.472656 215.460938 L 158.445312 215.460938 "/>
</g>
</g>
</g>
</g>
<g clip-path="url(#clip9)" clip-rule="nonzero">
<g clip-path="url(#clip10)" clip-rule="nonzero">
<g clip-path="url(#clip11)" clip-rule="nonzero">
<g clip-path="url(#clip12)" clip-rule="nonzero">
<path style=" stroke:none;fill-rule:nonzero;fill:rgb(13.729858%,12.159729%,12.548828%);fill-opacity:1;" d="M 200.855469 64.523438 C 192.71875 62.558594 187.011719 68.367188 187.484375 74.679688 C 187.972656 81.105469 196.246094 85.339844 201.203125 88.390625 C 212.472656 95.308594 227.914062 111.3125 232.851562 123.46875 C 235.421875 129.792969 238.6875 140.6875 239.152344 147.460938 C 239.484375 152.304688 238.464844 158.320312 240.59375 162.859375 C 245.175781 172.59375 250.917969 150.046875 251.554688 147.226562 C 254.667969 133.363281 253.621094 114.496094 247.113281 101.898438 C 238.808594 85.84375 220.8125 69.351562 200.855469 64.523438 "/>
</g>
</g>
</g>
</g>
</g>
</svg>
