<?xml version="1.0" encoding="UTF-8"?>
<svg xmlns="http://www.w3.org/2000/svg" xmlns:xlink="http://www.w3.org/1999/xlink" width="375pt" height="374.999991pt" viewBox="0 0 375 374.999991" version="1.2">
<g id="surface1">
<path style=" stroke:none;fill-rule:nonzero;fill:rgb(12.939453%,11.369324%,11.369324%);fill-opacity:1;" d="M 200.53125 185.945312 C 193.105469 192.523438 181.90625 192.523438 174.484375 185.945312 L 46.984375 72.882812 L 328.03125 72.882812 Z M 250.265625 196.519531 L 231.277344 216.765625 L 322.339844 302.171875 L 51.640625 302.171875 L 138.070312 216.414062 L 118.527344 196.707031 L 27.773438 286.753906 L 27.773438 92.945312 L 156.0625 206.710938 C 164.734375 214.402344 175.902344 218.636719 187.507812 218.636719 C 199.113281 218.636719 210.277344 214.402344 218.949219 206.710938 L 347.246094 92.941406 L 347.246094 287.476562 Z M 333.554688 45.125 L 41.460938 45.125 C 18.605469 45.125 0.015625 63.722656 0.015625 86.578125 L 0.015625 288.484375 C 0.015625 311.339844 18.605469 329.933594 41.460938 329.933594 L 333.554688 329.933594 C 356.410156 329.933594 375.003906 311.339844 375.003906 288.484375 L 375.003906 86.578125 C 375.003906 63.722656 356.410156 45.125 333.554688 45.125 "/>
</g>
</svg>
