<?xml version="1.0" encoding="UTF-8"?>
<svg xmlns="http://www.w3.org/2000/svg" xmlns:xlink="http://www.w3.org/1999/xlink" width="375pt" height="374.999991pt" viewBox="0 0 375 374.999991" version="1.2">
<defs>
<clipPath id="clip1">
  <path d="M 9 8.71875 L 368 8.71875 L 368 367.96875 L 9 367.96875 Z M 9 8.71875 "/>
</clipPath>
</defs>
<g id="surface1">
<g clip-path="url(#clip1)" clip-rule="nonzero">
<path style=" stroke:none;fill-rule:nonzero;fill:rgb(0%,0%,0%);fill-opacity:1;" d="M 357.25 101.152344 C 336.265625 125.800781 318.636719 134.761719 302.683594 138.40625 C 306.601562 130 315.277344 116.277344 330.667969 108.433594 C 341.582031 102.550781 347.457031 95.269531 350.535156 87.988281 C 358.371094 86.585938 364.527344 79.863281 364.527344 71.460938 C 364.527344 62.21875 356.972656 54.65625 347.738281 54.65625 C 338.503906 54.65625 330.949219 62.21875 330.949219 71.460938 C 330.949219 77.625 334.304688 82.945312 339.34375 86.027344 C 337.105469 90.226562 332.90625 94.710938 325.632812 98.628906 C 302.40625 110.957031 292.613281 133.363281 290.09375 140.644531 C 286.175781 140.925781 282.539062 141.207031 278.898438 141.207031 C 273.304688 141.207031 268.546875 141.207031 263.507812 142.046875 C 272.742188 127.480469 282.539062 110.394531 291.210938 90.226562 C 297.929688 88.546875 319.753906 80.425781 332.625 42.890625 C 332.90625 42.890625 332.90625 42.890625 333.1875 42.890625 C 342.421875 42.890625 349.976562 35.328125 349.976562 26.085938 C 349.976562 16.84375 342.421875 9.277344 333.1875 9.277344 C 323.953125 9.277344 316.398438 16.84375 316.398438 26.085938 C 316.398438 31.125 318.636719 35.609375 322.273438 38.691406 C 314.996094 60.257812 304.644531 70.339844 297.367188 75.101562 C 301.285156 64.457031 304.925781 53.253906 308.003906 41.210938 C 308.839844 38.128906 306.882812 35.046875 304.085938 34.488281 C 301.007812 33.648438 297.929688 35.609375 297.367188 38.410156 C 292.890625 56.335938 286.734375 72.582031 280.300781 87.707031 C 276.382812 79.863281 272.464844 66.699219 279.460938 52.695312 C 281.417969 48.773438 282.539062 45.132812 283.378906 41.492188 C 289.8125 39.25 294.570312 33.085938 294.570312 25.804688 C 294.570312 16.5625 287.015625 9 277.78125 9 C 268.546875 9 260.992188 16.5625 260.992188 25.804688 C 260.992188 33.085938 265.46875 38.96875 271.90625 41.492188 C 271.34375 43.453125 270.503906 45.691406 269.386719 47.652344 C 257.632812 71.460938 269.945312 93.027344 274.703125 99.75 C 268.546875 112.355469 262.109375 123.558594 255.675781 133.363281 C 255.113281 130 253.996094 126.640625 252.316406 123.558594 C 249.238281 118.238281 245.601562 111.234375 241.402344 100.03125 C 244.480469 98.910156 247 96.949219 248.957031 94.429688 C 257.074219 83.503906 253.15625 63.058594 252.875 60.816406 C 252.316406 57.738281 249.238281 55.777344 246.160156 56.335938 C 243.082031 56.894531 241.125 59.976562 241.683594 63.058594 C 243.082031 69.78125 243.921875 82.386719 240.003906 87.707031 C 239.445312 88.546875 238.605469 89.109375 237.765625 89.386719 C 236.925781 86.585938 236.085938 83.503906 235.246094 80.703125 C 231.328125 65.578125 230.488281 52.132812 230.488281 41.210938 C 236.925781 38.96875 241.683594 32.808594 241.683594 25.523438 C 241.683594 16.28125 234.128906 8.71875 224.894531 8.71875 C 215.660156 8.71875 208.105469 16.28125 208.105469 25.523438 C 208.105469 32.808594 212.859375 38.96875 219.296875 41.492188 C 219.015625 48.492188 219.578125 56.894531 220.695312 65.859375 C 201.386719 57.738281 199.710938 45.691406 199.429688 44.851562 C 199.148438 41.769531 196.632812 39.53125 193.554688 39.808594 C 190.476562 40.089844 188.238281 42.609375 188.238281 45.691406 C 188.238281 46.53125 190.195312 68.378906 222.933594 78.742188 C 223.214844 80.425781 223.773438 82.105469 224.054688 83.785156 C 225.453125 88.828125 226.851562 93.589844 228.53125 98.351562 C 231.050781 105.632812 233.566406 111.234375 235.527344 115.996094 C 228.25 111.234375 225.734375 106.472656 222.933594 100.871094 C 218.738281 92.46875 213.699219 83.226562 193.832031 75.101562 C 176.484375 68.101562 172.007812 53.253906 171.167969 41.492188 C 177.601562 39.25 182.359375 33.085938 182.359375 25.804688 C 182.359375 16.5625 174.804688 9 165.570312 9 C 156.335938 9 148.78125 16.5625 148.78125 25.804688 C 148.78125 33.085938 153.539062 39.25 159.972656 41.769531 C 160.8125 58.015625 167.808594 76.78125 189.636719 85.746094 C 192.433594 86.867188 194.671875 87.988281 196.910156 89.109375 C 191.59375 92.46875 183.757812 96.109375 176.761719 95.828125 C 176.761719 86.585938 169.207031 79.023438 159.972656 79.023438 C 150.738281 79.023438 143.183594 86.585938 143.183594 95.828125 C 143.183594 105.074219 150.738281 112.636719 159.972656 112.636719 C 165.011719 112.636719 169.769531 110.394531 172.847656 106.472656 C 174.246094 106.753906 175.925781 107.035156 177.601562 107.035156 C 189.636719 107.035156 201.667969 99.472656 206.425781 96.109375 C 209.503906 99.191406 211.183594 102.550781 212.859375 106.195312 C 217.058594 114.597656 222.09375 123.839844 241.964844 131.960938 C 242.523438 132.242188 243.082031 132.242188 243.640625 132.242188 C 245.878906 138.964844 245.042969 147.367188 244.203125 150.730469 C 239.722656 156.890625 235.808594 162.492188 232.449219 167.253906 C 231.328125 168.9375 229.929688 170.617188 229.089844 172.015625 C 226.851562 171.175781 224.335938 171.175781 221.816406 171.457031 C 217.339844 172.015625 213.140625 174.539062 210.621094 178.460938 C 207.542969 182.941406 204.1875 187.140625 201.109375 191.34375 C 192.992188 191.0625 184.878906 194.144531 179.28125 200.308594 L 166.96875 214.03125 C 162.210938 219.351562 159.695312 226.355469 160.253906 233.636719 C 160.253906 234.757812 160.535156 235.878906 160.8125 237 C 156.894531 240.640625 153.257812 244.28125 149.339844 247.921875 C 148.78125 247.921875 148.5 247.644531 147.941406 247.644531 C 140.945312 246.804688 133.949219 248.765625 128.355469 253.527344 L 114.363281 265.289062 C 108.484375 270.050781 105.40625 277.054688 104.570312 284.054688 C 98.691406 288.257812 92.816406 292.179688 87.21875 295.820312 C 80.785156 294.140625 73.789062 295.261719 67.910156 298.621094 L 52.800781 307.585938 C 46.925781 311.226562 42.726562 316.828125 41.046875 322.988281 C 23.980469 331.671875 13.066406 336.15625 12.785156 336.15625 C 9.988281 337.273438 8.308594 340.355469 9.429688 343.4375 C 10.546875 346.238281 13.625 347.917969 16.703125 346.796875 C 16.984375 346.796875 25.9375 343.15625 40.488281 335.875 C 41.046875 338.675781 41.886719 341.195312 43.285156 343.71875 C 43.847656 344.558594 44.40625 345.398438 44.964844 346.238281 C 30.136719 353.519531 20.902344 357.164062 20.621094 357.164062 C 17.824219 358.28125 16.144531 361.363281 17.261719 364.445312 C 18.101562 366.6875 20.339844 368.085938 22.578125 368.085938 C 23.140625 368.085938 23.980469 368.085938 24.539062 367.804688 C 24.816406 367.527344 36.292969 363.324219 54.199219 354.082031 C 55.878906 354.921875 57.277344 355.480469 59.238281 356.042969 C 61.476562 356.601562 63.714844 356.882812 65.953125 356.882812 C 70.429688 356.882812 74.90625 355.761719 79.105469 353.242188 L 94.214844 344.277344 C 102.050781 339.796875 106.527344 331.671875 107.085938 323.269531 C 111.84375 320.1875 116.882812 316.546875 121.917969 312.90625 C 123.875 313.746094 125.835938 314.027344 127.792969 314.308594 C 128.914062 314.308594 129.753906 314.585938 130.871094 314.585938 C 136.75 314.585938 142.625 312.347656 147.382812 308.425781 L 161.375 296.660156 C 168.367188 290.777344 172.007812 281.816406 171.167969 272.851562 C 176.203125 268.089844 181.242188 263.328125 186.277344 258.289062 C 186.558594 258.289062 187.117188 258.289062 187.398438 258.289062 C 194.953125 258.289062 202.789062 255.207031 208.105469 249.042969 L 220.417969 235.320312 C 225.171875 229.996094 227.691406 222.996094 227.132812 215.710938 C 227.132812 214.3125 226.851562 212.910156 226.574219 211.789062 C 230.210938 206.75 233.847656 201.988281 237.484375 196.664062 C 241.402344 191.0625 241.402344 183.78125 237.765625 178.460938 C 238.886719 176.777344 240.003906 175.097656 241.402344 173.417969 C 245.042969 168.375 249.519531 162.492188 254.277344 155.492188 C 261.269531 152.128906 269.664062 151.570312 279.179688 151.289062 C 289.535156 150.730469 301.285156 150.449219 314.160156 145.96875 C 314.71875 145.96875 315.558594 145.96875 316.117188 145.6875 C 323.390625 142.886719 328.988281 142.886719 332.90625 145.40625 C 333.464844 145.6875 334.027344 146.246094 334.585938 146.527344 C 330.667969 149.609375 328.148438 154.371094 328.148438 159.691406 C 328.148438 168.9375 335.703125 176.5 344.9375 176.5 C 354.171875 176.5 361.730469 168.9375 361.730469 159.691406 C 361.730469 151.007812 355.011719 143.726562 346.339844 142.886719 C 344.378906 140.085938 342.140625 137.566406 339.34375 135.882812 C 338.503906 135.324219 337.664062 134.761719 336.824219 134.484375 C 346.058594 128.320312 355.851562 119.636719 366.207031 107.3125 C 368.164062 105.074219 367.882812 101.433594 365.644531 99.472656 C 362.847656 98.628906 359.210938 98.910156 357.25 101.152344 Z M 347.457031 65.578125 C 350.535156 65.578125 353.054688 68.101562 353.054688 71.179688 C 353.054688 74.261719 350.535156 76.78125 347.457031 76.78125 C 344.378906 76.78125 341.859375 74.261719 341.859375 71.179688 C 341.859375 68.101562 344.378906 65.578125 347.457031 65.578125 Z M 333.464844 20.761719 C 336.542969 20.761719 339.0625 23.285156 339.0625 26.363281 C 339.0625 29.445312 336.542969 31.96875 333.464844 31.96875 C 330.386719 31.96875 327.871094 29.445312 327.871094 26.363281 C 327.871094 23.285156 330.386719 20.761719 333.464844 20.761719 Z M 271.90625 26.363281 C 271.90625 23.285156 274.421875 20.761719 277.5 20.761719 C 280.578125 20.761719 283.097656 23.285156 283.097656 26.363281 C 283.097656 29.445312 280.578125 31.96875 277.5 31.96875 C 274.421875 31.96875 271.90625 29.445312 271.90625 26.363281 Z M 224.335938 31.96875 C 221.257812 31.96875 218.738281 29.445312 218.738281 26.363281 C 218.738281 23.285156 221.257812 20.761719 224.335938 20.761719 C 227.414062 20.761719 229.929688 23.285156 229.929688 26.363281 C 229.929688 29.445312 227.414062 31.96875 224.335938 31.96875 Z M 165.570312 31.96875 C 162.492188 31.96875 159.972656 29.445312 159.972656 26.363281 C 159.972656 23.285156 162.492188 20.761719 165.570312 20.761719 C 168.648438 20.761719 171.167969 23.285156 171.167969 26.363281 C 171.167969 29.445312 168.648438 31.96875 165.570312 31.96875 Z M 159.972656 101.992188 C 156.894531 101.992188 154.378906 99.472656 154.378906 96.390625 C 154.378906 93.308594 156.894531 90.789062 159.972656 90.789062 C 163.050781 90.789062 165.570312 93.308594 165.570312 96.390625 C 165.570312 99.472656 163.050781 101.992188 159.972656 101.992188 Z M 88.058594 334.753906 L 72.949219 343.71875 C 69.589844 345.679688 65.671875 346.238281 61.753906 345.117188 C 57.835938 343.996094 54.757812 341.476562 52.800781 338.117188 C 48.601562 330.832031 51.121094 321.589844 58.117188 317.386719 L 73.226562 308.425781 C 75.464844 307.023438 77.984375 306.464844 80.503906 306.464844 C 81.902344 306.464844 83.023438 306.746094 84.421875 307.023438 C 88.339844 308.144531 91.417969 310.664062 93.375 314.027344 C 97.851562 321.308594 95.335938 330.554688 88.058594 334.753906 Z M 104.847656 311.226562 C 104.570312 310.386719 104.007812 309.265625 103.449219 308.425781 C 102.050781 305.902344 100.371094 303.664062 98.132812 301.984375 C 100.652344 300.300781 103.167969 298.621094 105.6875 296.660156 C 106.527344 299.183594 107.925781 301.703125 109.605469 304.222656 C 110.164062 305.0625 111.003906 305.902344 111.5625 306.746094 C 109.324219 308.144531 107.085938 309.824219 104.847656 311.226562 Z M 154.097656 288.539062 L 140.105469 300.300781 C 137.027344 302.824219 133.109375 304.222656 128.914062 303.664062 C 124.714844 303.101562 121.078125 301.140625 118.558594 297.5 C 113.242188 290.21875 114.363281 279.574219 121.078125 273.972656 L 135.070312 262.207031 C 137.867188 259.96875 140.945312 258.847656 144.582031 258.847656 C 145.144531 258.847656 145.703125 258.847656 146.261719 258.847656 C 150.460938 259.40625 154.097656 261.367188 156.617188 265.007812 C 161.933594 272.292969 160.8125 282.9375 154.097656 288.539062 Z M 167.53125 261.367188 C 166.96875 260.246094 166.410156 259.40625 165.570312 258.289062 C 163.890625 256.046875 162.210938 254.367188 160.253906 252.964844 C 161.933594 251.285156 163.613281 249.605469 165.570312 247.921875 C 166.691406 249.605469 168.089844 251.003906 169.769531 252.40625 C 171.167969 253.527344 172.566406 254.644531 174.246094 255.484375 C 171.726562 257.445312 169.488281 259.40625 167.53125 261.367188 Z M 212.023438 228.597656 L 199.710938 242.320312 C 193.832031 249.042969 183.480469 249.605469 176.484375 243.722656 C 173.125 240.921875 171.167969 237.28125 170.886719 233.078125 C 170.609375 228.875 172.007812 224.957031 174.804688 221.875 L 187.117188 208.148438 C 190.476562 204.507812 194.953125 202.828125 199.429688 202.828125 C 203.347656 202.828125 206.984375 204.226562 210.0625 206.75 C 213.421875 209.550781 215.378906 213.191406 215.660156 217.394531 C 216.21875 221.59375 214.820312 225.515625 212.023438 228.597656 Z M 228.25 191.0625 C 225.734375 194.425781 223.496094 198.066406 220.976562 201.425781 C 220.136719 200.308594 219.015625 199.1875 217.898438 198.066406 C 216.21875 196.664062 214.539062 195.546875 212.859375 194.703125 C 215.101562 191.625 217.617188 188.261719 219.855469 184.902344 C 220.695312 183.78125 222.09375 182.941406 223.496094 182.660156 C 224.894531 182.378906 226.292969 182.941406 227.691406 183.78125 C 229.371094 185.742188 229.652344 188.824219 228.25 191.0625 Z M 344.660156 155.210938 C 347.738281 155.210938 350.253906 157.730469 350.253906 160.8125 C 350.253906 163.894531 347.738281 166.414062 344.660156 166.414062 C 341.582031 166.414062 339.0625 163.894531 339.0625 160.8125 C 339.0625 157.730469 341.582031 155.210938 344.660156 155.210938 Z M 344.660156 155.210938 "/>
</g>
</g>
</svg>
