<?xml version="1.0" encoding="UTF-8"?>
<svg xmlns="http://www.w3.org/2000/svg" xmlns:xlink="http://www.w3.org/1999/xlink" width="375pt" height="374.999991pt" viewBox="0 0 375 374.999991" version="1.2">
<defs>
<clipPath id="clip1">
  <path d="M 69 3.851562 L 307 3.851562 L 307 371.351562 L 69 371.351562 Z M 69 3.851562 "/>
</clipPath>
</defs>
<g id="surface1">
<g clip-path="url(#clip1)" clip-rule="nonzero">
<path style=" stroke:none;fill-rule:nonzero;fill:rgb(0%,0%,0%);fill-opacity:1;" d="M 189.425781 3.851562 C 113.679688 3.851562 70.726562 46.410156 69.503906 108.015625 L 69.503906 111.097656 L 136.371094 111.097656 L 136.371094 108.015625 C 137.835938 80.804688 156.609375 63.25 184.976562 63.25 C 213.105469 63.25 231.855469 79.558594 231.855469 102.570312 C 231.855469 125.582031 222.230469 137.464844 190.410156 156.523438 C 156.355469 176.5625 142.769531 198.835938 145.980469 238.425781 L 146.367188 248.992188 L 211.863281 248.992188 L 211.863281 238.9375 C 211.863281 215.1875 221 203.039062 253.816406 183.996094 C 288.601562 163.449219 306.601562 137.480469 306.601562 100.355469 C 306.601562 43.191406 259.988281 3.851562 189.425781 3.851562 Z M 180.53125 294.953125 C 155.429688 294.953125 139.773438 309.566406 139.773438 333.378906 C 139.773438 356.972656 155.445312 371.5625 180.53125 371.5625 C 205.617188 371.5625 221.082031 356.972656 221.082031 333.378906 C 221.082031 309.566406 205.632812 294.953125 180.53125 294.953125 Z M 180.53125 294.953125 "/>
</g>
</g>
</svg>
