<?xml version="1.0" encoding="UTF-8"?>
<svg xmlns="http://www.w3.org/2000/svg" xmlns:xlink="http://www.w3.org/1999/xlink" width="768pt" height="767.999994pt" viewBox="0 0 768 767.999994" version="1.2">
<defs>
<clipPath id="clip1">
  <path d="M 82 260 L 687 260 L 687 701.417969 L 82 701.417969 Z M 82 260 "/>
</clipPath>
</defs>
<g id="surface1">
<path style=" stroke:none;fill-rule:nonzero;fill:rgb(92.549133%,11.369324%,15.289307%);fill-opacity:1;" d="M 606.574219 400.265625 C 598.8125 360.304688 563.097656 329.699219 523.527344 329.699219 L 500.292969 329.699219 L 500.292969 271.800781 L 442.207031 271.800781 L 442.207031 329.699219 L 326.039062 329.699219 L 326.039062 271.800781 L 267.953125 271.800781 L 267.953125 329.699219 L 233.101562 329.699219 C 192.488281 329.699219 158.496094 361.757812 151.828125 402.945312 L 105.3125 538.953125 L 93.695312 690.082031 L 674.550781 690.082031 L 662.933594 538.953125 L 606.574219 400.265625 "/>
<path style=" stroke:none;fill-rule:nonzero;fill:rgb(92.549133%,11.369324%,15.289307%);fill-opacity:1;" d="M 691.75 303.859375 C 706.679688 305.8125 719.429688 292.871094 717.753906 277.519531 L 709.402344 200.09375 C 706.496094 154.730469 662.34375 117.175781 616.464844 109.183594 L 589.78125 104.503906 C 444.796875 79.257812 296.722656 79.257812 151.78125 104.503906 C 105.902344 112.496094 61.75 154.730469 58.84375 200.09375 L 50.496094 277.519531 C 48.816406 292.871094 61.566406 305.8125 76.496094 303.859375 L 201.152344 287.648438 C 212.769531 286.148438 221.484375 275.976562 221.484375 263.945312 L 221.484375 220.210938 C 221.484375 205.363281 232.691406 192.738281 247.757812 190.648438 C 338.246094 178.027344 430.003906 178.027344 520.488281 190.648438 C 535.554688 192.738281 546.761719 205.363281 546.761719 220.210938 L 546.761719 263.945312 C 546.761719 275.976562 555.476562 286.148438 567.09375 287.648438 L 691.75 303.859375 "/>
<path style=" stroke:none;fill-rule:nonzero;fill:rgb(76.078796%,12.548828%,16.859436%);fill-opacity:1;" d="M 221.484375 213.445312 L 54.851562 237.289062 L 50.675781 278.382812 C 49.179688 293.234375 61.839844 305.628906 76.679688 303.769531 L 201.152344 288.148438 C 212.769531 286.695312 221.484375 276.839844 221.484375 265.125 L 221.484375 213.445312 "/>
<path style=" stroke:none;fill-rule:nonzero;fill:rgb(76.078796%,12.548828%,16.859436%);fill-opacity:1;" d="M 546.761719 213.445312 L 713.394531 237.289062 L 717.886719 279.382812 C 719.476562 294.367188 706.589844 306.902344 691.660156 304.859375 L 566.867188 287.875 C 555.339844 286.285156 546.761719 276.476562 546.761719 264.851562 L 546.761719 213.445312 "/>
<path style=" stroke:none;fill-rule:nonzero;fill:rgb(76.078796%,12.548828%,16.859436%);fill-opacity:1;" d="M 326.039062 331.558594 L 267.953125 331.558594 L 267.953125 271.800781 L 326.039062 271.800781 L 326.039062 331.558594 "/>
<path style=" stroke:none;fill-rule:nonzero;fill:rgb(76.078796%,12.548828%,16.859436%);fill-opacity:1;" d="M 500.292969 329.699219 L 442.207031 329.699219 L 442.207031 271.800781 L 500.292969 271.800781 L 500.292969 329.699219 "/>
<path style=" stroke:none;fill-rule:nonzero;fill:rgb(74.899292%,11.759949%,14.509583%);fill-opacity:1;" d="M 93.695312 690.082031 L 674.550781 690.082031 L 671.875 655.203125 L 96.375 655.203125 L 93.695312 690.082031 "/>
<path style=" stroke:none;fill-rule:nonzero;fill:rgb(74.899292%,11.759949%,14.509583%);fill-opacity:1;" d="M 662.933594 538.953125 L 105.3125 538.953125 L 98.1875 631.953125 L 670.058594 631.953125 L 662.933594 538.953125 "/>
<path style=" stroke:none;fill-rule:nonzero;fill:rgb(91.369629%,90.979004%,90.589905%);fill-opacity:1;" d="M 488.675781 486.910156 C 488.675781 546.308594 441.847656 594.488281 384.125 594.488281 C 326.402344 594.488281 279.570312 546.308594 279.570312 486.910156 C 279.570312 427.515625 326.402344 379.378906 384.125 379.378906 C 441.847656 379.378906 488.675781 427.515625 488.675781 486.910156 "/>
<g clip-path="url(#clip1)" clip-rule="nonzero">
<path style=" stroke:none;fill-rule:nonzero;fill:rgb(6.269836%,5.879211%,5.099487%);fill-opacity:1;" d="M 442.207031 343.1875 C 448.609375 343.1875 453.824219 338.007812 453.824219 331.558594 L 453.824219 283.425781 L 488.675781 283.425781 L 488.675781 331.558594 C 488.675781 338.007812 493.894531 343.1875 500.292969 343.1875 L 525.164062 343.1875 C 559.0625 343.1875 588.511719 368.117188 595.183594 402.492188 C 595.320312 403.265625 595.589844 404.035156 595.863281 404.761719 L 645.460938 523.105469 L 523.527344 523.105469 C 517.128906 523.105469 511.910156 528.328125 511.910156 534.730469 C 511.910156 541.132812 517.128906 546.355469 523.527344 546.355469 L 652.179688 546.355469 L 658.441406 630.636719 L 109.804688 630.636719 L 116.066406 546.355469 L 244.71875 546.355469 C 251.117188 546.355469 256.335938 541.132812 256.335938 534.730469 C 256.335938 528.328125 251.117188 523.105469 244.71875 523.105469 L 121.742188 523.105469 L 162.808594 406.851562 C 163.035156 406.171875 163.171875 405.535156 163.308594 404.808594 C 169.070312 369.117188 198.703125 343.1875 233.738281 343.1875 L 267.953125 343.1875 C 274.351562 343.1875 279.570312 338.007812 279.570312 331.558594 L 279.570312 283.425781 L 314.421875 283.425781 L 314.421875 331.558594 C 314.421875 338.007812 319.640625 343.1875 326.039062 343.1875 Z M 662.027344 678.457031 L 106.222656 678.457031 L 108.035156 653.886719 L 660.210938 653.886719 Z M 326.039062 260.175781 L 267.953125 260.175781 C 261.554688 260.175781 256.335938 265.398438 256.335938 271.800781 L 256.335938 319.933594 L 233.738281 319.933594 C 187.632812 319.933594 148.558594 353.585938 140.527344 400.039062 L 94.332031 530.871094 C 94.015625 531.824219 93.832031 532.820312 93.742188 533.867188 L 82.125 689.21875 C 81.851562 692.441406 82.988281 695.621094 85.164062 697.980469 C 87.386719 700.34375 90.472656 701.707031 93.695312 701.707031 L 674.550781 701.707031 C 677.773438 701.707031 680.859375 700.34375 683.082031 697.980469 C 685.261719 695.621094 686.394531 692.441406 686.121094 689.21875 L 674.503906 533.867188 C 674.414062 532.640625 674.140625 531.414062 673.644531 530.277344 C 673.644531 530.234375 673.644531 530.1875 673.597656 530.144531 L 617.734375 396.816406 C 608.523438 352.222656 569.726562 319.933594 525.164062 319.933594 L 511.910156 319.933594 L 511.910156 271.800781 C 511.910156 265.398438 506.691406 260.175781 500.292969 260.175781 L 442.207031 260.175781 C 435.808594 260.175781 430.59375 265.398438 430.59375 271.800781 L 430.59375 319.933594 L 337.65625 319.933594 L 337.65625 271.800781 C 337.65625 265.398438 332.4375 260.175781 326.039062 260.175781 "/>
</g>
<path style=" stroke:none;fill-rule:nonzero;fill:rgb(6.269836%,5.879211%,5.099487%);fill-opacity:1;" d="M 558.378906 263.945312 L 558.378906 226.84375 L 702.820312 247.503906 L 706.226562 278.746094 C 706.632812 282.699219 705.316406 286.46875 702.550781 289.148438 C 701.097656 290.601562 698.011719 292.960938 693.246094 292.324219 L 568.589844 276.113281 C 562.78125 275.339844 558.378906 270.121094 558.378906 263.945312 Z M 522.078125 179.160156 C 476.289062 172.757812 430.230469 169.578125 384.125 169.578125 C 338.019531 169.578125 291.914062 172.757812 246.171875 179.160156 C 231.738281 181.160156 219.894531 190.421875 213.996094 202.773438 L 67.964844 223.664062 L 70.460938 200.867188 C 72.914062 162.269531 111.078125 123.394531 153.777344 115.949219 C 297.765625 90.882812 443.796875 90.882812 587.785156 115.949219 L 614.46875 120.625 C 653.359375 127.390625 695.152344 159.269531 697.875 201.367188 L 700.28125 223.664062 L 554.25 202.773438 C 548.351562 190.421875 536.507812 181.160156 522.078125 179.160156 Z M 209.867188 263.945312 C 209.867188 270.121094 205.464844 275.339844 199.65625 276.113281 L 75 292.324219 C 70.234375 292.960938 67.148438 290.601562 65.695312 289.148438 C 62.929688 286.46875 61.613281 282.699219 62.019531 278.746094 L 65.378906 247.503906 L 209.867188 226.84375 Z M 718.796875 305.765625 C 726.691406 298.09375 730.503906 287.328125 729.324219 276.25 L 720.972656 199.367188 C 717.617188 146.328125 666.199219 106.050781 618.460938 97.695312 L 591.777344 93.0625 C 445.113281 67.539062 296.449219 67.539062 149.785156 93.0625 C 96.417969 102.371094 50.402344 150.050781 47.320312 198.871094 L 38.921875 276.25 C 37.742188 287.328125 41.554688 298.09375 49.453125 305.765625 C 55.984375 312.167969 64.5625 315.667969 73.503906 315.667969 C 75 315.667969 76.496094 315.574219 77.996094 315.394531 L 202.652344 299.183594 C 220.03125 296.910156 233.101562 281.789062 233.101562 263.945312 L 233.101562 220.210938 C 233.101562 211.222656 240.089844 203.457031 249.347656 202.183594 C 338.789062 189.695312 429.457031 189.695312 518.898438 202.183594 C 528.15625 203.457031 535.144531 211.222656 535.144531 220.210938 L 535.144531 263.945312 C 535.144531 281.789062 548.214844 296.910156 565.59375 299.183594 L 690.253906 315.394531 C 700.734375 316.710938 711.171875 313.257812 718.796875 305.765625 "/>
<path style=" stroke:none;fill-rule:nonzero;fill:rgb(6.269836%,5.879211%,5.099487%);fill-opacity:1;" d="M 384.125 391.003906 C 435.355469 391.003906 477.058594 434.007812 477.058594 486.910156 C 477.058594 539.816406 435.355469 582.863281 384.125 582.863281 C 332.890625 582.863281 291.1875 539.816406 291.1875 486.910156 C 291.1875 434.007812 332.890625 391.003906 384.125 391.003906 Z M 267.953125 486.910156 C 267.953125 552.621094 320.046875 606.117188 384.125 606.117188 C 448.199219 606.117188 500.292969 552.621094 500.292969 486.910156 C 500.292969 421.203125 448.199219 367.753906 384.125 367.753906 C 320.046875 367.753906 267.953125 421.203125 267.953125 486.910156 "/>
</g>
</svg>
