<?xml version="1.0" encoding="UTF-8"?>
<svg xmlns="http://www.w3.org/2000/svg" xmlns:xlink="http://www.w3.org/1999/xlink" width="375pt" height="374.999991pt" viewBox="0 0 375 374.999991" version="1.2">
<g id="surface1">
<path style=" stroke:none;fill-rule:nonzero;fill:rgb(0%,0%,0%);fill-opacity:1;" d="M 218.636719 27.726562 C 295.3125 27.726562 357.519531 89.933594 357.519531 166.609375 L 343.632812 166.609375 C 343.632812 97.601562 287.644531 41.613281 218.636719 41.613281 Z M 218.636719 69.390625 C 272.308594 69.390625 315.855469 112.9375 315.855469 166.609375 L 301.964844 166.609375 C 301.964844 120.605469 264.640625 83.28125 218.636719 83.28125 Z M 218.636719 111.058594 C 249.304688 111.058594 274.1875 135.941406 274.1875 166.609375 L 260.300781 166.609375 C 260.300781 143.609375 241.636719 124.945312 218.636719 124.945312 Z M 218.636719 111.058594 "/>
<path style=" stroke:none;fill-rule:evenodd;fill:rgb(0%,0%,0%);fill-opacity:1;" d="M 258.492188 251.96875 C 247.425781 260.9375 232.8125 251.097656 205.757812 229.328125 L 146.660156 171.023438 C 134 155.472656 122.863281 139.195312 132.84375 127.332031 L 151.433594 111.273438 L 158.742188 105.414062 C 164.238281 99.84375 163.730469 91.308594 158.597656 86.316406 L 89.296875 17.816406 C 83.945312 12.390625 75.480469 12.605469 70.203125 17.886719 L 64.921875 24.035156 L 48.863281 44.144531 C 36.421875 61.289062 13.054688 133.191406 127.347656 248.855469 C 246.050781 368.863281 323.378906 347.597656 340.664062 333.273438 L 366.707031 312.296875 C 372.203125 306.652344 371.699219 298.191406 366.632812 293.125 L 297.265625 224.550781 C 291.910156 219.269531 283.449219 219.417969 278.238281 224.695312 Z M 258.492188 251.96875 "/>
</g>
</svg>
