<?xml version="1.0" encoding="UTF-8"?>
<svg xmlns="http://www.w3.org/2000/svg" xmlns:xlink="http://www.w3.org/1999/xlink" width="768pt" height="767.999994pt" viewBox="0 0 768 767.999994" version="1.2">
<defs>
<clipPath id="clip1">
  <path d="M 441 487 L 708.652344 487 L 708.652344 764.539062 L 441 764.539062 Z M 441 487 "/>
</clipPath>
</defs>
<g id="surface1">
<path style=" stroke:none;fill-rule:nonzero;fill:rgb(6.269836%,5.879211%,5.099487%);fill-opacity:1;" d="M 312.988281 563.730469 L 281.804688 576.566406 C 273.773438 579.742188 265.742188 581.296875 256.96875 581.296875 C 224.90625 581.296875 197.707031 557.3125 192.847656 525.214844 L 188.054688 491.566406 C 188.054688 490.757812 187.246094 490.757812 187.246094 490.757812 L 164.835938 487.511719 L 66.359375 657.511719 C 57.515625 671.90625 67.910156 690.351562 84.71875 690.351562 L 143.980469 691.160156 C 151.203125 691.160156 158.421875 695.148438 162.40625 701.636719 L 192.847656 752.109375 C 201.6875 766.5 222.476562 766.5 231.320312 752.109375 L 329.796875 582.175781 L 313.800781 563.730469 C 313.800781 563.730469 313.800781 563.730469 312.988281 563.730469 "/>
<g clip-path="url(#clip1)" clip-rule="nonzero">
<path style=" stroke:none;fill-rule:nonzero;fill:rgb(6.269836%,5.879211%,5.099487%);fill-opacity:1;" d="M 705.476562 657.511719 L 606.933594 487.511719 L 583.714844 490.757812 C 582.90625 490.757812 582.90625 491.566406 582.90625 491.566406 L 578.113281 525.214844 C 574.132812 557.3125 546.121094 581.296875 513.992188 581.296875 C 505.21875 581.296875 497.1875 579.742188 489.222656 576.566406 L 457.972656 563.730469 C 457.972656 563.730469 457.972656 563.730469 457.160156 563.730469 C 457.160156 563.730469 456.417969 563.730469 456.417969 564.472656 L 441.164062 583.730469 L 539.707031 753.730469 C 548.484375 768.121094 569.273438 768.121094 578.113281 753.730469 L 608.554688 703.1875 C 612.535156 696.769531 619.757812 692.785156 626.980469 692.785156 L 686.242188 691.972656 C 703.859375 690.351562 714.253906 671.90625 705.476562 657.511719 "/>
</g>
<path style=" stroke:none;fill-rule:nonzero;fill:rgb(6.269836%,5.879211%,5.099487%);fill-opacity:1;" d="M 456.417969 271.027344 L 382.710938 344.8125 C 378.664062 348.796875 373.0625 351.230469 367.457031 351.230469 C 361.855469 351.230469 357.0625 348.796875 352.273438 344.8125 L 315.417969 307.917969 C 307.386719 299.945312 307.386719 286.296875 315.417969 278.257812 C 323.453125 270.214844 337.019531 270.214844 345.050781 278.257812 L 367.457031 300.6875 L 425.910156 242.175781 C 433.941406 234.203125 447.578125 234.203125 455.609375 242.175781 C 464.382812 249.40625 464.382812 263.054688 456.417969 271.027344 Z M 385.886719 142.785156 C 302.59375 142.785156 235.300781 210.148438 235.300781 293.527344 C 235.300781 376.90625 302.59375 444.203125 385.886719 444.203125 C 469.175781 444.203125 536.46875 376.90625 536.46875 293.527344 C 536.46875 210.148438 469.175781 142.785156 385.886719 142.785156 "/>
<path style=" stroke:none;fill-rule:nonzero;fill:rgb(6.269836%,5.879211%,5.099487%);fill-opacity:1;" d="M 385.886719 475.488281 C 285.789062 475.488281 204.050781 393.730469 204.050781 293.527344 C 204.050781 193.257812 285.789062 110.6875 385.886719 110.6875 C 485.980469 110.6875 567.71875 192.445312 567.71875 292.714844 C 567.71875 392.917969 485.980469 475.488281 385.886719 475.488281 Z M 470.796875 534 L 502.046875 546.835938 C 522.023438 554.878906 544.433594 542.039062 546.863281 521.164062 L 551.722656 487.511719 C 553.273438 473.121094 565.289062 461.09375 579.734375 459.472656 L 613.347656 454.675781 C 634.945312 451.433594 647.835938 429.8125 638.996094 409.742188 L 626.171875 378.460938 C 620.570312 364.878906 624.550781 348.796875 636.566406 340.011719 L 663.023438 319.136719 C 679.828125 306.363281 679.828125 279.878906 663.023438 267.039062 L 636.566406 246.972656 C 624.550781 238.1875 620.570312 222.175781 626.171875 208.527344 L 638.996094 177.242188 C 646.960938 157.175781 634.136719 134.742188 613.347656 132.378906 L 579.734375 127.511719 C 565.289062 125.960938 553.273438 113.933594 551.722656 99.472656 L 546.863281 65.824219 C 543.691406 44.136719 522.023438 31.296875 502.046875 40.148438 L 470.796875 52.988281 C 457.160156 58.59375 441.164062 54.609375 432.324219 42.582031 L 411.535156 16.09375 C 398.710938 -0.730469 372.25 -0.730469 359.496094 16.09375 L 338.636719 42.582031 C 329.796875 54.609375 313.800781 58.59375 300.164062 52.988281 L 268.980469 40.148438 C 248.9375 32.109375 226.527344 44.945312 224.097656 65.824219 L 219.304688 99.472656 C 217.683594 113.933594 205.671875 125.960938 191.292969 127.511719 L 157.613281 132.378906 C 136.015625 135.554688 123.191406 157.175781 132.03125 177.242188 L 144.789062 208.527344 C 150.390625 222.175781 146.410156 238.1875 134.394531 246.972656 L 107.9375 267.851562 C 91.128906 280.6875 91.128906 307.109375 107.9375 319.945312 L 134.394531 340.824219 C 146.410156 349.609375 150.390625 365.6875 144.789062 379.269531 L 132.03125 410.554688 C 124 430.621094 136.824219 453.054688 157.613281 455.488281 L 191.292969 460.285156 C 205.671875 461.90625 217.683594 473.933594 219.304688 488.324219 L 224.097656 521.972656 C 227.335938 543.664062 248.9375 556.5 268.980469 547.648438 L 300.164062 534.8125 C 313.800781 529.203125 329.796875 533.257812 338.636719 545.285156 L 359.496094 571.703125 C 372.25 588.59375 398.710938 588.59375 411.535156 571.703125 L 432.324219 545.285156 C 441.164062 533.257812 457.160156 528.390625 470.796875 534 "/>
</g>
</svg>
