<?xml version="1.0" encoding="UTF-8"?>
<svg xmlns="http://www.w3.org/2000/svg" xmlns:xlink="http://www.w3.org/1999/xlink" width="768pt" height="767.999994pt" viewBox="0 0 768 767.999994" version="1.2">
<defs>
<clipPath id="clip1">
  <path d="M 2 122.398438 L 767 122.398438 L 767 645.898438 L 2 645.898438 Z M 2 122.398438 "/>
</clipPath>
</defs>
<g id="surface1">
<g clip-path="url(#clip1)" clip-rule="nonzero">
<path style=" stroke:none;fill-rule:evenodd;fill:rgb(0%,0%,0%);fill-opacity:1;" d="M 56.964844 232.121094 L 277.292969 560.996094 L 377.78125 191.5625 C 362.765625 187.496094 351.8125 173.828125 351.8125 157.5625 C 351.8125 138.144531 367.558594 122.398438 386.992188 122.398438 C 406.398438 122.398438 422.160156 138.144531 422.160156 157.5625 C 422.160156 173.828125 411.152344 187.496094 396.234375 191.5625 L 496.613281 560.996094 L 715.363281 234.542969 C 703.785156 228.816406 695.808594 216.839844 695.808594 202.984375 C 695.808594 183.5625 711.53125 167.789062 730.921875 167.789062 C 750.367188 167.789062 766.117188 183.5625 766.117188 202.984375 C 766.117188 222.449219 750.367188 238.21875 730.921875 238.21875 C 728.894531 238.21875 726.910156 238.015625 724.957031 237.714844 L 632.214844 646.460938 C 556.117188 634.726562 472.246094 628.195312 384.058594 628.195312 C 298.054688 628.195312 216.128906 634.394531 141.566406 645.597656 L 48.675781 236.242188 C 45.074219 237.527344 41.203125 238.21875 37.179688 238.21875 C 17.789062 238.21875 2.039062 222.449219 2.039062 202.984375 C 2.039062 183.5625 17.789062 167.789062 37.179688 167.789062 C 56.597656 167.789062 72.320312 183.5625 72.320312 202.984375 C 72.320312 215.09375 66.21875 225.789062 56.964844 232.121094 Z M 56.964844 232.121094 "/>
</g>
</g>
</svg>
