<?xml version="1.0" encoding="UTF-8"?>
<svg xmlns="http://www.w3.org/2000/svg" xmlns:xlink="http://www.w3.org/1999/xlink" width="375pt" height="374.999991pt" viewBox="0 0 375 374.999991" version="1.2">
<defs>
<clipPath id="clip1">
  <path d="M 3.378906 14 L 371.628906 14 L 371.628906 361 L 3.378906 361 Z M 3.378906 14 "/>
</clipPath>
</defs>
<g id="surface1">
<g clip-path="url(#clip1)" clip-rule="nonzero">
<path style=" stroke:none;fill-rule:nonzero;fill:rgb(0%,0%,0%);fill-opacity:1;" d="M 272.980469 40.230469 C 235.980469 40.230469 226.804688 84.402344 224.796875 126.28125 C 205.582031 125.707031 204.433594 118.824219 204.433594 105.628906 L 204.433594 31.339844 C 204.433594 21.875 196.6875 14.132812 187.226562 14.132812 C 177.761719 14.132812 170.015625 21.875 170.015625 31.339844 L 170.015625 105.628906 C 170.015625 118.535156 168.867188 125.707031 149.652344 126.28125 C 147.644531 84.402344 138.46875 40.230469 101.46875 40.230469 C 48.410156 40.230469 3.667969 181.066406 3.667969 269.410156 C 3.667969 272.277344 3.378906 337.960938 21.449219 356.03125 C 24.605469 359.472656 28.332031 360.90625 32.636719 360.90625 C 43.535156 360.90625 48.984375 356.890625 56.441406 351.15625 C 65.90625 343.984375 78.523438 334.230469 111.21875 324.765625 C 166.289062 308.992188 160.550781 257.363281 154.527344 202.578125 C 153.09375 188.808594 151.375 174.46875 150.800781 160.414062 C 166.289062 159.839844 178.621094 156.109375 187.511719 148.941406 C 196.402344 156.109375 208.734375 160.125 224.222656 160.414062 C 223.648438 174.46875 221.929688 188.808594 220.496094 202.578125 C 214.472656 257.074219 208.734375 308.703125 263.800781 324.765625 C 296.210938 334.230469 309.117188 343.984375 318.582031 351.15625 C 326.039062 356.890625 331.488281 360.90625 342.386719 360.90625 C 346.402344 360.90625 350.132812 359.1875 353.574219 356.03125 C 371.640625 337.960938 371.355469 271.988281 371.355469 269.410156 C 370.78125 181.066406 326.039062 40.230469 272.980469 40.230469 Z M 272.980469 40.230469 "/>
</g>
</g>
</svg>
