<?xml version="1.0" encoding="UTF-8"?>
<svg xmlns="http://www.w3.org/2000/svg" xmlns:xlink="http://www.w3.org/1999/xlink" width="375pt" height="374.999991pt" viewBox="0 0 375 374.999991" version="1.2">
<defs>
<clipPath id="clip1">
  <path d="M 97 13 L 366.421875 13 L 366.421875 307 L 97 307 Z M 97 13 "/>
</clipPath>
<clipPath id="clip2">
  <path d="M 13 278 L 135 278 L 135 366.421875 L 13 366.421875 Z M 13 278 "/>
</clipPath>
</defs>
<g id="surface1">
<path style=" stroke:none;fill-rule:nonzero;fill:rgb(0%,0%,0%);fill-opacity:1;" d="M 296.195312 72.695312 C 294.273438 71.070312 291.933594 70.257812 289.570312 70.257812 C 286.714844 70.257812 283.855469 71.441406 281.835938 73.78125 L 253.734375 106.488281 L 281.664062 130.527344 L 309.765625 97.84375 C 311.539062 95.773438 312.378906 93.140625 312.179688 90.40625 C 311.957031 87.671875 310.703125 85.207031 308.632812 83.410156 L 296.195312 72.695312 "/>
<g clip-path="url(#clip1)" clip-rule="nonzero">
<path style=" stroke:none;fill-rule:nonzero;fill:rgb(0%,0%,0%);fill-opacity:1;" d="M 319.347656 106.042969 C 319.347656 106.042969 319.347656 106.042969 319.324219 106.070312 L 190.4375 255.917969 C 186.496094 260.523438 180.953125 263.328125 174.871094 263.773438 C 174.304688 263.796875 173.710938 263.824219 173.144531 263.824219 C 167.679688 263.824219 162.480469 261.902344 158.292969 258.28125 L 145.808594 247.617188 C 136.300781 239.4375 135.242188 225.03125 143.394531 215.5 L 272.304688 65.527344 C 280.53125 56.070312 294.914062 54.988281 304.421875 63.140625 L 316.859375 73.855469 C 321.464844 77.792969 324.273438 83.335938 324.742188 89.417969 C 325.234375 95.503906 323.3125 101.414062 319.347656 106.042969 Z M 345.382812 28.09375 C 332.84375 17.328125 316.8125 12.328125 300.480469 13.980469 C 284.101562 15.679688 269.570312 23.757812 259.546875 36.761719 L 99.132812 243.207031 C 95.882812 247.492188 96.472656 253.652344 100.539062 257.195312 L 155.511719 304.484375 C 159.648438 308.058594 165.804688 307.738281 169.597656 303.773438 L 349.667969 114.320312 C 360.308594 103.238281 366.144531 88.679688 366.144531 73.335938 C 366.144531 55.972656 358.582031 39.496094 345.382812 28.09375 "/>
</g>
<path style=" stroke:none;fill-rule:nonzero;fill:rgb(0%,0%,0%);fill-opacity:1;" d="M 232.257812 131.460938 L 260.1875 155.5 L 273.4375 140.082031 L 245.507812 116.042969 L 232.257812 131.460938 "/>
<path style=" stroke:none;fill-rule:nonzero;fill:rgb(0%,0%,0%);fill-opacity:1;" d="M 152.972656 223.699219 C 149.328125 227.960938 149.796875 234.390625 154.035156 238.035156 L 166.546875 248.75 C 168.589844 250.523438 171.175781 251.382812 173.933594 251.1875 C 176.667969 250.992188 179.132812 249.757812 180.878906 247.691406 L 251.960938 165.058594 L 224.03125 141.042969 L 152.972656 223.699219 "/>
<g clip-path="url(#clip2)" clip-rule="nonzero">
<path style=" stroke:none;fill-rule:nonzero;fill:rgb(0%,0%,0%);fill-opacity:1;" d="M 101.351562 307.859375 L 68.25 345.691406 C 66.992188 347.144531 65.242188 347.859375 63.496094 347.859375 C 62.015625 347.859375 60.539062 347.339844 59.355469 346.308594 C 56.722656 343.992188 56.449219 340.027344 58.742188 337.414062 L 91.84375 299.585938 C 94.132812 296.925781 98.125 296.679688 100.734375 298.96875 C 103.371094 301.257812 103.640625 305.25 101.351562 307.859375 Z M 111.941406 283.625 L 111.941406 283.648438 C 102.703125 276.382812 89.429688 277.714844 81.71875 286.628906 L 13.128906 366.453125 L 84.429688 361.480469 C 95.167969 360.59375 105.265625 355.492188 112.113281 347.464844 L 129.28125 327.515625 C 137.113281 318.378906 136.300781 304.953125 127.457031 296.972656 L 111.941406 283.625 "/>
</g>
</g>
</svg>
