<?xml version="1.0" encoding="UTF-8"?>
<svg xmlns="http://www.w3.org/2000/svg" xmlns:xlink="http://www.w3.org/1999/xlink" width="375pt" height="374.999991pt" viewBox="0 0 375 374.999991" version="1.2">
<defs>
<clipPath id="clip1">
  <path d="M 85 4.660156 L 183 4.660156 L 183 197 L 85 197 Z M 85 4.660156 "/>
</clipPath>
<clipPath id="clip2">
  <path d="M 52 4.660156 L 294 4.660156 L 294 370 L 52 370 Z M 52 4.660156 "/>
</clipPath>
</defs>
<g id="surface1">
<path style=" stroke:none;fill-rule:nonzero;fill:rgb(0%,0%,0%);fill-opacity:1;" d="M 320.746094 298.160156 C 307.507812 275.25 278.175781 267.410156 255.246094 280.640625 C 249.71875 283.800781 245.140625 287.957031 241.464844 292.679688 C 231.222656 279.421875 217.53125 254.074219 219.523438 236.953125 L 197.082031 275.777344 C 218.378906 312.625 230.539062 333.660156 237.699219 346.019531 C 250.9375 368.925781 280.257812 376.769531 303.203125 363.5625 C 326.132812 350.332031 333.988281 321.042969 320.746094 298.160156 Z M 295.207031 349.726562 C 279.921875 358.558594 260.375 353.308594 251.554688 338.050781 C 242.726562 322.777344 247.96875 303.253906 263.238281 294.453125 C 278.535156 285.621094 298.085938 290.871094 306.902344 306.128906 C 315.722656 321.402344 310.488281 340.898438 295.207031 349.726562 Z M 295.207031 349.726562 "/>
<g clip-path="url(#clip1)" clip-rule="nonzero">
<path style=" stroke:none;fill-rule:nonzero;fill:rgb(0%,0%,0%);fill-opacity:1;" d="M 99.675781 4.660156 C 99.675781 4.660156 61.898438 41.980469 109.832031 124.902344 C 125.472656 151.957031 139.238281 175.761719 151.449219 196.886719 C 159.125 183.847656 169.972656 165.429688 182.195312 144.703125 C 145.304688 82.085938 99.675781 4.660156 99.675781 4.660156 Z M 99.675781 4.660156 "/>
</g>
<g clip-path="url(#clip2)" clip-rule="nonzero">
<path style=" stroke:none;fill-rule:nonzero;fill:rgb(0%,0%,0%);fill-opacity:1;" d="M 269.488281 124.902344 C 317.417969 41.980469 279.628906 4.660156 279.628906 4.660156 C 279.628906 4.660156 227.519531 93.074219 189.652344 157.359375 C 176.914062 178.972656 165.820312 197.785156 158.839844 209.644531 C 154.214844 217.523438 151.335938 222.386719 151.089844 222.835938 C 171.875 234.800781 151.667969 274.75 137.851562 292.667969 C 134.175781 287.957031 129.585938 283.800781 124.070312 280.628906 C 101.140625 267.398438 71.808594 275.238281 58.570312 298.148438 C 45.332031 321.03125 53.183594 350.304688 76.113281 363.550781 C 99.046875 376.757812 128.367188 368.914062 141.617188 346.007812 C 149.574219 332.246094 163.597656 307.980469 189.652344 262.929688 C 197.683594 249.019531 206.824219 233.21875 217.339844 215.058594 C 218.328125 213.328125 219.433594 211.429688 220.460938 209.644531 C 234.433594 185.492188 250.566406 157.589844 269.488281 124.902344 Z M 127.761719 338.050781 C 118.945312 353.308594 99.394531 358.558594 84.109375 349.726562 C 68.8125 340.898438 63.582031 321.402344 72.414062 306.144531 C 81.242188 290.882812 100.78125 285.632812 116.078125 294.464844 C 131.359375 303.253906 136.589844 322.777344 127.761719 338.050781 Z M 189.652344 222.835938 C 182.558594 222.835938 176.796875 217.101562 176.796875 210.003906 C 176.796875 202.90625 182.558594 197.167969 189.652344 197.167969 C 196.761719 197.167969 202.503906 202.90625 202.503906 210.003906 C 202.503906 217.101562 196.746094 222.835938 189.652344 222.835938 Z M 189.652344 222.835938 "/>
</g>
</g>
</svg>
