<?xml version="1.0" encoding="UTF-8"?>
<svg xmlns="http://www.w3.org/2000/svg" xmlns:xlink="http://www.w3.org/1999/xlink" width="375pt" height="374.999991pt" viewBox="0 0 375 374.999991" version="1.2">
<defs>
<clipPath id="clip1">
  <path d="M 108 86 L 351.039062 86 L 351.039062 368.753906 L 108 368.753906 Z M 108 86 "/>
</clipPath>
<clipPath id="clip2">
  <path d="M 13 109 L 124 109 L 124 368.753906 L 13 368.753906 Z M 13 109 "/>
</clipPath>
</defs>
<g id="surface1">
<g clip-path="url(#clip1)" clip-rule="nonzero">
<path style=" stroke:none;fill-rule:nonzero;fill:rgb(6.269836%,5.879211%,5.099487%);fill-opacity:1;" d="M 244.796875 338.304688 C 244.3125 338.4375 243.832031 338.503906 243.355469 338.503906 C 241.019531 338.503906 238.875 336.957031 238.210938 334.59375 C 237.976562 333.746094 237.722656 332.886719 237.449219 332.011719 C 236.570312 329.195312 238.140625 326.203125 240.953125 325.320312 C 243.769531 324.441406 246.769531 326.007812 247.644531 328.824219 C 247.953125 329.804688 248.238281 330.769531 248.507812 331.722656 C 249.300781 334.566406 247.636719 337.511719 244.796875 338.304688 Z M 342.101562 130.4375 C 337.738281 126.355469 332.015625 121.707031 325.335938 117.980469 C 319.875 114.929688 312.945312 116.71875 309.535156 121.964844 C 301.320312 134.585938 283.335938 157.328125 256.425781 165.207031 C 251.0625 166.78125 245.644531 167.070312 240.492188 166.273438 C 234.214844 165.304688 227.769531 166 222.074219 168.8125 C 221.957031 168.871094 221.839844 168.929688 221.71875 168.992188 C 214.667969 172.558594 209.351562 178.765625 206.316406 186.0625 C 199.367188 202.769531 197.925781 220.054688 202.070312 237.628906 C 203.921875 245.484375 207.300781 253.191406 212.113281 260.53125 C 217.6875 269.035156 228.304688 285.851562 236.875 303.03125 C 238.070312 305.433594 237.417969 308.441406 235.199219 309.953125 C 234.253906 310.597656 233.199219 310.902344 232.164062 310.902344 C 230.203125 310.902344 228.3125 309.816406 227.378906 307.9375 C 219.046875 291.199219 208.636719 274.722656 203.175781 266.390625 C 197.679688 258.007812 193.808594 249.15625 191.667969 240.085938 C 186.363281 217.5625 189.410156 194.6875 200.429688 173.492188 C 200.496094 173.351562 200.570312 173.214844 200.644531 173.078125 C 201.496094 171.460938 202.386719 169.855469 203.324219 168.257812 C 208.5625 156.902344 208.886719 142.046875 208.445312 132.847656 C 208.253906 128.996094 207.378906 125.1875 205.71875 121.707031 C 205.710938 121.6875 205.703125 121.667969 205.691406 121.648438 C 199.246094 108.207031 187.332031 86.3125 145.894531 86.378906 C 145.894531 86.378906 135.648438 86.21875 122.886719 90.605469 C 114.554688 93.46875 112.453125 104.378906 119.132812 110.125 C 129.347656 118.898438 140.113281 135.050781 136.589844 163.242188 C 136.589844 163.242188 132.726562 190.171875 113.148438 204.664062 C 110.457031 206.65625 108.746094 209.816406 108.964844 213.160156 C 109.246094 217.546875 112.414062 221.070312 116.589844 221.925781 C 127.109375 224.085938 165.953125 247.828125 184.140625 272.445312 C 184.140625 272.445312 210.570312 306.941406 222.0625 350.324219 C 224.96875 361.300781 234.796875 369.003906 246.144531 369.003906 L 326.488281 369.003906 C 340.15625 369.003906 351.238281 357.921875 351.238281 344.25 L 351.238281 151.675781 C 351.238281 143.640625 347.964844 135.929688 342.101562 130.4375 "/>
</g>
<path style=" stroke:none;fill-rule:nonzero;fill:rgb(6.269836%,5.879211%,5.099487%);fill-opacity:1;" d="M 254.40625 40.167969 C 235.707031 34.121094 122.457031 6.550781 70.152344 41.777344 C 52.582031 53.613281 54.511719 80.089844 73.539062 89.410156 C 83.972656 94.519531 96.546875 92.613281 104.851562 84.484375 C 108.269531 81.136719 112.582031 77.640625 117.929688 74.476562 C 128.53125 65.242188 149.457031 51.414062 183.019531 47.113281 C 186.125 46.71875 188.945312 49.066406 189.039062 52.273438 C 189.121094 55.039062 186.941406 57.382812 184.199219 57.738281 C 178.957031 58.414062 174.054688 59.355469 169.480469 60.480469 C 167.726562 60.914062 167.964844 63.484375 169.761719 63.589844 C 173.605469 63.820312 177.625 64.238281 181.832031 64.863281 C 181.832031 64.863281 291.089844 84.648438 336.265625 72.585938 C 342.589844 70.902344 347.214844 65.230469 347.25 58.683594 C 347.292969 49.898438 339.535156 43.167969 330.847656 44.367188 C 315.410156 46.496094 290.183594 47.882812 259.964844 41.671875 C 258.085938 41.285156 256.234375 40.757812 254.40625 40.167969 "/>
<g clip-path="url(#clip2)" clip-rule="nonzero">
<path style=" stroke:none;fill-rule:nonzero;fill:rgb(6.269836%,5.879211%,5.099487%);fill-opacity:1;" d="M 115.234375 127.480469 C 115.234375 127.480469 113.277344 124.390625 108.609375 120.382812 C 100.371094 113.308594 89.953125 109.652344 79.367188 109.652344 C 76.636719 109.652344 70.894531 110.855469 66.382812 111.910156 C 64.074219 112.453125 63.710938 115.566406 65.824219 116.644531 C 69.042969 118.285156 72.324219 119.695312 75.59375 120.75 C 78.203125 121.589844 79.914062 124.226562 79.375 126.917969 C 78.851562 129.527344 76.585938 131.234375 74.132812 131.234375 C 73.597656 131.234375 73.050781 131.152344 72.511719 130.980469 C 61 127.320312 49.695312 120.03125 40.691406 113.078125 C 39.449219 112.117188 37.914062 111.609375 36.34375 111.609375 L 36.320312 111.609375 C 36.273438 111.609375 36.226562 111.609375 36.179688 111.609375 C 19.0625 111.671875 8.257812 130.101562 16.4375 145.144531 C 19.625 151.007812 23.5 158.566406 26.914062 166.488281 C 30.9375 175.824219 33.027344 185.878906 33.027344 196.046875 L 33.027344 361.949219 C 33.027344 365.847656 36.183594 369.003906 40.078125 369.003906 L 68.46875 369.003906 C 72.570312 369.003906 75.804688 365.523438 75.503906 361.433594 C 73.871094 339.152344 70.726562 272.199219 86.765625 221.640625 C 90.996094 208.304688 98.328125 196.179688 107.941406 186.019531 C 118.511719 174.839844 132.085938 153.390625 115.234375 127.480469 "/>
</g>
</g>
</svg>
