<?xml version="1.0" encoding="UTF-8"?>
<svg xmlns="http://www.w3.org/2000/svg" xmlns:xlink="http://www.w3.org/1999/xlink" width="375pt" height="374.999991pt" viewBox="0 0 375 374.999991" version="1.2">
<defs>
<clipPath id="clip1">
  <path d="M 38 17 L 361 17 L 361 372 L 38 372 Z M 38 17 "/>
</clipPath>
</defs>
<g id="surface1">
<path style=" stroke:none;fill-rule:nonzero;fill:rgb(0%,0%,0%);fill-opacity:1;" d="M 151.164062 233.179688 C 147.195312 228.304688 143.765625 223.078125 140.871094 217.5 C 137.976562 211.921875 135.675781 206.105469 133.972656 200.054688 C 133.882812 199.75 133.765625 199.453125 133.617188 199.171875 C 133.46875 198.886719 133.296875 198.621094 133.097656 198.371094 C 132.898438 198.121094 132.675781 197.894531 132.433594 197.6875 C 132.1875 197.480469 131.925781 197.300781 131.648438 197.144531 C 131.367188 196.992188 131.074219 196.863281 130.769531 196.765625 C 130.46875 196.667969 130.15625 196.601562 129.839844 196.566406 C 129.523438 196.527344 129.203125 196.523438 128.886719 196.546875 C 128.566406 196.574219 128.253906 196.628906 127.945312 196.714844 C 127.640625 196.800781 127.34375 196.917969 127.058594 197.0625 C 126.773438 197.207031 126.503906 197.378906 126.253906 197.574219 C 126.003906 197.773438 125.773438 197.992188 125.5625 198.234375 C 125.355469 198.476562 125.171875 198.734375 125.015625 199.015625 C 124.859375 199.292969 124.730469 199.582031 124.628906 199.886719 C 124.527344 200.1875 124.457031 200.5 124.417969 200.816406 C 124.378906 201.132812 124.371094 201.449219 124.390625 201.769531 C 124.414062 202.089844 124.46875 202.402344 124.550781 202.710938 C 126.441406 209.40625 128.988281 215.84375 132.191406 222.019531 C 135.398438 228.195312 139.199219 233.984375 143.589844 239.382812 C 147.910156 244.574219 152.921875 248.988281 158.621094 252.617188 C 199.757812 279.265625 217.09375 323.484375 222.640625 341.257812 C 223.054688 342.628906 223.554688 343.96875 224.136719 345.277344 C 224.71875 346.585938 225.378906 347.855469 226.117188 349.082031 C 226.855469 350.308594 227.664062 351.488281 228.546875 352.617188 C 229.429688 353.742188 230.378906 354.8125 231.390625 355.824219 C 232.40625 356.835938 233.480469 357.78125 234.609375 358.664062 C 235.738281 359.542969 236.917969 360.351562 238.148438 361.085938 C 239.378906 361.820312 240.648438 362.476562 241.957031 363.054688 C 243.269531 363.636719 244.609375 364.132812 245.980469 364.546875 L 246.386719 364.667969 C 248.28125 365.210938 250.214844 365.484375 252.1875 365.480469 C 253.707031 365.480469 255.207031 365.320312 256.6875 365.003906 C 258.171875 364.6875 259.605469 364.214844 260.988281 363.59375 C 262.371094 362.972656 263.675781 362.214844 264.898438 361.316406 C 266.121094 360.417969 267.234375 359.402344 268.242188 358.269531 C 300.667969 321.644531 306.863281 242.957031 307.671875 199.316406 C 307.78125 192.769531 307.164062 186.289062 305.824219 179.882812 C 304.484375 173.472656 302.453125 167.292969 299.730469 161.335938 C 294.722656 150.621094 291.523438 139.386719 290.128906 127.640625 C 290.09375 127.324219 290.027344 127.015625 289.929688 126.710938 C 289.832031 126.40625 289.707031 126.113281 289.550781 125.835938 C 289.398438 125.554688 289.21875 125.292969 289.011719 125.050781 C 288.808594 124.804688 288.582031 124.582031 288.332031 124.382812 C 288.082031 124.183594 287.816406 124.007812 287.535156 123.859375 C 287.25 123.714844 286.957031 123.59375 286.652344 123.503906 C 286.34375 123.414062 286.03125 123.355469 285.714844 123.324219 C 285.398438 123.296875 285.078125 123.296875 284.761719 123.328125 C 284.445312 123.363281 284.132812 123.425781 283.828125 123.519531 C 283.523438 123.613281 283.230469 123.734375 282.949219 123.886719 C 282.667969 124.039062 282.402344 124.214844 282.15625 124.417969 C 281.910156 124.621094 281.6875 124.84375 281.484375 125.09375 C 281.28125 125.339844 281.105469 125.601562 280.953125 125.882812 C 280.804688 126.164062 280.679688 126.457031 280.585938 126.761719 C 280.492188 127.070312 280.429688 127.378906 280.398438 127.695312 C 280.367188 128.015625 280.363281 128.332031 280.394531 128.648438 C 281.894531 141.445312 285.367188 153.679688 290.808594 165.355469 C 293.230469 170.648438 295.042969 176.144531 296.234375 181.84375 C 297.429688 187.542969 297.980469 193.300781 297.890625 199.121094 C 297.257812 233.175781 292.382812 316.210938 260.917969 351.769531 C 260.191406 352.589844 259.367188 353.289062 258.441406 353.875 C 257.519531 354.460938 256.53125 354.90625 255.480469 355.210938 C 254.433594 355.519531 253.359375 355.675781 252.265625 355.679688 C 251.171875 355.683594 250.101562 355.535156 249.046875 355.234375 L 248.769531 355.15625 C 246.789062 354.550781 244.910156 353.714844 243.132812 352.648438 C 241.355469 351.582031 239.738281 350.3125 238.273438 348.847656 C 236.808594 347.378906 235.546875 345.757812 234.484375 343.976562 C 233.417969 342.199219 232.589844 340.320312 231.988281 338.335938 C 226.128906 319.546875 207.765625 272.78125 163.949219 244.394531 C 159.101562 241.324219 154.839844 237.585938 151.164062 233.179688 Z M 151.164062 233.179688 "/>
<g clip-path="url(#clip1)" clip-rule="nonzero">
<path style=" stroke:none;fill-rule:nonzero;fill:rgb(0%,0%,0%);fill-opacity:1;" d="M 357.910156 85.726562 C 356.484375 82.207031 354.554688 78.988281 352.117188 76.078125 C 351.246094 75.0625 350.304688 74.117188 349.292969 73.238281 C 348.28125 72.363281 347.210938 71.566406 346.082031 70.851562 C 344.949219 70.136719 343.773438 69.507812 342.550781 68.96875 C 341.328125 68.425781 340.070312 67.980469 338.777344 67.625 C 337.488281 67.273438 336.179688 67.019531 334.851562 66.859375 C 333.523438 66.703125 332.1875 66.644531 330.851562 66.683594 C 329.515625 66.726562 328.1875 66.863281 326.871094 67.105469 C 325.554688 67.34375 324.261719 67.675781 322.996094 68.109375 C 317.753906 69.890625 309.003906 71.410156 297.082031 68.523438 C 290.996094 66.996094 285.316406 64.535156 280.042969 61.136719 C 256.691406 46.359375 174.6875 0.0273438 99.8125 24.089844 C 98.382812 24.546875 97.03125 25.179688 95.765625 25.984375 C 94.496094 26.785156 93.347656 27.734375 92.320312 28.832031 C 91.292969 29.925781 90.417969 31.132812 89.699219 32.453125 C 88.976562 33.769531 88.433594 35.15625 88.066406 36.613281 L 87.992188 36.949219 C 87.660156 38.394531 87.519531 39.855469 87.566406 41.335938 C 65.8125 52.632812 54.203125 66.988281 48.261719 77.269531 C 47.335938 78.871094 46.539062 80.539062 45.867188 82.265625 C 45.195312 83.992188 44.660156 85.761719 44.257812 87.570312 C 43.855469 89.378906 43.59375 91.207031 43.472656 93.054688 C 43.347656 94.902344 43.367188 96.75 43.527344 98.597656 C 43.683594 100.441406 43.984375 102.265625 44.421875 104.066406 C 44.859375 105.867188 45.429688 107.621094 46.132812 109.335938 C 46.839844 111.050781 47.671875 112.699219 48.628906 114.285156 C 49.582031 115.871094 50.65625 117.375 51.84375 118.800781 C 52.867188 120.023438 53.957031 121.230469 55.09375 122.429688 C 53.949219 123.1875 52.859375 124.011719 51.820312 124.90625 C 40.863281 134.367188 39.425781 148.367188 39.25 151.058594 C 37.996094 157.175781 39.089844 166.238281 42.519531 178.046875 C 44.441406 184.644531 45.605469 191.371094 46 198.234375 C 49.117188 253.324219 45.15625 330.246094 45.117188 331.015625 C 45.101562 331.335938 45.117188 331.65625 45.164062 331.972656 C 45.207031 332.292969 45.285156 332.601562 45.394531 332.90625 C 45.5 333.207031 45.636719 333.496094 45.800781 333.773438 C 45.964844 334.046875 46.15625 334.304688 46.371094 334.542969 C 46.585938 334.78125 46.820312 334.996094 47.078125 335.191406 C 47.335938 335.382812 47.609375 335.546875 47.898438 335.683594 C 48.1875 335.824219 48.488281 335.933594 48.800781 336.011719 C 49.113281 336.089844 49.429688 336.136719 49.75 336.15625 C 49.835938 336.160156 49.921875 336.160156 50.007812 336.160156 C 50.320312 336.160156 50.628906 336.132812 50.933594 336.074219 C 51.238281 336.015625 51.535156 335.925781 51.820312 335.8125 C 52.109375 335.695312 52.382812 335.554688 52.644531 335.386719 C 52.90625 335.222656 53.148438 335.03125 53.375 334.816406 C 53.601562 334.601562 53.804688 334.371094 53.984375 334.117188 C 54.164062 333.863281 54.320312 333.597656 54.449219 333.316406 C 54.578125 333.035156 54.683594 332.742188 54.757812 332.441406 C 54.832031 332.140625 54.875 331.832031 54.890625 331.523438 C 54.933594 330.75 58.917969 253.304688 55.773438 197.675781 C 55.335938 190.074219 54.050781 182.621094 51.917969 175.3125 C 50.078125 169.464844 48.953125 163.484375 48.546875 157.367188 C 53.019531 157.917969 57.492188 157.894531 61.960938 157.296875 C 66.429688 156.703125 70.75 155.554688 74.925781 153.855469 C 75.226562 153.738281 75.515625 153.59375 75.789062 153.417969 C 76.0625 153.246094 76.316406 153.046875 76.550781 152.820312 C 76.785156 152.597656 76.996094 152.351562 77.183594 152.085938 C 77.367188 151.820312 77.527344 151.539062 77.65625 151.238281 C 77.785156 150.941406 77.882812 150.636719 77.953125 150.316406 C 78.019531 150 78.054688 149.679688 78.0625 149.355469 C 78.066406 149.03125 78.039062 148.707031 77.976562 148.390625 C 77.917969 148.070312 77.828125 147.761719 77.707031 147.460938 C 77.585938 147.160156 77.4375 146.871094 77.257812 146.601562 C 77.078125 146.328125 76.875 146.078125 76.648438 145.847656 C 76.421875 145.617188 76.171875 145.410156 75.902344 145.230469 C 75.632812 145.046875 75.347656 144.894531 75.050781 144.769531 C 74.75 144.644531 74.441406 144.550781 74.121094 144.488281 C 73.804688 144.425781 73.484375 144.394531 73.160156 144.394531 C 72.832031 144.394531 72.511719 144.425781 72.195312 144.492188 C 71.875 144.554688 71.566406 144.652344 71.269531 144.777344 C 67.839844 146.171875 64.292969 147.113281 60.625 147.601562 C 56.957031 148.085938 53.285156 148.101562 49.613281 147.644531 C 50.191406 144.695312 51.214844 141.910156 52.683594 139.289062 C 54.15625 136.667969 56 134.34375 58.214844 132.3125 C 63.015625 128.164062 69.527344 126.105469 77.617188 126.152344 C 76.695312 135.933594 82.796875 143.574219 83.113281 143.960938 C 83.132812 143.988281 83.164062 144.007812 83.183594 144.03125 C 87.933594 150.246094 99.578125 151.128906 102.570312 151.25 C 115.304688 153.058594 123.164062 158.335938 127.261719 162.023438 C 114.175781 170.585938 81.351562 196.140625 77.542969 238.9375 C 77.542969 238.992188 77.535156 239.046875 77.53125 239.101562 L 74.359375 296.558594 C 74.339844 296.882812 74.355469 297.199219 74.402344 297.519531 C 74.445312 297.835938 74.519531 298.148438 74.628906 298.453125 C 74.734375 298.753906 74.871094 299.042969 75.03125 299.320312 C 75.195312 299.597656 75.386719 299.855469 75.601562 300.09375 C 75.8125 300.335938 76.050781 300.550781 76.308594 300.746094 C 76.5625 300.9375 76.835938 301.101562 77.125 301.242188 C 77.417969 301.382812 77.71875 301.492188 78.027344 301.570312 C 78.339844 301.652344 78.65625 301.699219 78.976562 301.71875 C 79.070312 301.71875 79.160156 301.71875 79.25 301.71875 C 79.5625 301.71875 79.867188 301.6875 80.171875 301.628906 C 80.476562 301.570312 80.773438 301.484375 81.058594 301.371094 C 81.347656 301.253906 81.621094 301.113281 81.882812 300.945312 C 82.144531 300.78125 82.386719 300.589844 82.613281 300.378906 C 82.835938 300.164062 83.039062 299.933594 83.222656 299.679688 C 83.402344 299.429688 83.558594 299.164062 83.6875 298.882812 C 83.816406 298.601562 83.921875 298.308594 83.996094 298.007812 C 84.070312 297.707031 84.117188 297.402344 84.132812 297.09375 L 87.300781 239.710938 C 88.042969 232.230469 89.765625 224.984375 92.46875 217.972656 C 95.175781 210.957031 98.761719 204.429688 103.234375 198.386719 C 101.488281 202.824219 100.167969 207.382812 99.277344 212.0625 C 96.417969 227.164062 94.964844 246 94.964844 267.976562 L 93.398438 367.300781 C 93.394531 367.621094 93.417969 367.941406 93.476562 368.257812 C 93.535156 368.574219 93.621094 368.878906 93.742188 369.179688 C 93.859375 369.476562 94.003906 369.761719 94.179688 370.03125 C 94.355469 370.300781 94.554688 370.554688 94.777344 370.785156 C 95 371.015625 95.242188 371.222656 95.507812 371.402344 C 95.773438 371.585938 96.050781 371.742188 96.347656 371.871094 C 96.640625 371.996094 96.945312 372.09375 97.261719 372.164062 C 97.574219 372.230469 97.894531 372.265625 98.214844 372.273438 L 98.292969 372.273438 C 98.613281 372.273438 98.925781 372.242188 99.238281 372.179688 C 99.550781 372.117188 99.855469 372.027344 100.148438 371.90625 C 100.441406 371.785156 100.722656 371.636719 100.988281 371.464844 C 101.253906 371.289062 101.5 371.089844 101.726562 370.867188 C 101.953125 370.644531 102.15625 370.398438 102.335938 370.136719 C 102.515625 369.875 102.667969 369.597656 102.792969 369.304688 C 102.917969 369.011719 103.015625 368.710938 103.082031 368.398438 C 103.148438 368.089844 103.183594 367.773438 103.1875 367.457031 L 104.757812 268.0625 C 104.757812 246.617188 106.148438 228.394531 108.898438 213.894531 C 110.085938 207.671875 112.117188 201.738281 114.988281 196.089844 C 117.859375 190.445312 121.457031 185.308594 125.78125 180.679688 C 134.160156 171.675781 138.472656 166.445312 138.652344 166.222656 L 138.664062 166.207031 C 138.703125 166.160156 138.730469 166.109375 138.765625 166.0625 C 138.898438 165.886719 139.015625 165.707031 139.121094 165.519531 C 139.144531 165.476562 139.179688 165.4375 139.203125 165.398438 C 139.210938 165.378906 139.21875 165.363281 139.226562 165.34375 C 139.34375 165.117188 139.441406 164.882812 139.523438 164.636719 L 139.558594 164.53125 L 139.566406 164.503906 C 142.609375 155.066406 144.535156 139.230469 138.75 126.226562 C 141.546875 123.972656 144.613281 122.1875 147.953125 120.875 C 151.292969 119.5625 154.757812 118.78125 158.335938 118.53125 C 160.691406 118.828125 172.164062 120.824219 173.386719 131.878906 C 173.488281 134.910156 172.746094 137.71875 171.160156 140.304688 C 170.996094 140.585938 170.863281 140.878906 170.757812 141.1875 C 170.652344 141.492188 170.578125 141.808594 170.535156 142.128906 C 170.492188 142.453125 170.480469 142.773438 170.503906 143.097656 C 170.523438 143.421875 170.578125 143.742188 170.660156 144.054688 C 170.746094 144.367188 170.859375 144.667969 171.003906 144.960938 C 171.148438 145.25 171.320312 145.523438 171.519531 145.78125 C 171.71875 146.035156 171.941406 146.269531 172.1875 146.484375 C 172.433594 146.695312 172.699219 146.882812 172.980469 147.039062 C 173.265625 147.199219 173.558594 147.328125 173.867188 147.429688 C 174.175781 147.53125 174.492188 147.601562 174.816406 147.636719 C 175.136719 147.675781 175.460938 147.683594 175.785156 147.65625 C 176.105469 147.628906 176.425781 147.570312 176.738281 147.480469 C 177.046875 147.390625 177.347656 147.273438 177.636719 147.125 C 177.925781 146.972656 178.195312 146.796875 178.449219 146.59375 C 178.703125 146.390625 178.933594 146.164062 179.140625 145.914062 C 179.347656 145.667969 179.53125 145.398438 179.6875 145.113281 C 180.984375 142.941406 181.925781 140.625 182.507812 138.160156 C 183.089844 135.695312 183.289062 133.203125 183.097656 130.675781 C 181.574219 117.011719 170.507812 111.125 162.519531 109.320312 C 162.1875 106.261719 162.242188 101.492188 165.011719 98.066406 C 165.445312 97.550781 165.949219 97.117188 166.519531 96.765625 C 167.089844 96.414062 167.703125 96.160156 168.359375 96.003906 C 169.011719 95.847656 169.675781 95.796875 170.34375 95.855469 C 171.011719 95.914062 171.65625 96.074219 172.273438 96.339844 C 181.398438 100.140625 197.289062 109.292969 201.769531 127.910156 C 201.789062 130.871094 201.363281 147.484375 189.996094 159.613281 C 186.992188 162.320312 156.039062 191.390625 170.71875 227.054688 C 171.207031 228.324219 174.652344 236.375 185.953125 246.417969 L 187.101562 247.433594 C 195.742188 255.082031 213.710938 270.996094 225.679688 293.546875 C 225.832031 293.832031 226.007812 294.097656 226.210938 294.347656 C 226.414062 294.597656 226.640625 294.824219 226.886719 295.027344 C 227.136719 295.234375 227.402344 295.410156 227.683594 295.5625 C 227.96875 295.714844 228.261719 295.839844 228.570312 295.933594 C 228.875 296.027344 229.191406 296.089844 229.507812 296.125 C 229.828125 296.15625 230.148438 296.15625 230.46875 296.125 C 230.789062 296.09375 231.101562 296.035156 231.410156 295.941406 C 231.71875 295.847656 232.015625 295.726562 232.296875 295.578125 C 232.582031 295.425781 232.847656 295.25 233.097656 295.046875 C 233.347656 294.84375 233.574219 294.617188 233.777344 294.371094 C 233.984375 294.121094 234.160156 293.855469 234.3125 293.574219 C 234.464844 293.292969 234.589844 292.996094 234.683594 292.6875 C 234.777344 292.382812 234.839844 292.066406 234.875 291.75 C 234.90625 291.429688 234.90625 291.109375 234.875 290.789062 C 234.84375 290.46875 234.785156 290.15625 234.691406 289.847656 C 234.597656 289.539062 234.476562 289.242188 234.328125 288.960938 C 221.527344 264.84375 202.660156 248.136719 193.59375 240.109375 L 192.453125 239.101562 C 182.632812 230.375 179.859375 223.554688 179.851562 223.523438 C 179.832031 223.476562 179.8125 223.425781 179.792969 223.375 C 167.339844 193.203125 195.453125 167.859375 196.648438 166.800781 C 196.761719 166.703125 196.867188 166.601562 196.96875 166.492188 C 208.679688 154.132812 211.039062 138.5 211.476562 131.132812 C 216.050781 129.507812 222.636719 125.164062 225.578125 113.5 C 226.996094 107.882812 237.066406 101.609375 251.992188 96.949219 C 256.492188 99.472656 259.183594 101.046875 259.300781 101.117188 C 260.1875 101.628906 281.292969 113.753906 303.824219 117.726562 C 305.289062 117.984375 306.671875 118.476562 307.96875 119.199219 C 309.269531 119.921875 310.410156 120.839844 311.398438 121.953125 C 312.59375 123.34375 313.921875 124.585938 315.386719 125.6875 C 316.847656 126.785156 318.414062 127.714844 320.082031 128.476562 C 321.75 129.234375 323.476562 129.804688 325.269531 130.1875 C 327.058594 130.570312 328.871094 130.757812 330.703125 130.746094 C 332.257812 130.742188 333.804688 130.617188 335.339844 130.367188 C 338.492188 129.847656 341.460938 128.8125 344.257812 127.269531 C 347.050781 125.726562 349.507812 123.757812 351.625 121.371094 C 352.695312 120.191406 353.679688 118.941406 354.574219 117.625 C 355.472656 116.304688 356.269531 114.933594 356.972656 113.5 C 357.675781 112.070312 358.273438 110.597656 358.765625 109.082031 C 359.261719 107.570312 359.648438 106.027344 359.925781 104.457031 C 360.199219 102.886719 360.367188 101.308594 360.417969 99.714844 C 360.472656 98.121094 360.414062 96.535156 360.246094 94.949219 C 360.074219 93.363281 359.792969 91.800781 359.402344 90.253906 C 359.011719 88.710938 358.515625 87.203125 357.910156 85.726562 Z M 103.160156 141.46875 C 98.390625 141.308594 92.136719 139.820312 90.925781 138.078125 C 90.890625 138.023438 90.839844 137.984375 90.804688 137.929688 C 90.765625 137.878906 90.738281 137.820312 90.695312 137.769531 C 90.65625 137.71875 85.347656 130.894531 88.167969 123.820312 C 89.773438 121.386719 98.359375 110.183594 116.472656 117.527344 C 133.554688 124.453125 133.6875 142.550781 132.066406 153.292969 C 127.96875 150.058594 123.507812 147.4375 118.683594 145.4375 C 113.859375 143.4375 108.851562 142.128906 103.667969 141.511719 C 103.5 141.488281 103.328125 141.472656 103.160156 141.46875 Z M 216.078125 111.09375 C 214.609375 116.921875 212.0625 119.71875 209.984375 121.0625 C 203.253906 101.300781 186.136719 91.496094 176.035156 87.285156 C 175.242188 86.953125 174.429688 86.6875 173.59375 86.488281 C 172.757812 86.285156 171.914062 86.152344 171.058594 86.085938 C 170.203125 86.019531 169.347656 86.023438 168.492188 86.09375 C 167.636719 86.164062 166.789062 86.300781 165.957031 86.507812 C 165.125 86.714844 164.3125 86.984375 163.523438 87.320312 C 162.730469 87.65625 161.972656 88.050781 161.246094 88.507812 C 160.519531 88.964844 159.832031 89.476562 159.1875 90.042969 C 158.542969 90.609375 157.949219 91.226562 157.402344 91.886719 C 152.808594 97.554688 152.332031 104.605469 152.703125 109.410156 C 149.214844 110.03125 145.847656 111.058594 142.605469 112.488281 C 139.363281 113.917969 136.332031 115.710938 133.519531 117.867188 C 129.835938 113.632812 125.378906 110.496094 120.148438 108.457031 C 100.660156 100.554688 87.25 109.164062 81.382812 116.5 C 75.675781 116.023438 70.0625 116.542969 64.539062 118.066406 C 62.710938 116.300781 60.976562 114.445312 59.339844 112.503906 C 58.472656 111.460938 57.691406 110.363281 56.992188 109.203125 C 56.292969 108.042969 55.683594 106.839844 55.171875 105.585938 C 54.65625 104.335938 54.238281 103.050781 53.921875 101.738281 C 53.601562 100.421875 53.382812 99.089844 53.269531 97.742188 C 53.152344 96.390625 53.140625 95.042969 53.230469 93.691406 C 53.320312 92.339844 53.511719 91.007812 53.804688 89.683594 C 54.097656 88.363281 54.492188 87.070312 54.984375 85.8125 C 55.472656 84.550781 56.058594 83.332031 56.734375 82.160156 C 61.890625 73.234375 71.914062 60.820312 90.703125 50.738281 C 91.535156 51.933594 92.5 53.015625 93.601562 53.972656 C 94.699219 54.933594 95.902344 55.742188 97.199219 56.40625 C 98.5 57.070312 99.859375 57.566406 101.28125 57.894531 C 102.703125 58.222656 104.144531 58.371094 105.605469 58.34375 C 107.199219 63.234375 108.339844 68.226562 109.03125 73.324219 C 109.210938 74.683594 109.476562 76.027344 109.832031 77.355469 C 110.183594 78.683594 110.617188 79.984375 111.132812 81.253906 C 111.652344 82.527344 112.246094 83.761719 112.917969 84.960938 C 113.59375 86.15625 114.339844 87.304688 115.15625 88.410156 C 115.976562 89.511719 116.863281 90.558594 117.816406 91.546875 C 118.765625 92.535156 119.777344 93.460938 120.847656 94.324219 C 121.914062 95.1875 123.035156 95.976562 124.203125 96.699219 C 125.375 97.417969 126.582031 98.0625 127.835938 98.628906 C 131.855469 100.417969 136.015625 101.785156 140.316406 102.738281 C 140.628906 102.808594 140.945312 102.847656 141.265625 102.855469 C 141.589844 102.863281 141.90625 102.839844 142.222656 102.785156 C 142.539062 102.730469 142.847656 102.644531 143.148438 102.53125 C 143.449219 102.414062 143.734375 102.269531 144.007812 102.097656 C 144.277344 101.925781 144.53125 101.730469 144.761719 101.507812 C 144.996094 101.285156 145.203125 101.042969 145.390625 100.78125 C 145.574219 100.519531 145.730469 100.238281 145.863281 99.945312 C 145.992188 99.652344 146.09375 99.347656 146.164062 99.035156 C 146.234375 98.722656 146.273438 98.402344 146.28125 98.082031 C 146.289062 97.761719 146.265625 97.441406 146.210938 97.125 C 146.15625 96.808594 146.070312 96.5 145.953125 96.199219 C 145.839844 95.902344 145.695312 95.613281 145.523438 95.34375 C 145.351562 95.070312 145.152344 94.820312 144.929688 94.585938 C 144.710938 94.355469 144.46875 94.144531 144.203125 93.960938 C 143.941406 93.777344 143.664062 93.617188 143.371094 93.488281 C 143.074219 93.359375 142.773438 93.257812 142.457031 93.1875 C 138.804688 92.378906 135.265625 91.21875 131.84375 89.699219 C 130.097656 88.886719 128.476562 87.867188 126.984375 86.648438 C 125.492188 85.429688 124.171875 84.042969 123.023438 82.492188 C 121.878906 80.941406 120.941406 79.273438 120.214844 77.488281 C 119.488281 75.703125 118.992188 73.855469 118.726562 71.945312 C 118.019531 66.832031 116.914062 61.800781 115.402344 56.863281 C 130.519531 54.539062 153.753906 53.039062 174.769531 60.269531 C 196.527344 67.753906 223.015625 81.199219 240.46875 90.613281 C 229.210938 95.097656 218.441406 101.730469 216.078125 111.09375 Z M 344.425781 114.730469 C 343.042969 116.304688 341.4375 117.605469 339.609375 118.625 C 337.78125 119.648438 335.835938 120.335938 333.773438 120.691406 C 332.433594 120.960938 331.082031 121.054688 329.71875 120.96875 C 328.355469 120.882812 327.023438 120.625 325.730469 120.191406 C 324.433594 119.757812 323.214844 119.164062 322.078125 118.410156 C 320.9375 117.660156 319.914062 116.769531 319.007812 115.75 C 318.050781 113.941406 315.070312 106.957031 321.621094 100.019531 C 321.664062 99.976562 321.722656 99.910156 321.761719 99.863281 C 322.535156 99.035156 323.363281 98.269531 324.253906 97.566406 C 325.058594 97.058594 325.835938 96.511719 326.578125 95.917969 C 328.414062 94.742188 330.390625 93.902344 332.507812 93.402344 C 332.824219 93.335938 333.132812 93.238281 333.429688 93.113281 C 333.726562 92.984375 334.007812 92.828125 334.273438 92.644531 C 334.539062 92.460938 334.785156 92.253906 335.011719 92.019531 C 335.234375 91.789062 335.433594 91.535156 335.609375 91.265625 C 335.785156 90.992188 335.929688 90.707031 336.050781 90.40625 C 336.167969 90.101562 336.253906 89.792969 336.3125 89.476562 C 336.367188 89.15625 336.394531 88.835938 336.386719 88.511719 C 336.378906 88.191406 336.339844 87.871094 336.269531 87.554688 C 336.199219 87.238281 336.101562 86.933594 335.96875 86.636719 C 335.839844 86.34375 335.679688 86.0625 335.492188 85.796875 C 335.308594 85.535156 335.097656 85.289062 334.863281 85.066406 C 334.628906 84.84375 334.375 84.648438 334.101562 84.476562 C 333.828125 84.304688 333.539062 84.160156 333.238281 84.042969 C 332.933594 83.929688 332.625 83.84375 332.304688 83.789062 C 331.988281 83.738281 331.664062 83.714844 331.34375 83.726562 C 331.019531 83.734375 330.699219 83.777344 330.386719 83.851562 C 326.074219 84.878906 322.179688 86.761719 318.691406 89.5 C 317.117188 90.460938 315.425781 91.121094 313.617188 91.488281 C 311.8125 91.855469 309.996094 91.902344 308.171875 91.632812 C 296.117188 89.773438 284.820312 82.6875 284.683594 82.601562 C 284.414062 82.429688 284.128906 82.285156 283.828125 82.171875 C 283.53125 82.054688 283.222656 81.96875 282.90625 81.914062 C 282.589844 81.855469 282.269531 81.832031 281.949219 81.839844 C 281.625 81.847656 281.308594 81.886719 280.996094 81.957031 C 280.683594 82.027344 280.378906 82.125 280.085938 82.253906 C 279.789062 82.386719 279.511719 82.542969 279.25 82.726562 C 278.984375 82.910156 278.742188 83.121094 278.519531 83.351562 C 278.300781 83.585938 278.101562 83.835938 277.929688 84.109375 C 277.757812 84.378906 277.613281 84.664062 277.496094 84.964844 C 277.378906 85.265625 277.292969 85.570312 277.238281 85.886719 C 277.183594 86.207031 277.160156 86.523438 277.167969 86.84375 C 277.175781 87.167969 277.210938 87.484375 277.28125 87.796875 C 277.351562 88.113281 277.453125 88.414062 277.582031 88.710938 C 277.710938 89.003906 277.867188 89.28125 278.054688 89.546875 C 278.238281 89.808594 278.445312 90.050781 278.679688 90.273438 C 278.910156 90.496094 279.164062 90.691406 279.433594 90.863281 C 279.960938 91.199219 292.539062 99.125 306.679688 101.304688 C 307.523438 101.429688 308.371094 101.511719 309.222656 101.550781 C 308.355469 103.824219 307.871094 106.175781 307.773438 108.605469 C 307.027344 108.390625 306.269531 108.210938 305.507812 108.074219 C 284.71875 104.410156 264.398438 92.75 264.214844 92.644531 C 262.203125 91.46875 214.539062 63.597656 177.945312 51.011719 C 165.5 46.949219 152.730469 45 139.636719 45.167969 C 128.605469 45.214844 117.675781 46.296875 106.847656 48.417969 C 106.191406 48.546875 105.527344 48.59375 104.855469 48.554688 C 104.1875 48.515625 103.53125 48.398438 102.890625 48.195312 C 102.253906 47.992188 101.648438 47.714844 101.078125 47.359375 C 100.507812 47.007812 99.992188 46.589844 99.527344 46.105469 C 98.640625 45.203125 98.015625 44.144531 97.652344 42.9375 C 97.644531 42.910156 97.632812 42.882812 97.625 42.855469 C 97.277344 41.632812 97.246094 40.398438 97.535156 39.160156 L 97.589844 38.929688 C 97.753906 38.289062 97.996094 37.675781 98.320312 37.09375 C 98.640625 36.511719 99.027344 35.976562 99.484375 35.496094 C 99.941406 35.011719 100.453125 34.59375 101.015625 34.238281 C 101.578125 33.886719 102.175781 33.609375 102.8125 33.410156 C 173.640625 10.652344 252.367188 55.207031 274.808594 69.40625 C 280.992188 73.378906 287.648438 76.257812 294.777344 78.039062 C 308.980469 81.480469 319.675781 79.574219 326.148438 77.375 C 326.949219 77.097656 327.765625 76.882812 328.601562 76.730469 C 329.4375 76.578125 330.277344 76.484375 331.125 76.457031 C 331.972656 76.429688 332.816406 76.464844 333.660156 76.5625 C 334.5 76.660156 335.332031 76.816406 336.152344 77.039062 C 336.96875 77.261719 337.769531 77.542969 338.542969 77.882812 C 339.320312 78.222656 340.070312 78.617188 340.785156 79.070312 C 341.503906 79.523438 342.183594 80.023438 342.828125 80.578125 C 343.46875 81.128906 344.070312 81.726562 344.621094 82.371094 C 346.402344 84.5 347.816406 86.847656 348.855469 89.421875 C 349.289062 90.46875 349.640625 91.539062 349.921875 92.636719 C 350.199219 93.730469 350.402344 94.84375 350.523438 95.96875 C 350.644531 97.09375 350.6875 98.21875 350.652344 99.351562 C 350.617188 100.480469 350.5 101.605469 350.304688 102.71875 C 350.109375 103.832031 349.839844 104.929688 349.488281 106.003906 C 349.140625 107.082031 348.714844 108.128906 348.21875 109.144531 C 347.722656 110.160156 347.15625 111.136719 346.519531 112.074219 C 345.886719 113.011719 345.1875 113.898438 344.429688 114.734375 Z M 344.425781 114.730469 "/>
</g>
<path style=" stroke:none;fill-rule:nonzero;fill:rgb(0%,0%,0%);fill-opacity:1;" d="M 160.683594 160.765625 C 161.472656 160.765625 162.21875 160.582031 162.921875 160.222656 C 163.53125 159.90625 164.125 159.585938 164.695312 159.265625 C 164.988281 159.113281 165.257812 158.933594 165.511719 158.726562 C 165.765625 158.519531 165.996094 158.292969 166.203125 158.039062 C 166.414062 157.785156 166.59375 157.515625 166.746094 157.226562 C 166.898438 156.9375 167.023438 156.636719 167.117188 156.324219 C 167.210938 156.007812 167.269531 155.6875 167.300781 155.363281 C 167.328125 155.035156 167.324219 154.710938 167.289062 154.386719 C 167.25 154.0625 167.183594 153.742188 167.082031 153.429688 C 166.984375 153.121094 166.851562 152.820312 166.691406 152.535156 C 166.53125 152.25 166.34375 151.984375 166.132812 151.734375 C 165.917969 151.488281 165.683594 151.265625 165.421875 151.0625 C 165.164062 150.863281 164.890625 150.691406 164.597656 150.546875 C 164.300781 150.398438 163.996094 150.285156 163.683594 150.199219 C 163.367188 150.117188 163.042969 150.066406 162.71875 150.046875 C 162.390625 150.027344 162.066406 150.039062 161.742188 150.085938 C 161.417969 150.128906 161.101562 150.207031 160.792969 150.316406 C 160.484375 150.425781 160.191406 150.566406 159.910156 150.734375 C 159.433594 151 158.945312 151.261719 158.441406 151.523438 C 157.953125 151.777344 157.523438 152.101562 157.144531 152.496094 C 156.765625 152.894531 156.464844 153.34375 156.234375 153.839844 C 156.007812 154.339844 155.867188 154.863281 155.816406 155.40625 C 155.765625 155.953125 155.804688 156.492188 155.933594 157.023438 C 156.0625 157.558594 156.273438 158.054688 156.570312 158.515625 C 156.867188 158.976562 157.230469 159.378906 157.660156 159.714844 C 158.089844 160.054688 158.566406 160.316406 159.082031 160.496094 C 159.601562 160.675781 160.132812 160.765625 160.683594 160.765625 Z M 160.683594 160.765625 "/>
<path style=" stroke:none;fill-rule:nonzero;fill:rgb(0%,0%,0%);fill-opacity:1;" d="M 233.636719 312.617188 C 233.835938 313.269531 234.03125 313.929688 234.222656 314.59375 C 234.308594 314.902344 234.425781 315.203125 234.570312 315.488281 C 234.71875 315.773438 234.890625 316.042969 235.089844 316.296875 C 235.289062 316.546875 235.511719 316.777344 235.757812 316.988281 C 236.003906 317.195312 236.265625 317.378906 236.546875 317.535156 C 236.828125 317.691406 237.121094 317.816406 237.425781 317.917969 C 237.734375 318.015625 238.046875 318.082031 238.367188 318.121094 C 238.683594 318.15625 239.003906 318.164062 239.324219 318.136719 C 239.644531 318.109375 239.960938 318.054688 240.269531 317.964844 C 240.578125 317.878906 240.878906 317.761719 241.164062 317.613281 C 241.449219 317.464844 241.71875 317.292969 241.972656 317.09375 C 242.222656 316.894531 242.453125 316.671875 242.660156 316.425781 C 242.871094 316.179688 243.050781 315.917969 243.207031 315.636719 C 243.363281 315.355469 243.492188 315.0625 243.589844 314.753906 C 243.6875 314.449219 243.753906 314.136719 243.792969 313.816406 C 243.828125 313.496094 243.835938 313.179688 243.808594 312.855469 C 243.78125 312.535156 243.722656 312.222656 243.636719 311.914062 C 243.425781 311.183594 243.214844 310.457031 242.992188 309.738281 C 242.898438 309.429688 242.773438 309.136719 242.621094 308.855469 C 242.46875 308.570312 242.289062 308.308594 242.085938 308.058594 C 241.878906 307.8125 241.652344 307.585938 241.402344 307.386719 C 241.152344 307.183594 240.886719 307.007812 240.605469 306.855469 C 240.320312 306.707031 240.023438 306.585938 239.714844 306.496094 C 239.410156 306.402344 239.09375 306.339844 238.777344 306.3125 C 238.457031 306.28125 238.136719 306.28125 237.816406 306.316406 C 237.496094 306.347656 237.183594 306.414062 236.878906 306.507812 C 236.570312 306.601562 236.277344 306.726562 235.992188 306.878906 C 235.710938 307.03125 235.445312 307.207031 235.199219 307.414062 C 234.949219 307.617188 234.726562 307.84375 234.523438 308.09375 C 234.320312 308.34375 234.144531 308.609375 233.992188 308.890625 C 233.84375 309.175781 233.722656 309.472656 233.628906 309.777344 C 233.535156 310.085938 233.476562 310.398438 233.445312 310.71875 C 233.414062 311.039062 233.414062 311.359375 233.449219 311.679688 C 233.480469 311.996094 233.542969 312.308594 233.636719 312.617188 Z M 233.636719 312.617188 "/>
<path style=" stroke:none;fill-rule:nonzero;fill:rgb(0%,0%,0%);fill-opacity:1;" d="M 269.054688 156.886719 C 269.261719 157.132812 269.484375 157.359375 269.734375 157.566406 C 269.980469 157.769531 270.246094 157.949219 270.53125 158.097656 C 270.8125 158.25 271.109375 158.375 271.417969 158.46875 C 271.722656 158.5625 272.039062 158.625 272.355469 158.65625 C 272.675781 158.6875 272.996094 158.6875 273.316406 158.65625 C 273.636719 158.625 273.949219 158.566406 274.257812 158.472656 C 274.566406 158.378906 274.859375 158.257812 275.144531 158.105469 C 275.429688 157.957031 275.695312 157.777344 275.945312 157.574219 C 276.191406 157.371094 276.417969 157.144531 276.621094 156.898438 C 276.828125 156.648438 277.003906 156.382812 277.15625 156.101562 C 277.308594 155.816406 277.433594 155.523438 277.527344 155.214844 C 277.621094 154.90625 277.683594 154.59375 277.714844 154.273438 C 277.746094 153.953125 277.746094 153.632812 277.714844 153.3125 C 277.683594 152.996094 277.621094 152.679688 277.53125 152.371094 C 277.4375 152.066406 277.316406 151.769531 277.164062 151.484375 C 277.011719 151.203125 276.835938 150.9375 276.632812 150.6875 C 257.4375 127.230469 230.875 135.726562 219.503906 143.5 C 219.242188 143.683594 219 143.886719 218.777344 144.117188 C 218.558594 144.347656 218.359375 144.597656 218.1875 144.867188 C 218.015625 145.132812 217.871094 145.417969 217.753906 145.714844 C 217.636719 146.011719 217.550781 146.316406 217.492188 146.628906 C 217.433594 146.941406 217.40625 147.257812 217.414062 147.578125 C 217.417969 147.898438 217.453125 148.214844 217.519531 148.523438 C 217.585938 148.835938 217.679688 149.140625 217.804688 149.433594 C 217.929688 149.726562 218.082031 150.003906 218.261719 150.269531 C 218.441406 150.53125 218.644531 150.777344 218.875 151 C 219.101562 151.222656 219.347656 151.421875 219.613281 151.597656 C 219.878906 151.773438 220.160156 151.921875 220.457031 152.042969 C 220.753906 152.164062 221.054688 152.253906 221.371094 152.316406 C 221.683594 152.375 222 152.40625 222.316406 152.40625 C 222.636719 152.40625 222.953125 152.371094 223.265625 152.308594 C 223.578125 152.246094 223.882812 152.15625 224.175781 152.035156 C 224.472656 151.910156 224.753906 151.761719 225.019531 151.585938 C 226.0625 150.882812 250.792969 134.5625 269.054688 156.886719 Z M 269.054688 156.886719 "/>
</g>
</svg>
