<?xml version="1.0" encoding="UTF-8"?>
<svg xmlns="http://www.w3.org/2000/svg" xmlns:xlink="http://www.w3.org/1999/xlink" width="375pt" height="374.999991pt" viewBox="0 0 375 374.999991" version="1.2">
<defs>
<clipPath id="clip1">
  <path d="M 277.097656 66.925781 L 374.355469 66.925781 L 374.355469 168.898438 L 277.097656 168.898438 Z M 277.097656 66.925781 "/>
</clipPath>
<clipPath id="clip2">
  <path d="M 0 285.335938 L 18 285.335938 L 18 306.175781 L 0 306.175781 Z M 0 285.335938 "/>
</clipPath>
</defs>
<g id="surface1">
<g clip-path="url(#clip1)" clip-rule="nonzero">
<path style=" stroke:none;fill-rule:nonzero;fill:rgb(13.729858%,12.159729%,12.548828%);fill-opacity:1;" d="M 329.199219 95.363281 C 320.683594 96.402344 312.957031 97.308594 305.242188 98.300781 C 299.972656 98.980469 294.726562 99.824219 289.460938 100.53125 C 283.722656 101.300781 278.824219 98.230469 277.484375 93.109375 C 276.066406 87.667969 278.746094 82.300781 284.3125 80.28125 C 287.566406 79.101562 291.03125 78.417969 294.453125 77.769531 C 312.242188 74.398438 330.046875 71.109375 347.851562 67.804688 C 349.484375 67.5 351.125 67.230469 352.777344 67.039062 C 358.039062 66.4375 362.339844 68.234375 365.199219 72.710938 C 367.957031 77.03125 367.800781 81.632812 365.179688 85.960938 C 363.285156 89.085938 361.023438 91.988281 358.875 94.957031 C 354.488281 101.023438 350.132812 107.121094 345.640625 113.113281 C 338.953125 122.039062 332.164062 130.886719 325.417969 139.769531 C 324.535156 140.929688 323.65625 142.09375 322.328125 143.84375 C 324.300781 143.980469 325.691406 144.203125 327.074219 144.152344 C 338.367188 143.75 349.65625 143.335938 360.945312 142.851562 C 367.96875 142.550781 373.691406 147.082031 374.304688 153.578125 C 374.894531 159.824219 370.375 165.472656 363.503906 166.308594 C 357.910156 166.984375 352.230469 167.03125 346.585938 167.242188 C 332.46875 167.761719 318.351562 168.230469 304.234375 168.691406 C 301.414062 168.785156 298.550781 169.035156 295.769531 168.703125 C 287.152344 167.671875 282.488281 158.960938 286.378906 151.1875 C 287.484375 148.980469 289.097656 147.007812 290.640625 145.054688 C 302.375 130.140625 314.160156 115.269531 325.898438 100.359375 C 326.992188 98.96875 327.863281 97.40625 329.199219 95.363281 "/>
</g>
<path style=" stroke:none;fill-rule:nonzero;fill:rgb(13.729858%,12.159729%,12.548828%);fill-opacity:1;" d="M 223.46875 130.722656 C 220.757812 131.042969 218.851562 131.289062 216.941406 131.492188 C 208.023438 132.441406 199.105469 133.375 190.1875 134.316406 C 184.300781 134.9375 179.492188 131.953125 178.195312 126.871094 C 176.816406 121.476562 179.554688 116.382812 185.222656 114.152344 C 187.371094 113.304688 189.640625 112.652344 191.917969 112.265625 C 208.949219 109.355469 226 106.566406 243.03125 103.664062 C 248.601562 102.714844 253.347656 103.992188 256.71875 108.652344 C 260.113281 113.339844 259.777344 118.371094 257.066406 123.261719 C 255.695312 125.730469 253.96875 127.996094 252.457031 130.382812 C 244.800781 142.480469 237.15625 154.585938 229.523438 166.695312 C 229.273438 167.09375 229.203125 167.609375 228.832031 168.734375 C 233.335938 168.371094 237.527344 168.171875 241.683594 167.660156 C 247.9375 166.894531 254.167969 165.921875 260.40625 165.007812 C 265.46875 164.265625 270.1875 166.554688 272.574219 170.960938 C 274.949219 175.351562 274.324219 180.644531 270.964844 184.457031 C 268.148438 187.65625 264.417969 188.875 260.34375 189.320312 C 244.492188 191.0625 228.640625 192.820312 212.78125 194.519531 C 210.808594 194.730469 208.777344 194.796875 206.808594 194.597656 C 197.503906 193.65625 192.390625 184.917969 196.117188 176.332031 C 196.972656 174.359375 198.164062 172.519531 199.289062 170.675781 C 206.40625 159.019531 213.546875 147.382812 220.667969 135.730469 C 221.511719 134.347656 222.253906 132.902344 223.46875 130.722656 "/>
<path style=" stroke:none;fill-rule:nonzero;fill:rgb(13.729858%,12.159729%,12.548828%);fill-opacity:1;" d="M 154.660156 204.980469 C 156.632812 204.773438 157.886719 204.734375 159.097656 204.496094 C 165.289062 203.277344 171.460938 201.980469 177.648438 200.769531 C 179.273438 200.449219 180.933594 200.171875 182.578125 200.164062 C 188.847656 200.121094 193.570312 204.015625 194.601562 209.933594 C 195.566406 215.492188 191.984375 221.207031 186.09375 222.925781 C 182.28125 224.039062 178.339844 224.765625 174.421875 225.460938 C 162.984375 227.476562 151.539062 229.449219 140.074219 231.292969 C 137.8125 231.660156 135.394531 231.703125 133.136719 231.34375 C 124.636719 229.992188 119.996094 222.609375 122.605469 214.359375 C 123.699219 210.902344 125.300781 207.527344 127.167969 204.414062 C 130.929688 198.140625 135.035156 192.074219 138.992188 185.917969 C 139.703125 184.8125 140.390625 183.695312 141.429688 182.046875 C 139.863281 182.171875 138.8125 182.136719 137.816406 182.359375 C 132.796875 183.480469 127.796875 184.710938 122.773438 185.8125 C 120.671875 186.273438 118.53125 186.75 116.398438 186.796875 C 111.738281 186.898438 107.890625 184.039062 106.554688 179.808594 C 105.148438 175.347656 106.78125 170.640625 110.738281 167.976562 C 111.691406 167.335938 112.761719 166.808594 113.847656 166.429688 C 129.25 161.027344 145.003906 157.078125 161.230469 155.171875 C 166.738281 154.523438 171.523438 156.027344 174.703125 160.847656 C 177.769531 165.492188 177.308594 170.351562 174.785156 175.0625 C 173.53125 177.398438 172.027344 179.613281 170.519531 181.800781 C 166.261719 187.960938 161.933594 194.070312 157.660156 200.21875 C 156.738281 201.550781 155.925781 202.960938 154.660156 204.980469 "/>
<path style=" stroke:none;fill-rule:nonzero;fill:rgb(13.729858%,12.159729%,12.548828%);fill-opacity:1;" d="M 68.3125 233.253906 C 65.738281 233.539062 64.117188 233.84375 62.488281 233.878906 C 57.953125 233.980469 54.320312 231.570312 52.703125 227.523438 C 51.117188 223.542969 52.109375 219.089844 55.34375 216.089844 C 56.1875 215.308594 57.132812 214.507812 58.183594 214.097656 C 66.859375 210.695312 75.644531 207.652344 85.023438 206.867188 C 86.011719 206.785156 87.019531 206.8125 88.011719 206.867188 C 97.308594 207.394531 102.492188 215.5 99.058594 224.242188 C 98.09375 226.695312 96.804688 229.019531 95.332031 232.09375 C 97.199219 232.117188 98.585938 232.058594 99.960938 232.164062 C 105.300781 232.582031 109.511719 236.199219 110.5625 241.203125 C 111.621094 246.234375 109.3125 251.386719 104.636719 253.847656 C 102.75 254.84375 100.648438 255.558594 98.5625 256.011719 C 92.234375 257.386719 85.867188 258.574219 79.507812 259.8125 C 78.859375 259.941406 78.1875 259.960938 77.523438 259.996094 C 67.183594 260.578125 60.980469 252.285156 64.523438 242.542969 C 65.589844 239.601562 66.878906 236.742188 68.3125 233.253906 "/>
<path style=" stroke:none;fill-rule:nonzero;fill:rgb(13.729858%,12.159729%,12.548828%);fill-opacity:1;" d="M 38.195312 286.925781 C 33.34375 286.824219 29.488281 283.769531 27.917969 278.972656 C 27.210938 276.816406 26.375 274.679688 25.347656 272.660156 C 23.011719 268.070312 23.828125 262.722656 27.910156 259.628906 C 32.347656 256.273438 37.535156 255.085938 42.929688 256.496094 C 50.011719 258.347656 55.96875 271.019531 53.21875 277.8125 C 51.386719 282.328125 43.625 287.039062 38.195312 286.925781 "/>
<g clip-path="url(#clip2)" clip-rule="nonzero">
<path style=" stroke:none;fill-rule:nonzero;fill:rgb(13.729858%,12.159729%,12.548828%);fill-opacity:1;" d="M 7.070312 306.339844 C 1.183594 306.289062 -3.230469 301.738281 -3.105469 295.851562 C -2.984375 290.109375 1.679688 285.476562 7.390625 285.417969 C 12.976562 285.363281 17.941406 290.21875 17.988281 295.777344 C 18.035156 301.515625 12.996094 306.386719 7.070312 306.339844 "/>
</g>
</g>
</svg>
