<?xml version="1.0" encoding="UTF-8"?><svg xmlns="http://www.w3.org/2000/svg" xmlns:xlink="http://www.w3.org/1999/xlink" contentScriptType="text/ecmascript" width="375pt" zoomAndPan="magnify" contentStyleType="text/css" viewBox="0 0 375 374.999991" height="374.999991pt" preserveAspectRatio="xMidYMid meet" version="1.2"><defs><filter x="0%" y="0%" width="100%" xmlns:xlink="http://www.w3.org/1999/xlink" xlink:type="simple" filterUnits="objectBoundingBox" xlink:actuate="onLoad" id="alpha" height="100%" xlink:show="other" xml:id="alpha"><feColorMatrix values="0 0 0 0 1 0 0 0 0 1 0 0 0 0 1 0 0 0 1 0" type="matrix" in="SourceGraphic"/></filter><clipPath xml:id="clip1" id="clip1"><rect x="0" width="353" y="0" height="276"/></clipPath></defs><g xml:id="surface1" id="surface1"><rect x="0" width="375" y="0" height="374.999991" style="fill:rgb(100%,100%,100%);fill-opacity:1;stroke:none;"/><rect x="0" width="375" y="0" height="374.999991" style="fill:rgb(100%,100%,100%);fill-opacity:1;stroke:none;"/><rect x="0" width="375" y="0" height="374.999991" style="fill:rgb(100%,100%,100%);fill-opacity:1;stroke:none;"/><g mask="url(#mask0)" transform="matrix(1,0,0,1,11,50)"><g xml:id="surface5" id="surface5" clip-path="url(#clip1)"><path style=" stroke:none;fill-rule:nonzero;fill:rgb(63.919067%,35.289001%,14.118958%);fill-opacity:1;" d="M 35.546875 260.71875 C 45.074219 263.628906 54.730469 265.492188 64.6875 266.390625 C 78.984375 267.6875 93.347656 268.179688 107.699219 268.382812 C 111.941406 268.441406 116.191406 268.46875 120.433594 268.4375 C 160.519531 268.128906 290.535156 274.207031 317.246094 258.136719 C 351.121094 237.753906 349.4375 190.296875 320.71875 166.359375 C 314.28125 160.984375 303.410156 154.191406 294.769531 153.523438 C 298.40625 135.75 296.761719 120.765625 285.644531 105.25 C 276.457031 92.433594 251.167969 82.054688 236.476562 92.324219 C 237.789062 81.625 239.09375 72.109375 237.433594 61.132812 C 235.484375 48.261719 227.847656 35.765625 219.644531 25.65625 C 205.542969 8.285156 184.425781 0.585938 162.257812 2.238281 C 186.8125 18.648438 177.191406 56.019531 151.160156 65.183594 C 139.433594 69.316406 126.207031 69.1875 115.265625 76.367188 C 109.550781 80.109375 104.820312 85.167969 101.363281 91.042969 C 99.78125 93.730469 98.371094 96.683594 97.933594 99.808594 C 97.773438 100.964844 98.132812 108.773438 100.300781 108.613281 C 85.347656 109.710938 68.898438 115.097656 59.160156 127.324219 C 50.667969 138 42.472656 161.457031 57.0625 170.589844 C 46.835938 168.921875 39.230469 171.929688 31.933594 176.460938 C 11.78125 188.964844 1.601562 214.292969 9.207031 238.191406 C 12.800781 249.496094 21.230469 256.007812 32.179688 259.648438 C 33.300781 260.015625 34.425781 260.382812 35.546875 260.71875 "/><path style=" stroke:none;fill-rule:nonzero;fill:rgb(68.238831%,39.99939%,13.328552%);fill-opacity:1;" d="M 79.386719 197.996094 C 105.238281 200.230469 130.652344 206.511719 156.628906 207.515625 C 176.191406 208.273438 196.074219 206.285156 214.722656 200.085938 C 219.898438 198.363281 224.976562 196.347656 229.882812 193.945312 C 227.925781 194.902344 223.539062 194.21875 221.347656 194.25 C 218.515625 194.296875 215.671875 194.296875 212.835938 194.289062 C 206.890625 194.265625 200.949219 194.277344 195 194.292969 C 182.804688 194.335938 170.605469 194.394531 158.414062 194.074219 C 151.585938 193.890625 144.761719 193.597656 137.945312 193.109375 C 117.878906 191.675781 98.167969 187.613281 78.21875 185.273438 C 72.433594 184.597656 66.628906 184.070312 60.816406 183.832031 C 51.542969 183.453125 40.078125 182.824219 31.746094 187.722656 C 26.300781 190.925781 21.933594 195.648438 18.253906 200.910156 C 38.328125 196.917969 58.863281 196.21875 79.386719 197.996094 "/><path style=" stroke:none;fill-rule:nonzero;fill:rgb(63.919067%,35.289001%,14.118958%);fill-opacity:1;" d="M 100.300781 108.613281 C 96.480469 108.898438 92.5625 109.46875 88.679688 110.347656 C 102.988281 108.40625 118.160156 110.15625 133.242188 112.820312 C 154.609375 116.601562 178.195312 116.230469 199.257812 110.617188 C 209.078125 107.996094 219.332031 104.890625 227.597656 98.738281 C 231.828125 95.589844 234.617188 92.019531 237 88.082031 C 238.085938 79.054688 238.871094 70.636719 237.433594 61.132812 C 235.484375 48.261719 227.847656 35.765625 219.644531 25.65625 C 205.542969 8.285156 184.425781 0.585938 162.257812 2.238281 C 186.8125 18.648438 177.191406 56.019531 151.160156 65.183594 C 139.433594 69.316406 126.207031 69.1875 115.265625 76.367188 C 109.550781 80.109375 104.820312 85.167969 101.363281 91.042969 C 99.78125 93.730469 98.371094 96.683594 97.933594 99.808594 C 97.773438 100.964844 98.132812 108.773438 100.300781 108.613281 "/><path style=" stroke:none;fill-rule:nonzero;fill:rgb(68.238831%,39.99939%,13.328552%);fill-opacity:1;" d="M 66.238281 127.828125 C 82.195312 128.722656 98.121094 126.871094 114.121094 130.09375 C 134.132812 134.125 154.585938 137.664062 175.082031 137.308594 C 184.757812 137.144531 204.714844 135.714844 225.3125 118.589844 C 232.484375 112.628906 235.101562 104.828125 235.609375 104.347656 C 235.179688 104.558594 206.359375 125.136719 169.074219 124 C 135.371094 122.976562 95.988281 108.363281 66.238281 127.828125 "/><path style=" stroke:none;fill-rule:nonzero;fill:rgb(59.21936%,30.979919%,15.289307%);fill-opacity:1;" d="M 174.570312 117.839844 C 229.542969 112.996094 234.660156 95.492188 236.476562 92.324219 C 238.050781 81.109375 238.847656 70.46875 237.433594 61.132812 C 235.484375 48.261719 227.847656 35.765625 219.644531 25.65625 C 206.925781 9.984375 188.484375 2.214844 168.71875 2.050781 C 190.394531 11.660156 211.582031 25.445312 216.507812 50.839844 C 219.753906 67.570312 216.90625 83.980469 199.550781 93.128906 C 166.195312 110.714844 111.050781 103.613281 97.933594 99.808594 C 97.289062 99.617188 97.933594 108.121094 100.300781 108.613281 C 135.953125 120.300781 160.746094 119.058594 174.570312 117.839844 "/><path style=" stroke:none;fill-rule:nonzero;fill:rgb(68.238831%,39.99939%,13.328552%);fill-opacity:1;" d="M 159.007812 78.429688 C 177.320312 78.085938 200.761719 73.710938 197.578125 49.800781 C 196.074219 38.492188 191.226562 27.222656 182.488281 19.890625 C 181.171875 19.160156 179.839844 18.445312 178.460938 17.75 C 187.859375 36.019531 177.5625 61.515625 156.679688 68.867188 C 144.953125 72.996094 131.726562 72.871094 120.78125 80.046875 C 118.507812 81.535156 116.441406 83.28125 114.496094 85.160156 C 115.035156 85.640625 115.628906 86.0625 116.257812 86.453125 C 128.125 78.816406 143.578125 78.71875 159.007812 78.429688 "/><path style=" stroke:none;fill-rule:nonzero;fill:rgb(59.21936%,30.979919%,15.289307%);fill-opacity:1;" d="M 104.304688 179.996094 C 132.855469 181.25 163.257812 183.75 191.640625 182.589844 C 218 181.519531 240.917969 183.554688 270.890625 172.792969 C 278.070312 170.21875 290.492188 162.742188 295.1875 153.585938 C 295.050781 153.578125 294.90625 153.53125 294.769531 153.523438 C 298.40625 135.75 296.761719 120.765625 285.644531 105.25 C 278.078125 94.695312 259.597656 85.824219 245.105469 88.75 C 256.839844 91.207031 264.121094 96.386719 270.429688 108.289062 C 275.886719 118.589844 276.441406 131.453125 273.074219 142.398438 C 265.527344 166.894531 228.640625 169.117188 207.773438 169.707031 C 74.621094 173.484375 49.082031 154.648438 49.082031 154.648438 C 49.082031 162.851562 53.097656 168.449219 57.0625 170.589844 C 71.273438 178.296875 85.167969 179.160156 104.304688 179.996094 "/><path style=" stroke:none;fill-rule:nonzero;fill:rgb(59.21936%,30.979919%,15.289307%);fill-opacity:1;" d="M 320.71875 166.359375 C 315.285156 161.824219 306.714844 156.324219 298.980469 154.296875 C 317.820312 175.890625 312.691406 222.574219 289.707031 237.847656 C 274.515625 247.949219 255.789062 250.71875 237.871094 251.386719 C 212.046875 252.347656 186.097656 251.667969 160.253906 251.667969 C 120.566406 251.667969 18.515625 258.660156 9.164062 206.054688 C 6 216.167969 5.75 227.328125 9.207031 238.191406 C 12.800781 249.496094 21.230469 256.007812 32.179688 259.648438 C 33.300781 260.015625 34.425781 260.382812 35.546875 260.71875 C 45.074219 263.628906 54.730469 265.492188 64.6875 266.390625 C 78.984375 267.6875 93.347656 268.179688 107.699219 268.382812 C 111.941406 268.441406 116.191406 268.46875 120.433594 268.4375 C 160.519531 268.128906 290.535156 274.207031 317.246094 258.136719 C 351.121094 237.753906 349.4375 190.296875 320.71875 166.359375 "/></g><mask xml:id="mask0" id="mask0"><g filter="url(#alpha)"><rect x="0" width="375" y="0" height="374.999991" style="fill:rgb(0%,0%,0%);fill-opacity:0.2392;stroke:none;"/></g></mask></g></g></svg>