<?xml version="1.0" encoding="UTF-8"?>
<svg xmlns="http://www.w3.org/2000/svg" xmlns:xlink="http://www.w3.org/1999/xlink" width="375pt" height="374.999991pt" viewBox="0 0 375 374.999991" version="1.2">
<defs>
<filter id="alpha" filterUnits="objectBoundingBox" x="0%" y="0%" width="100%" height="100%">
  <feColorMatrix type="matrix" in="SourceGraphic" values="0 0 0 0 1 0 0 0 0 1 0 0 0 0 1 0 0 0 1 0"/>
</filter>
<mask id="mask0">
  <g filter="url(#alpha)">
<rect x="0" y="0" width="375" height="374.999991" style="fill:rgb(0%,0%,0%);fill-opacity:0.4078;stroke:none;"/>
  </g>
</mask>
<clipPath id="clip1">
  <rect x="0" y="0" width="349" height="272"/>
</clipPath>
<g id="surface5" clip-path="url(#clip1)">
<path style=" stroke:none;fill-rule:nonzero;fill:rgb(63.919067%,35.289001%,14.118958%);fill-opacity:1;" d="M 35.210938 257.554688 C 44.644531 260.433594 54.203125 262.28125 64.0625 263.167969 C 78.214844 264.453125 92.441406 264.9375 106.648438 265.140625 C 110.847656 265.199219 115.058594 265.226562 119.257812 265.195312 C 158.945312 264.886719 287.675781 270.902344 314.121094 255 C 347.660156 234.832031 345.992188 187.875 317.5625 164.1875 C 311.1875 158.871094 300.421875 152.144531 291.867188 151.488281 C 295.464844 133.898438 293.839844 119.070312 282.832031 103.71875 C 273.738281 91.039062 248.699219 80.769531 234.152344 90.929688 C 235.449219 80.339844 236.742188 70.925781 235.097656 60.066406 C 233.167969 47.328125 225.609375 34.960938 217.484375 24.960938 C 203.523438 7.769531 182.613281 0.152344 160.667969 1.785156 C 184.976562 18.027344 175.453125 55.003906 149.679688 64.074219 C 138.070312 68.160156 124.972656 68.035156 114.140625 75.140625 C 108.480469 78.84375 103.796875 83.84375 100.375 89.660156 C 98.808594 92.320312 97.414062 95.242188 96.976562 98.335938 C 96.820312 99.480469 97.175781 107.207031 99.324219 107.046875 C 84.515625 108.132812 68.230469 113.460938 58.589844 125.5625 C 50.179688 136.125 42.070312 159.335938 56.511719 168.375 C 46.386719 166.722656 38.855469 169.699219 31.628906 174.179688 C 11.679688 186.554688 1.597656 211.617188 9.128906 235.265625 C 12.6875 246.449219 21.035156 252.894531 31.875 256.496094 C 32.988281 256.863281 34.097656 257.222656 35.210938 257.554688 "/>
<path style=" stroke:none;fill-rule:nonzero;fill:rgb(68.238831%,39.99939%,13.328552%);fill-opacity:1;" d="M 78.613281 195.492188 C 104.210938 197.703125 129.371094 203.917969 155.09375 204.914062 C 174.460938 205.660156 194.148438 203.695312 212.613281 197.558594 C 217.738281 195.855469 222.765625 193.859375 227.625 191.480469 C 225.683594 192.433594 221.339844 191.753906 219.171875 191.785156 C 216.367188 191.832031 213.554688 191.832031 210.746094 191.820312 C 204.859375 191.800781 198.972656 191.8125 193.085938 191.824219 C 181.007812 191.871094 168.933594 191.929688 156.863281 191.609375 C 150.097656 191.429688 143.34375 191.136719 136.597656 190.65625 C 116.730469 189.238281 97.210938 185.21875 77.457031 182.902344 C 71.730469 182.234375 65.984375 181.714844 60.226562 181.476562 C 51.046875 181.097656 39.695312 180.476562 31.449219 185.328125 C 26.054688 188.496094 21.730469 193.167969 18.085938 198.375 C 37.964844 194.425781 58.296875 193.734375 78.613281 195.492188 "/>
<path style=" stroke:none;fill-rule:nonzero;fill:rgb(63.919067%,35.289001%,14.118958%);fill-opacity:1;" d="M 99.324219 107.046875 C 95.539062 107.328125 91.660156 107.890625 87.816406 108.761719 C 101.980469 106.84375 117.007812 108.570312 131.9375 111.210938 C 153.09375 114.953125 176.449219 114.582031 197.300781 109.027344 C 207.023438 106.433594 217.175781 103.363281 225.359375 97.277344 C 229.546875 94.160156 232.308594 90.628906 234.667969 86.734375 C 235.742188 77.796875 236.523438 69.46875 235.097656 60.066406 C 233.167969 47.328125 225.609375 34.960938 217.484375 24.960938 C 203.523438 7.769531 182.613281 0.152344 160.667969 1.785156 C 184.976562 18.027344 175.453125 55.003906 149.679688 64.074219 C 138.070312 68.160156 124.972656 68.035156 114.140625 75.140625 C 108.480469 78.84375 103.796875 83.84375 100.375 89.660156 C 98.808594 92.320312 97.414062 95.242188 96.976562 98.335938 C 96.820312 99.480469 97.175781 107.207031 99.324219 107.046875 "/>
<path style=" stroke:none;fill-rule:nonzero;fill:rgb(68.238831%,39.99939%,13.328552%);fill-opacity:1;" d="M 65.597656 126.058594 C 81.398438 126.945312 97.164062 125.113281 113.003906 128.304688 C 132.820312 132.289062 153.070312 135.792969 173.363281 135.441406 C 182.945312 135.277344 202.707031 133.863281 223.09375 116.917969 C 230.199219 111.019531 232.789062 103.300781 233.292969 102.828125 C 232.867188 103.035156 204.332031 123.398438 167.414062 122.273438 C 134.046875 121.261719 95.054688 106.800781 65.597656 126.058594 "/>
<path style=" stroke:none;fill-rule:nonzero;fill:rgb(59.21936%,30.979919%,15.289307%);fill-opacity:1;" d="M 172.855469 116.175781 C 227.285156 111.382812 232.351562 94.0625 234.152344 90.929688 C 235.710938 79.832031 236.496094 69.300781 235.097656 60.066406 C 233.167969 47.328125 225.609375 34.960938 217.484375 24.960938 C 204.890625 9.453125 186.632812 1.765625 167.0625 1.601562 C 188.523438 11.109375 209.503906 24.753906 214.378906 49.878906 C 217.59375 66.433594 214.773438 82.671875 197.59375 91.726562 C 164.566406 109.128906 109.964844 102.101562 96.976562 98.335938 C 96.34375 98.144531 96.976562 106.558594 99.324219 107.046875 C 134.621094 118.609375 159.171875 117.382812 172.855469 116.175781 "/>
<path style=" stroke:none;fill-rule:nonzero;fill:rgb(68.238831%,39.99939%,13.328552%);fill-opacity:1;" d="M 157.449219 77.179688 C 175.582031 76.839844 198.789062 72.507812 195.640625 48.851562 C 194.148438 37.660156 189.347656 26.511719 180.699219 19.253906 C 179.390625 18.53125 178.074219 17.828125 176.707031 17.136719 C 186.015625 35.214844 175.820312 60.441406 155.144531 67.71875 C 143.535156 71.804688 130.4375 71.679688 119.601562 78.78125 C 117.351562 80.253906 115.300781 81.980469 113.378906 83.839844 C 113.914062 84.3125 114.496094 84.734375 115.125 85.117188 C 126.871094 77.5625 142.171875 77.464844 157.449219 77.179688 "/>
<path style=" stroke:none;fill-rule:nonzero;fill:rgb(59.21936%,30.979919%,15.289307%);fill-opacity:1;" d="M 103.289062 177.679688 C 131.554688 178.921875 161.65625 181.394531 189.757812 180.25 C 215.855469 179.1875 238.546875 181.203125 268.226562 170.550781 C 275.332031 168.003906 287.632812 160.609375 292.28125 151.550781 C 292.144531 151.539062 292.003906 151.496094 291.867188 151.488281 C 295.464844 133.898438 293.839844 119.070312 282.832031 103.71875 C 275.339844 93.273438 257.042969 84.496094 242.695312 87.390625 C 254.3125 89.824219 261.519531 94.949219 267.769531 106.726562 C 273.171875 116.917969 273.71875 129.648438 270.386719 140.476562 C 262.914062 164.714844 226.390625 166.917969 205.734375 167.5 C 73.894531 171.234375 48.613281 152.597656 48.613281 152.597656 C 48.613281 160.714844 52.585938 166.253906 56.511719 168.375 C 70.582031 175.996094 84.339844 176.851562 103.289062 177.679688 "/>
<path style=" stroke:none;fill-rule:nonzero;fill:rgb(59.21936%,30.979919%,15.289307%);fill-opacity:1;" d="M 317.5625 164.1875 C 312.179688 159.699219 303.695312 154.257812 296.035156 152.25 C 314.691406 173.617188 309.609375 219.8125 286.855469 234.925781 C 271.8125 244.921875 253.273438 247.660156 235.53125 248.320312 C 209.960938 249.273438 184.269531 248.601562 158.683594 248.601562 C 119.386719 248.601562 18.347656 255.519531 9.089844 203.464844 C 5.953125 213.472656 5.707031 224.515625 9.128906 235.265625 C 12.6875 246.449219 21.035156 252.894531 31.875 256.496094 C 32.988281 256.863281 34.097656 257.222656 35.210938 257.554688 C 44.644531 260.433594 54.203125 262.28125 64.0625 263.167969 C 78.214844 264.453125 92.441406 264.9375 106.648438 265.140625 C 110.847656 265.199219 115.058594 265.226562 119.257812 265.195312 C 158.945312 264.886719 287.675781 270.902344 314.121094 255 C 347.660156 234.832031 345.992188 187.875 317.5625 164.1875 "/>
</g>
</defs>
<g id="surface1">
<use xlink:href="#surface5" transform="matrix(1,0,0,1,13,52)" mask="url(#mask0)"/>
</g>
</svg>
