<?xml version="1.0" encoding="UTF-8"?>
<svg xmlns="http://www.w3.org/2000/svg" xmlns:xlink="http://www.w3.org/1999/xlink" width="375pt" height="374.999991pt" viewBox="0 0 375 374.999991" version="1.2">
<defs>
<clipPath id="clip1">
  <path d="M 52.757812 12.195312 L 337.675781 12.195312 L 337.675781 375 L 52.757812 375 Z M 52.757812 12.195312 "/>
</clipPath>
</defs>
<g id="surface1">
<path style=" stroke:none;fill-rule:nonzero;fill:rgb(0%,0%,0%);fill-opacity:1;" d="M 243.695312 150.71875 C 242.292969 149.90625 240.492188 150.378906 239.671875 151.773438 L 233.96875 161.53125 C 233.152344 162.933594 233.625 164.734375 235.023438 165.550781 C 235.488281 165.824219 236 165.953125 236.503906 165.953125 C 237.511719 165.953125 238.496094 165.433594 239.046875 164.496094 L 244.75 154.742188 C 245.566406 153.339844 245.09375 151.539062 243.695312 150.71875 "/>
<path style=" stroke:none;fill-rule:nonzero;fill:rgb(0%,0%,0%);fill-opacity:1;" d="M 181.597656 216.175781 L 175.429688 222.988281 C 174.335938 224.191406 174.429688 226.050781 175.632812 227.140625 C 176.191406 227.648438 176.898438 227.902344 177.601562 227.902344 C 178.40625 227.902344 179.203125 227.578125 179.78125 226.933594 L 185.953125 220.117188 C 187.046875 218.914062 186.949219 217.054688 185.75 215.96875 C 184.550781 214.882812 182.6875 214.96875 181.597656 216.175781 "/>
<path style=" stroke:none;fill-rule:nonzero;fill:rgb(0%,0%,0%);fill-opacity:1;" d="M 152.875 247.359375 C 151.535156 246.425781 149.707031 246.75 148.78125 248.070312 L 141.914062 257.832031 C 140.980469 259.160156 141.292969 260.996094 142.625 261.925781 C 143.140625 262.292969 143.730469 262.464844 144.3125 262.464844 C 145.238281 262.464844 146.148438 262.03125 146.71875 261.21875 L 153.582031 251.457031 C 154.519531 250.128906 154.199219 248.296875 152.875 247.359375 "/>
<path style=" stroke:none;fill-rule:nonzero;fill:rgb(0%,0%,0%);fill-opacity:1;" d="M 273.96875 108.109375 C 272.542969 107.34375 270.757812 107.894531 269.996094 109.320312 L 263.363281 121.78125 C 262.601562 123.214844 263.140625 124.996094 264.578125 125.757812 C 265.015625 125.992188 265.488281 126.105469 265.953125 126.105469 C 267.007812 126.105469 268.023438 125.539062 268.554688 124.542969 L 275.1875 112.085938 C 275.945312 110.652344 275.40625 108.871094 273.96875 108.109375 "/>
<path style=" stroke:none;fill-rule:nonzero;fill:rgb(0%,0%,0%);fill-opacity:1;" d="M 213.320312 185.710938 C 211.949219 184.828125 210.136719 185.207031 209.25 186.558594 L 205.640625 192.085938 C 204.753906 193.445312 205.136719 195.265625 206.492188 196.160156 C 206.992188 196.476562 207.550781 196.632812 208.097656 196.632812 C 209.0625 196.632812 210 196.164062 210.566406 195.300781 L 214.171875 189.777344 C 215.058594 188.417969 214.675781 186.597656 213.320312 185.710938 "/>
<g clip-path="url(#clip1)" clip-rule="nonzero">
<path style=" stroke:none;fill-rule:nonzero;fill:rgb(0%,0%,0%);fill-opacity:1;" d="M 331.773438 72.5625 C 331.617188 74.378906 330.765625 76.015625 329.378906 77.175781 C 328.046875 78.289062 326.332031 78.804688 324.582031 78.632812 C 322.835938 78.46875 321.257812 77.628906 320.167969 76.300781 C 318.820312 74.625 318.367188 72.355469 318.953125 70.226562 C 319.207031 69.339844 319.019531 68.390625 318.460938 67.660156 C 311.253906 58.226562 301.714844 53.46875 290.011719 53.46875 C 287.589844 53.46875 285.070312 53.675781 282.464844 54.082031 C 278.125 54.816406 272.984375 56.289062 268.363281 58.128906 C 267.203125 58.589844 266.464844 59.730469 266.515625 60.976562 C 266.597656 63.089844 265.761719 65.011719 264.226562 66.332031 C 262.816406 67.46875 261 68.019531 259.207031 67.808594 C 257.515625 67.621094 256.019531 66.800781 254.964844 65.460938 C 252.601562 62.585938 252.992188 58.457031 255.878906 56.039062 C 257.398438 54.738281 259.359375 54.257812 261.394531 54.6875 C 262.011719 54.8125 262.652344 54.742188 263.226562 54.476562 C 269.402344 51.644531 276.453125 49.503906 282.566406 48.605469 C 299.070312 46.132812 312.921875 51.566406 322.636719 64.289062 C 323.214844 65.054688 324.128906 65.4375 325.09375 65.445312 C 327.03125 65.332031 328.953125 66.21875 330.292969 67.8125 C 331.398438 69.121094 331.925781 70.808594 331.773438 72.5625 Z M 296.277344 91.1875 C 291.710938 87.984375 286.265625 85.632812 280.003906 84.1875 C 285.605469 76.234375 290.929688 68.101562 295.867188 59.9375 C 298.488281 60.410156 300.964844 61.21875 303.277344 62.347656 C 303.800781 62.609375 304.320312 62.886719 304.828125 63.179688 C 302.25 73.261719 299.433594 82.480469 296.277344 91.1875 Z M 306.269531 117.304688 C 306.453125 118.175781 307.023438 118.917969 307.816406 119.320312 C 308.808594 119.824219 309.753906 120.597656 310.542969 121.550781 C 313.269531 125.316406 312.5625 130.6875 308.980469 133.527344 C 307.230469 134.878906 305.023438 135.460938 302.785156 135.148438 C 300.558594 134.84375 298.605469 133.71875 297.25 131.925781 C 294.652344 128.628906 294.96875 123.671875 297.960938 120.648438 C 298.695312 119.910156 298.976562 118.84375 298.722656 117.84375 C 297.816406 114.355469 296.394531 111.253906 294.484375 108.570312 C 294.421875 108.457031 294.355469 108.355469 294.28125 108.253906 C 293.324219 106.957031 292.246094 105.765625 291.0625 104.671875 C 291.007812 104.621094 290.957031 104.574219 290.902344 104.527344 C 290.699219 104.335938 290.492188 104.15625 290.28125 103.972656 C 290.15625 103.867188 290.03125 103.761719 289.90625 103.664062 C 289.675781 103.476562 289.449219 103.292969 289.21875 103.113281 C 288.96875 102.921875 288.710938 102.730469 288.449219 102.542969 C 288.347656 102.472656 288.246094 102.398438 288.144531 102.328125 C 287.847656 102.125 287.546875 101.921875 287.238281 101.726562 C 287.191406 101.695312 287.144531 101.664062 287.097656 101.636719 C 283.480469 99.359375 279.144531 97.765625 274.132812 96.894531 C 274.113281 96.890625 274.097656 96.886719 274.078125 96.882812 C 274.070312 96.882812 274.066406 96.882812 274.054688 96.878906 C 273.617188 96.800781 273.167969 96.726562 272.710938 96.65625 C 271.65625 96.496094 270.570312 96.367188 269.449219 96.28125 C 267.785156 96.140625 266.035156 96.070312 264.238281 96.070312 C 261.679688 96.070312 259.019531 96.214844 256.335938 96.496094 C 255.277344 96.609375 254.363281 97.285156 253.941406 98.265625 C 253.46875 99.378906 252.644531 100.433594 251.617188 101.300781 C 247.925781 104.085938 242.59375 103.382812 239.804688 99.789062 C 237.027344 96.023438 237.726562 90.617188 241.328125 87.757812 C 244.589844 85.253906 249.242188 85.476562 252.175781 88.261719 C 252.8125 88.871094 253.699219 89.15625 254.558594 89.050781 C 261.125 88.238281 268.101562 88.253906 274.117188 89.078125 C 274.246094 89.113281 274.371094 89.144531 274.5 89.160156 L 276.648438 89.484375 C 276.660156 89.484375 276.675781 89.484375 276.6875 89.488281 C 280.070312 90.164062 283.148438 91.078125 285.945312 92.242188 C 286.027344 92.273438 286.109375 92.304688 286.1875 92.339844 C 286.382812 92.421875 286.574219 92.507812 286.765625 92.59375 C 297.132812 97.226562 303.804688 105.625 306.269531 117.304688 Z M 270.933594 143.367188 C 266.238281 137.1875 259.34375 132.359375 250.433594 129.101562 C 250.339844 129.066406 250.238281 129.035156 250.140625 129 C 248.894531 128.550781 247.640625 128.140625 246.386719 127.777344 C 252.894531 120.074219 259.695312 111.601562 267.039062 102.027344 C 267.445312 102.039062 267.839844 102.0625 268.234375 102.085938 C 269.929688 102.203125 271.539062 102.394531 273.019531 102.664062 C 273.050781 102.671875 273.078125 102.675781 273.105469 102.683594 C 273.554688 102.757812 273.984375 102.851562 274.417969 102.9375 C 280.519531 104.234375 285.242188 106.746094 288.5 110.4375 C 283.246094 122.054688 277.351562 133.105469 270.933594 143.367188 Z M 276.414062 167.539062 C 276.5625 169.324219 276.023438 171.054688 274.824219 172.472656 C 273.789062 173.78125 272.292969 174.597656 270.613281 174.769531 C 268.835938 174.921875 267.023438 174.386719 265.625 173.21875 C 262.9375 170.984375 262.601562 166.660156 264.671875 164.019531 C 264.871094 163.820312 265.0625 163.601562 265.257812 163.464844 C 266.25 162.800781 266.742188 161.601562 266.507812 160.433594 C 266.101562 158.429688 265.472656 156.535156 264.636719 154.746094 C 264.511719 154.476562 264.378906 154.210938 264.246094 153.949219 C 264.15625 153.777344 264.066406 153.601562 263.96875 153.429688 C 262.722656 151.113281 261.09375 149.007812 259.085938 147.113281 C 258.800781 146.84375 258.507812 146.578125 258.210938 146.320312 C 258.097656 146.21875 257.984375 146.121094 257.867188 146.023438 C 254.597656 143.253906 250.496094 140.996094 245.613281 139.308594 C 245.601562 139.308594 245.585938 139.300781 245.574219 139.296875 C 245.570312 139.296875 245.570312 139.292969 245.566406 139.292969 C 245.554688 139.292969 245.539062 139.285156 245.523438 139.28125 C 242.570312 138.265625 239.128906 137.449219 235.589844 136.890625 C 234.714844 136.738281 233.839844 136.597656 232.957031 136.472656 C 232.753906 136.445312 232.554688 136.445312 232.351562 136.460938 C 231.472656 136.363281 230.59375 136.277344 229.722656 136.21875 C 229.65625 136.214844 229.589844 136.210938 229.523438 136.210938 C 228.734375 136.210938 227.972656 136.53125 227.417969 137.09375 C 227.289062 137.226562 227.03125 137.488281 226.800781 137.878906 C 225.667969 139.082031 224.148438 139.816406 222.472656 139.945312 C 220.765625 140.074219 219.101562 139.554688 217.789062 138.425781 C 215.03125 136.117188 214.625 131.808594 216.867188 129.058594 C 218.023438 127.691406 219.648438 126.859375 221.441406 126.714844 C 223.132812 126.574219 224.8125 127.109375 226.09375 128.210938 C 226.101562 128.21875 226.109375 128.226562 226.113281 128.230469 C 226.664062 128.691406 227.105469 129.140625 227.449219 129.570312 C 227.953125 130.21875 228.722656 130.625 229.542969 130.679688 C 232.898438 130.917969 236.402344 131.433594 239.800781 132.171875 C 240.015625 132.269531 240.246094 132.351562 240.484375 132.398438 C 241.773438 132.644531 243.050781 132.949219 244.324219 133.304688 C 244.460938 133.34375 244.601562 133.382812 244.738281 133.425781 C 245.09375 133.523438 245.445312 133.636719 245.800781 133.746094 C 246.1875 133.867188 246.570312 133.988281 246.949219 134.113281 C 247.378906 134.257812 247.804688 134.402344 248.234375 134.558594 C 248.296875 134.582031 248.359375 134.601562 248.417969 134.621094 C 248.441406 134.632812 248.460938 134.640625 248.488281 134.648438 C 250.78125 135.5 252.914062 136.457031 254.882812 137.519531 C 254.976562 137.570312 255.066406 137.621094 255.15625 137.671875 C 255.457031 137.835938 255.75 138.003906 256.042969 138.171875 C 263.289062 142.390625 270.136719 149.265625 271.898438 160.417969 C 272.050781 161.351562 272.910156 162.371094 273.761719 162.796875 C 273.921875 162.925781 274.078125 163.046875 274.089844 163.046875 C 274.089844 163.046875 274.089844 163.042969 274.082031 163.035156 C 275.429688 164.164062 276.261719 165.761719 276.414062 167.539062 Z M 243.746094 180.671875 C 236.300781 172.464844 225.988281 167.25 215.296875 162.976562 C 221.996094 155.65625 228.042969 148.929688 233.679688 142.550781 C 234.15625 142.617188 234.632812 142.691406 235.109375 142.769531 C 238.164062 143.320312 241.09375 144.03125 243.554688 144.820312 C 243.601562 144.835938 243.652344 144.851562 243.695312 144.867188 C 243.722656 144.875 243.746094 144.886719 243.777344 144.898438 C 247.519531 146.226562 250.632812 147.84375 253.148438 149.75 C 253.277344 149.851562 253.417969 149.949219 253.542969 150.050781 C 253.640625 150.128906 253.734375 150.210938 253.828125 150.289062 C 255.957031 152.039062 257.628906 154.039062 258.835938 156.277344 C 258.871094 156.34375 258.90625 156.410156 258.941406 156.480469 C 259.085938 156.761719 259.226562 157.046875 259.359375 157.335938 C 259.464844 157.566406 259.5625 157.792969 259.65625 158.027344 C 259.707031 158.152344 259.757812 158.273438 259.804688 158.394531 C 259.945312 158.761719 260.078125 159.136719 260.195312 159.519531 C 255.324219 166.40625 249.910156 173.363281 243.746094 180.671875 Z M 247.503906 194.628906 C 248.949219 194.714844 250.238281 195.230469 251.148438 196.078125 C 251.1875 196.117188 251.222656 196.152344 251.269531 196.1875 C 254.023438 198.492188 254.433594 202.800781 252.1875 205.550781 C 251.03125 206.917969 249.410156 207.746094 247.621094 207.894531 C 245.914062 208.011719 244.242188 207.496094 242.960938 206.394531 C 240.792969 204.523438 240.019531 201.601562 241.003906 198.945312 C 241.273438 198.230469 241.25 197.4375 240.9375 196.734375 C 239.519531 193.535156 237.550781 190.71875 235.246094 188.238281 C 230.503906 183.039062 224.160156 179.238281 217.3125 176.132812 C 217.1875 176.078125 217.058594 176.019531 216.929688 175.960938 C 216.761719 175.882812 216.585938 175.808594 216.417969 175.734375 C 216.160156 175.621094 215.902344 175.507812 215.648438 175.394531 C 215.597656 175.375 215.546875 175.351562 215.496094 175.332031 C 215.167969 175.1875 214.835938 175.046875 214.507812 174.90625 C 214.476562 174.894531 214.449219 174.882812 214.417969 174.871094 C 214.105469 174.742188 213.789062 174.609375 213.480469 174.484375 C 213.292969 174.40625 213.109375 174.332031 212.921875 174.253906 C 212.800781 174.207031 212.675781 174.15625 212.558594 174.109375 C 210.953125 173.460938 209.335938 172.84375 207.714844 172.242188 C 206.476562 171.785156 205.015625 171.222656 203.660156 170.652344 C 203.5625 170.609375 203.464844 170.574219 203.367188 170.546875 C 203.332031 170.535156 203.292969 170.527344 203.257812 170.519531 C 203.195312 170.503906 203.132812 170.484375 203.070312 170.472656 C 203.023438 170.464844 202.980469 170.457031 202.933594 170.453125 C 202.878906 170.445312 202.824219 170.4375 202.769531 170.429688 C 202.722656 170.425781 202.671875 170.425781 202.625 170.425781 C 202.585938 170.425781 202.550781 170.417969 202.515625 170.417969 C 202.503906 170.417969 202.488281 170.421875 202.472656 170.421875 C 202.402344 170.425781 202.332031 170.425781 202.261719 170.433594 C 202.214844 170.441406 202.175781 170.441406 202.132812 170.445312 C 202.070312 170.457031 202.003906 170.46875 201.9375 170.480469 C 201.890625 170.488281 201.84375 170.496094 201.796875 170.507812 C 201.753906 170.523438 201.710938 170.539062 201.664062 170.550781 C 201.492188 170.605469 201.320312 170.667969 201.15625 170.75 C 198.746094 172.011719 195.878906 171.691406 193.84375 169.957031 C 191.082031 167.582031 190.714844 163.351562 193.003906 160.5625 C 194.160156 159.195312 195.785156 158.363281 197.574219 158.214844 C 199.273438 158.101562 200.949219 158.609375 202.28125 159.757812 C 203.449219 160.71875 204.238281 162.128906 204.503906 163.726562 C 204.679688 164.800781 205.433594 165.6875 206.472656 166.039062 L 208.917969 166.824219 C 209.089844 166.910156 209.269531 166.984375 209.460938 167.035156 L 209.621094 167.054688 C 209.976562 167.191406 210.335938 167.332031 210.695312 167.472656 C 223.976562 172.636719 238.414062 179.382812 245.039062 192.980469 C 245.503906 193.9375 246.449219 194.5625 247.503906 194.628906 Z M 214.578125 212.199219 C 214.3125 211.742188 214.03125 211.296875 213.746094 210.855469 C 213.632812 210.675781 213.511719 210.503906 213.398438 210.324219 C 213.292969 210.171875 213.191406 210.015625 213.082031 209.863281 C 208.53125 203.183594 202.183594 198.261719 194.148438 195.203125 C 194.03125 195.160156 193.917969 195.113281 193.800781 195.066406 C 191.75 194.273438 189.511719 193.59375 187.191406 193.042969 L 202.664062 176.597656 C 203.570312 176.960938 204.464844 177.304688 205.289062 177.613281 C 205.417969 177.660156 205.546875 177.710938 205.671875 177.753906 C 211.527344 179.957031 217.675781 182.460938 223 185.78125 C 223.246094 185.9375 223.496094 186.089844 223.742188 186.25 C 223.910156 186.359375 224.074219 186.46875 224.238281 186.578125 C 227.351562 188.664062 230.105469 191.042969 232.277344 193.824219 C 226.90625 199.710938 221.078125 205.761719 214.578125 212.199219 Z M 217.730469 240.699219 C 216.574219 242.066406 214.953125 242.898438 213.164062 243.042969 C 211.449219 243.148438 209.789062 242.644531 208.476562 241.519531 C 207.125 240.386719 206.296875 238.785156 206.144531 237.011719 C 205.992188 235.226562 206.535156 233.5 207.523438 232.316406 L 208.203125 231.625 C 208.902344 230.925781 209.203125 229.921875 209.003906 228.953125 C 208.707031 227.527344 208.347656 226.160156 207.925781 224.84375 C 207.90625 224.769531 207.890625 224.695312 207.867188 224.617188 C 207.46875 223.425781 207.011719 222.285156 206.503906 221.1875 C 206.328125 220.796875 206.132812 220.417969 205.941406 220.039062 C 205.882812 219.921875 205.824219 219.792969 205.761719 219.679688 C 202.3125 213.078125 196.796875 208.328125 189.273438 205.535156 C 188.71875 205.316406 188.140625 205.109375 187.550781 204.917969 C 187.359375 204.855469 187.160156 204.796875 186.964844 204.738281 C 186.558594 204.609375 186.148438 204.484375 185.730469 204.371094 C 185.53125 204.3125 185.320312 204.265625 185.117188 204.210938 C 184.691406 204.101562 184.265625 203.996094 183.832031 203.898438 C 183.636719 203.855469 183.441406 203.820312 183.246094 203.777344 C 182.792969 203.683594 182.339844 203.589844 181.882812 203.511719 C 181.695312 203.476562 181.503906 203.449219 181.316406 203.417969 C 180.847656 203.34375 180.386719 203.273438 179.917969 203.214844 C 179.722656 203.183594 179.527344 203.167969 179.332031 203.144531 C 178.878906 203.089844 178.429688 203.042969 177.980469 203.003906 C 177.75 202.988281 177.523438 202.972656 177.296875 202.957031 C 176.898438 202.929688 176.496094 202.90625 176.101562 202.890625 C 175.816406 202.878906 175.53125 202.875 175.246094 202.871094 C 175.066406 202.867188 174.878906 202.859375 174.699219 202.859375 C 174.394531 202.859375 174.101562 202.859375 173.8125 202.863281 C 173.054688 202.886719 172.339844 203.195312 171.804688 203.726562 C 171.757812 203.773438 171.554688 203.976562 171.457031 204.082031 C 171.449219 204.09375 171.433594 204.105469 171.429688 204.113281 C 170.328125 205.378906 168.925781 206.160156 167.25 206.425781 C 167.242188 206.425781 167.234375 206.429688 167.226562 206.429688 C 167.097656 206.449219 166.96875 206.472656 166.835938 206.480469 C 165.085938 206.628906 163.460938 206.085938 162.148438 204.960938 C 159.328125 202.597656 158.984375 198.464844 161.375 195.550781 C 162.457031 194.222656 164.015625 193.40625 165.761719 193.253906 C 167.488281 193.128906 169.152344 193.632812 170.445312 194.746094 C 170.457031 194.753906 170.464844 194.761719 170.476562 194.769531 C 171.039062 195.246094 171.402344 195.625 171.664062 196.015625 C 172.207031 196.84375 173.128906 197.339844 174.117188 197.339844 C 176.148438 197.339844 178.269531 197.488281 180.402344 197.769531 C 180.585938 197.832031 180.78125 197.882812 180.980469 197.902344 C 184.527344 198.328125 188.328125 199.269531 191.714844 200.5625 C 192.121094 200.710938 192.511719 200.871094 192.898438 201.03125 C 196.644531 202.582031 199.929688 204.582031 202.753906 207.019531 C 202.792969 207.054688 202.835938 207.09375 202.875 207.128906 C 203.113281 207.332031 203.339844 207.539062 203.570312 207.753906 C 203.890625 208.050781 204.207031 208.351562 204.515625 208.660156 C 204.523438 208.671875 204.53125 208.679688 204.546875 208.691406 C 207.234375 211.421875 209.441406 214.636719 211.140625 218.316406 C 211.207031 218.460938 211.289062 218.597656 211.375 218.726562 C 212.71875 221.707031 213.734375 224.992188 214.414062 228.570312 C 214.585938 229.46875 215.167969 230.238281 215.984375 230.648438 C 216.292969 230.804688 216.570312 230.988281 216.894531 231.300781 C 219.703125 233.722656 220.058594 237.867188 217.730469 240.699219 Z M 178.710938 246.167969 C 177.226562 239.285156 173.796875 232.996094 168.488281 227.449219 C 166.476562 225.246094 164.03125 223.070312 161.054688 220.847656 C 163.734375 217.910156 166.46875 214.96875 169.210938 212.035156 C 171.445312 211.507812 173.492188 210.386719 175.167969 208.734375 C 175.382812 208.738281 175.605469 208.753906 175.824219 208.757812 C 178.941406 208.871094 182.21875 209.417969 185.15625 210.328125 C 185.839844 210.542969 186.519531 210.765625 187.160156 211.019531 C 194.019531 213.605469 198.84375 218.132812 201.53125 224.492188 C 201.566406 224.585938 201.605469 224.679688 201.644531 224.773438 C 193.617188 232.445312 185.535156 239.917969 178.710938 246.167969 Z M 171.1875 269.980469 C 172.527344 272.4375 172.269531 275.527344 170.589844 277.613281 C 169.429688 278.980469 167.8125 279.808594 166.019531 279.949219 C 164.324219 280.101562 162.644531 279.558594 161.332031 278.433594 C 159.984375 277.300781 159.15625 275.703125 159 273.929688 C 158.933594 273.125 159.011719 272.335938 159.21875 271.578125 C 159.234375 271.539062 159.25 271.5 159.261719 271.457031 C 159.308594 271.28125 159.367188 271.117188 159.425781 270.949219 C 159.695312 270.253906 160.078125 269.589844 160.585938 268.988281 C 161.714844 267.566406 163.175781 266.976562 164.207031 266.730469 C 165.191406 266.492188 165.988281 265.765625 166.308594 264.800781 C 166.789062 263.371094 167.167969 261.960938 167.457031 260.570312 C 167.894531 258.484375 168.113281 256.449219 168.125 254.460938 C 168.160156 247.175781 165.351562 240.558594 159.722656 234.695312 C 159.414062 234.375 159.097656 234.054688 158.769531 233.730469 C 156.859375 231.859375 154.613281 230.078125 152.238281 228.535156 C 151.601562 228.113281 150.953125 227.691406 150.273438 227.273438 C 149.808594 226.984375 149.273438 226.84375 148.738281 226.84375 C 148.175781 226.84375 147.605469 227.007812 147.117188 227.332031 C 144.703125 228.917969 141.523438 228.71875 139.324219 226.816406 C 136.59375 224.542969 136.238281 220.246094 138.527344 217.457031 C 140.886719 214.660156 144.917969 214.285156 147.730469 216.59375 C 148.777344 217.574219 149.453125 218.625 149.738281 219.71875 C 149.941406 220.496094 150.460938 221.152344 151.160156 221.539062 C 156.121094 224.273438 160.859375 227.875 164.179688 231.453125 C 173.785156 241.5625 176.078125 253.710938 171.007812 267.5625 C 170.714844 268.359375 170.785156 269.242188 171.1875 269.980469 Z M 156.074219 265.222656 C 156.066406 265.234375 156.058594 265.238281 156.054688 265.25 C 156.046875 265.253906 156.042969 265.261719 156.039062 265.265625 C 155.886719 265.445312 155.742188 265.628906 155.601562 265.816406 C 155.042969 266.542969 154.574219 267.324219 154.203125 268.167969 C 154.070312 268.464844 153.949219 268.765625 153.835938 269.066406 C 150.371094 272.21875 147.210938 275.160156 144.277344 277.96875 C 144.109375 277.5 143.917969 277.039062 143.742188 276.574219 C 143.6875 276.441406 143.636719 276.300781 143.582031 276.167969 C 143.382812 275.664062 143.167969 275.160156 142.957031 274.664062 C 142.828125 274.375 142.703125 274.082031 142.570312 273.789062 C 142.386719 273.378906 142.195312 272.972656 142 272.566406 C 141.835938 272.222656 141.667969 271.882812 141.492188 271.539062 C 141.304688 271.164062 141.113281 270.789062 140.914062 270.414062 C 140.730469 270.074219 140.542969 269.738281 140.351562 269.402344 C 140.144531 269.027344 139.933594 268.65625 139.714844 268.285156 C 139.53125 267.972656 139.335938 267.660156 139.144531 267.351562 C 138.910156 266.972656 138.671875 266.589844 138.429688 266.214844 C 138.242188 265.933594 138.050781 265.652344 137.859375 265.371094 C 137.597656 264.988281 137.335938 264.597656 137.066406 264.222656 C 136.855469 263.929688 136.644531 263.652344 136.429688 263.367188 C 136.167969 263.015625 135.910156 262.660156 135.636719 262.316406 C 135.140625 261.679688 134.632812 261.058594 134.105469 260.445312 C 134.085938 260.421875 134.058594 260.394531 134.035156 260.367188 C 132.757812 258.8125 131.34375 257.332031 130.0625 256.085938 C 135.683594 249.285156 142.042969 241.925781 149.394531 233.707031 C 151.804688 235.347656 153.839844 237.035156 155.46875 238.753906 C 161.796875 245.335938 163.671875 252.796875 161.171875 261.53125 C 159.117188 262.316406 157.359375 263.59375 156.074219 265.222656 Z M 144.164062 308.292969 C 143.007812 309.664062 141.390625 310.492188 139.597656 310.632812 C 137.902344 310.785156 136.21875 310.238281 134.914062 309.113281 C 133.5625 307.984375 132.730469 306.382812 132.578125 304.605469 C 132.425781 302.816406 132.964844 301.089844 134.3125 299.460938 C 134.488281 299.199219 134.730469 298.988281 135.242188 298.640625 C 136.097656 298.066406 136.585938 297.085938 136.539062 296.058594 C 136.171875 288.34375 134.125 281.136719 130.570312 274.824219 C 130.511719 274.71875 130.453125 274.613281 130.394531 274.511719 C 130.195312 274.164062 129.992188 273.820312 129.785156 273.480469 C 129.667969 273.292969 129.550781 273.101562 129.433594 272.910156 C 129.253906 272.628906 129.074219 272.347656 128.886719 272.066406 C 128.730469 271.828125 128.570312 271.589844 128.40625 271.359375 C 128.238281 271.117188 128.074219 270.875 127.902344 270.640625 C 127.699219 270.355469 127.488281 270.074219 127.277344 269.796875 C 127.132812 269.609375 126.992188 269.421875 126.847656 269.234375 C 126.484375 268.769531 126.113281 268.3125 125.734375 267.859375 C 125.476562 267.554688 125.195312 267.238281 124.90625 266.910156 C 124.882812 266.886719 124.863281 266.863281 124.84375 266.839844 C 124.59375 266.566406 124.332031 266.28125 124.0625 265.996094 C 123.980469 265.90625 123.898438 265.820312 123.816406 265.734375 C 122.96875 264.84375 122.015625 263.902344 120.953125 262.910156 C 120.820312 262.789062 120.675781 262.683594 120.53125 262.589844 C 119.632812 261.800781 118.714844 261.042969 117.804688 260.355469 C 117.285156 259.960938 116.65625 259.757812 116.027344 259.757812 C 115.621094 259.757812 115.210938 259.839844 114.820312 260.015625 C 112.566406 261.015625 109.855469 260.65625 108.019531 259.03125 C 106.671875 257.898438 105.847656 256.304688 105.6875 254.527344 C 105.539062 252.742188 106.078125 251.011719 107.21875 249.667969 C 109.585938 246.863281 113.625 246.492188 116.441406 248.824219 C 117.738281 249.976562 118.535156 251.539062 118.691406 253.21875 C 118.773438 254.089844 119.242188 254.882812 119.976562 255.378906 C 123.125 257.503906 126.601562 260.691406 129.550781 264.164062 C 129.578125 264.195312 129.605469 264.226562 129.632812 264.257812 C 129.695312 264.335938 129.753906 264.410156 129.816406 264.484375 C 130.164062 264.890625 130.5 265.304688 130.835938 265.722656 C 130.9375 265.851562 131.035156 265.980469 131.136719 266.109375 C 131.53125 266.613281 131.914062 267.125 132.289062 267.644531 C 132.300781 267.660156 132.3125 267.679688 132.324219 267.695312 C 132.707031 268.230469 133.074219 268.769531 133.433594 269.320312 C 133.480469 269.386719 133.523438 269.453125 133.566406 269.519531 C 134.328125 270.691406 135.039062 271.894531 135.699219 273.128906 C 135.703125 273.136719 135.707031 273.140625 135.710938 273.148438 C 139.433594 280.113281 141.527344 288 141.847656 296.425781 C 141.867188 297.167969 142.179688 297.871094 142.703125 298.394531 C 142.875 298.5625 143.109375 298.753906 143.332031 298.894531 C 146.136719 301.3125 146.488281 305.457031 144.164062 308.292969 Z M 120.878906 300.878906 C 117.648438 297.234375 113.746094 293.984375 109.164062 291.136719 C 109.035156 291.054688 108.910156 290.96875 108.78125 290.886719 C 108.742188 290.867188 108.703125 290.84375 108.664062 290.820312 C 108.058594 290.445312 107.449219 290.082031 106.820312 289.726562 C 106.25 289.421875 105.675781 289.125 105.097656 288.832031 C 109.613281 282.214844 114.347656 275.710938 119.226562 269.441406 C 119.433594 269.648438 119.632812 269.863281 119.828125 270.074219 C 119.941406 270.195312 120.054688 270.3125 120.160156 270.433594 C 120.253906 270.53125 120.34375 270.628906 120.433594 270.726562 C 120.527344 270.835938 120.621094 270.9375 120.710938 271.042969 C 120.863281 271.214844 121.011719 271.386719 121.15625 271.554688 C 121.183594 271.589844 121.214844 271.621094 121.238281 271.652344 C 121.296875 271.722656 121.359375 271.800781 121.417969 271.871094 C 121.664062 272.164062 121.90625 272.460938 122.144531 272.761719 C 122.304688 272.964844 122.457031 273.171875 122.617188 273.378906 C 122.746094 273.550781 122.878906 273.722656 123.003906 273.902344 C 123.179688 274.140625 123.351562 274.382812 123.519531 274.628906 C 123.617188 274.765625 123.710938 274.910156 123.808594 275.046875 C 123.996094 275.328125 124.183594 275.613281 124.363281 275.898438 C 124.421875 275.988281 124.476562 276.078125 124.535156 276.167969 C 127.378906 280.734375 129.261719 285.90625 130.136719 291.613281 C 127.054688 294.65625 123.96875 297.761719 120.878906 300.878906 Z M 124.542969 318.332031 C 124.847656 319.1875 125.523438 319.851562 126.382812 320.144531 C 127.183594 320.417969 127.738281 320.726562 128.292969 321.207031 C 128.308594 321.230469 128.328125 321.246094 128.351562 321.261719 C 131.035156 323.5 131.375 327.820312 129.148438 330.628906 C 126.859375 333.34375 122.613281 333.703125 119.890625 331.441406 C 117.152344 329.167969 116.707031 325.089844 118.863281 322.15625 C 119.460938 321.339844 119.597656 320.285156 119.226562 319.34375 C 115.597656 310.078125 107.734375 302.273438 97.5625 297.550781 C 97.007812 297.292969 96.453125 297.035156 95.886719 296.792969 C 95.816406 296.761719 95.742188 296.75 95.671875 296.722656 C 94.015625 296.035156 92.3125 295.429688 90.554688 294.910156 C 90.277344 294.832031 90 294.789062 89.71875 294.789062 C 89 294.789062 88.292969 295.054688 87.746094 295.550781 C 85.28125 297.796875 81.609375 297.878906 79.148438 295.710938 C 76.328125 293.347656 75.984375 289.214844 78.382812 286.300781 C 79.449219 284.988281 80.992188 284.175781 82.722656 284.011719 C 84.511719 283.808594 86.230469 284.375 87.527344 285.460938 C 88.335938 286.183594 88.996094 287.046875 89.371094 287.886719 C 89.71875 288.660156 90.386719 289.242188 91.195312 289.488281 C 94.144531 290.382812 97.375 291.652344 100.539062 293.148438 L 101.039062 293.40625 C 102.113281 293.964844 103.15625 294.496094 103.992188 294.878906 C 104.121094 294.953125 104.246094 295.03125 104.371094 295.109375 C 114.238281 300.828125 121.214844 308.847656 124.542969 318.332031 Z M 96.972656 326.765625 C 96.320312 326.375 95.648438 326.011719 94.96875 325.667969 C 94.9375 325.652344 94.910156 325.636719 94.878906 325.621094 C 94.332031 325.347656 93.773438 325.082031 93.207031 324.835938 C 93.195312 324.832031 93.1875 324.828125 93.175781 324.824219 C 92.011719 324.316406 90.808594 323.878906 89.574219 323.5 C 89.519531 323.484375 89.460938 323.46875 89.40625 323.453125 C 88.851562 323.289062 88.292969 323.136719 87.726562 322.996094 C 87.644531 322.976562 87.566406 322.957031 87.484375 322.9375 C 86.878906 322.792969 86.261719 322.660156 85.640625 322.542969 C 85.628906 322.542969 85.617188 322.539062 85.605469 322.539062 C 85.527344 322.523438 85.453125 322.503906 85.375 322.488281 C 88.382812 316.285156 91.851562 309.945312 95.871094 303.265625 C 101.0625 305.851562 105.582031 309.367188 108.933594 313.421875 C 104.265625 318.480469 100.460938 322.726562 96.972656 326.765625 Z M 103.992188 342.8125 C 104.378906 343.558594 105.066406 344.101562 105.878906 344.308594 C 106.785156 344.539062 107.699219 345.019531 108.519531 345.679688 C 111.277344 348.054688 111.65625 352.355469 109.355469 355.078125 C 106.984375 357.886719 102.921875 358.246094 100.121094 355.910156 C 97.632812 353.800781 97.019531 350.226562 98.664062 347.402344 C 99.195312 346.496094 99.195312 345.382812 98.679688 344.472656 C 96.988281 341.496094 94.769531 339.078125 92.113281 337.25 C 92.007812 337.15625 91.898438 337.066406 91.777344 336.992188 C 88.65625 334.976562 85.199219 333.765625 81.660156 333.394531 C 81.628906 333.394531 81.601562 333.386719 81.570312 333.382812 C 81.160156 333.316406 80.746094 333.265625 80.335938 333.222656 C 80.078125 333.195312 79.820312 333.175781 79.566406 333.15625 C 79.457031 333.148438 79.355469 333.136719 79.246094 333.132812 C 78.570312 333.082031 77.894531 333.058594 77.230469 333.066406 C 77.230469 333.066406 77.230469 333.066406 77.226562 333.066406 C 75.863281 333.066406 74.613281 333.144531 73.605469 333.242188 C 72.539062 333.34375 71.605469 334.027344 71.1875 335.023438 C 70.921875 335.640625 70.585938 336.203125 70.21875 336.652344 C 69.101562 338.011719 67.53125 338.847656 65.789062 338.996094 C 64.015625 339.183594 62.347656 338.605469 60.957031 337.40625 C 59.644531 336.347656 58.828125 334.816406 58.664062 333.089844 C 58.5 331.320312 59.054688 329.53125 60.21875 328.15625 C 62.414062 325.484375 66.195312 325.015625 69.035156 326.953125 C 69.148438 327.09375 69.273438 327.222656 69.410156 327.34375 C 70.054688 327.90625 70.910156 328.140625 71.761719 328.027344 C 74.59375 327.605469 77.582031 327.507812 80.320312 327.738281 C 80.535156 327.789062 80.761719 327.820312 80.992188 327.820312 C 81.078125 327.820312 81.167969 327.828125 81.253906 327.832031 C 81.75 327.886719 82.234375 327.953125 82.703125 328.03125 C 86.277344 328.5 89.507812 329.472656 92.386719 330.945312 C 92.445312 330.976562 92.507812 331.003906 92.566406 331.035156 C 92.9375 331.226562 93.300781 331.4375 93.664062 331.648438 C 93.792969 331.722656 93.921875 331.796875 94.050781 331.875 C 94.414062 332.097656 94.773438 332.332031 95.125 332.570312 C 95.210938 332.625 95.296875 332.683594 95.378906 332.742188 C 98.902344 335.207031 101.785156 338.570312 103.992188 342.8125 Z M 71.773438 358.632812 C 73.472656 352.035156 75.59375 345.457031 78.113281 338.964844 C 79.046875 338.996094 79.933594 339.074219 80.75 339.203125 C 82.523438 339.421875 84.152344 339.828125 85.640625 340.417969 C 80.699219 346.59375 76.105469 352.632812 71.773438 358.632812 Z M 310.898438 32.945312 C 310.222656 37.359375 309.476562 41.617188 308.65625 45.75 C 307.421875 45.214844 306.171875 44.742188 304.90625 44.328125 C 306.976562 40.542969 308.972656 36.746094 310.898438 32.945312 Z M 334.789062 64.027344 C 332.628906 61.453125 329.644531 59.894531 326.4375 59.609375 C 322.777344 55.0625 318.640625 51.390625 314.078125 48.605469 C 316.164062 38.421875 317.796875 27.550781 319.050781 15.4375 C 319.199219 13.996094 318.28125 12.667969 316.882812 12.292969 C 315.5 11.921875 314.03125 12.613281 313.441406 13.9375 C 309.152344 23.550781 304.289062 33.28125 298.976562 42.898438 C 293.574219 41.925781 287.796875 41.878906 281.707031 42.789062 C 275.339844 43.726562 268.0625 45.890625 261.605469 48.765625 C 258.144531 48.316406 254.699219 49.308594 252.082031 51.554688 C 246.804688 55.96875 246.058594 63.882812 250.382812 69.148438 C 252.394531 71.6875 255.292969 73.285156 258.554688 73.652344 C 261.898438 74.019531 265.304688 73.023438 267.992188 70.847656 C 270.378906 68.792969 271.890625 65.984375 272.289062 62.921875 C 276.050781 61.542969 280.019531 60.457031 283.40625 59.886719 C 285.449219 59.5625 287.421875 59.398438 289.324219 59.367188 C 284.402344 67.367188 279.117188 75.324219 273.5625 83.089844 C 267.773438 82.417969 261.304688 82.402344 255.128906 83.066406 C 250.109375 79.207031 242.875 79.144531 237.707031 83.128906 C 231.621094 87.953125 230.4375 96.996094 235.117188 103.339844 C 239.914062 109.507812 248.90625 110.695312 255.277344 105.898438 C 256.613281 104.773438 257.695312 103.53125 258.515625 102.195312 C 258.859375 102.167969 259.203125 102.148438 259.542969 102.121094 C 252.621094 111.042969 246.1875 118.976562 239.996094 126.214844 C 237.0625 125.621094 234.074219 125.167969 231.167969 124.914062 C 230.789062 124.519531 230.367188 124.128906 229.914062 123.746094 C 227.441406 121.621094 224.222656 120.597656 220.972656 120.855469 C 217.605469 121.121094 214.554688 122.6875 212.34375 125.304688 C 208.007812 130.625 208.757812 138.527344 213.984375 142.902344 C 216.453125 145.03125 219.609375 146.070312 222.914062 145.808594 C 218.773438 150.429688 214.382812 155.273438 209.671875 160.410156 C 208.925781 158.375 207.683594 156.585938 206.066406 155.261719 C 203.589844 153.132812 200.421875 152.117188 197.105469 152.359375 C 193.734375 152.625 190.683594 154.191406 188.484375 156.796875 C 184.164062 162.066406 184.847656 169.96875 190.015625 174.417969 C 191.320312 175.53125 192.804688 176.339844 194.371094 176.832031 L 180.261719 191.828125 C 178.675781 191.644531 177.089844 191.527344 175.542969 191.480469 C 175.171875 191.085938 174.753906 190.6875 174.273438 190.28125 C 171.769531 188.128906 168.597656 187.109375 165.246094 187.398438 C 161.957031 187.6875 158.882812 189.304688 156.824219 191.828125 C 152.367188 197.261719 153.050781 205.007812 158.339844 209.4375 C 159.351562 210.308594 160.484375 210.992188 161.691406 211.480469 C 159.800781 213.515625 157.925781 215.554688 156.070312 217.589844 C 155.71875 217.378906 155.367188 217.167969 155.011719 216.964844 C 154.328125 215.246094 153.210938 213.652344 151.667969 212.230469 C 151.632812 212.199219 151.59375 212.164062 151.554688 212.132812 C 146.316406 207.753906 138.460938 208.433594 134.011719 213.695312 C 129.609375 219.054688 130.3125 226.972656 135.519531 231.296875 C 137.183594 232.734375 139.15625 233.652344 141.226562 234.046875 C 135.4375 240.59375 130.285156 246.601562 125.625 252.230469 C 125.191406 251.890625 124.757812 251.5625 124.332031 251.25 C 123.773438 248.621094 122.371094 246.222656 120.300781 244.394531 C 120.285156 244.371094 120.261719 244.355469 120.242188 244.339844 C 115 239.953125 107.144531 240.640625 102.726562 245.871094 C 100.566406 248.429688 99.539062 251.679688 99.832031 255.039062 C 100.125 258.382812 101.691406 261.402344 104.1875 263.488281 C 106.941406 265.917969 110.652344 266.894531 114.234375 266.285156 C 109.207031 272.765625 104.332031 279.492188 99.6875 286.339844 C 97.78125 285.539062 95.890625 284.828125 94.078125 284.238281 C 93.394531 283.097656 92.484375 282.011719 91.371094 281.015625 C 88.792969 278.855469 85.539062 277.871094 82.164062 278.15625 C 78.855469 278.476562 75.898438 280.046875 73.828125 282.578125 C 69.375 288.015625 70.050781 295.757812 75.324219 300.164062 C 79.539062 303.882812 85.71875 304.132812 90.3125 300.992188 C 90.335938 300.996094 90.351562 301.007812 90.371094 301.011719 C 86.054688 308.226562 82.382812 315.0625 79.199219 321.78125 C 76.9375 321.683594 74.5625 321.761719 72.25 322.03125 C 66.902344 318.425781 59.816406 319.382812 55.699219 324.394531 C 53.546875 326.941406 52.496094 330.3125 52.816406 333.648438 C 53.132812 336.960938 54.707031 339.917969 57.191406 341.917969 C 59.722656 344.101562 62.988281 345.144531 66.292969 344.851562 C 67.609375 344.738281 68.871094 344.421875 70.046875 343.921875 C 66.898438 353.132812 64.523438 362.46875 62.960938 371.769531 C 62.730469 373.132812 63.484375 374.472656 64.773438 374.988281 C 65.125 375.125 65.496094 375.195312 65.859375 375.195312 C 66.816406 375.195312 67.742188 374.726562 68.300781 373.894531 C 75.011719 363.882812 82.34375 353.945312 90.636719 343.59375 C 91.417969 344.34375 92.132812 345.175781 92.773438 346.105469 C 90.777344 351.078125 92.132812 356.847656 96.335938 360.402344 C 98.652344 362.34375 101.480469 363.289062 104.300781 363.289062 C 107.855469 363.289062 111.386719 361.785156 113.851562 358.871094 C 118.257812 353.652344 117.59375 345.734375 112.285156 341.167969 C 111.117188 340.226562 109.894531 339.507812 108.621094 339.023438 C 106.71875 335.625 104.386719 332.714844 101.691406 330.296875 C 104.828125 326.667969 108.242188 322.851562 112.324219 318.410156 C 112.632812 318.984375 112.921875 319.558594 113.191406 320.144531 C 110.320312 325.410156 111.457031 332.074219 116.125 335.953125 C 118.441406 337.878906 121.261719 338.820312 124.074219 338.820312 C 127.644531 338.820312 131.203125 337.304688 133.695312 334.347656 C 137.976562 328.949219 137.277344 321.074219 132.144531 316.769531 C 131.375 316.101562 130.558594 315.558594 129.632812 315.121094 C 128.328125 311.746094 126.613281 308.542969 124.53125 305.542969 C 125.25 304.820312 125.972656 304.089844 126.691406 303.367188 C 126.664062 303.941406 126.671875 304.527344 126.722656 305.109375 C 127.011719 308.457031 128.578125 311.476562 131.105469 313.589844 C 133.328125 315.507812 136.121094 316.535156 139.054688 316.535156 C 139.386719 316.535156 139.726562 316.519531 140.0625 316.492188 C 143.429688 316.226562 146.480469 314.664062 148.683594 312.054688 C 152.976562 306.8125 152.4375 299.296875 147.65625 294.886719 C 147.445312 291.277344 146.929688 287.757812 146.136719 284.351562 C 148.488281 282.058594 150.996094 279.683594 153.695312 277.179688 C 154.402344 279.414062 155.714844 281.398438 157.527344 282.910156 C 159.75 284.824219 162.542969 285.851562 165.480469 285.851562 C 165.808594 285.851562 166.148438 285.835938 166.484375 285.8125 C 169.855469 285.542969 172.90625 283.980469 175.117188 281.351562 C 178.082031 277.679688 178.746094 272.730469 176.945312 268.410156 C 178.699219 263.253906 179.539062 258.242188 179.480469 253.429688 C 185.53125 247.90625 192.894531 241.136719 200.472656 233.984375 C 200.25 235.128906 200.1875 236.320312 200.292969 237.519531 C 200.582031 240.867188 202.148438 243.882812 204.675781 246 C 206.898438 247.914062 209.6875 248.9375 212.621094 248.9375 C 212.953125 248.9375 213.292969 248.929688 213.628906 248.902344 C 216.996094 248.628906 220.046875 247.066406 222.25 244.460938 C 226.640625 239.105469 225.976562 231.367188 220.898438 227.007812 C 220.613281 226.714844 220.285156 226.4375 219.929688 226.179688 C 219.289062 223.195312 218.414062 220.378906 217.335938 217.742188 C 223.722656 211.449219 229.484375 205.515625 234.796875 199.765625 C 234.285156 203.886719 235.839844 208.023438 239.128906 210.847656 C 241.351562 212.765625 244.140625 213.792969 247.078125 213.792969 C 247.410156 213.792969 247.746094 213.777344 248.082031 213.75 C 251.453125 213.484375 254.503906 211.921875 256.710938 209.304688 C 261.035156 204.007812 260.300781 196.136719 255.097656 191.726562 C 253.601562 190.355469 251.691406 189.410156 249.597656 188.988281 C 248.929688 187.746094 248.199219 186.558594 247.421875 185.417969 C 251.253906 180.902344 254.804688 176.523438 258.117188 172.214844 C 258.816406 174.316406 260.070312 176.242188 261.859375 177.726562 C 264.136719 179.636719 267.035156 180.679688 269.964844 180.679688 C 270.378906 180.679688 270.800781 180.660156 271.214844 180.613281 C 274.488281 180.277344 277.410156 178.683594 279.375 176.195312 C 281.53125 173.644531 282.5625 170.390625 282.269531 167.03125 C 281.976562 163.6875 280.410156 160.667969 277.851562 158.527344 C 277.792969 158.476562 277.605469 158.328125 277.488281 158.242188 C 276.851562 154.914062 275.804688 151.796875 274.371094 148.90625 C 280.832031 138.824219 286.796875 127.984375 292.144531 116.566406 C 292.304688 116.988281 292.464844 117.414062 292.605469 117.855469 C 288.613281 123.027344 288.527344 130.347656 292.59375 135.511719 C 294.863281 138.519531 298.207031 140.460938 301.996094 140.972656 C 302.65625 141.0625 303.3125 141.105469 303.964844 141.105469 C 307.085938 141.105469 310.085938 140.09375 312.601562 138.160156 C 318.679688 133.332031 319.863281 124.296875 315.234375 118.011719 C 315.207031 117.976562 315.179688 117.9375 315.152344 117.898438 C 314.15625 116.675781 312.992188 115.628906 311.730469 114.804688 C 309.84375 106.859375 306.25 100.28125 301.074219 95.175781 C 304.347656 86.371094 307.261719 77.082031 309.917969 66.957031 C 310.984375 67.9375 312.003906 69.015625 312.96875 70.1875 C 312.445312 73.671875 313.382812 77.242188 315.597656 80.003906 C 317.714844 82.578125 320.703125 84.171875 324.027344 84.484375 C 324.433594 84.523438 324.839844 84.546875 325.242188 84.546875 C 328.136719 84.542969 330.902344 83.554688 333.144531 81.6875 C 335.742188 79.511719 337.335938 76.449219 337.628906 73.070312 C 337.917969 69.746094 336.90625 66.53125 334.789062 64.027344 "/>
</g>
</g>
</svg>
