<?xml version="1.0" encoding="UTF-8"?>
<svg xmlns="http://www.w3.org/2000/svg" xmlns:xlink="http://www.w3.org/1999/xlink" width="375pt" height="374.999991pt" viewBox="0 0 375 374.999991" version="1.2">
<defs>
<filter id="alpha" filterUnits="objectBoundingBox" x="0%" y="0%" width="100%" height="100%">
  <feColorMatrix type="matrix" in="SourceGraphic" values="0 0 0 0 1 0 0 0 0 1 0 0 0 0 1 0 0 0 1 0"/>
</filter>
<mask id="mask0">
  <g filter="url(#alpha)">
<rect x="0" y="0" width="375" height="374.999991" style="fill:rgb(0%,0%,0%);fill-opacity:0.1373;stroke:none;"/>
  </g>
</mask>
<clipPath id="clip1">
  <rect x="0" y="0" width="156" height="161"/>
</clipPath>
<g id="surface5" clip-path="url(#clip1)">
<path style=" stroke:none;fill-rule:evenodd;fill:rgb(100%,100%,100%);fill-opacity:1;" d="M 61.460938 143.609375 L 62.84375 148.132812 C 63.664062 150.828125 62.683594 153.636719 60.363281 155.21875 C 58.042969 156.804688 55.085938 156.691406 52.890625 154.929688 C 42.332031 146.441406 35.308594 135.363281 31.800781 121.667969 L 26.429688 100.6875 L 10.914062 66.734375 C 4.195312 52.035156 4.582031 36.542969 12.019531 22.199219 L 12.714844 20.855469 C 18.496094 9.710938 31.257812 4.558594 43.101562 8.582031 L 57.074219 13.328125 C 70.699219 17.953125 83.75 17.953125 97.375 13.328125 L 111.347656 8.582031 C 123.191406 4.558594 135.953125 9.714844 141.734375 20.855469 L 142.429688 22.199219 C 149.867188 36.542969 150.253906 52.035156 143.539062 66.734375 L 128.019531 100.6875 L 122.648438 121.667969 C 119.140625 135.363281 112.117188 146.441406 101.558594 154.929688 C 99.367188 156.691406 96.40625 156.804688 94.085938 155.21875 C 91.765625 153.636719 90.785156 150.828125 91.609375 148.132812 L 92.988281 143.609375 C 94.914062 137.300781 95.753906 131.660156 95.753906 125.058594 L 95.753906 114.261719 C 95.753906 89.925781 58.695312 89.925781 58.695312 114.261719 L 58.695312 125.058594 C 58.695312 131.660156 59.539062 137.300781 61.460938 143.609375 "/>
<path style="fill:none;stroke-width:340.15701;stroke-linecap:round;stroke-linejoin:round;stroke:rgb(0%,0%,0%);stroke-opacity:1;stroke-miterlimit:22.926001;" d="M 5607.982658 3373.795974 L 5675.523999 3154.016852 C 5715.590897 3023.060381 5667.701415 2886.599941 5554.369334 2809.734186 C 5441.037253 2732.678639 5296.605628 2738.182607 5189.378979 2823.778794 C 4673.660773 3236.196783 4330.611815 3774.44686 4159.27813 4439.857569 L 3896.935351 5459.230335 L 3139.098608 7108.902292 C 2810.93164 7823.089542 2829.82032 8575.994358 3193.093522 9272.720745 L 3227.054988 9338.009188 C 3509.431216 9879.485729 4132.75766 10129.821361 4711.247339 9934.335614 L 5393.720155 9703.738349 C 6059.212239 9479.024635 6696.657495 9479.024635 7362.149579 9703.738349 L 8044.622396 9934.335614 C 8623.112074 10129.821361 9246.438519 9879.295937 9528.814747 9338.009188 L 9562.776212 9272.720745 C 9926.049414 8575.994358 9944.938094 7823.089542 9616.961921 7108.902292 L 8858.934384 5459.230335 L 8596.591604 4439.857569 C 8425.25792 3774.44686 8082.208961 3236.196783 7566.490755 2823.778794 C 7459.454901 2738.182607 7314.832481 2732.678639 7201.500401 2809.734186 C 7088.16832 2886.599941 7040.278838 3023.060381 7080.53653 3154.016852 L 7147.887076 3373.795974 C 7241.948887 3680.310034 7282.969758 3954.369664 7282.969758 4275.118124 L 7282.969758 4799.703178 C 7282.969758 5982.107261 5472.899976 5982.107261 5472.899976 4799.703178 L 5472.899976 4275.118124 C 5472.899976 3954.369664 5514.111642 3680.310034 5607.982658 3373.795974 Z M 5607.982658 3373.795974 " transform="matrix(0.0204736,0,0,-0.0205817,-53.354498,213.047978)"/>
<path style="fill:none;stroke-width:340.15701;stroke-linecap:round;stroke-linejoin:round;stroke:rgb(0%,0%,0%);stroke-opacity:1;stroke-miterlimit:22.926001;" d="M 5753.940641 9594.03858 C 6576.647598 9311.058726 6859.023826 8421.313888 8121.894269 9163.40056 " transform="matrix(0.0204736,0,0,-0.0205817,-53.354498,213.047978)"/>
</g>
</defs>
<g id="surface1">
<rect x="0" y="0" width="375" height="374.999991" style="fill:rgb(100%,100%,100%);fill-opacity:1;stroke:none;"/>
<rect x="0" y="0" width="375" height="374.999991" style="fill:rgb(100%,100%,100%);fill-opacity:1;stroke:none;"/>
<rect x="0" y="0" width="375" height="374.999991" style="fill:rgb(100%,100%,100%);fill-opacity:1;stroke:none;"/>
<use xlink:href="#surface5" transform="matrix(1,0,0,1,110,107)" mask="url(#mask0)"/>
</g>
</svg>
