<?xml version="1.0" encoding="UTF-8"?><svg xmlns="http://www.w3.org/2000/svg" xmlns:xlink="http://www.w3.org/1999/xlink" contentScriptType="text/ecmascript" width="375pt" zoomAndPan="magnify" contentStyleType="text/css" viewBox="0 0 375 374.999991" height="374.999991pt" preserveAspectRatio="xMidYMid meet" version="1.2"><defs><filter x="0%" y="0%" width="100%" xmlns:xlink="http://www.w3.org/1999/xlink" xlink:type="simple" filterUnits="objectBoundingBox" xlink:actuate="onLoad" id="alpha" height="100%" xlink:show="other" xml:id="alpha"><feColorMatrix values="0 0 0 0 1 0 0 0 0 1 0 0 0 0 1 0 0 0 1 0" type="matrix" in="SourceGraphic"/></filter><clipPath xml:id="clip1" id="clip1"><rect x="0" width="296" y="0" height="337"/></clipPath></defs><g xml:id="surface1" id="surface1"><g mask="url(#mask0)" transform="matrix(1,0,0,1,37,16)"><g xml:id="surface5" id="surface5" clip-path="url(#clip1)"><path style=" stroke:none;fill-rule:nonzero;fill:rgb(0%,0%,0%);fill-opacity:1;" d="M 147.386719 195.472656 C 163.09375 195.472656 172.808594 212.867188 178.75 225.96875 C 184.578125 238.820312 187.898438 253.039062 188.621094 268.214844 C 190.023438 297.542969 195.652344 311.273438 200.125 317.628906 C 202.132812 320.472656 205.609375 321.714844 209.191406 320.886719 C 242.652344 313.054688 236.75 240.703125 235.222656 226.285156 C 234.589844 220.277344 234.441406 214.984375 234.765625 210.101562 C 236.140625 189.285156 241.757812 173.488281 246.21875 163.90625 C 249.300781 157.285156 251.585938 151.8125 253.414062 146.667969 C 256.046875 139.230469 258.714844 132.484375 261.183594 126.25 C 273.59375 94.878906 279.820312 79.132812 252.960938 49.71875 C 231.792969 26.554688 185.230469 39.246094 147.984375 55.9375 C 147.621094 56.148438 147.230469 56.320312 146.835938 56.453125 C 129.761719 64.175781 114.75 72.671875 105.183594 78.828125 C 102.296875 80.691406 98.429688 79.863281 96.566406 76.960938 C 94.703125 74.070312 95.535156 70.214844 98.429688 68.351562 C 100 67.34375 113.003906 59.070312 131.386719 49.976562 C 111.558594 39.582031 67.082031 21.238281 41.648438 49.675781 C 14.984375 79.5 21.183594 95.226562 33.519531 126.550781 C 35.941406 132.699219 38.558594 139.339844 41.148438 146.667969 C 42.964844 151.792969 45.253906 157.269531 48.34375 163.894531 C 52.8125 173.5 58.421875 189.300781 59.800781 210.101562 C 60.121094 215 59.972656 220.296875 59.339844 226.277344 C 57.816406 240.703125 51.910156 313.054688 85.371094 320.886719 C 88.96875 321.714844 92.433594 320.472656 94.4375 317.628906 C 98.910156 311.277344 104.535156 297.542969 105.9375 268.214844 C 106.664062 253.027344 109.992188 238.816406 115.8125 225.96875 C 121.753906 212.867188 131.46875 195.472656 147.222656 195.472656 C 147.277344 195.472656 147.328125 195.472656 147.386719 195.472656 Z M 207.035156 333.597656 C 200.257812 333.609375 193.878906 330.417969 189.929688 324.800781 C 182.035156 313.589844 177.40625 294.75 176.164062 268.808594 C 175.515625 255.210938 172.570312 242.53125 167.398438 231.117188 C 160.417969 215.734375 153.671875 207.9375 147.332031 207.9375 C 147.3125 207.9375 147.296875 207.9375 147.277344 207.9375 C 140.890625 207.9375 134.140625 215.734375 127.167969 231.117188 C 122 242.515625 119.046875 255.199219 118.394531 268.808594 C 117.152344 294.75 112.523438 313.597656 104.636719 324.800781 C 99.71875 331.792969 91.046875 335.015625 82.53125 333.023438 C 41.128906 323.335938 43.847656 254.234375 46.941406 224.96875 C 47.496094 219.699219 47.632812 215.105469 47.355469 210.921875 C 46.109375 192.046875 41.054688 177.789062 37.039062 169.160156 C 33.773438 162.160156 31.347656 156.332031 29.398438 150.832031 C 26.855469 143.648438 24.289062 137.144531 21.917969 131.117188 C 9.0625 98.484375 0.570312 76.925781 32.347656 41.371094 C 68.648438 0.765625 130.757812 34.636719 145.300781 43.457031 C 183.554688 26.527344 235.429688 12.046875 262.164062 41.320312 C 294.277344 76.476562 285.730469 98.101562 272.78125 130.832031 C 270.363281 136.941406 267.746094 143.542969 265.164062 150.832031 C 263.207031 156.363281 260.777344 162.1875 257.523438 169.167969 C 253.507812 177.785156 248.457031 192.03125 247.210938 210.925781 C 246.929688 215.09375 247.066406 219.6875 247.625 224.976562 C 250.714844 254.234375 253.433594 323.335938 212.035156 333.023438 C 210.367188 333.410156 208.683594 333.597656 207.035156 333.597656 "/></g><mask xml:id="mask0" id="mask0"><g filter="url(#alpha)"><rect x="0" width="375" y="0" height="374.999991" style="fill:rgb(0%,0%,0%);fill-opacity:0.1294;stroke:none;"/></g></mask></g></g></svg>