<?xml version="1.0" encoding="UTF-8"?>
<svg xmlns="http://www.w3.org/2000/svg" xmlns:xlink="http://www.w3.org/1999/xlink" width="375pt" height="374.999991pt" viewBox="0 0 375 374.999991" version="1.2">
<defs>
<clipPath id="clip1">
  <path d="M 0 39 L 375 39 L 375 343.09375 L 0 343.09375 Z M 0 39 "/>
</clipPath>
</defs>
<g id="surface1">
<g clip-path="url(#clip1)" clip-rule="nonzero">
<path style=" stroke:none;fill-rule:nonzero;fill:rgb(0%,0%,0%);fill-opacity:1;" d="M 336.269531 115.132812 C 336.496094 118.429688 336.496094 121.722656 336.496094 125.039062 C 336.496094 226.296875 259.277344 343.070312 118.085938 343.070312 L 118.085938 343.011719 C 76.375 343.078125 35.535156 331.15625 0.421875 308.664062 C 6.484375 309.390625 12.582031 309.753906 18.695312 309.769531 C 53.261719 309.800781 86.835938 298.222656 114.03125 276.902344 C 81.179688 276.28125 52.378906 254.902344 42.3125 223.683594 C 53.820312 225.902344 65.675781 225.445312 76.96875 222.359375 C 41.152344 215.136719 15.390625 183.726562 15.390625 147.25 C 15.390625 146.914062 15.390625 146.597656 15.390625 146.277344 C 26.058594 152.207031 38.011719 155.503906 50.230469 155.871094 C 16.503906 133.375 6.109375 88.585938 26.480469 53.558594 C 65.449219 101.433594 122.949219 130.539062 184.679688 133.617188 C 178.492188 107 186.945312 79.113281 206.890625 60.398438 C 237.808594 31.386719 286.433594 32.871094 315.5 63.722656 C 332.6875 60.339844 349.164062 54.042969 364.242188 45.125 C 358.511719 62.867188 346.523438 77.933594 330.5 87.503906 C 345.714844 85.710938 360.582031 81.644531 374.585938 75.4375 C 364.273438 90.855469 351.289062 104.289062 336.269531 115.132812 Z M 336.269531 115.132812 "/>
</g>
</g>
</svg>
