<?xml version="1.0" encoding="UTF-8"?>
<svg xmlns="http://www.w3.org/2000/svg" xmlns:xlink="http://www.w3.org/1999/xlink" width="375pt" height="374.999991pt" viewBox="0 0 375 374.999991" version="1.2">
<g id="surface1">
<path style=" stroke:none;fill-rule:nonzero;fill:rgb(0%,0%,0%);fill-opacity:1;" d="M 307.925781 99.761719 C 301.515625 94.203125 293.746094 90.472656 285.472656 88.035156 C 290.621094 84.417969 295.132812 79.902344 298.464844 74.34375 C 303.148438 66.554688 290.980469 59.496094 286.320312 67.261719 C 282.039062 74.367188 275.097656 79.058594 267.335938 81.703125 C 271.777344 72.609375 272.84375 61.832031 270.332031 51.652344 C 268.160156 42.859375 254.707031 45.457031 256.867188 54.261719 C 259.542969 65.136719 256.222656 77.277344 247.199219 83.945312 C 245.707031 84.523438 244.492188 85.007812 244.308594 85.066406 C 225.949219 91.039062 211.863281 105.097656 207.375 122.140625 C 203.304688 137.554688 204.804688 162.53125 235.125 193.992188 C 253.375 212.941406 261.878906 234.304688 258.488281 252.628906 C 257.34375 258.84375 254.820312 264.273438 251.339844 268.734375 C 240.292969 255.355469 215.980469 253.507812 187.6875 253.507812 C 159.394531 253.507812 135.082031 255.355469 124.035156 268.746094 C 120.566406 264.273438 118.03125 258.855469 116.886719 252.628906 C 113.496094 234.304688 122 212.929688 140.25 193.992188 C 170.570312 162.53125 172.070312 137.554688 168 122.140625 C 163.511719 105.097656 149.425781 91.039062 131.066406 85.066406 C 130.894531 85.007812 129.667969 84.523438 128.175781 83.945312 C 119.152344 77.277344 115.824219 65.132812 118.507812 54.261719 C 120.679688 45.457031 107.214844 42.871094 105.042969 51.652344 C 102.53125 61.832031 103.585938 72.609375 108.039062 81.703125 C 100.289062 79.058594 93.335938 74.367188 89.054688 67.261719 C 84.394531 59.496094 72.238281 66.566406 76.910156 74.34375 C 80.242188 79.890625 84.753906 84.40625 89.902344 88.035156 C 81.628906 90.472656 73.859375 94.191406 67.449219 99.761719 C 60.589844 105.699219 68.457031 116.546875 77.386719 109.6875 C 83.644531 104.867188 91.429688 101.898438 99.558594 100.1875 C 88.789062 109.800781 81.585938 122.765625 82.996094 137.992188 C 83.828125 146.933594 96.621094 145.722656 96.980469 136.664062 C 97.730469 118.074219 111.980469 105.398438 126.210938 100.097656 C 136.816406 103.550781 149.03125 112.042969 152.753906 126.136719 C 157.105469 142.660156 148.855469 162.359375 128.882812 183.097656 C 99.039062 214.074219 98.855469 241.757812 101.398438 255.492188 C 103.628906 267.554688 109.507812 277.78125 117.894531 285.046875 C 117.800781 286.226562 117.660156 287.335938 117.660156 288.570312 C 117.660156 316.128906 141.328125 347.566406 172.882812 355.375 L 172.882812 366.015625 C 172.882812 370.152344 176.246094 373.515625 180.390625 373.515625 L 194.976562 373.515625 C 199.128906 373.515625 202.480469 370.152344 202.480469 366.015625 L 202.480469 355.375 C 234.046875 347.578125 257.714844 316.128906 257.714844 288.570312 C 257.714844 287.347656 257.585938 286.214844 257.480469 285.046875 C 265.867188 277.78125 271.734375 267.554688 273.964844 255.492188 C 276.507812 241.757812 276.324219 214.074219 246.46875 183.085938 C 226.496094 162.347656 218.246094 142.648438 222.597656 126.125 C 226.320312 112.03125 238.535156 103.539062 249.140625 100.085938 C 263.359375 105.386719 277.609375 118.0625 278.371094 136.652344 C 278.742188 145.710938 291.523438 146.933594 292.355469 137.980469 C 293.765625 122.753906 286.5625 109.789062 275.792969 100.175781 C 283.925781 101.886719 291.707031 104.855469 297.964844 109.675781 C 306.917969 116.546875 314.785156 105.699219 307.925781 99.761719 Z M 187.6875 339.765625 C 164.832031 339.765625 145.640625 321.347656 140.332031 302.285156 L 235.054688 302.261719 C 229.746094 321.339844 210.554688 339.765625 187.6875 339.765625 Z M 187.6875 339.765625 "/>
<path style=" stroke:none;fill-rule:nonzero;fill:rgb(0%,0%,0%);fill-opacity:1;" d="M 94.261719 179.214844 C 86.339844 179.214844 78.171875 177.726562 70.492188 174.746094 C 55.847656 169.039062 23.277344 147.988281 37.0625 76.042969 C 44.328125 38.085938 61.503906 20.640625 74.632812 12.691406 C 90.144531 3.277344 109.253906 1.289062 128.417969 6.996094 C 144.230469 11.734375 162.679688 25.125 162.679688 47.273438 C 162.679688 61 154.269531 71.210938 144.207031 76.894531 C 140.851562 78.804688 133.554688 78.941406 131.785156 72.75 C 130.015625 66.554688 135.046875 63.691406 138.113281 61.585938 C 142.425781 58.652344 146.507812 53.984375 146.507812 47.273438 C 146.507812 34.019531 134.769531 25.761719 123.78125 22.46875 C 109.066406 18.078125 94.585938 19.484375 83.03125 26.511719 C 68.222656 35.476562 57.835938 53.660156 52.96875 79.101562 C 41.46875 139.136719 65.507812 155.460938 76.378906 159.714844 C 88.1875 164.300781 102.40625 164.09375 111.761719 159.195312 C 118.03125 155.902344 122.058594 150.679688 123.722656 143.640625 C 125.007812 138.210938 124.683594 133.902344 123.503906 130.667969 C 122.265625 127.257812 117.082031 122.199219 121.664062 116.28125 C 126.242188 110.367188 131.53125 113.589844 134.226562 117.011719 C 139.523438 123.722656 142.644531 133.878906 139.453125 147.375 C 136.699219 158.984375 129.726562 168.019531 119.28125 173.496094 C 111.980469 177.296875 103.285156 179.214844 94.261719 179.214844 Z M 94.261719 179.214844 "/>
<path style=" stroke:none;fill-rule:nonzero;fill:rgb(0%,0%,0%);fill-opacity:1;" d="M 281.113281 179.214844 C 289.035156 179.214844 297.203125 177.726562 304.882812 174.746094 C 319.527344 169.039062 352.097656 147.988281 338.3125 76.042969 C 331.046875 38.085938 313.871094 20.640625 300.742188 12.691406 C 285.230469 3.277344 266.121094 1.289062 246.957031 6.996094 C 231.144531 11.734375 212.695312 25.125 212.695312 47.273438 C 212.695312 61 221.105469 71.210938 231.167969 76.894531 C 234.523438 78.804688 241.820312 78.941406 243.589844 72.75 C 245.359375 66.554688 240.328125 63.691406 237.261719 61.585938 C 232.949219 58.652344 228.867188 53.984375 228.867188 47.273438 C 228.867188 34.019531 240.605469 25.761719 251.59375 22.46875 C 266.308594 18.078125 280.789062 19.484375 292.34375 26.511719 C 307.152344 35.476562 317.539062 53.660156 322.40625 79.101562 C 333.90625 139.136719 309.867188 155.460938 298.996094 159.714844 C 287.1875 164.300781 272.96875 164.09375 263.613281 159.195312 C 257.34375 155.902344 253.316406 150.679688 251.652344 143.640625 C 250.367188 138.210938 250.691406 133.902344 251.871094 130.667969 C 253.109375 127.257812 258.292969 122.199219 253.710938 116.28125 C 249.128906 110.367188 243.84375 113.589844 241.148438 117.011719 C 235.851562 123.722656 232.730469 133.878906 235.921875 147.375 C 238.675781 158.984375 245.648438 168.019531 256.09375 173.496094 C 263.394531 177.296875 272.089844 179.214844 281.113281 179.214844 Z M 281.113281 179.214844 "/>
</g>
</svg>
